<?xml version="1.0" encoding="UTF-8" standalone="no"?>
<!DOCTYPE svg PUBLIC "-//W3C//DTD SVG 1.1//EN" "http://www.w3.org/Graphics/SVG/1.1/DTD/svg11.dtd">
<svg xmlns="http://www.w3.org/2000/svg" version="1.1" viewBox="0 0 300 300">
<path fill="#56372f" d="M 271.80,61.47 Q 275.19,61.76 277.52,63.81 Q 279.28,65.35 280.62,68.78 Q 283.09,75.10 282.75,80.75 Q 282.39,86.70 281.31,92.58 Q 280.91,94.73 281.69,96.77 Q 291.92,123.70 291.84,152.52 Q 291.81,162.59 290.24,172.42 Q 282.58,220.61 246.08,254.07 Q 243.39,256.54 240.67,258.99 Q 237.87,261.51 234.94,263.55 Q 224.52,270.81 213.56,277.27 Q 213.50,277.31 212.53,277.79 Q 210.74,278.70 210.75,280.61 A 1.46,1.46 -11.1 0 1 209.84,281.96 Q 202.54,284.96 194.93,286.64 Q 190.16,287.68 185.74,289.25 A 2.30,2.28 3.3 0 0 184.47,290.37 Q 181.87,295.58 177.21,296.25 Q 164.81,298.06 152.31,297.11 Q 150.83,296.99 149.93,296.24 Q 148.90,295.40 148.19,294.24 A 1.31,0.72 68.6 0 0 147.47,293.64 Q 146.32,293.42 145.90,295.69 A 1.92,1.91 -85.7 0 1 144.08,297.26 Q 138.18,297.44 132.17,297.32 Q 132.06,297.32 126.33,297.36 Q 120.70,297.40 116.50,296.00 Q 112.35,294.62 111.74,290.17 A 1.43,1.43 1.7 0 0 110.61,288.97 Q 99.41,286.74 88.74,282.27 Q 86.23,281.22 87.68,279.40 A 0.79,0.78 32.3 0 0 87.41,278.21 Q 63.46,266.21 45.01,247.63 Q 37.91,240.48 32.14,232.36 Q 5.23,194.50 6.23,147.49 Q 6.44,137.79 8.03,127.59 Q 10.41,112.30 15.19,98.44 Q 16.25,95.35 16.38,92.49 Q 16.43,91.39 15.68,86.56 Q 13.97,75.59 18.87,65.62 Q 19.91,63.49 21.31,62.46 Q 23.14,61.11 25.21,60.98 A 1.63,1.62 -1.7 0 0 26.74,59.36 Q 26.81,45.34 33.38,34.61 Q 37.13,28.49 44.20,27.03 A 1.24,1.22 11.2 0 0 44.97,26.52 Q 54.64,12.39 69.33,3.55 A 1.23,1.23 73.9 0 1 71.19,4.58 L 71.30,9.59 Q 71.32,10.42 72.02,9.98 Q 79.75,5.06 87.47,2.79 Q 88.84,2.39 89.56,2.51 Q 91.10,2.78 90.79,4.71 Q 90.53,6.38 89.45,7.68 Q 84.31,13.79 78.29,19.04 Q 72.64,23.98 68.08,29.87 Q 64.62,34.35 61.99,40.32 Q 59.53,45.92 57.61,51.66 Q 56.43,55.19 58.80,52.32 Q 61.85,48.64 65.46,45.58 Q 67.43,43.91 72.90,39.79 Q 88.48,28.06 105.06,22.81 Q 116.14,19.31 130.32,17.38 Q 140.96,15.93 150.24,16.08 Q 170.34,16.43 189.54,22.27 Q 199.22,25.21 207.94,29.98 Q 225.59,39.62 239.84,54.08 A 0.55,0.45 43.8 0 0 240.58,54.14 Q 241.00,53.65 240.76,52.75 Q 235.78,33.89 221.85,20.69 Q 221.83,20.68 216.16,15.81 Q 210.53,10.99 207.81,6.69 Q 206.01,3.83 208.17,2.77 Q 209.36,2.18 211.19,2.83 Q 218.83,5.56 225.04,9.19 Q 226.93,10.29 226.36,8.18 Q 225.41,4.61 227.59,4.24 Q 228.76,4.05 230.58,5.07 Q 244.34,12.78 252.32,26.51 A 1.18,1.12 -6.9 0 0 253.05,27.05 Q 257.02,28.01 260.24,30.29 Q 263.06,32.29 265.29,36.07 Q 271.98,47.40 271.34,60.95 A 0.50,0.50 3.6 0 0 271.80,61.47 ZM 71.01,121.61 Q 65.84,119.35 57.36,113.68 Q 31.17,96.16 27.45,64.68 A 0.52,0.52 77.8 0 0 26.77,64.24 Q 22.51,65.67 20.78,69.24 Q 19.59,71.69 19.17,76.37 Q 18.83,80.11 19.25,85.25 Q 19.99,94.25 22.86,101.56 Q 25.66,108.70 31.93,115.21 Q 42.83,126.52 58.44,132.56 Q 67.92,136.23 72.95,137.67 A 0.66,0.32 20.4 0 1 73.53,138.27 Q 73.36,138.50 72.48,138.42 Q 66.40,137.85 60.62,136.10 Q 54.80,134.33 49.29,131.94 Q 37.29,126.74 28.11,116.43 A 1.06,0.95 53.7 0 0 26.87,116.17 L 21.97,119.02 A 1.13,0.93 81.8 0 0 21.49,119.81 Q 20.75,125.79 23.03,131.03 Q 24.61,134.64 28.12,137.55 Q 31.56,140.41 35.31,141.94 Q 51.46,148.53 70.22,150.59 Q 71.44,150.72 73.22,151.16 Q 74.71,151.52 76.25,151.70 Q 76.72,151.75 76.25,151.77 Q 62.12,152.38 48.17,150.12 Q 45.46,149.68 43.91,150.43 Q 41.16,151.77 41.71,154.78 Q 42.04,156.57 43.57,158.26 Q 45.14,159.98 46.81,160.69 Q 56.44,164.75 68.50,164.76 Q 71.99,164.76 75.45,165.24 Q 75.95,165.31 75.46,165.46 Q 69.88,167.20 64.08,167.96 Q 59.35,168.58 55.30,171.07 Q 53.44,172.21 54.09,174.29 Q 54.87,176.78 57.56,177.94 Q 63.63,180.54 70.25,180.51 Q 77.89,180.48 85.54,180.26 Q 85.79,180.25 85.95,180.33 Q 86.26,180.48 86.21,180.69 A 0.75,0.36 -5.4 0 1 85.60,181.06 Q 79.41,182.06 73.26,183.32 Q 67.58,184.48 69.65,188.26 Q 70.73,190.24 73.24,191.23 Q 77.09,192.77 81.67,192.47 Q 84.41,192.29 83.28,194.80 Q 81.76,198.15 85.13,199.68 Q 86.40,200.25 87.69,200.81 A 0.77,0.77 17.6 0 0 88.75,200.26 Q 90.82,189.96 98.15,182.60 Q 98.48,182.26 98.01,182.30 L 92.23,182.75 Q 88.68,183.03 90.93,180.23 Q 92.63,178.12 95.92,175.66 Q 97.01,174.86 96.06,174.76 Q 95.79,174.74 95.46,174.85 Q 91.75,176.17 88.94,176.44 Q 87.35,176.59 87.63,175.53 A 1.11,0.94 -6.7 0 1 88.26,174.85 L 94.86,172.13 A 2.24,2.03 -12.2 0 0 96.25,170.19 L 96.25,157.85 A 1.60,1.59 15.0 0 0 95.45,156.47 Q 83.46,149.59 83.22,136.53 Q 83.11,130.50 84.10,127.01 Q 85.36,122.54 89.28,118.58 A 0.44,0.44 -56.3 0 0 89.14,117.86 Q 78.02,113.32 69.82,105.92 Q 55.21,92.74 53.15,73.01 Q 51.98,61.80 54.27,50.75 Q 56.78,38.63 64.39,28.90 Q 71.35,19.99 80.28,13.04 Q 83.10,10.85 85.26,7.99 Q 87.08,5.57 84.37,6.91 Q 75.28,11.40 67.05,16.94 Q 65.29,18.13 65.50,16.02 Q 65.84,12.48 67.69,9.43 Q 68.56,8.00 67.14,8.88 Q 55.50,16.06 49.04,27.90 Q 45.22,34.91 43.38,45.33 Q 41.77,54.43 41.51,63.71 A 0.44,0.26 -89.0 0 1 41.25,64.14 Q 41.07,64.13 40.98,63.75 Q 39.06,55.12 40.20,46.33 Q 41.05,39.84 42.47,33.31 Q 42.90,31.32 41.12,32.31 Q 37.77,34.16 35.77,37.47 Q 34.47,39.63 32.87,44.11 Q 30.84,49.82 30.75,55.75 Q 30.44,76.74 42.12,94.31 Q 53.40,111.27 71.33,120.95 Q 79.15,125.17 71.01,121.61 ZM 200.25,169.21 Q 199.38,168.15 198.46,169.00 Q 197.67,157.76 198.04,146.50 L 198.24,146.27 A 0.23,0.20 49.2 0 1 198.58,146.32 Q 199.05,147.02 199.71,146.00 Q 199.06,147.11 199.49,148.07 Q 199.73,148.58 199.94,148.03 Q 200.73,146.01 201.00,143.85 Q 201.02,143.69 201.29,142.84 Q 201.51,142.12 200.79,141.75 Q 201.32,140.73 202.21,140.00 Q 202.89,143.14 201.40,146.42 A 0.78,0.78 -62.0 0 0 201.70,147.41 Q 204.19,148.95 205.09,146.90 Q 208.47,139.23 207.73,131.06 Q 207.31,126.39 205.37,123.99 Q 202.82,120.86 198.04,120.50 L 194.25,114.04 Q 197.98,112.61 200.75,116.06 A 1.89,1.88 -31.5 0 0 202.99,116.59 Q 206.35,115.08 209.03,114.08 Q 218.43,110.58 225.48,103.48 Q 239.05,89.84 241.68,70.94 Q 242.34,66.26 242.31,65.57 Q 242.20,62.76 240.19,60.31 Q 221.98,38.16 196.20,28.00 Q 187.59,24.60 177.03,22.45 Q 145.28,15.97 115.25,23.50 Q 85.86,30.87 64.31,52.06 Q 60.05,56.25 57.39,61.60 Q 55.54,65.35 56.25,70.50 Q 60.72,102.95 90.99,115.69 A 1.26,1.25 -58.9 0 0 92.46,115.32 Q 94.98,112.18 97.58,113.72 A 0.58,0.54 34.0 0 0 98.31,113.61 Q 106.00,104.09 115.79,96.74 Q 123.31,91.11 133.50,89.00 Q 140.68,87.52 145.68,87.33 A 0.65,0.62 -8.4 0 1 146.33,87.79 Q 146.73,89.36 146.46,91.00 Q 145.54,91.50 144.75,90.96 Q 145.44,88.81 143.72,89.25 Q 142.63,89.53 142.23,89.56 Q 124.84,91.04 112.21,103.00 Q 111.47,103.49 111.04,104.25 L 109.25,104.96 Q 107.42,105.96 109.20,107.05 Q 109.87,107.46 110.46,108.00 Q 111.17,108.80 112.25,108.79 L 113.00,109.96 Q 112.50,110.53 111.79,110.75 L 107.86,107.83 A 1.07,0.96 38.5 0 0 106.49,107.91 L 100.21,115.00 Q 94.25,125.71 94.79,138.00 Q 93.60,140.53 96.25,141.46 Q 97.55,142.80 99.94,144.06 Q 104.35,146.39 104.54,141.75 Q 105.23,141.05 106.21,141.25 Q 105.65,143.22 107.50,142.79 Q 107.45,143.54 108.21,143.75 Q 105.84,144.27 106.07,146.42 Q 106.20,147.65 106.20,147.72 Q 106.32,153.19 106.42,158.67 Q 106.56,166.28 106.34,167.30 Q 105.29,172.11 100.00,174.25 Q 98.43,174.89 92.90,180.83 Q 92.53,181.22 93.06,181.11 L 111.75,177.21 Q 113.13,177.68 112.75,179.21 Q 99.28,179.80 93.94,192.44 Q 87.06,208.73 91.89,224.43 Q 93.95,231.12 97.67,235.16 Q 102.21,240.10 108.64,241.55 Q 117.22,243.47 125.36,239.10 Q 133.37,234.79 137.36,225.59 Q 139.69,220.21 144.77,217.33 Q 147.81,215.61 150.24,216.06 Q 152.55,216.49 152.67,218.84 Q 152.92,223.48 157.09,224.61 Q 160.64,225.57 164.08,224.36 Q 175.37,220.39 176.62,208.82 Q 176.64,208.58 177.12,205.21 Q 177.43,203.02 177.03,200.81 A 0.46,0.46 -12.0 0 0 176.46,200.44 Q 168.58,202.49 160.70,204.56 Q 145.84,208.46 131.67,214.39 Q 130.85,214.73 130.21,214.25 Q 130.01,213.79 130.25,213.29 Q 131.48,213.65 131.99,212.78 A 0.58,0.48 31.5 0 0 131.75,212.08 Q 130.78,211.45 131.25,210.44 A 0.31,0.28 39.5 0 1 131.76,210.42 L 132.91,211.89 A 0.86,0.81 -23.7 0 0 133.75,212.19 Q 134.64,212.01 134.30,211.39 Q 134.12,211.08 133.54,210.83 Q 131.51,209.99 131.54,207.75 Q 132.96,208.66 134.18,209.82 Q 134.61,210.22 135.05,210.41 Q 137.67,211.50 135.81,209.19 Q 134.81,207.94 132.04,207.00 Q 132.46,204.72 134.02,206.48 Q 135.58,208.25 137.71,209.25 L 138.08,209.72 A 0.89,0.56 -25.0 0 0 138.97,209.83 Q 150.20,205.87 161.75,202.96 Q 166.40,202.22 170.75,200.46 L 171.70,200.07 A 1.47,0.35 -17.9 0 0 172.53,199.57 Q 173.05,198.87 171.75,198.96 Q 174.10,198.45 176.46,198.00 Q 178.98,197.52 181.10,196.88 Q 193.44,193.16 205.65,189.03 Q 205.97,188.92 206.21,188.78 Q 207.39,188.07 206.07,188.01 Q 205.77,187.99 205.45,188.10 Q 202.25,189.15 198.69,190.65 Q 197.71,191.06 196.68,191.36 Q 190.97,193.03 186.17,194.53 Q 180.79,196.20 175.56,197.21 Q 162.24,199.78 149.00,202.75 Q 145.74,203.48 139.50,204.46 L 139.25,203.29 Q 147.16,202.05 154.97,200.33 Q 160.14,199.20 170.60,197.01 Q 188.32,193.30 205.20,186.63 Q 206.62,186.08 205.78,185.71 A 1.32,0.92 -38.0 0 0 204.86,185.76 Q 192.36,191.17 189.50,191.50 Q 186.16,191.89 183.02,192.96 Q 178.79,194.39 176.68,194.79 Q 160.11,197.89 141.82,202.08 A 3.50,3.47 -41.9 0 1 139.97,201.99 Q 138.90,201.64 139.50,201.04 Q 140.16,201.22 142.00,200.75 Q 157.24,196.86 176.21,193.27 A 1.07,1.07 -10.2 0 0 177.06,192.02 Q 176.97,191.55 176.13,192.02 Q 175.69,192.26 175.31,192.34 Q 158.18,195.93 141.06,199.56 Q 140.08,199.77 139.21,199.25 Q 139.17,198.67 139.71,198.75 Q 139.88,199.11 140.25,199.01 Q 157.70,194.46 175.40,190.99 Q 177.91,190.50 176.46,189.71 A 1.20,1.02 -38.5 0 0 175.54,189.68 Q 172.19,190.90 166.50,191.75 Q 158.94,192.87 140.25,198.29 Q 139.55,198.21 139.71,197.50 Q 147.86,194.15 154.44,192.69 Q 165.12,190.30 175.70,187.43 A 0.65,0.65 -27.8 0 0 176.03,186.38 Q 171.12,180.70 164.47,177.00 Q 161.83,175.53 159.62,175.73 Q 156.91,175.97 154.72,177.69 A 1.83,1.81 -11.5 0 0 154.11,178.60 Q 152.67,183.68 150.19,185.44 Q 148.34,186.75 143.00,187.96 L 143.25,186.29 Q 151.77,185.49 151.46,177.00 Q 151.37,176.48 151.75,176.21 Q 155.55,174.21 159.68,173.96 Q 162.36,173.81 165.00,175.32 Q 169.61,177.97 173.40,181.77 Q 173.59,181.97 173.78,182.00 Q 174.01,182.03 174.25,181.96 Q 175.12,182.44 175.54,181.75 L 178.43,186.80 A 0.70,0.64 -22.1 0 0 179.21,187.09 Q 190.40,183.83 201.42,181.10 Q 205.92,179.98 207.44,178.94 Q 216.33,172.83 226.71,169.87 Q 229.29,169.13 227.55,168.12 Q 227.07,167.84 226.26,167.68 Q 221.47,166.72 216.74,165.53 Q 215.69,165.26 216.13,164.94 A 2.40,2.37 29.4 0 1 217.74,164.50 Q 230.84,165.60 241.30,163.11 Q 246.45,161.89 247.69,161.42 Q 250.95,160.19 253.24,157.53 Q 254.70,155.83 254.61,153.95 Q 254.48,151.40 252.24,150.37 Q 250.64,149.63 247.20,150.19 Q 233.72,152.38 220.07,151.71 Q 219.55,151.69 220.07,151.61 Q 223.60,151.06 232.69,149.94 Q 246.30,148.26 260.93,142.08 Q 264.80,140.45 268.21,137.97 Q 277.11,131.51 276.95,121.38 Q 276.91,118.67 274.52,117.41 Q 270.47,115.27 268.22,117.76 Q 267.11,118.98 267.06,119.02 Q 248.86,135.80 224.05,138.63 Q 223.56,138.69 224.02,138.49 Q 231.87,135.14 236.19,133.69 Q 252.81,128.08 265.20,115.70 Q 274.59,106.31 277.25,94.50 Q 279.50,84.51 278.23,74.34 Q 277.84,71.18 276.36,68.35 Q 274.95,65.63 271.99,64.75 A 1.17,1.17 13.8 0 0 270.50,65.65 Q 268.92,73.85 265.94,81.75 Q 262.92,89.78 257.97,96.32 Q 245.06,113.37 225.02,122.24 Q 224.56,122.44 224.99,122.17 Q 235.57,115.46 238.69,112.69 Q 249.03,103.48 256.74,91.97 Q 263.07,82.53 265.55,71.64 Q 267.35,63.77 267.36,57.29 Q 267.37,49.94 264.86,42.84 Q 262.30,35.59 255.56,31.06 Q 254.97,30.66 255.16,31.35 Q 258.87,44.43 257.75,57.00 Q 257.36,61.40 256.05,64.00 Q 255.81,64.46 255.82,63.93 Q 255.87,54.96 254.53,46.12 Q 253.50,39.34 253.10,37.75 Q 252.11,33.88 249.94,29.81 Q 243.00,16.87 231.15,8.91 Q 229.79,8.00 230.49,9.48 Q 231.88,12.41 233.28,15.30 Q 233.54,15.83 233.41,16.24 Q 233.22,16.86 232.65,16.99 Q 232.17,17.10 231.43,16.68 Q 228.05,14.80 224.85,12.63 Q 219.39,8.94 213.05,7.20 Q 212.55,7.06 212.78,7.51 Q 214.41,10.82 217.00,12.75 Q 230.19,22.59 238.14,36.18 Q 242.52,43.68 244.10,51.56 Q 245.74,59.66 245.25,68.25 Q 243.99,90.52 228.08,105.58 Q 219.01,114.18 207.26,118.54 Q 205.41,119.22 206.81,120.37 Q 207.54,120.97 207.82,121.48 Q 210.65,126.52 211.02,132.11 Q 211.39,137.74 209.99,142.94 Q 207.92,150.61 200.93,155.08 A 3.01,2.75 -17.9 0 0 199.55,157.50 L 199.65,166.57 A 0.62,0.55 4.2 0 0 200.19,167.12 Q 203.80,167.62 207.00,169.32 A 0.53,0.49 29.4 0 1 207.22,170.02 Q 206.41,171.45 204.56,170.44 Q 203.87,170.06 200.25,169.21 ZM 108.27,243.98 Q 98.56,241.04 93.65,233.39 Q 85.86,221.24 87.87,205.82 A 1.83,1.82 13.7 0 0 86.68,203.87 Q 85.22,203.35 83.41,202.48 Q 81.50,201.57 80.72,200.29 Q 79.64,198.52 79.67,196.32 A 0.54,0.51 -88.3 0 0 79.19,195.78 Q 73.39,195.36 69.31,192.69 Q 64.82,189.73 65.28,183.81 A 0.51,0.51 -86.9 0 0 64.78,183.25 Q 57.73,183.11 53.25,178.54 Q 50.74,175.98 50.84,173.19 Q 50.97,169.70 54.77,167.74 Q 56.17,167.02 54.62,166.73 Q 48.35,165.55 42.83,162.16 Q 40.23,160.57 38.98,157.79 Q 36.69,152.68 41.03,148.89 A 0.62,0.61 33.9 0 0 40.82,147.85 Q 36.04,146.18 30.92,143.66 Q 20.07,138.30 17.77,126.98 Q 16.85,122.49 17.92,119.55 Q 19.29,115.76 23.44,113.75 A 0.91,0.90 -25.4 0 0 23.87,112.55 L 18.83,101.87 Q 18.37,100.89 18.03,101.92 Q 6.69,136.30 11.48,172.00 Q 17.02,213.33 45.45,243.55 Q 64.09,263.36 89.34,275.56 A 1.43,1.42 27.4 0 0 91.21,274.98 L 108.44,244.41 A 0.30,0.29 -67.5 0 0 108.27,243.98 ZM 183.31,213.69 Q 181.18,212.04 180.13,208.23 Q 180.00,207.78 179.92,208.24 Q 179.01,213.74 175.50,219.59 A 1.16,1.16 42.4 0 0 175.56,220.89 Q 181.23,228.55 185.06,237.09 Q 187.75,243.08 189.77,246.43 Q 195.87,256.56 201.99,266.68 Q 204.97,271.63 208.56,275.66 A 0.90,0.89 -34.9 0 0 209.66,275.85 Q 220.70,269.96 230.14,263.17 Q 251.14,248.08 265.76,226.74 Q 279.85,206.17 285.05,181.76 Q 293.68,141.26 279.26,102.08 Q 279.09,101.62 278.85,102.06 L 272.83,113.02 A 0.34,0.33 -70.2 0 0 273.05,113.52 Q 281.55,115.14 280.50,123.75 Q 279.41,132.76 272.75,138.78 Q 269.75,141.48 264.68,143.91 Q 260.46,145.94 255.75,147.50 A 0.82,0.81 56.7 0 0 255.47,148.88 Q 257.05,150.30 257.86,151.95 Q 258.68,153.61 258.16,155.63 Q 257.29,159.09 254.67,161.31 Q 253.29,162.47 249.42,164.02 Q 246.67,165.12 243.95,166.30 Q 243.50,166.50 243.94,166.74 Q 255.00,172.94 247.19,183.44 Q 246.70,184.09 245.68,185.99 A 1.00,0.99 -79.7 0 1 244.94,186.51 Q 230.21,188.72 222.75,190.25 Q 220.93,190.62 218.20,192.02 A 1.31,1.28 -50.5 0 1 217.27,192.12 L 215.55,191.68 A 0.58,0.57 -72.8 0 0 214.88,192.04 Q 212.75,197.72 207.56,210.06 Q 205.80,214.26 203.52,217.05 A 0.68,0.68 -58.1 0 1 202.72,217.24 Q 199.03,215.59 196.90,212.01 A 1.02,1.02 -42.6 0 0 195.19,211.94 Q 190.20,219.02 183.31,213.69 ZM 88.79,123.49 Q 86.92,126.77 86.42,130.40 Q 85.96,133.68 86.20,137.60 Q 86.60,144.40 90.95,149.52 Q 91.90,150.63 92.17,149.19 Q 92.90,145.30 92.70,141.64 Q 92.47,137.39 92.47,137.34 Q 92.49,130.14 94.15,122.57 A 1.32,1.32 -80.5 0 0 93.02,120.98 Q 90.39,120.67 88.79,123.49 ZM 96.31,154.07 A 0.32,0.32 -78.3 0 0 96.75,153.78 Q 96.79,151.82 96.63,149.74 Q 96.63,149.68 96.62,146.76 Q 96.61,144.15 94.97,142.25 Q 93.89,141.01 93.99,142.65 Q 94.28,147.15 94.31,151.59 Q 94.32,152.66 94.80,153.14 Q 95.34,153.66 96.31,154.07 ZM 98.29,153.75 L 98.28,170.14 A 1.28,1.26 -8.4 0 0 99.93,171.34 Q 104.06,170.11 104.74,166.73 Q 104.78,166.54 104.81,160.76 Q 104.84,156.37 104.46,152.00 L 104.37,146.94 A 0.57,0.51 1.2 0 0 103.82,146.43 Q 101.22,146.32 98.84,144.79 Q 97.95,144.23 97.99,145.26 L 98.29,153.75 ZM 200.43,149.26 A 0.80,0.68 -2.4 0 0 199.79,149.85 L 199.24,153.47 Q 199.00,155.07 199.93,153.70 Q 200.86,152.33 201.98,151.15 Q 202.82,150.27 202.81,149.78 Q 202.79,148.82 200.43,149.26 ZM 236.49,183.81 Q 236.53,184.82 236.05,185.67 Q 235.55,186.54 236.48,186.19 Q 239.56,185.03 242.47,184.57 Q 243.85,184.36 243.34,183.62 A 0.90,0.81 66.1 0 0 242.50,183.24 L 240.91,183.51 Q 240.15,183.64 239.95,183.58 Q 239.31,183.37 239.67,182.98 Q 240.08,182.54 240.66,182.35 Q 247.81,180.01 247.35,175.33 Q 246.97,171.39 243.01,169.32 Q 239.32,167.40 234.71,169.01 Q 226.26,171.96 217.69,174.77 A 0.69,0.68 -25.7 0 0 217.33,175.79 Q 219.65,179.28 219.75,183.76 Q 219.85,187.87 223.83,186.84 Q 227.45,185.90 232.46,183.99 Q 234.15,183.34 235.94,183.31 A 0.54,0.52 -1.6 0 1 236.49,183.81 ZM 214.07,179.10 Q 212.91,183.12 215.47,178.50 A 0.89,0.88 27.5 0 0 215.08,177.27 Q 214.17,176.84 214.17,178.25 Q 214.17,178.74 214.07,179.10 ZM 196.96,185.00 Q 198.32,186.35 198.25,184.54 Q 202.33,182.31 206.94,181.86 A 0.60,0.59 79.7 0 1 207.57,182.30 Q 208.35,185.00 209.06,187.73 Q 209.16,188.09 209.70,189.60 Q 210.70,192.36 207.46,191.00 Q 205.63,190.23 204.72,192.00 Q 200.83,199.60 198.06,207.33 A 2.06,1.69 -58.7 0 0 198.33,209.26 L 201.95,213.33 A 0.86,0.81 -54.7 0 0 203.32,213.05 L 217.23,182.15 A 1.50,1.25 -44.7 0 0 217.32,181.20 Q 216.68,179.09 215.33,181.57 Q 214.09,183.84 212.56,182.57 Q 211.93,182.05 211.88,181.20 Q 211.83,180.35 212.13,179.60 Q 212.77,177.95 211.33,178.98 Q 209.34,180.40 207.47,180.80 Q 205.50,181.21 205.43,181.23 Q 192.93,184.92 180.36,188.40 Q 179.98,188.51 179.67,188.68 Q 177.51,189.92 180.50,189.50 Q 185.67,188.78 196.96,185.00 ZM 205.8862,183.4529 A 3.09,0.53 -20.4 0 0 202.8053,184.0332 A 3.09,0.53 -20.4 0 0 200.0938,185.6071 A 3.09,0.53 -20.4 0 0 203.1747,185.0268 A 3.09,0.53 -20.4 0 0 205.8862,183.4529 ZM 232.7396,185.9066 A 2.37,1.04 -14.0 0 0 230.1884,185.4709 A 2.37,1.04 -14.0 0 0 228.1404,187.0534 A 2.37,1.04 -14.0 0 0 230.6916,187.4891 A 2.37,1.04 -14.0 0 0 232.7396,185.9066 ZM 218.17,187.62 Q 217.59,188.66 217.47,189.82 A 0.41,0.38 -1.4 0 0 217.94,190.24 Q 222.60,189.48 219.33,186.30 A 0.51,0.42 42.3 0 0 218.65,186.27 Q 218.49,186.46 218.44,186.70 Q 218.30,187.40 218.17,187.62 ZM 198.2714,186.8981 A 0.26 0.26 0.0 0 0 197.9592,186.7038 L 179.2979,191.0464 A 0.26 0.26 0.0 0 0 179.1035,191.3586 L 179.2486,191.9819 A 0.26 0.26 0.0 0 0 179.5608,192.1762 L 198.2221,187.8336 A 0.26 0.26 0.0 0 0 198.4165,187.5214 L 198.2714,186.8981 ZM 186.31,212.63 Q 189.13,214.23 191.24,212.58 Q 192.27,211.77 193.68,208.98 Q 197.62,201.13 201.59,192.73 Q 201.87,192.12 201.24,192.32 L 180.39,199.04 A 0.83,0.83 -19.6 0 0 179.87,200.13 L 183.57,209.55 Q 184.34,211.52 186.31,212.63 ZM 168.75,264.03 L 177.83,288.23 A 0.81,0.78 70.8 0 0 178.81,288.73 Q 188.71,285.60 198.89,283.26 Q 199.22,283.18 199.47,283.04 Q 200.84,282.32 199.00,282.25 Q 195.52,282.14 192.05,281.69 A 1.27,1.25 -2.3 0 1 190.99,280.72 Q 187.11,262.85 183.31,244.94 Q 181.04,234.20 173.05,223.16 A 0.53,0.52 55.2 0 0 172.34,223.02 Q 167.26,226.31 161.25,226.96 Q 154.79,227.66 151.89,222.72 Q 151.87,222.69 150.82,219.79 Q 149.64,216.51 145.69,218.69 Q 141.23,221.14 138.88,225.95 Q 136.76,230.27 136.74,230.30 Q 129.05,242.90 113.74,244.45 A 0.59,0.58 88.9 0 0 113.22,245.00 Q 112.12,261.49 109.37,277.78 Q 109.36,277.85 109.23,279.22 Q 108.98,281.79 106.23,282.12 Q 102.41,282.58 99.32,282.57 Q 97.49,282.56 99.22,283.16 Q 110.40,287.00 121.81,288.62 A 1.14,0.82 -4.6 0 1 122.61,289.10 Q 122.95,289.72 122.28,290.06 Q 121.91,290.25 121.19,290.24 Q 118.12,290.21 115.05,290.30 A 0.44,0.43 -5.6 0 0 114.63,290.81 Q 115.02,292.94 117.06,293.44 Q 127.74,296.05 140.35,295.42 Q 141.67,295.35 140.67,294.50 Q 136.75,291.12 132.00,290.93 Q 128.36,290.79 124.73,290.25 A 1.11,1.10 -79.9 0 1 123.82,288.93 Q 126.41,276.65 129.69,264.21 Q 129.74,264.03 129.71,263.79 Q 129.68,263.47 129.80,263.35 Q 130.27,262.86 130.12,263.72 L 125.84,287.50 A 0.45,0.45 6.8 0 0 126.26,288.03 Q 150.75,289.43 175.26,288.00 A 0.25,0.25 -8.7 0 0 175.49,287.69 Q 172.62,275.74 168.72,264.03 Q 168.41,263.10 168.75,264.03 ZM 92.26,280.57 Q 98.24,281.44 105.59,279.98 A 1.44,1.40 -2.6 0 0 106.75,278.75 L 109.97,249.09 Q 110.12,247.73 109.44,248.93 Q 105.03,256.74 100.89,264.69 Q 96.84,272.45 91.90,279.75 A 0.53,0.53 -68.7 0 0 92.26,280.57 ZM 193.85,279.98 L 205.95,280.94 Q 208.05,281.10 206.60,279.49 Q 204.64,277.31 203.21,275.02 Q 195.81,263.13 189.11,251.78 Q 188.08,250.03 188.43,252.04 L 193.27,279.40 A 0.72,0.63 86.1 0 0 193.85,279.98 ZM 180.17,290.19 A 3.03,2.99 56.9 0 0 177.87,289.69 Q 170.99,291.00 165.18,291.56 Q 162.86,291.79 161.18,292.95 Q 159.38,294.20 157.69,295.62 Q 157.31,295.94 157.81,295.90 Q 165.29,295.33 172.72,294.27 Q 176.19,293.77 179.45,292.47 Q 181.97,291.46 180.17,290.19 ZM 140.60,291.92 Q 144.40,296.36 145.35,291.31 A 0.45,0.45 -82.7 0 0 144.94,290.77 Q 142.68,290.63 140.70,291.50 A 0.27,0.27 -32.3 0 0 140.60,291.92 ZM 153.00,295.21 Q 153.83,295.44 154.50,295.04 Q 157.67,294.55 159.24,292.23 Q 159.87,291.29 158.75,291.26 L 150.24,290.99 A 0.59,0.59 78.7 0 0 149.69,291.82 Q 150.74,294.14 153.00,295.21 Z"/>
<path fill="#fefefd" d="M 71.01,121.61 Q 79.15,125.17 71.33,120.95 Q 53.40,111.27 42.12,94.31 Q 30.44,76.74 30.75,55.75 Q 30.84,49.82 32.87,44.11 Q 34.47,39.63 35.77,37.47 Q 37.77,34.16 41.12,32.31 Q 42.90,31.32 42.47,33.31 Q 41.05,39.84 40.20,46.33 Q 39.06,55.12 40.98,63.75 Q 41.07,64.13 41.25,64.14 A 0.44,0.26 -89.0 0 0 41.51,63.71 Q 41.77,54.43 43.38,45.33 Q 45.22,34.91 49.04,27.90 Q 55.50,16.06 67.14,8.88 Q 68.56,8.00 67.69,9.43 Q 65.84,12.48 65.50,16.02 Q 65.29,18.13 67.05,16.94 Q 75.28,11.40 84.37,6.91 Q 87.08,5.57 85.26,7.99 Q 83.10,10.85 80.28,13.04 Q 71.35,19.99 64.39,28.90 Q 56.78,38.63 54.27,50.75 Q 51.98,61.80 53.15,73.01 Q 55.21,92.74 69.82,105.92 Q 78.02,113.32 89.14,117.86 A 0.44,0.44 -56.3 0 1 89.28,118.58 Q 85.36,122.54 84.10,127.01 Q 83.11,130.50 83.22,136.53 Q 83.46,149.59 95.45,156.47 A 1.60,1.59 15.0 0 1 96.25,157.85 L 96.25,170.19 A 2.24,2.03 -12.2 0 1 94.86,172.13 L 88.26,174.85 A 1.11,0.94 -6.7 0 0 87.63,175.53 Q 87.35,176.59 88.94,176.44 Q 91.75,176.17 95.46,174.85 Q 95.79,174.74 96.06,174.76 Q 97.01,174.86 95.92,175.66 Q 92.63,178.12 90.93,180.23 Q 88.68,183.03 92.23,182.75 L 98.01,182.30 Q 98.48,182.26 98.15,182.60 Q 90.82,189.96 88.75,200.26 A 0.77,0.77 17.6 0 1 87.69,200.81 Q 86.40,200.25 85.13,199.68 Q 81.76,198.15 83.28,194.80 Q 84.41,192.29 81.67,192.47 Q 77.09,192.77 73.24,191.23 Q 70.73,190.24 69.65,188.26 Q 67.58,184.48 73.26,183.32 Q 79.41,182.06 85.60,181.06 A 0.75,0.36 -5.4 0 0 86.21,180.69 Q 86.26,180.48 85.95,180.33 Q 85.79,180.25 85.54,180.26 Q 77.89,180.48 70.25,180.51 Q 63.63,180.54 57.56,177.94 Q 54.87,176.78 54.09,174.29 Q 53.44,172.21 55.30,171.07 Q 59.35,168.58 64.08,167.96 Q 69.88,167.20 75.46,165.46 Q 75.95,165.31 75.45,165.24 Q 71.99,164.76 68.50,164.76 Q 56.44,164.75 46.81,160.69 Q 45.14,159.98 43.57,158.26 Q 42.04,156.57 41.71,154.78 Q 41.16,151.77 43.91,150.43 Q 45.46,149.68 48.17,150.12 Q 62.12,152.38 76.25,151.77 Q 76.72,151.75 76.25,151.70 Q 74.71,151.52 73.22,151.16 Q 71.44,150.72 70.22,150.59 Q 51.46,148.53 35.31,141.94 Q 31.56,140.41 28.12,137.55 Q 24.61,134.64 23.03,131.03 Q 20.75,125.79 21.49,119.81 A 1.13,0.93 81.8 0 1 21.97,119.02 L 26.87,116.17 A 1.06,0.95 53.7 0 1 28.11,116.43 Q 37.29,126.74 49.29,131.94 Q 54.80,134.33 60.62,136.10 Q 66.40,137.85 72.48,138.42 Q 73.36,138.50 73.53,138.27 A 0.66,0.32 20.4 0 0 72.95,137.67 Q 67.92,136.23 58.44,132.56 Q 42.83,126.52 31.93,115.21 Q 25.66,108.70 22.86,101.56 Q 19.99,94.25 19.25,85.25 Q 18.83,80.11 19.17,76.37 Q 19.59,71.69 20.78,69.24 Q 22.51,65.67 26.77,64.24 A 0.52,0.52 77.8 0 1 27.45,64.68 Q 31.17,96.16 57.36,113.68 Q 65.84,119.35 71.01,121.61 Z"/>
<path fill="#fefefd" d="M 175.54,181.75 Q 175.18,180.20 174.74,178.68 Q 174.31,177.20 175.37,178.14 Q 178.93,181.28 183.76,180.57 Q 194.40,179.02 205.04,177.39 Q 206.61,177.15 205.31,175.94 A 2.46,1.76 37.8 0 1 204.56,173.44 Q 205.88,170.93 202.94,170.88 Q 200.93,170.84 200.25,169.21 Q 203.87,170.06 204.56,170.44 Q 206.41,171.45 207.22,170.02 A 0.53,0.49 29.4 0 0 207.00,169.32 Q 203.80,167.62 200.19,167.12 A 0.62,0.55 4.2 0 1 199.65,166.57 L 199.55,157.50 A 3.01,2.75 -17.9 0 1 200.93,155.08 Q 207.92,150.61 209.99,142.94 Q 211.39,137.74 211.02,132.11 Q 210.65,126.52 207.82,121.48 Q 207.54,120.97 206.81,120.37 Q 205.41,119.22 207.26,118.54 Q 219.01,114.18 228.08,105.58 Q 243.99,90.52 245.25,68.25 Q 245.74,59.66 244.10,51.56 Q 242.52,43.68 238.14,36.18 Q 230.19,22.59 217.00,12.75 Q 214.41,10.82 212.78,7.51 Q 212.55,7.06 213.05,7.20 Q 219.39,8.94 224.85,12.63 Q 228.05,14.80 231.43,16.68 Q 232.17,17.10 232.65,16.99 Q 233.22,16.86 233.41,16.24 Q 233.54,15.83 233.28,15.30 Q 231.88,12.41 230.49,9.48 Q 229.79,8.00 231.15,8.91 Q 243.00,16.87 249.94,29.81 Q 252.11,33.88 253.10,37.75 Q 253.50,39.34 254.53,46.12 Q 255.87,54.96 255.82,63.93 Q 255.81,64.46 256.05,64.00 Q 257.36,61.40 257.75,57.00 Q 258.87,44.43 255.16,31.35 Q 254.97,30.66 255.56,31.06 Q 262.30,35.59 264.86,42.84 Q 267.37,49.94 267.36,57.29 Q 267.35,63.77 265.55,71.64 Q 263.07,82.53 256.74,91.97 Q 249.03,103.48 238.69,112.69 Q 235.57,115.46 224.99,122.17 Q 224.56,122.44 225.02,122.24 Q 245.06,113.37 257.97,96.32 Q 262.92,89.78 265.94,81.75 Q 268.92,73.85 270.50,65.65 A 1.17,1.17 13.8 0 1 271.99,64.75 Q 274.95,65.63 276.36,68.35 Q 277.84,71.18 278.23,74.34 Q 279.50,84.51 277.25,94.50 Q 274.59,106.31 265.20,115.70 Q 252.81,128.08 236.19,133.69 Q 231.87,135.14 224.02,138.49 Q 223.56,138.69 224.05,138.63 Q 248.86,135.80 267.06,119.02 Q 267.11,118.98 268.22,117.76 Q 270.47,115.27 274.52,117.41 Q 276.91,118.67 276.95,121.38 Q 277.11,131.51 268.21,137.97 Q 264.80,140.45 260.93,142.08 Q 246.30,148.26 232.69,149.94 Q 223.60,151.06 220.07,151.61 Q 219.55,151.69 220.07,151.71 Q 233.72,152.38 247.20,150.19 Q 250.64,149.63 252.24,150.37 Q 254.48,151.40 254.61,153.95 Q 254.70,155.83 253.24,157.53 Q 250.95,160.19 247.69,161.42 Q 246.45,161.89 241.30,163.11 Q 230.84,165.60 217.74,164.50 A 2.40,2.37 29.4 0 0 216.13,164.94 Q 215.69,165.26 216.74,165.53 Q 221.47,166.72 226.26,167.68 Q 227.07,167.84 227.55,168.12 Q 229.29,169.13 226.71,169.87 Q 216.33,172.83 207.44,178.94 Q 205.92,179.98 201.42,181.10 Q 190.40,183.83 179.21,187.09 A 0.70,0.64 -22.1 0 1 178.43,186.80 L 175.54,181.75 Z"/>
<path fill="#e6d39a" d="M 194.25,114.04 Q 191.35,110.18 188.30,106.45 Q 185.84,103.44 182.46,100.79 Q 179.24,98.26 176.05,95.71 Q 172.33,92.74 166.06,90.69 Q 156.63,87.60 148.68,87.44 A 0.55,0.47 0.1 0 0 148.12,87.92 L 148.17,90.75 A 1.43,0.54 81.7 0 1 147.97,91.67 Q 147.12,92.72 146.46,91.00 Q 146.73,89.36 146.33,87.79 A 0.65,0.62 -8.4 0 0 145.68,87.33 Q 140.68,87.52 133.50,89.00 Q 123.31,91.11 115.79,96.74 Q 106.00,104.09 98.31,113.61 A 0.58,0.54 34.0 0 1 97.58,113.72 Q 94.98,112.18 92.46,115.32 A 1.26,1.25 -58.9 0 1 90.99,115.69 Q 60.72,102.95 56.25,70.50 Q 55.54,65.35 57.39,61.60 Q 60.05,56.25 64.31,52.06 Q 85.86,30.87 115.25,23.50 Q 145.28,15.97 177.03,22.45 Q 187.59,24.60 196.20,28.00 Q 221.98,38.16 240.19,60.31 Q 242.20,62.76 242.31,65.57 Q 242.34,66.26 241.68,70.94 Q 239.05,89.84 225.48,103.48 Q 218.43,110.58 209.03,114.08 Q 206.35,115.08 202.99,116.59 A 1.89,1.88 -31.5 0 1 200.75,116.06 Q 197.98,112.61 194.25,114.04 ZM 99.32,67.96 Q 101.83,69.98 104.06,70.94 Q 117.92,76.90 133.75,77.68 Q 152.30,78.60 170.73,76.35 Q 180.23,75.20 189.26,72.02 Q 192.97,70.72 196.17,68.54 Q 199.69,66.14 200.91,62.76 Q 202.41,58.62 201.14,54.42 Q 200.03,50.77 196.46,48.09 Q 193.02,45.50 189.00,44.25 Q 176.03,40.23 161.51,39.32 Q 137.34,37.80 113.58,42.43 Q 107.45,43.63 101.84,46.37 Q 92.88,50.76 94.98,60.85 Q 95.89,65.22 99.32,67.96 Z"/>
<path fill="#402b32" d="M 99.32,67.96 Q 95.89,65.22 94.98,60.85 Q 92.88,50.76 101.84,46.37 Q 107.45,43.63 113.58,42.43 Q 137.34,37.80 161.51,39.32 Q 176.03,40.23 189.00,44.25 Q 193.02,45.50 196.46,48.09 Q 200.03,50.77 201.14,54.42 Q 202.41,58.62 200.91,62.76 Q 199.69,66.14 196.17,68.54 Q 192.97,70.72 189.26,72.02 Q 180.23,75.20 170.73,76.35 Q 152.30,78.60 133.75,77.68 Q 117.92,76.90 104.06,70.94 Q 101.83,69.98 99.32,67.96 ZM 197.62,52.74 Q 193.17,48.42 187.71,46.49 Q 181.19,44.19 178.25,43.75 Q 161.55,41.28 144.74,41.73 Q 131.05,42.09 124.78,42.86 Q 114.29,44.15 104.35,48.15 Q 93.32,52.60 98.84,63.62 Q 99.27,64.47 99.74,63.64 Q 103.64,56.70 110.69,54.56 Q 115.15,53.21 124.25,51.75 Q 156.58,46.56 186.24,55.05 Q 192.91,56.96 197.05,62.72 Q 197.72,63.66 198.15,62.58 Q 199.41,59.43 198.97,55.49 Q 198.79,53.87 197.62,52.74 ZM 175.32,54.93 Q 164.17,52.57 152.84,52.36 Q 144.76,52.21 136.16,52.80 Q 127.80,53.36 119.57,55.00 Q 112.38,56.44 110.47,57.13 Q 105.88,58.79 102.50,62.37 Q 100.44,64.54 102.89,66.28 Q 107.45,69.51 112.81,70.95 Q 123.89,73.94 135.26,74.61 Q 143.84,75.11 155.25,74.59 Q 165.28,74.13 175.19,72.46 Q 182.34,71.25 184.87,70.47 Q 189.64,69.00 193.82,66.06 Q 195.76,64.69 194.40,62.75 Q 192.73,60.39 189.94,59.30 Q 182.81,56.51 175.32,54.93 Z"/>
<path fill="#f5a975" d="M 197.62,52.74 Q 198.79,53.87 198.97,55.49 Q 199.41,59.43 198.15,62.58 Q 197.72,63.66 197.05,62.72 Q 192.91,56.96 186.24,55.05 Q 156.58,46.56 124.25,51.75 Q 115.15,53.21 110.69,54.56 Q 103.64,56.70 99.74,63.64 Q 99.27,64.47 98.84,63.62 Q 93.32,52.60 104.35,48.15 Q 114.29,44.15 124.78,42.86 Q 131.05,42.09 144.74,41.73 Q 161.55,41.28 178.25,43.75 Q 181.19,44.19 187.71,46.49 Q 193.17,48.42 197.62,52.74 Z"/>
<path fill="#e5d198" d="M 175.32,54.93 Q 182.81,56.51 189.94,59.30 Q 192.73,60.39 194.40,62.75 Q 195.76,64.69 193.82,66.06 Q 189.64,69.00 184.87,70.47 Q 182.34,71.25 175.19,72.46 Q 165.28,74.13 155.25,74.59 Q 143.84,75.11 135.26,74.61 Q 123.89,73.94 112.81,70.95 Q 107.45,69.51 102.89,66.28 Q 100.44,64.54 102.50,62.37 Q 105.88,58.79 110.47,57.13 Q 112.38,56.44 119.57,55.00 Q 127.80,53.36 136.16,52.80 Q 144.76,52.21 152.84,52.36 Q 164.17,52.57 175.32,54.93 Z"/>
<path fill="#44221c" d="M 194.25,114.04 L 198.04,120.50 Q 202.20,129.79 202.21,140.00 Q 201.32,140.73 200.79,141.75 L 199.71,146.00 Q 199.05,147.02 198.58,146.32 A 0.23,0.20 49.2 0 0 198.24,146.27 L 198.04,146.50 Q 197.91,145.60 198.16,144.72 Q 198.54,143.33 197.56,144.10 Q 196.52,144.92 195.50,145.79 Q 193.54,145.94 194.33,147.75 Q 194.76,148.75 195.21,149.75 Q 195.71,152.94 191.29,153.02 A 1.54,1.46 -1.1 0 0 189.78,154.51 L 190.00,165.99 A 2.32,1.96 22.5 0 0 190.82,167.58 Q 196.25,172.13 200.94,175.81 Q 202.15,176.76 203.54,176.22 A 0.42,0.40 60.6 0 0 203.70,175.59 Q 201.92,173.22 200.31,171.94 Q 198.74,170.69 198.46,169.00 Q 199.38,168.15 200.25,169.21 Q 200.93,170.84 202.94,170.88 Q 205.88,170.93 204.56,173.44 A 2.46,1.76 37.8 0 0 205.31,175.94 Q 206.61,177.15 205.04,177.39 Q 194.40,179.02 183.76,180.57 Q 178.93,181.28 175.37,178.14 Q 174.31,177.20 174.74,178.68 Q 175.18,180.20 175.54,181.75 Q 175.12,182.44 174.25,181.96 Q 172.10,176.42 168.22,170.89 A 1.38,1.37 64.5 0 0 166.74,170.36 Q 160.53,172.10 154.75,173.48 Q 152.41,174.04 151.75,176.21 Q 151.37,176.48 151.46,177.00 Q 150.24,177.50 149.40,178.45 Q 147.80,180.25 147.78,180.26 Q 143.83,183.50 142.70,177.94 Q 142.63,177.61 142.59,176.43 Q 142.54,174.64 140.99,175.54 A 0.92,0.86 76.0 0 0 140.56,176.32 Q 140.64,181.65 143.25,186.29 L 143.00,187.96 L 124.51,191.33 Q 122.80,191.64 124.40,192.27 Q 129.07,194.11 134.36,196.44 Q 134.47,196.49 135.93,197.32 Q 137.69,198.32 139.71,197.50 Q 139.55,198.21 140.25,198.29 L 139.71,198.75 Q 139.17,198.67 139.21,199.25 Q 137.07,199.22 138.54,201.00 Q 138.50,202.28 139.25,203.29 L 139.50,204.46 Q 138.86,205.51 139.42,206.37 A 0.77,0.65 -23.9 0 0 140.23,206.61 Q 155.79,201.96 171.75,198.96 Q 173.05,198.87 172.53,199.57 A 1.47,0.35 -17.9 0 1 171.70,200.07 L 170.75,200.46 L 161.00,202.46 Q 149.86,204.64 139.31,208.81 Q 138.73,209.69 138.29,208.75 Q 137.87,206.20 135.71,204.75 Q 135.95,204.22 136.50,204.21 Q 137.72,204.40 137.25,203.00 Q 136.23,199.96 134.28,198.22 Q 133.30,197.34 129.41,195.92 Q 124.76,194.23 120.79,191.25 Q 119.71,189.67 118.24,188.55 Q 117.05,187.65 114.86,187.32 Q 112.15,186.92 109.49,186.25 A 1.62,1.61 29.1 0 0 107.93,186.69 Q 103.69,191.11 101.26,196.73 A 0.43,0.39 -73.1 0 0 101.54,197.32 L 108.75,198.54 L 121.24,201.14 Q 123.41,201.59 123.69,203.91 Q 124.55,211.12 130.25,213.29 Q 130.01,213.79 130.21,214.25 Q 125.61,213.67 123.81,209.69 Q 122.68,207.17 121.56,203.04 A 0.75,0.72 -2.7 0 0 120.94,202.50 L 106.84,200.69 A 0.80,0.79 7.3 0 0 105.95,201.37 Q 104.95,209.03 107.48,216.70 Q 107.51,216.78 107.94,217.89 Q 108.93,220.39 106.17,219.70 A 0.95,0.88 87.1 0 1 105.53,219.08 Q 102.62,210.15 103.63,200.80 A 0.66,0.58 14.3 0 0 103.20,200.17 L 99.02,198.64 A 0.56,0.52 -71.4 0 1 98.71,197.96 Q 100.95,190.86 106.25,185.93 Q 107.80,184.49 111.71,182.22 Q 114.59,180.54 117.29,178.60 Q 117.64,178.35 117.21,178.42 L 112.75,179.21 Q 113.13,177.68 111.75,177.21 Q 107.75,171.63 108.25,164.50 Q 108.93,154.84 108.21,143.75 Q 107.45,143.54 107.50,142.79 L 107.85,142.75 A 0.58,0.50 -81.7 0 0 108.30,142.36 Q 109.90,137.77 106.21,141.25 Q 105.23,141.05 104.54,141.75 Q 100.44,142.26 96.50,141.12 A 0.20,0.16 9.5 0 0 96.25,141.26 L 96.25,141.46 Q 93.60,140.53 94.79,138.00 Q 99.62,141.43 105.04,139.00 Q 108.90,138.28 109.44,134.69 Q 109.59,133.66 110.19,133.40 Q 110.81,133.13 110.66,133.81 L 110.06,136.57 A 0.88,0.80 89.5 0 0 111.04,137.63 Q 117.91,135.64 119.33,129.16 Q 119.97,126.27 121.12,123.55 Q 121.49,122.65 121.69,123.43 A 1.18,0.72 -52.3 0 1 121.62,124.07 Q 121.08,125.45 121.01,126.76 Q 120.93,128.32 121.68,126.95 Q 122.74,125.01 123.61,123.01 Q 124.18,121.68 124.38,122.77 Q 124.41,122.92 124.26,123.57 L 123.57,126.45 A 0.41,0.34 -0.6 0 0 124.06,126.85 Q 130.92,125.64 137.26,122.70 Q 138.26,122.24 138.30,122.69 A 0.98,0.59 -22.2 0 1 137.75,123.43 Q 130.76,127.35 122.81,128.49 A 0.85,0.84 5.3 0 0 122.15,129.03 Q 119.50,136.19 111.71,139.03 A 1.84,1.83 82.5 0 0 110.51,140.60 Q 110.14,145.00 110.33,149.32 Q 110.50,153.18 111.80,155.82 Q 113.44,159.14 116.06,161.19 Q 131.58,173.27 152.24,171.36 Q 170.28,169.69 181.69,156.69 Q 183.92,154.14 183.83,150.37 Q 183.77,148.22 183.77,148.13 Q 183.90,141.50 183.50,138.75 Q 183.22,136.85 181.39,133.26 Q 181.24,132.98 181.24,132.70 Q 181.23,131.37 182.09,132.63 Q 183.67,134.94 184.65,137.46 Q 184.92,138.18 185.18,137.45 Q 186.27,134.31 186.17,131.29 Q 186.09,129.07 185.17,125.24 Q 182.29,113.25 171.33,108.03 Q 167.72,106.31 164.82,105.31 Q 161.43,104.15 157.84,104.00 Q 157.82,104.00 153.73,104.49 Q 151.26,104.78 148.34,103.77 Q 146.63,103.17 145.07,104.11 Q 142.91,105.40 138.40,103.48 Q 137.51,103.10 136.55,103.20 Q 126.95,104.13 119.24,108.64 Q 111.83,112.99 108.19,120.19 Q 104.44,127.60 104.71,136.50 Q 103.55,135.56 103.50,133.75 Q 103.23,124.50 107.21,116.75 Q 108.95,113.66 110.75,112.25 Q 111.74,111.48 111.79,110.75 Q 112.50,110.53 113.00,109.96 L 116.71,107.25 A 0.73,0.71 -48.7 0 0 116.65,106.04 Q 114.63,104.97 112.29,104.75 Q 111.87,104.03 111.04,104.25 Q 111.47,103.49 112.21,103.00 Q 115.68,103.75 118.59,105.71 A 0.93,0.89 50.1 0 0 119.46,105.81 Q 128.52,102.21 138.24,101.30 A 0.49,0.48 -6.3 0 0 138.68,100.76 Q 137.68,93.23 144.75,90.96 Q 145.54,91.50 146.46,91.00 Q 147.12,92.72 147.97,91.67 A 1.43,0.54 81.7 0 0 148.17,90.75 L 148.12,87.92 A 0.55,0.47 0.1 0 1 148.68,87.44 Q 156.63,87.60 166.06,90.69 Q 172.33,92.74 176.05,95.71 Q 179.24,98.26 182.46,100.79 Q 185.84,103.44 188.30,106.45 Q 191.35,110.18 194.25,114.04 ZM 155.44,94.56 Q 157.54,97.26 156.84,101.23 A 0.55,0.55 -81.2 0 0 157.30,101.86 Q 166.72,103.25 174.58,107.32 A 0.86,0.73 38.1 0 0 175.46,107.29 L 180.59,103.17 A 0.49,0.43 47.0 0 0 180.57,102.47 Q 168.54,91.17 152.00,89.57 Q 151.63,89.53 150.52,89.31 Q 148.41,88.89 149.56,91.00 A 1.25,1.17 -4.1 0 0 150.28,91.58 Q 154.00,92.71 155.44,94.56 ZM 153.40,101.93 Q 153.54,102.31 153.14,102.40 Q 152.89,102.46 152.53,102.29 Q 151.39,101.76 150.21,102.09 Q 149.69,102.23 150.18,102.52 Q 152.94,104.09 154.88,101.83 A 1.55,1.40 69.4 0 0 155.23,100.94 Q 155.71,94.26 149.44,93.06 Q 139.47,91.15 140.83,101.02 Q 141.22,103.87 143.68,102.39 Q 147.79,99.93 152.78,101.43 A 1.02,0.69 4.9 0 1 153.40,101.93 ZM 178.75,110.04 Q 190.07,121.77 187.09,138.02 A 0.69,0.69 19.6 0 0 187.44,138.75 Q 192.56,141.63 197.19,139.44 Q 199.60,138.30 199.46,135.66 Q 199.46,135.61 198.86,131.69 Q 198.19,127.32 195.56,121.69 Q 191.82,113.66 185.62,106.56 A 0.59,0.58 -54.0 0 0 184.64,106.72 Q 183.57,109.21 180.68,110.41 Q 179.71,110.81 179.21,110.00 Q 181.14,107.16 183.06,106.06 Q 184.87,105.03 182.93,103.62 A 0.64,0.63 -53.0 0 0 182.06,103.75 Q 180.03,106.33 176.93,108.07 A 0.40,0.37 -40.7 0 0 176.85,108.72 L 178.75,110.04 ZM 189.50,142.71 Q 191.72,144.78 194.59,143.37 Q 198.10,141.65 199.19,140.69 Q 200.20,139.79 199.44,139.89 Q 199.23,139.92 198.98,140.06 Q 194.65,142.68 189.50,141.79 Q 187.55,141.11 185.94,139.81 Q 183.81,138.10 185.06,140.44 Q 186.42,142.99 189.50,142.71 ZM 198.52,176.33 Q 194.90,173.18 191.39,170.88 Q 188.65,169.09 188.50,166.75 Q 188.06,159.96 188.67,144.81 A 1.07,0.97 -71.0 0 0 188.31,143.97 Q 187.33,143.18 186.07,143.08 A 0.46,0.45 -89.5 0 0 185.59,143.57 Q 185.83,148.46 185.56,153.34 Q 185.29,158.44 185.37,161.67 Q 185.47,165.83 185.50,169.99 A 1.24,1.19 68.4 0 1 185.15,170.85 Q 182.14,173.87 179.12,176.88 Q 178.67,177.33 178.62,177.75 Q 178.54,178.43 179.13,178.77 Q 179.55,179.02 180.41,178.93 Q 189.47,178.00 198.39,176.77 Q 198.93,176.69 198.52,176.33 ZM 193.06,146.56 Q 192.51,144.41 190.24,144.87 A 0.66,0.64 84.0 0 0 189.74,145.51 L 189.80,151.69 A 0.54,0.53 -88.9 0 0 190.31,152.23 Q 191.86,152.32 193.25,151.66 A 0.73,0.67 75.8 0 0 193.64,150.94 Q 193.24,147.28 193.06,146.56 ZM 178.22,175.54 Q 179.53,174.43 181.22,172.51 Q 181.28,172.44 182.78,171.01 Q 184.46,169.40 184.33,166.97 Q 184.25,165.61 184.25,165.53 Q 184.27,161.02 184.25,156.50 Q 184.25,156.01 183.96,156.42 Q 178.54,164.05 170.01,168.73 A 0.50,0.49 58.3 0 0 169.85,169.45 L 173.52,174.79 Q 175.58,177.78 178.22,175.54 ZM 139.32,173.42 Q 123.52,171.92 112.81,160.44 Q 111.76,159.31 110.95,157.46 A 0.71,0.36 63.9 0 0 110.28,156.95 Q 110.01,157.12 110.08,157.95 Q 110.41,162.23 109.96,166.50 Q 109.60,169.94 111.86,172.39 Q 113.79,174.47 115.79,176.08 Q 117.44,177.41 119.17,176.20 Q 122.28,174.02 125.82,173.89 Q 126.70,173.86 130.91,174.91 Q 135.12,175.96 139.30,174.34 A 0.70,0.48 -15.6 0 0 139.77,173.78 Q 139.74,173.46 139.32,173.42 ZM 149.32,173.80 Q 147.30,173.36 145.76,173.60 Q 142.57,174.09 145.85,174.77 Q 147.69,175.14 146.71,176.12 Q 146.47,176.35 145.69,176.69 Q 144.00,177.42 144.93,179.35 A 0.71,0.71 -33.8 0 0 146.05,179.57 Q 148.38,177.47 149.63,174.39 A 0.43,0.43 17.4 0 0 149.32,173.80 ZM 131.61,176.96 Q 128.57,176.30 125.49,175.82 A 1.59,1.57 35.5 0 0 124.56,175.97 Q 118.28,179.16 112.17,184.34 Q 111.22,185.14 112.47,185.23 Q 117.51,185.58 121.48,189.62 A 1.79,1.72 -27.4 0 0 123.06,190.09 L 140.20,186.77 A 0.48,0.47 -12.0 0 0 140.58,186.19 L 138.31,177.05 A 0.50,0.49 -15.4 0 0 137.68,176.70 Q 134.60,177.62 131.61,176.96 Z"/>
<path fill="#c4e0de" d="M 144.75,90.96 Q 137.68,93.23 138.68,100.76 A 0.49,0.48 -6.3 0 1 138.24,101.30 Q 128.52,102.21 119.46,105.81 A 0.93,0.89 50.1 0 1 118.59,105.71 Q 115.68,103.75 112.21,103.00 Q 124.84,91.04 142.23,89.56 Q 142.63,89.53 143.72,89.25 Q 145.44,88.81 144.75,90.96 Z"/>
<path fill="#bdeae8" d="M 155.44,94.56 Q 154.00,92.71 150.28,91.58 A 1.25,1.17 -4.1 0 1 149.56,91.00 Q 148.41,88.89 150.52,89.31 Q 151.63,89.53 152.00,89.57 Q 168.54,91.17 180.57,102.47 A 0.49,0.43 47.0 0 1 180.59,103.17 L 175.46,107.29 A 0.86,0.73 38.1 0 1 174.58,107.32 Q 166.72,103.25 157.30,101.86 A 0.55,0.55 -81.2 0 1 156.84,101.23 Q 157.54,97.26 155.44,94.56 Z"/>
<path fill="#cedce5" d="M 152.78,101.43 Q 147.79,99.93 143.68,102.39 Q 141.22,103.87 140.83,101.02 Q 139.47,91.15 149.44,93.06 Q 155.71,94.26 155.23,100.94 A 1.55,1.40 69.4 0 1 154.88,101.83 Q 152.94,104.09 150.18,102.52 Q 149.69,102.23 150.21,102.09 Q 151.39,101.76 152.53,102.29 Q 152.89,102.46 153.14,102.40 Q 153.54,102.31 153.40,101.93 A 1.02,0.69 4.9 0 0 152.78,101.43 Z"/>
<path fill="#e6d39a" d="M 108.27,243.98 A 0.30,0.29 -67.5 0 1 108.44,244.41 L 91.21,274.98 A 1.43,1.42 27.4 0 1 89.34,275.56 Q 64.09,263.36 45.45,243.55 Q 17.02,213.33 11.48,172.00 Q 6.69,136.30 18.03,101.92 Q 18.37,100.89 18.83,101.87 L 23.87,112.55 A 0.91,0.90 -25.4 0 1 23.44,113.75 Q 19.29,115.76 17.92,119.55 Q 16.85,122.49 17.77,126.98 Q 20.07,138.30 30.92,143.66 Q 36.04,146.18 40.82,147.85 A 0.62,0.61 33.9 0 1 41.03,148.89 Q 36.69,152.68 38.98,157.79 Q 40.23,160.57 42.83,162.16 Q 48.35,165.55 54.62,166.73 Q 56.17,167.02 54.77,167.74 Q 50.97,169.70 50.84,173.19 Q 50.74,175.98 53.25,178.54 Q 57.73,183.11 64.78,183.25 A 0.51,0.51 -86.9 0 1 65.28,183.81 Q 64.82,189.73 69.31,192.69 Q 73.39,195.36 79.19,195.78 A 0.54,0.51 -88.3 0 1 79.67,196.32 Q 79.64,198.52 80.72,200.29 Q 81.50,201.57 83.41,202.48 Q 85.22,203.35 86.68,203.87 A 1.83,1.82 13.7 0 1 87.87,205.82 Q 85.86,221.24 93.65,233.39 Q 98.56,241.04 108.27,243.98 ZM 85.69,250.31 Q 86.78,251.36 87.72,251.77 Q 88.25,252.00 87.83,251.58 Q 79.40,243.14 76.50,231.50 Q 75.70,228.28 76.46,220.13 A 0.89,0.64 -71.2 0 0 76.26,219.47 Q 75.86,219.12 75.75,219.75 Q 72.59,237.67 85.69,250.31 ZM 94.45,245.82 Q 96.36,247.38 95.05,245.28 Q 93.93,243.50 91.99,241.28 Q 87.21,235.83 84.41,229.14 Q 84.25,228.76 84.18,228.34 Q 83.12,222.17 83.07,228.29 Q 83.06,228.69 83.18,229.07 Q 86.25,239.15 94.45,245.82 Z"/>
<path fill="#e5d198" d="M 183.31,213.69 Q 190.20,219.02 195.19,211.94 A 1.02,1.02 -42.6 0 1 196.90,212.01 Q 199.03,215.59 202.72,217.24 A 0.68,0.68 -58.1 0 0 203.52,217.05 Q 205.80,214.26 207.56,210.06 Q 212.75,197.72 214.88,192.04 A 0.58,0.57 -72.8 0 1 215.55,191.68 L 217.27,192.12 A 1.31,1.28 -50.5 0 0 218.20,192.02 Q 220.93,190.62 222.75,190.25 Q 230.21,188.72 244.94,186.51 A 1.00,0.99 -79.7 0 0 245.68,185.99 Q 246.70,184.09 247.19,183.44 Q 255.00,172.94 243.94,166.74 Q 243.50,166.50 243.95,166.30 Q 246.67,165.12 249.42,164.02 Q 253.29,162.47 254.67,161.31 Q 257.29,159.09 258.16,155.63 Q 258.68,153.61 257.86,151.95 Q 257.05,150.30 255.47,148.88 A 0.82,0.81 56.7 0 1 255.75,147.50 Q 260.46,145.94 264.68,143.91 Q 269.75,141.48 272.75,138.78 Q 279.41,132.76 280.50,123.75 Q 281.55,115.14 273.05,113.52 A 0.34,0.33 -70.2 0 1 272.83,113.02 L 278.85,102.06 Q 279.09,101.62 279.26,102.08 Q 293.68,141.26 285.05,181.76 Q 279.85,206.17 265.76,226.74 Q 251.14,248.08 230.14,263.17 Q 220.70,269.96 209.66,275.85 A 0.90,0.89 -34.9 0 1 208.56,275.66 Q 204.97,271.63 201.99,266.68 Q 195.87,256.56 189.77,246.43 Q 187.75,243.08 185.06,237.09 Q 181.23,228.55 175.56,220.89 A 1.16,1.16 42.4 0 1 175.50,219.59 Q 179.01,213.74 179.92,208.24 Q 180.00,207.78 180.13,208.23 Q 181.18,212.04 183.31,213.69 ZM 220.44,227.94 Q 218.95,241.84 208.93,251.35 Q 208.55,251.71 209.02,251.51 Q 212.03,250.25 214.56,246.81 Q 223.65,234.50 220.81,220.06 A 0.67,0.62 -83.3 0 0 220.47,219.59 Q 219.88,219.28 220.10,219.87 Q 220.19,220.10 220.21,220.28 Q 220.67,225.78 220.44,227.94 ZM 211.42,225.43 Q 210.23,235.64 204.90,244.34 Q 204.66,244.73 204.54,245.05 Q 203.75,247.07 205.49,245.60 Q 205.80,245.34 206.08,244.99 Q 213.07,236.53 212.02,225.45 Q 212.00,225.23 211.92,225.07 Q 211.55,224.27 211.42,225.43 Z"/>
<path fill="#fdefd5" d="M 105.04,139.00 L 104.71,136.50 Q 104.44,127.60 108.19,120.19 Q 111.83,112.99 119.24,108.64 Q 126.95,104.13 136.55,103.20 Q 137.51,103.10 138.40,103.48 Q 142.91,105.40 145.07,104.11 Q 146.63,103.17 148.34,103.77 Q 151.26,104.78 153.73,104.49 Q 157.82,104.00 157.84,104.00 Q 161.43,104.15 164.82,105.31 Q 167.72,106.31 171.33,108.03 Q 182.29,113.25 185.17,125.24 Q 186.09,129.07 186.17,131.29 Q 186.27,134.31 185.18,137.45 Q 184.92,138.18 184.65,137.46 Q 183.67,134.94 182.09,132.63 Q 181.23,131.37 181.24,132.70 Q 181.24,132.98 181.39,133.26 Q 183.22,136.85 183.50,138.75 Q 183.90,141.50 183.77,148.13 Q 183.77,148.22 183.83,150.37 Q 183.92,154.14 181.69,156.69 Q 170.28,169.69 152.24,171.36 Q 131.58,173.27 116.06,161.19 Q 113.44,159.14 111.80,155.82 Q 110.50,153.18 110.33,149.32 Q 110.14,145.00 110.51,140.60 A 1.84,1.83 82.5 0 1 111.71,139.03 Q 119.50,136.19 122.15,129.03 A 0.85,0.84 5.3 0 1 122.81,128.49 Q 130.76,127.35 137.75,123.43 A 0.98,0.59 -22.2 0 0 138.30,122.69 Q 138.26,122.24 137.26,122.70 Q 130.92,125.64 124.06,126.85 A 0.41,0.34 -0.6 0 1 123.57,126.45 L 124.26,123.57 Q 124.41,122.92 124.38,122.77 Q 124.18,121.68 123.61,123.01 Q 122.74,125.01 121.68,126.95 Q 120.93,128.32 121.01,126.76 Q 121.08,125.45 121.62,124.07 A 1.18,0.72 -52.3 0 0 121.69,123.43 Q 121.49,122.65 121.12,123.55 Q 119.97,126.27 119.33,129.16 Q 117.91,135.64 111.04,137.63 A 0.88,0.80 89.5 0 1 110.06,136.57 L 110.66,133.81 Q 110.81,133.13 110.19,133.40 Q 109.59,133.66 109.44,134.69 Q 108.90,138.28 105.04,139.00 ZM 158.78,116.66 Q 161.78,121.03 165.64,124.66 A 0.50,0.44 47.3 0 1 165.66,125.37 L 163.25,127.21 Q 162.91,127.47 163.31,127.48 Q 164.76,127.52 166.71,126.56 Q 168.56,125.64 169.58,127.43 Q 172.65,132.83 177.60,135.09 Q 177.82,135.19 178.05,135.22 Q 179.28,135.37 178.32,134.68 Q 174.97,132.28 172.64,128.95 Q 170.41,125.78 170.00,125.34 Q 168.36,123.62 166.44,122.56 Q 162.16,120.22 160.51,115.98 Q 160.28,115.39 160.29,114.48 Q 160.32,111.82 158.49,113.74 Q 148.92,123.79 135.52,127.58 Q 133.05,128.28 135.43,128.48 Q 135.74,128.50 136.07,128.45 Q 149.18,126.29 158.16,116.62 A 0.40,0.39 -41.0 0 1 158.78,116.66 ZM 130.30,145.86 A 5.75 5.75 0.0 0 0 124.55,140.11 A 5.75 5.75 0.0 0 0 118.80,145.86 A 5.75 5.75 0.0 0 0 124.55,151.61 A 5.75 5.75 0.0 0 0 130.30,145.86 ZM 173.4535,141.8151 A 6.06,5.54 -42.0 0 0 165.2430,141.7530 A 6.06,5.54 -42.0 0 0 164.4465,149.9249 A 6.06,5.54 -42.0 0 0 172.6570,149.9870 A 6.06,5.54 -42.0 0 0 173.4535,141.8151 ZM 149.86,156.39 Q 146.37,157.87 143.03,155.99 Q 142.46,155.67 142.34,156.02 A 0.88,0.53 40.3 0 0 142.59,156.76 Q 145.82,160.42 150.25,157.47 Q 151.21,156.83 150.75,156.42 A 0.98,0.61 -30.1 0 0 149.86,156.39 Z"/>
<path fill="#d8f3f2" d="M 179.21,110.00 L 178.75,110.04 L 176.85,108.72 A 0.40,0.37 -40.7 0 1 176.93,108.07 Q 180.03,106.33 182.06,103.75 A 0.64,0.63 -53.0 0 1 182.93,103.62 Q 184.87,105.03 183.06,106.06 Q 181.14,107.16 179.21,110.00 Z"/>
<path fill="#56372f" d="M 111.04,104.25 Q 111.87,104.03 112.29,104.75 Q 112.74,106.79 112.25,108.79 Q 111.17,108.80 110.46,108.00 Q 110.59,106.18 109.25,104.96 L 111.04,104.25 Z"/>
<path fill="#d8f3f2" d="M 112.29,104.75 Q 114.63,104.97 116.65,106.04 A 0.73,0.71 -48.7 0 1 116.71,107.25 L 113.00,109.96 L 112.25,108.79 Q 112.74,106.79 112.29,104.75 Z"/>
<path fill="#c0b5b2" d="M 109.25,104.96 Q 110.59,106.18 110.46,108.00 Q 109.87,107.46 109.20,107.05 Q 107.42,105.96 109.25,104.96 Z"/>
<path fill="#abe2e5" d="M 178.75,110.04 L 179.21,110.00 Q 179.71,110.81 180.68,110.41 Q 183.57,109.21 184.64,106.72 A 0.59,0.58 -54.0 0 1 185.62,106.56 Q 191.82,113.66 195.56,121.69 Q 198.19,127.32 198.86,131.69 Q 199.46,135.61 199.46,135.66 Q 199.60,138.30 197.19,139.44 Q 192.56,141.63 187.44,138.75 A 0.69,0.69 19.6 0 1 187.09,138.02 Q 190.07,121.77 178.75,110.04 Z"/>
<path fill="#d8f3f2" d="M 111.79,110.75 Q 111.74,111.48 110.75,112.25 Q 108.95,113.66 107.21,116.75 L 100.21,115.00 L 106.49,107.91 A 1.07,0.96 38.5 0 1 107.86,107.83 L 111.79,110.75 Z"/>
<path fill="#44221c" d="M 158.16,116.62 Q 149.18,126.29 136.07,128.45 Q 135.74,128.50 135.43,128.48 Q 133.05,128.28 135.52,127.58 Q 148.92,123.79 158.49,113.74 Q 160.32,111.82 160.29,114.48 Q 160.28,115.39 160.51,115.98 Q 162.16,120.22 166.44,122.56 Q 168.36,123.62 170.00,125.34 Q 170.41,125.78 172.64,128.95 Q 174.97,132.28 178.32,134.68 Q 179.28,135.37 178.05,135.22 Q 177.82,135.19 177.60,135.09 Q 172.65,132.83 169.58,127.43 Q 168.56,125.64 166.71,126.56 Q 164.76,127.52 163.31,127.48 Q 162.91,127.47 163.25,127.21 L 165.66,125.37 A 0.50,0.44 47.3 0 0 165.64,124.66 Q 161.78,121.03 158.78,116.66 A 0.40,0.39 -41.0 0 0 158.16,116.62 Z"/>
<path fill="#bdeae8" d="M 100.21,115.00 L 107.21,116.75 Q 103.23,124.50 103.50,133.75 Q 103.55,135.56 104.71,136.50 L 105.04,139.00 Q 99.62,141.43 94.79,138.00 Q 94.25,125.71 100.21,115.00 Z"/>
<path fill="#c0e1e7" d="M 198.04,120.50 Q 202.82,120.86 205.37,123.99 Q 207.31,126.39 207.73,131.06 Q 208.47,139.23 205.09,146.90 Q 204.19,148.95 201.70,147.41 A 0.78,0.78 -62.0 0 1 201.40,146.42 Q 202.89,143.14 202.21,140.00 Q 202.20,129.79 198.04,120.50 Z"/>
<path fill="#bcdcdb" d="M 88.79,123.49 Q 90.39,120.67 93.02,120.98 A 1.32,1.32 -80.5 0 1 94.15,122.57 Q 92.49,130.14 92.47,137.34 Q 92.47,137.39 92.70,141.64 Q 92.90,145.30 92.17,149.19 Q 91.90,150.63 90.95,149.52 Q 86.60,144.40 86.20,137.60 Q 85.96,133.68 86.42,130.40 Q 86.92,126.77 88.79,123.49 Z"/>
<path fill="#cdd7cf" d="M 189.50,141.79 L 189.50,142.71 Q 186.42,142.99 185.06,140.44 Q 183.81,138.10 185.94,139.81 Q 187.55,141.11 189.50,141.79 Z"/>
<path fill="#c0b5b2" d="M 107.50,142.79 Q 105.65,143.22 106.21,141.25 Q 109.90,137.77 108.30,142.36 A 0.58,0.50 -81.7 0 1 107.85,142.75 L 107.50,142.79 Z"/>
<path fill="#cedce5" d="M 189.50,142.71 L 189.50,141.79 Q 194.65,142.68 198.98,140.06 Q 199.23,139.92 199.44,139.89 Q 200.20,139.79 199.19,140.69 Q 198.10,141.65 194.59,143.37 Q 191.72,144.78 189.50,142.71 Z"/>
<path fill="#402b32" d="M 130.30,145.86 A 5.75 5.75 0.0 0 1 124.55,151.61 A 5.75 5.75 0.0 0 1 118.80,145.86 A 5.75 5.75 0.0 0 1 124.55,140.11 A 5.75 5.75 0.0 0 1 130.30,145.86 ZM 125.35,142.36 A 0.95,0.95 34.8 0 0 124.11,142.58 Q 121.72,145.62 124.07,145.41 Q 125.06,145.33 125.75,144.70 Q 127.12,143.45 125.35,142.36 Z"/>
<path fill="#402b32" d="M 173.4535,141.8151 A 6.06,5.54 -42.0 0 1 172.6570,149.9870 A 6.06,5.54 -42.0 0 1 164.4465,149.9249 A 6.06,5.54 -42.0 0 1 165.2430,141.7530 A 6.06,5.54 -42.0 0 1 173.4535,141.8151 ZM 171.06,148.56 Q 173.01,147.62 171.50,144.45 Q 170.56,142.46 168.75,143.00 L 165.21,144.07 A 0.92,0.83 89.6 0 0 164.62,144.73 Q 163.89,147.91 166.82,148.46 Q 166.92,148.48 168.49,148.91 Q 169.68,149.23 171.06,148.56 Z"/>
<path fill="#bbd3d1" d="M 104.54,141.75 Q 104.35,146.39 99.94,144.06 Q 97.55,142.80 96.25,141.46 L 96.25,141.26 A 0.20,0.16 9.5 0 1 96.50,141.12 Q 100.44,142.26 104.54,141.75 Z"/>
<path fill="#c4e0de" d="M 96.31,154.07 Q 95.34,153.66 94.80,153.14 Q 94.32,152.66 94.31,151.59 Q 94.28,147.15 93.99,142.65 Q 93.89,141.01 94.97,142.25 Q 96.61,144.15 96.62,146.76 Q 96.63,149.68 96.63,149.74 Q 96.79,151.82 96.75,153.78 A 0.32,0.32 -78.3 0 1 96.31,154.07 Z"/>
<path fill="#c0b5b2" d="M 200.79,141.75 Q 201.51,142.12 201.29,142.84 Q 201.02,143.69 201.00,143.85 Q 200.73,146.01 199.94,148.03 Q 199.73,148.58 199.49,148.07 Q 199.06,147.11 199.71,146.00 L 200.79,141.75 Z"/>
<path fill="#56372f" d="M 125.35,142.36 Q 127.12,143.45 125.75,144.70 Q 125.06,145.33 124.07,145.41 Q 121.72,145.62 124.11,142.58 A 0.95,0.95 34.8 0 1 125.35,142.36 Z"/>
<path fill="#56372f" d="M 171.06,148.56 Q 169.68,149.23 168.49,148.91 Q 166.92,148.48 166.82,148.46 Q 163.89,147.91 164.62,144.73 A 0.92,0.83 89.6 0 1 165.21,144.07 L 168.75,143.00 Q 170.56,142.46 171.50,144.45 Q 173.01,147.62 171.06,148.56 Z"/>
<path fill="#e0c19b" d="M 198.52,176.33 Q 198.93,176.69 198.39,176.77 Q 189.47,178.00 180.41,178.93 Q 179.55,179.02 179.13,178.77 Q 178.54,178.43 178.62,177.75 Q 178.67,177.33 179.12,176.88 Q 182.14,173.87 185.15,170.85 A 1.24,1.19 68.4 0 0 185.50,169.99 Q 185.47,165.83 185.37,161.67 Q 185.29,158.44 185.56,153.34 Q 185.83,148.46 185.59,143.57 A 0.46,0.45 -89.5 0 1 186.07,143.08 Q 187.33,143.18 188.31,143.97 A 1.07,0.97 -71.0 0 1 188.67,144.81 Q 188.06,159.96 188.50,166.75 Q 188.65,169.09 191.39,170.88 Q 194.90,173.18 198.52,176.33 Z"/>
<path fill="#f0d29d" d="M 108.21,143.75 Q 108.93,154.84 108.25,164.50 Q 107.75,171.63 111.75,177.21 L 93.06,181.11 Q 92.53,181.22 92.90,180.83 Q 98.43,174.89 100.00,174.25 Q 105.29,172.11 106.34,167.30 Q 106.56,166.28 106.42,158.67 Q 106.32,153.19 106.20,147.72 Q 106.20,147.65 106.07,146.42 Q 105.84,144.27 108.21,143.75 Z"/>
<path fill="#bcdcdb" d="M 198.04,146.50 Q 197.67,157.76 198.46,169.00 Q 198.74,170.69 200.31,171.94 Q 201.92,173.22 203.70,175.59 A 0.42,0.40 60.6 0 1 203.54,176.22 Q 202.15,176.76 200.94,175.81 Q 196.25,172.13 190.82,167.58 A 2.32,1.96 22.5 0 1 190.00,165.99 L 189.78,154.51 A 1.54,1.46 -1.1 0 1 191.29,153.02 Q 195.71,152.94 195.21,149.75 Q 196.01,147.78 195.50,145.79 Q 196.52,144.92 197.56,144.10 Q 198.54,143.33 198.16,144.72 Q 197.91,145.60 198.04,146.50 Z"/>
<path fill="#c0b5b2" d="M 104.46,152.00 L 100.74,153.38 A 1.09,0.71 45.7 0 1 99.86,153.18 Q 98.64,152.32 98.29,153.75 L 97.99,145.26 Q 97.95,144.23 98.84,144.79 Q 101.22,146.32 103.82,146.43 A 0.57,0.51 1.2 0 1 104.37,146.94 L 104.46,152.00 Z"/>
<path fill="#bbd3d1" d="M 193.06,146.56 Q 193.24,147.28 193.64,150.94 A 0.73,0.67 75.8 0 1 193.25,151.66 Q 191.86,152.32 190.31,152.23 A 0.54,0.53 -88.9 0 1 189.80,151.69 L 189.74,145.51 A 0.66,0.64 84.0 0 1 190.24,144.87 Q 192.51,144.41 193.06,146.56 Z"/>
<path fill="#c0b5b2" d="M 195.50,145.79 Q 196.01,147.78 195.21,149.75 Q 194.76,148.75 194.33,147.75 Q 193.54,145.94 195.50,145.79 Z"/>
<path fill="#c0b5b2" d="M 200.43,149.26 Q 202.79,148.82 202.81,149.78 Q 202.82,150.27 201.98,151.15 Q 200.86,152.33 199.93,153.70 Q 199.00,155.07 199.24,153.47 L 199.79,149.85 A 0.80,0.68 -2.4 0 1 200.43,149.26 Z"/>
<path fill="#cdd7cf" d="M 104.46,152.00 Q 104.84,156.37 104.81,160.76 Q 104.78,166.54 104.74,166.73 Q 104.06,170.11 99.93,171.34 A 1.28,1.26 -8.4 0 1 98.28,170.14 L 98.29,153.75 Q 98.64,152.32 99.86,153.18 A 1.09,0.71 45.7 0 0 100.74,153.38 L 104.46,152.00 Z"/>
<path fill="#44221c" d="M 150.75,156.42 Q 151.21,156.83 150.25,157.47 Q 145.82,160.42 142.59,156.76 A 0.88,0.53 40.3 0 1 142.34,156.02 Q 142.46,155.67 143.03,155.99 Q 146.37,157.87 149.86,156.39 A 0.98,0.61 -30.1 0 1 150.75,156.42 Z"/>
<path fill="#c0e1e7" d="M 178.22,175.54 Q 175.58,177.78 173.52,174.79 L 169.85,169.45 A 0.50,0.49 58.3 0 1 170.01,168.73 Q 178.54,164.05 183.96,156.42 Q 184.25,156.01 184.25,156.50 Q 184.27,161.02 184.25,165.53 Q 184.25,165.61 184.33,166.97 Q 184.46,169.40 182.78,171.01 Q 181.28,172.44 181.22,172.51 Q 179.53,174.43 178.22,175.54 Z"/>
<path fill="#bbd3d1" d="M 139.32,173.42 Q 139.74,173.46 139.77,173.78 A 0.70,0.48 -15.6 0 1 139.30,174.34 Q 135.12,175.96 130.91,174.91 Q 126.70,173.86 125.82,173.89 Q 122.28,174.02 119.17,176.20 Q 117.44,177.41 115.79,176.08 Q 113.79,174.47 111.86,172.39 Q 109.60,169.94 109.96,166.50 Q 110.41,162.23 110.08,157.95 Q 110.01,157.12 110.28,156.95 A 0.71,0.36 63.9 0 1 110.95,157.46 Q 111.76,159.31 112.81,160.44 Q 123.52,171.92 139.32,173.42 Z"/>
<path fill="#fefefd" d="M 235.94,183.31 Q 234.15,183.34 232.46,183.99 Q 227.45,185.90 223.83,186.84 Q 219.85,187.87 219.75,183.76 Q 219.65,179.28 217.33,175.79 A 0.69,0.68 -25.7 0 1 217.69,174.77 Q 226.26,171.96 234.71,169.01 Q 239.32,167.40 243.01,169.32 Q 246.97,171.39 247.35,175.33 Q 247.81,180.01 240.66,182.35 Q 240.08,182.54 239.67,182.98 Q 239.31,183.37 239.95,183.58 Q 240.15,183.64 240.91,183.51 L 242.50,183.24 A 0.90,0.81 66.1 0 1 243.34,183.62 Q 243.85,184.36 242.47,184.57 Q 239.56,185.03 236.48,186.19 Q 235.55,186.54 236.05,185.67 Q 236.53,184.82 236.49,183.81 A 0.54,0.52 -1.6 0 0 235.94,183.31 ZM 240.7401,175.4859 A 2.17,1.83 -11.0 0 0 238.2608,174.1036 A 2.17,1.83 -11.0 0 0 236.4799,176.3141 A 2.17,1.83 -11.0 0 0 238.9592,177.6964 A 2.17,1.83 -11.0 0 0 240.7401,175.4859 ZM 234.2594,177.6423 A 2.90,1.62 -4.9 0 0 231.2316,176.2759 A 2.90,1.62 -4.9 0 0 228.4806,178.1377 A 2.90,1.62 -4.9 0 0 231.5084,179.5041 A 2.90,1.62 -4.9 0 0 234.2594,177.6423 ZM 225.9685,178.4982 A 2.14,1.67 -31.3 0 0 223.2724,178.1831 A 2.14,1.67 -31.3 0 0 222.3115,180.7218 A 2.14,1.67 -31.3 0 0 225.0076,181.0369 A 2.14,1.67 -31.3 0 0 225.9685,178.4982 Z"/>
<path fill="#d8f3f2" d="M 174.25,181.96 Q 174.01,182.03 173.78,182.00 Q 173.59,181.97 173.40,181.77 Q 169.61,177.97 165.00,175.32 Q 162.36,173.81 159.68,173.96 Q 155.55,174.21 151.75,176.21 Q 152.41,174.04 154.75,173.48 Q 160.53,172.10 166.74,170.36 A 1.38,1.37 64.5 0 1 168.22,170.89 Q 172.10,176.42 174.25,181.96 Z"/>
<path fill="#fefefd" d="M 149.32,173.80 A 0.43,0.43 17.4 0 1 149.63,174.39 Q 148.38,177.47 146.05,179.57 A 0.71,0.71 -33.8 0 1 144.93,179.35 Q 144.00,177.42 145.69,176.69 Q 146.47,176.35 146.71,176.12 Q 147.69,175.14 145.85,174.77 Q 142.57,174.09 145.76,173.60 Q 147.30,173.36 149.32,173.80 Z"/>
<ellipse fill="#44221c" cx="0.00" cy="0.00" transform="translate(238.61,175.90) rotate(-11.0)" rx="2.17" ry="1.83"/>
<path fill="#fefefd" d="M 151.46,177.00 Q 151.77,185.49 143.25,186.29 Q 140.64,181.65 140.56,176.32 A 0.92,0.86 76.0 0 1 140.99,175.54 Q 142.54,174.64 142.59,176.43 Q 142.63,177.61 142.70,177.94 Q 143.83,183.50 147.78,180.26 Q 147.80,180.25 149.40,178.45 Q 150.24,177.50 151.46,177.00 Z"/>
<path fill="#fefefd" d="M 131.61,176.96 Q 134.60,177.62 137.68,176.70 A 0.50,0.49 -15.4 0 1 138.31,177.05 L 140.58,186.19 A 0.48,0.47 -12.0 0 1 140.20,186.77 L 123.06,190.09 A 1.79,1.72 -27.4 0 1 121.48,189.62 Q 117.51,185.58 112.47,185.23 Q 111.22,185.14 112.17,184.34 Q 118.28,179.16 124.56,175.97 A 1.59,1.57 35.5 0 1 125.49,175.82 Q 128.57,176.30 131.61,176.96 Z"/>
<path fill="#fefefd" d="M 139.71,197.50 Q 137.69,198.32 135.93,197.32 Q 134.47,196.49 134.36,196.44 Q 129.07,194.11 124.40,192.27 Q 122.80,191.64 124.51,191.33 L 143.00,187.96 Q 148.34,186.75 150.19,185.44 Q 152.67,183.68 154.11,178.60 A 1.83,1.81 -11.5 0 1 154.72,177.69 Q 156.91,175.97 159.62,175.73 Q 161.83,175.53 164.47,177.00 Q 171.12,180.70 176.03,186.38 A 0.65,0.65 -27.8 0 1 175.70,187.43 Q 165.12,190.30 154.44,192.69 Q 147.86,194.15 139.71,197.50 Z"/>
<path fill="#56372f" d="M 234.2594,177.6423 A 2.90,1.62 -4.9 0 1 231.5084,179.5041 A 2.90,1.62 -4.9 0 1 228.4806,178.1377 A 2.90,1.62 -4.9 0 1 231.2316,176.2759 A 2.90,1.62 -4.9 0 1 234.2594,177.6423 ZM 231.31,177.65 Q 229.34,178.78 231.54,178.28 A 0.91,0.82 5.5 0 0 232.14,177.84 Q 232.62,176.91 231.31,177.65 Z"/>
<path fill="#c0b5b2" d="M 214.17,178.25 Q 214.17,176.84 215.08,177.27 A 0.89,0.88 27.5 0 1 215.47,178.50 Q 212.91,183.12 214.07,179.10 Q 214.17,178.74 214.17,178.25 Z"/>
<path fill="#c0b5b2" d="M 231.31,177.65 Q 232.62,176.91 232.14,177.84 A 0.91,0.82 5.5 0 1 231.54,178.28 Q 229.34,178.78 231.31,177.65 Z"/>
<ellipse fill="#44221c" cx="0.00" cy="0.00" transform="translate(224.14,179.61) rotate(-31.3)" rx="2.14" ry="1.67"/>
<path fill="#fefefd" d="M 130.21,214.25 Q 130.85,214.73 131.67,214.39 Q 145.84,208.46 160.70,204.56 Q 168.58,202.49 176.46,200.44 A 0.46,0.46 -12.0 0 1 177.03,200.81 Q 177.43,203.02 177.12,205.21 Q 176.64,208.58 176.62,208.82 Q 175.37,220.39 164.08,224.36 Q 160.64,225.57 157.09,224.61 Q 152.92,223.48 152.67,218.84 Q 152.55,216.49 150.24,216.06 Q 147.81,215.61 144.77,217.33 Q 139.69,220.21 137.36,225.59 Q 133.37,234.79 125.36,239.10 Q 117.22,243.47 108.64,241.55 Q 102.21,240.10 97.67,235.16 Q 93.95,231.12 91.89,224.43 Q 87.06,208.73 93.94,192.44 Q 99.28,179.80 112.75,179.21 L 117.21,178.42 Q 117.64,178.35 117.29,178.60 Q 114.59,180.54 111.71,182.22 Q 107.80,184.49 106.25,185.93 Q 100.95,190.86 98.71,197.96 A 0.56,0.52 -71.4 0 0 99.02,198.64 L 103.20,200.17 A 0.66,0.58 14.3 0 1 103.63,200.80 Q 102.62,210.15 105.53,219.08 A 0.95,0.88 87.1 0 0 106.17,219.70 Q 108.93,220.39 107.94,217.89 Q 107.51,216.78 107.48,216.70 Q 104.95,209.03 105.95,201.37 A 0.80,0.79 7.3 0 1 106.84,200.69 L 120.94,202.50 A 0.75,0.72 -2.7 0 1 121.56,203.04 Q 122.68,207.17 123.81,209.69 Q 125.61,213.67 130.21,214.25 ZM 120.30,216.45 Q 120.20,214.99 119.36,213.82 Q 119.06,213.40 118.61,213.30 Q 117.49,213.05 117.92,214.28 Q 120.20,220.82 117.21,214.98 Q 117.11,214.78 117.04,214.38 Q 116.96,213.88 116.55,213.80 A 0.49,0.40 -86.7 0 0 116.07,214.32 Q 116.19,217.30 118.15,219.59 Q 119.37,221.01 120.75,225.00 Q 122.10,228.92 125.99,225.99 A 1.40,1.39 -28.4 0 0 126.47,224.41 L 121.98,211.41 A 1.19,0.71 80.7 0 0 121.37,210.69 Q 120.75,210.50 120.75,211.75 Q 120.75,213.59 120.93,214.61 Q 121.00,215.04 121.44,215.64 Q 122.31,216.84 120.81,216.94 A 0.53,0.48 85.9 0 1 120.30,216.45 ZM 114.1182,218.7997 A 2.30,0.66 78.0 0 0 114.2856,216.4128 A 2.30,0.66 78.0 0 0 113.1618,214.3003 A 2.30,0.66 78.0 0 0 112.9944,216.6872 A 2.30,0.66 78.0 0 0 114.1182,218.7997 Z"/>
<path fill="#fdfaf3" d="M 198.25,184.54 Q 197.33,184.26 196.96,185.00 Q 185.67,188.78 180.50,189.50 Q 177.51,189.92 179.67,188.68 Q 179.98,188.51 180.36,188.40 Q 192.93,184.92 205.43,181.23 Q 205.50,181.21 207.47,180.80 Q 209.34,180.40 211.33,178.98 Q 212.77,177.95 212.13,179.60 Q 211.83,180.35 211.88,181.20 Q 211.93,182.05 212.56,182.57 Q 214.09,183.84 215.33,181.57 Q 216.68,179.09 217.32,181.20 A 1.50,1.25 -44.7 0 1 217.23,182.15 L 203.32,213.05 A 0.86,0.81 -54.7 0 1 201.95,213.33 L 198.33,209.26 A 2.06,1.69 -58.7 0 1 198.06,207.33 Q 200.83,199.60 204.72,192.00 Q 205.63,190.23 207.46,191.00 Q 210.70,192.36 209.70,189.60 Q 209.16,188.09 209.06,187.73 Q 208.35,185.00 207.57,182.30 A 0.60,0.59 79.7 0 0 206.94,181.86 Q 202.33,182.31 198.25,184.54 Z"/>
<ellipse fill="#cdd7cf" cx="0.00" cy="0.00" transform="translate(202.99,184.53) rotate(-20.4)" rx="3.09" ry="0.53"/>
<path fill="#c0b5b2" d="M 198.25,184.54 Q 198.32,186.35 196.96,185.00 Q 197.33,184.26 198.25,184.54 Z"/>
<ellipse fill="#fefefd" cx="0.00" cy="0.00" transform="translate(230.44,186.48) rotate(-14.0)" rx="2.37" ry="1.04"/>
<path fill="#cdd7cf" d="M 139.25,203.29 Q 138.50,202.28 138.54,201.00 L 139.50,201.04 Q 138.90,201.64 139.97,201.99 A 3.50,3.47 -41.9 0 0 141.82,202.08 Q 160.11,197.89 176.68,194.79 Q 178.79,194.39 183.02,192.96 Q 186.16,191.89 189.50,191.50 Q 192.36,191.17 204.86,185.76 A 1.32,0.92 -38.0 0 1 205.78,185.71 Q 206.62,186.08 205.20,186.63 Q 188.32,193.30 170.60,197.01 Q 160.14,199.20 154.97,200.33 Q 147.16,202.05 139.25,203.29 Z"/>
<path fill="#fefefd" d="M 218.44,186.70 Q 218.49,186.46 218.65,186.27 A 0.51,0.42 42.3 0 1 219.33,186.30 Q 222.60,189.48 217.94,190.24 A 0.41,0.38 -1.4 0 1 217.47,189.82 Q 217.59,188.66 218.17,187.62 Q 218.30,187.40 218.44,186.70 Z"/>
<path fill="#fdfaf3" d="M 120.79,191.25 Q 120.58,192.53 119.50,192.75 Q 116.03,193.46 113.40,194.59 Q 110.61,195.79 110.58,195.81 Q 109.21,196.66 108.75,198.54 L 101.54,197.32 A 0.43,0.39 -73.1 0 1 101.26,196.73 Q 103.69,191.11 107.93,186.69 A 1.62,1.61 29.1 0 1 109.49,186.25 Q 112.15,186.92 114.86,187.32 Q 117.05,187.65 118.24,188.55 Q 119.71,189.67 120.79,191.25 Z"/>
<rect fill="#cdd7cf" x="-9.84" y="-0.58" transform="translate(188.76,189.44) rotate(-13.1)" width="19.68" height="1.16" rx="0.26"/>
<path fill="#c0b5b2" d="M 171.75,198.96 Q 155.79,201.96 140.23,206.61 A 0.77,0.65 -23.9 0 1 139.42,206.37 Q 138.86,205.51 139.50,204.46 Q 145.74,203.48 149.00,202.75 Q 162.24,199.78 175.56,197.21 Q 180.79,196.20 186.17,194.53 Q 190.97,193.03 196.68,191.36 Q 197.71,191.06 198.69,190.65 Q 202.25,189.15 205.45,188.10 Q 205.77,187.99 206.07,188.01 Q 207.39,188.07 206.21,188.78 Q 205.97,188.92 205.65,189.03 Q 193.44,193.16 181.10,196.88 Q 178.98,197.52 176.46,198.00 Q 174.10,198.45 171.75,198.96 Z"/>
<path fill="#d8f3f2" d="M 139.71,198.75 L 140.25,198.29 Q 158.94,192.87 166.50,191.75 Q 172.19,190.90 175.54,189.68 A 1.20,1.02 -38.5 0 1 176.46,189.71 Q 177.91,190.50 175.40,190.99 Q 157.70,194.46 140.25,199.01 Q 139.88,199.11 139.71,198.75 Z"/>
<path fill="#fee9cc" d="M 120.79,191.25 Q 124.76,194.23 129.41,195.92 Q 133.30,197.34 134.28,198.22 Q 136.23,199.96 137.25,203.00 Q 137.72,204.40 136.50,204.21 Q 135.38,203.28 135.62,201.73 Q 135.83,200.32 135.07,200.86 A 1.21,1.05 78.3 0 0 134.61,201.68 Q 134.42,203.48 135.71,204.75 Q 137.87,206.20 138.29,208.75 L 137.71,209.25 Q 135.58,208.25 134.02,206.48 Q 132.46,204.72 132.04,207.00 L 131.54,207.75 Q 131.51,209.99 133.54,210.83 Q 134.12,211.08 134.30,211.39 Q 134.64,212.01 133.75,212.19 A 0.86,0.81 -23.7 0 1 132.91,211.89 L 131.76,210.42 A 0.31,0.28 39.5 0 0 131.25,210.44 Q 130.78,211.45 131.75,212.08 A 0.58,0.48 31.5 0 1 131.99,212.78 Q 131.48,213.65 130.25,213.29 Q 124.55,211.12 123.69,203.91 Q 123.41,201.59 121.24,201.14 L 108.75,198.54 Q 109.21,196.66 110.58,195.81 Q 110.61,195.79 113.40,194.59 Q 116.03,193.46 119.50,192.75 Q 120.58,192.53 120.79,191.25 Z"/>
<path fill="#d8f3f2" d="M 139.50,201.04 L 138.54,201.00 Q 137.07,199.22 139.21,199.25 Q 140.08,199.77 141.06,199.56 Q 158.18,195.93 175.31,192.34 Q 175.69,192.26 176.13,192.02 Q 176.97,191.55 177.06,192.02 A 1.07,1.07 -13.8 0 1 176.21,193.27 Q 157.24,196.86 142.00,200.75 Q 140.16,201.22 139.50,201.04 Z"/>
<path fill="#fefefd" d="M 186.31,212.63 Q 184.34,211.52 183.57,209.55 L 179.87,200.13 A 0.83,0.83 -19.6 0 1 180.39,199.04 L 201.24,192.32 Q 201.87,192.12 201.59,192.73 Q 197.62,201.13 193.68,208.98 Q 192.27,211.77 191.24,212.58 Q 189.13,214.23 186.31,212.63 Z"/>
<path fill="#c0b5b2" d="M 170.75,200.46 Q 166.40,202.22 161.75,202.96 Q 161.71,202.30 161.00,202.46 L 170.75,200.46 Z"/>
<path fill="#56372f" d="M 136.50,204.21 Q 135.95,204.22 135.71,204.75 Q 134.42,203.48 134.61,201.68 A 1.21,1.05 78.3 0 1 135.07,200.86 Q 135.83,200.32 135.62,201.73 Q 135.38,203.28 136.50,204.21 Z"/>
<path fill="#cdd7cf" d="M 161.00,202.46 Q 161.71,202.30 161.75,202.96 Q 150.20,205.87 138.97,209.83 A 0.89,0.56 -25.0 0 1 138.08,209.72 L 137.71,209.25 L 138.29,208.75 Q 138.73,209.69 139.31,208.81 Q 149.86,204.64 161.00,202.46 Z"/>
<path fill="#e0c19b" d="M 132.04,207.00 Q 134.81,207.94 135.81,209.19 Q 137.67,211.50 135.05,210.41 Q 134.61,210.22 134.18,209.82 Q 132.96,208.66 131.54,207.75 L 132.04,207.00 Z"/>
<path fill="#44221c" d="M 120.81,216.94 Q 122.31,216.84 121.44,215.64 Q 121.00,215.04 120.93,214.61 Q 120.75,213.59 120.75,211.75 Q 120.75,210.50 121.37,210.69 A 1.19,0.71 80.7 0 1 121.98,211.41 L 126.47,224.41 A 1.40,1.39 -28.4 0 1 125.99,225.99 Q 122.10,228.92 120.75,225.00 Q 119.37,221.01 118.15,219.59 Q 116.19,217.30 116.07,214.32 A 0.49,0.40 -86.7 0 1 116.55,213.80 Q 116.96,213.88 117.04,214.38 Q 117.11,214.78 117.21,214.98 Q 120.20,220.82 117.92,214.28 Q 117.49,213.05 118.61,213.30 Q 119.06,213.40 119.36,213.82 Q 120.20,214.99 120.30,216.45 A 0.53,0.48 85.9 0 0 120.81,216.94 ZM 122.58,219.78 Q 123.52,219.15 122.71,218.38 A 0.80,0.72 -34.9 0 0 121.86,218.27 Q 118.73,219.71 121.46,220.01 Q 122.13,220.09 122.58,219.78 ZM 121.44,221.80 Q 122.28,222.71 122.99,222.47 Q 123.71,222.23 123.65,221.37 Q 123.57,220.27 121.56,221.20 A 0.38,0.38 56.2 0 0 121.44,221.80 ZM 123.08,225.28 Q 122.45,225.55 123.05,225.87 Q 124.74,226.78 124.69,224.75 Q 124.63,222.63 122.92,222.99 Q 122.22,223.13 122.81,223.53 Q 124.52,224.69 123.08,225.28 Z"/>
<ellipse fill="#402b32" cx="0.00" cy="0.00" transform="translate(113.64,216.55) rotate(78.0)" rx="2.30" ry="0.66"/>
<path fill="#fdfaf3" d="M 121.46,220.01 Q 118.73,219.71 121.86,218.27 A 0.80,0.72 -34.9 0 1 122.71,218.38 Q 123.52,219.15 122.58,219.78 Q 122.13,220.09 121.46,220.01 Z"/>
<path fill="#fefefd" d="M 168.72,264.03 Q 172.62,275.74 175.49,287.69 A 0.25,0.25 -8.7 0 1 175.26,288.00 Q 150.75,289.43 126.26,288.03 A 0.45,0.45 6.8 0 1 125.84,287.50 L 130.12,263.72 Q 130.27,262.86 129.80,263.35 Q 129.68,263.47 129.71,263.79 Q 129.74,264.03 129.69,264.21 Q 126.41,276.65 123.82,288.93 A 1.11,1.10 -79.9 0 0 124.73,290.25 Q 128.36,290.79 132.00,290.93 Q 136.75,291.12 140.67,294.50 Q 141.67,295.35 140.35,295.42 Q 127.74,296.05 117.06,293.44 Q 115.02,292.94 114.63,290.81 A 0.44,0.43 -5.6 0 1 115.05,290.30 Q 118.12,290.21 121.19,290.24 Q 121.91,290.25 122.28,290.06 Q 122.95,289.72 122.61,289.10 A 1.14,0.82 -4.6 0 0 121.81,288.62 Q 110.40,287.00 99.22,283.16 Q 97.49,282.56 99.32,282.57 Q 102.41,282.58 106.23,282.12 Q 108.98,281.79 109.23,279.22 Q 109.36,277.85 109.37,277.78 Q 112.12,261.49 113.22,245.00 A 0.59,0.58 88.9 0 1 113.74,244.45 Q 129.05,242.90 136.74,230.30 Q 136.76,230.27 138.88,225.95 Q 141.23,221.14 145.69,218.69 Q 149.64,216.51 150.82,219.79 Q 151.87,222.69 151.89,222.72 Q 154.79,227.66 161.25,226.96 Q 167.26,226.31 172.34,223.02 A 0.53,0.52 55.2 0 1 173.05,223.16 Q 181.04,234.20 183.31,244.94 Q 187.11,262.85 190.99,280.72 A 1.27,1.25 -2.3 0 0 192.05,281.69 Q 195.52,282.14 199.00,282.25 Q 200.84,282.32 199.47,283.04 Q 199.22,283.18 198.89,283.26 Q 188.71,285.60 178.81,288.73 A 0.81,0.78 70.8 0 1 177.83,288.23 L 168.75,264.03 Q 168.41,263.10 168.72,264.03 Z"/>
<path fill="#44221c" d="M 85.69,250.31 Q 72.59,237.67 75.75,219.75 Q 75.86,219.12 76.26,219.47 A 0.89,0.64 -71.2 0 1 76.46,220.13 Q 75.70,228.28 76.50,231.50 Q 79.40,243.14 87.83,251.58 Q 88.25,252.00 87.72,251.77 Q 86.78,251.36 85.69,250.31 Z"/>
<path fill="#44221c" d="M 220.44,227.94 Q 220.67,225.78 220.21,220.28 Q 220.19,220.10 220.10,219.87 Q 219.88,219.28 220.47,219.59 A 0.67,0.62 -83.3 0 1 220.81,220.06 Q 223.65,234.50 214.56,246.81 Q 212.03,250.25 209.02,251.51 Q 208.55,251.71 208.93,251.35 Q 218.95,241.84 220.44,227.94 Z"/>
<path fill="#d8f3f2" d="M 121.44,221.80 A 0.38,0.38 56.3 0 1 121.56,221.20 Q 123.57,220.27 123.65,221.37 Q 123.71,222.23 122.99,222.47 Q 122.28,222.71 121.44,221.80 Z"/>
<path fill="#cdd7cf" d="M 123.08,225.28 Q 124.52,224.69 122.81,223.53 Q 122.22,223.13 122.92,222.99 Q 124.63,222.63 124.69,224.75 Q 124.74,226.78 123.05,225.87 Q 122.45,225.55 123.08,225.28 Z"/>
<path fill="#44221c" d="M 211.42,225.43 Q 211.55,224.27 211.92,225.07 Q 212.00,225.23 212.02,225.45 Q 213.07,236.53 206.08,244.99 Q 205.80,245.34 205.49,245.60 Q 203.75,247.07 204.54,245.05 Q 204.66,244.73 204.90,244.34 Q 210.23,235.64 211.42,225.43 Z"/>
<path fill="#44221c" d="M 94.45,245.82 Q 86.25,239.15 83.18,229.07 Q 83.06,228.69 83.07,228.29 Q 83.12,222.17 84.18,228.34 Q 84.25,228.76 84.41,229.14 Q 87.21,235.83 91.99,241.28 Q 93.93,243.50 95.05,245.28 Q 96.36,247.38 94.45,245.82 Z"/>
<path fill="#fefefd" d="M 92.26,280.57 A 0.53,0.53 -68.7 0 1 91.90,279.75 Q 96.84,272.45 100.89,264.69 Q 105.03,256.74 109.44,248.93 Q 110.12,247.73 109.97,249.09 L 106.75,278.75 A 1.44,1.40 -2.6 0 1 105.59,279.98 Q 98.24,281.44 92.26,280.57 Z"/>
<path fill="#fefefd" d="M 193.85,279.98 A 0.72,0.63 86.1 0 1 193.27,279.40 L 188.43,252.04 Q 188.08,250.03 189.11,251.78 Q 195.81,263.13 203.21,275.02 Q 204.64,277.31 206.60,279.49 Q 208.05,281.10 205.95,280.94 L 193.85,279.98 Z"/>
<path fill="#fefefd" d="M 180.17,290.19 Q 181.97,291.46 179.45,292.47 Q 176.19,293.77 172.72,294.27 Q 165.29,295.33 157.81,295.90 Q 157.31,295.94 157.69,295.62 Q 159.38,294.20 161.18,292.95 Q 162.86,291.79 165.18,291.56 Q 170.99,291.00 177.87,289.69 A 3.03,2.99 56.9 0 1 180.17,290.19 Z"/>
<path fill="#fefefd" d="M 140.60,291.92 A 0.27,0.27 -32.3 0 1 140.70,291.50 Q 142.68,290.63 144.94,290.77 A 0.45,0.45 -82.7 0 1 145.35,291.31 Q 144.40,296.36 140.60,291.92 Z"/>
<path fill="#fefefd" d="M 154.50,295.04 Q 155.95,289.17 153.00,295.21 Q 150.74,294.14 149.69,291.82 A 0.59,0.59 78.7 0 1 150.24,290.99 L 158.75,291.26 Q 159.87,291.29 159.24,292.23 Q 157.67,294.55 154.50,295.04 Z"/>
<path fill="#c0b5b2" d="M 154.50,295.04 Q 153.83,295.44 153.00,295.21 Q 155.95,289.17 154.50,295.04 Z"/>
</svg>
