<?xml version="1.0" encoding="UTF-8" standalone="no"?>
<!DOCTYPE svg PUBLIC "-//W3C//DTD SVG 1.1//EN" "http://www.w3.org/Graphics/SVG/1.1/DTD/svg11.dtd">
<svg xmlns="http://www.w3.org/2000/svg" version="1.1" viewBox="0 0 300 300">
<path fill="#2f2518" d="M 174.75,37.46 Q 176.29,37.07 176.50,35.71 Q 176.78,33.93 176.81,33.83 Q 179.73,25.87 187.56,22.81 Q 194.35,20.16 202.31,19.83 A 0.58,0.52 -1.1 0 0 202.87,19.31 L 202.87,12.18 A 0.58,0.52 1.7 0 0 202.32,11.66 Q 184.54,10.73 168.13,17.56 Q 162.20,20.02 156.94,24.94 Q 152.28,29.29 150.41,34.84 Q 148.59,40.24 149.84,46.25 Q 151.41,53.84 157.19,60.06 Q 158.47,61.45 159.71,61.50 Q 159.65,62.41 160.00,62.75 Q 171.13,73.74 186.06,84.94 Q 188.99,87.13 204.56,99.44 Q 215.77,108.29 224.83,121.05 Q 225.27,121.67 225.39,122.15 Q 225.75,123.50 224.11,122.73 Q 223.62,122.49 223.13,122.00 Q 210.42,109.10 201.94,103.31 Q 185.46,92.06 169.10,80.64 Q 161.50,75.34 154.60,69.15 Q 149.70,64.75 146.35,59.23 Q 142.95,53.64 141.92,47.35 Q 139.83,34.53 147.08,24.14 Q 150.34,19.46 156.61,15.12 Q 163.10,10.63 168.31,8.81 Q 187.61,2.11 207.88,4.24 Q 210.13,4.47 210.25,6.73 Q 210.86,18.00 210.25,29.25 Q 210.03,33.33 209.02,35.35 Q 202.41,48.50 186.75,48.75 Q 177.78,48.89 175.62,40.98 A 1.75,1.08 -53.5 0 1 175.70,40.04 Q 176.28,38.42 174.75,37.46 ZM 184.63,39.81 Q 190.35,40.35 195.60,38.54 Q 199.19,37.30 200.89,35.12 Q 202.98,32.45 202.84,28.68 A 0.54,0.53 -0.6 0 0 202.31,28.17 Q 193.97,27.95 187.06,32.56 Q 183.61,34.85 183.75,38.87 A 0.98,0.97 2.4 0 0 184.63,39.81 Z"/>
<path fill="#ecbb6c" d="M 174.75,37.46 Q 166.60,40.19 163.25,49.25 Q 160.29,57.25 159.71,61.50 Q 158.47,61.45 157.19,60.06 Q 151.41,53.84 149.84,46.25 Q 148.59,40.24 150.41,34.84 Q 152.28,29.29 156.94,24.94 Q 162.20,20.02 168.13,17.56 Q 184.54,10.73 202.32,11.66 A 0.58,0.52 1.7 0 1 202.87,12.18 L 202.87,19.31 A 0.58,0.52 -1.1 0 1 202.31,19.83 Q 194.35,20.16 187.56,22.81 Q 179.73,25.87 176.81,33.83 Q 176.78,33.93 176.50,35.71 Q 176.29,37.07 174.75,37.46 Z"/>
<path fill="#ecbb6c" d="M 184.63,39.81 A 0.98,0.97 2.4 0 1 183.75,38.87 Q 183.61,34.85 187.06,32.56 Q 193.97,27.95 202.31,28.17 A 0.54,0.53 -0.6 0 1 202.84,28.68 Q 202.98,32.45 200.89,35.12 Q 199.19,37.30 195.60,38.54 Q 190.35,40.35 184.63,39.81 Z"/>
<path fill="#2f2518" d="M 163.68,264.02 Q 163.59,254.98 163.31,245.92 A 1.13,1.13 -2.7 0 0 162.10,244.82 Q 150.22,245.57 137.36,244.96 A 1.55,1.55 2.6 0 0 135.73,246.45 Q 135.32,256.87 135.49,267.75 Q 135.55,271.22 133.19,272.44 Q 130.91,273.61 129.67,271.87 Q 129.02,270.96 128.92,268.97 Q 128.30,256.67 128.71,245.30 Q 128.79,243.04 126.60,242.53 Q 110.34,238.71 97.18,230.07 Q 74.71,215.33 65.50,189.50 Q 60.57,175.66 61.14,161.75 Q 62.23,135.48 78.31,113.56 Q 88.88,99.17 103.45,91.47 Q 115.27,85.22 128.26,84.11 Q 137.67,83.30 148.07,85.85 Q 160.74,88.96 171.94,95.56 Q 178.30,99.31 184.97,103.97 Q 193.23,109.73 197.49,113.10 Q 210.09,123.05 219.51,136.23 Q 229.98,150.88 231.26,168.27 Q 231.98,178.10 229.58,188.11 Q 224.69,208.52 208.53,223.03 Q 192.78,237.19 172.42,242.70 Q 170.66,243.18 170.56,245.01 Q 170.02,254.75 170.51,263.50 Q 170.65,266.17 170.41,268.81 Q 170.21,270.98 168.91,272.06 Q 166.69,273.89 164.64,271.82 Q 163.51,270.68 163.50,268.69 Q 163.49,267.52 163.58,266.35 Q 163.69,264.90 163.68,264.02 ZM 192.83,119.50 Q 187.04,114.84 181.10,110.38 Q 174.66,105.54 167.55,101.84 Q 159.42,97.61 152.98,95.30 Q 146.06,92.81 138.74,91.95 Q 131.49,91.10 124.29,92.43 Q 107.03,95.61 93.73,107.74 Q 83.43,117.13 77.31,129.06 Q 58.75,165.26 78.10,198.90 Q 81.73,205.20 86.85,210.86 Q 91.85,216.37 97.60,221.15 Q 100.93,223.92 107.31,227.19 Q 134.76,241.23 164.47,236.05 Q 179.72,233.39 193.11,225.64 Q 198.48,222.53 202.97,218.21 Q 208.25,213.13 212.71,207.35 Q 217.48,201.17 219.99,194.83 Q 226.91,177.31 222.18,158.63 Q 221.05,154.15 219.31,150.54 Q 217.44,146.65 214.87,143.15 Q 209.65,136.02 203.70,129.53 Q 199.18,124.60 192.83,119.50 Z"/>
<path fill="#ecbb6c" d="M 203.70,129.53 Q 209.65,136.02 214.87,143.15 Q 217.44,146.65 219.31,150.54 Q 221.05,154.15 222.18,158.63 Q 226.91,177.31 219.99,194.83 Q 217.48,201.17 212.71,207.35 Q 208.25,213.13 202.97,218.21 Q 198.48,222.53 193.11,225.64 Q 179.72,233.39 164.47,236.05 Q 134.76,241.23 107.31,227.19 Q 100.93,223.92 97.60,221.15 Q 91.85,216.37 86.85,210.86 Q 81.73,205.20 78.10,198.90 Q 58.75,165.26 77.31,129.06 Q 83.43,117.13 93.73,107.74 Q 107.03,95.61 124.29,92.43 Q 131.49,91.10 138.74,91.95 Q 146.06,92.81 152.98,95.30 Q 159.42,97.61 167.55,101.84 Q 174.66,105.54 181.10,110.38 Q 187.04,114.84 192.83,119.50 Q 199.18,124.60 203.70,129.53 ZM 114.89,141.59 Q 100.56,130.93 86.68,142.16 Q 83.58,144.66 83.00,147.50 Q 82.68,149.06 83.84,149.37 Q 84.54,149.55 85.41,148.98 Q 87.01,147.92 88.44,146.64 Q 90.48,144.81 91.38,144.24 Q 100.56,138.43 110.00,143.63 Q 111.53,144.48 113.60,146.36 Q 115.23,147.85 117.01,149.35 A 0.48,0.48 37.6 0 0 117.71,149.26 Q 118.98,147.44 118.21,145.73 Q 117.09,143.22 114.89,141.59 ZM 193.0626,185.3854 A 24.82,21.82 79.9 0 0 210.1919,157.1235 A 24.82,21.82 79.9 0 0 184.3574,136.5146 A 24.82,21.82 79.9 0 0 167.2281,164.7765 A 24.82,21.82 79.9 0 0 193.0626,185.3854 ZM 117.30,166.18 Q 115.84,165.16 114.20,165.88 Q 110.22,167.64 106.03,168.68 Q 101.71,169.75 97.89,169.27 Q 93.42,168.72 89.94,166.81 Q 87.51,165.48 85.55,165.73 A 0.49,0.48 81.5 0 0 85.14,166.30 Q 86.94,177.30 96.82,182.42 Q 100.07,184.11 103.58,183.12 Q 109.45,181.46 113.05,176.52 Q 116.19,172.21 117.59,166.96 A 0.73,0.72 24.8 0 0 117.30,166.18 ZM 148.04,176.72 Q 144.20,174.09 141.06,176.81 Q 137.21,180.16 136.12,186.45 Q 135.97,187.35 136.25,188.01 Q 136.87,189.49 138.03,188.59 Q 138.46,188.25 139.06,187.08 Q 140.29,184.69 142.79,184.29 Q 144.86,183.95 146.71,184.32 Q 148.80,184.73 150.12,186.69 Q 150.90,187.84 151.81,188.94 Q 153.61,191.10 153.75,188.25 Q 154.11,180.87 148.04,176.72 Z"/>
<path fill="#2f2518" d="M 114.89,141.59 Q 117.09,143.22 118.21,145.73 Q 118.98,147.44 117.71,149.26 A 0.48,0.48 37.6 0 1 117.01,149.35 Q 115.23,147.85 113.60,146.36 Q 111.53,144.48 110.00,143.63 Q 100.56,138.43 91.38,144.24 Q 90.48,144.81 88.44,146.64 Q 87.01,147.92 85.41,148.98 Q 84.54,149.55 83.84,149.37 Q 82.68,149.06 83.00,147.50 Q 83.58,144.66 86.68,142.16 Q 100.56,130.93 114.89,141.59 Z"/>
<path fill="#2f2518" d="M 193.0626,185.3854 A 24.82,21.82 79.9 0 1 167.2281,164.7765 A 24.82,21.82 79.9 0 1 184.3574,136.5146 A 24.82,21.82 79.9 0 1 210.1919,157.1235 A 24.82,21.82 79.9 0 1 193.0626,185.3854 ZM 172.30,163.65 Q 172.46,164.71 172.89,163.72 Q 175.28,158.15 180.26,155.16 Q 185.00,152.32 190.69,153.02 Q 200.59,154.23 205.43,164.58 Q 205.69,165.15 205.78,164.52 Q 206.58,158.78 204.45,153.18 Q 201.06,144.27 191.94,141.56 Q 186.84,140.05 182.02,141.84 Q 177.56,143.49 174.94,147.88 Q 170.91,154.66 172.30,163.65 Z"/>
<path fill="#ecbb6c" d="M 172.30,163.65 Q 170.91,154.66 174.94,147.88 Q 177.56,143.49 182.02,141.84 Q 186.84,140.05 191.94,141.56 Q 201.06,144.27 204.45,153.18 Q 206.58,158.78 205.78,164.52 Q 205.69,165.15 205.43,164.58 Q 200.59,154.23 190.69,153.02 Q 185.00,152.32 180.26,155.16 Q 175.28,158.15 172.89,163.72 Q 172.46,164.71 172.30,163.65 Z"/>
<path fill="#2f2518" d="M 117.30,166.18 A 0.73,0.72 24.8 0 1 117.59,166.96 Q 116.19,172.21 113.05,176.52 Q 109.45,181.46 103.58,183.12 Q 100.07,184.11 96.82,182.42 Q 86.94,177.30 85.14,166.30 A 0.49,0.48 81.5 0 1 85.55,165.73 Q 87.51,165.48 89.94,166.81 Q 93.42,168.72 97.89,169.27 Q 101.71,169.75 106.03,168.68 Q 110.22,167.64 114.20,165.88 Q 115.84,165.16 117.30,166.18 ZM 97.45,174.45 Q 96.27,174.33 95.19,173.83 Q 91.99,172.38 93.31,174.44 Q 94.02,175.54 96.65,177.17 Q 98.78,178.49 100.62,178.56 Q 103.95,178.68 106.67,176.41 Q 108.52,174.85 110.14,173.03 A 0.67,0.38 -49.1 0 0 110.29,172.26 Q 110.09,172.10 109.58,172.34 Q 103.77,175.14 97.45,174.45 Z"/>
<path fill="#ecbb6c" d="M 97.45,174.45 Q 103.77,175.14 109.58,172.34 Q 110.09,172.10 110.29,172.26 A 0.67,0.38 -49.1 0 1 110.14,173.03 Q 108.52,174.85 106.67,176.41 Q 103.95,178.68 100.62,178.56 Q 98.78,178.49 96.65,177.17 Q 94.02,175.54 93.31,174.44 Q 91.99,172.38 95.19,173.83 Q 96.27,174.33 97.45,174.45 Z"/>
<path fill="#2f2518" d="M 148.04,176.72 Q 154.11,180.87 153.75,188.25 Q 153.61,191.10 151.81,188.94 Q 150.90,187.84 150.12,186.69 Q 148.80,184.73 146.71,184.32 Q 144.86,183.95 142.79,184.29 Q 140.29,184.69 139.06,187.08 Q 138.46,188.25 138.03,188.59 Q 136.87,189.49 136.25,188.01 Q 135.97,187.35 136.12,186.45 Q 137.21,180.16 141.06,176.81 Q 144.20,174.09 148.04,176.72 Z"/>
<path fill="#2f2518" d="M 100.85,291.92 Q 99.14,290.64 102.26,290.39 Q 149.71,286.62 197.25,289.30 Q 205.58,289.77 207.19,290.31 Q 209.95,291.25 206.97,292.16 Q 203.94,293.08 200.75,293.26 Q 192.85,293.72 184.94,294.17 Q 151.34,296.06 117.76,293.95 Q 117.62,293.94 111.73,293.73 Q 106.87,293.56 102.12,292.47 Q 101.34,292.30 100.85,291.92 Z"/>
</svg>
