<?xml version="1.0" encoding="UTF-8" standalone="no"?>
<!DOCTYPE svg PUBLIC "-//W3C//DTD SVG 1.1//EN" "http://www.w3.org/Graphics/SVG/1.1/DTD/svg11.dtd">
<svg xmlns="http://www.w3.org/2000/svg" version="1.1" viewBox="0 0 300 300">
<path fill="#212119" d="M 166.71,82.75 Q 166.67,86.40 165.67,84.75 A 1.07,0.82 72.1 0 0 164.93,84.24 Q 163.47,84.16 162.94,85.55 Q 162.81,85.89 162.73,85.54 Q 161.91,81.85 162.00,86.00 Q 162.03,87.63 161.96,89.25 Q 161.81,81.39 161.25,80.00 Q 157.72,71.26 147.75,71.50 Q 133.68,71.84 84.50,71.18 Q 83.81,71.17 83.14,71.32 Q 82.37,71.49 81.82,71.49 Q 73.17,71.55 68.91,78.27 Q 67.50,80.50 67.14,83.66 Q 66.81,86.52 66.87,89.41 Q 66.97,94.50 66.97,94.60 Q 66.83,108.56 66.77,122.51 Q 66.73,133.25 66.92,134.48 Q 68.15,142.23 75.11,144.41 Q 77.75,145.25 90.47,145.25 Q 118.73,145.26 147.00,145.36 Q 151.75,145.37 154.25,144.50 Q 161.48,141.97 161.80,134.25 Q 161.88,132.37 162.04,130.50 Q 164.28,131.93 166.71,131.00 Q 168.31,142.50 159.19,147.69 Q 153.92,150.68 146.31,150.10 A 0.55,0.53 5.8 0 0 145.74,150.55 Q 145.04,155.07 143.69,157.19 Q 142.20,159.51 139.50,158.18 A 1.12,1.09 -83.6 0 1 138.93,157.45 Q 138.27,154.72 139.80,152.39 Q 141.38,150.00 138.52,150.00 L 86.39,150.00 A 0.88,0.88 -9.7 0 0 85.56,151.17 Q 86.03,152.52 86.64,153.91 Q 87.41,155.69 87.17,156.72 Q 86.80,158.30 85.06,158.47 Q 83.77,158.60 82.75,157.78 Q 80.71,156.13 80.42,152.45 Q 80.23,150.11 77.89,150.02 Q 69.05,149.65 64.50,142.50 Q 62.43,139.24 61.98,134.05 Q 61.50,128.51 61.78,122.58 Q 61.91,120.01 60.06,121.81 Q 57.42,124.41 54.23,125.95 Q 52.86,126.62 51.66,126.29 Q 49.51,125.72 50.64,123.76 Q 51.07,123.02 52.20,122.05 Q 55.91,118.88 60.01,115.68 Q 61.75,114.33 61.75,112.13 Q 61.75,98.75 61.75,85.50 Q 61.75,78.58 65.53,73.81 Q 71.57,66.19 81.50,66.26 Q 111.29,66.48 141.07,66.50 Q 151.75,66.51 153.41,66.86 Q 159.91,68.24 164.19,74.06 Q 166.95,77.82 166.71,82.75 Z"/>
<path fill="#85c7d2" d="M 161.96,89.25 L 162.04,130.50 Q 161.88,132.37 161.80,134.25 Q 161.48,141.97 154.25,144.50 Q 151.75,145.37 147.00,145.36 Q 118.73,145.26 90.47,145.25 Q 77.75,145.25 75.11,144.41 Q 68.15,142.23 66.92,134.48 Q 66.73,133.25 66.77,122.51 Q 66.83,108.56 66.97,94.60 Q 66.97,94.50 66.87,89.41 Q 66.81,86.52 67.14,83.66 Q 67.50,80.50 68.91,78.27 Q 73.17,71.55 81.82,71.49 Q 82.37,71.49 83.14,71.32 Q 83.81,71.17 84.50,71.18 Q 133.68,71.84 147.75,71.50 Q 157.72,71.26 161.25,80.00 Q 161.81,81.39 161.96,89.25 ZM 95.54,108.89 A 6.86 6.86 0.0 0 0 88.68,102.03 A 6.86 6.86 0.0 0 0 81.82,108.89 A 6.86 6.86 0.0 0 0 88.68,115.75 A 6.86 6.86 0.0 0 0 95.54,108.89 ZM 142.85,108.93 A 6.86 6.86 0.0 0 0 135.99,102.07 A 6.86 6.86 0.0 0 0 129.13,108.93 A 6.86 6.86 0.0 0 0 135.99,115.79 A 6.86 6.86 0.0 0 0 142.85,108.93 ZM 121.98,122.92 A 10.12 10.12 0.0 0 0 111.86,112.80 A 10.12 10.12 0.0 0 0 101.74,122.92 A 10.12 10.12 0.0 0 0 111.86,133.04 A 10.12 10.12 0.0 0 0 121.98,122.92 ZM 146.1800,119.3135 A 4.72,1.79 -0.2 0 0 141.4538,117.5400 A 4.72,1.79 -0.2 0 0 136.7400,119.3465 A 4.72,1.79 -0.2 0 0 141.4662,121.1200 A 4.72,1.79 -0.2 0 0 146.1800,119.3135 ZM 88.1797,119.2631 A 1.52 1.52 0.0 0 0 86.6544,117.7484 L 80.0145,117.7716 A 1.52 1.52 0.0 0 0 78.4998,119.2969 L 78.5003,119.4369 A 1.52 1.52 0.0 0 0 80.0256,120.9516 L 86.6655,120.9284 A 1.52 1.52 0.0 0 0 88.1802,119.4031 L 88.1797,119.2631 Z"/>
<path fill="#14180e" d="M 166.71,82.75 Q 166.78,96.87 166.75,111.00 Q 166.74,114.74 169.50,116.25 Q 172.04,117.64 176.14,121.53 Q 176.19,121.58 177.05,122.27 Q 178.52,123.45 177.70,125.41 Q 176.80,127.56 175.02,126.26 L 168.05,121.18 Q 166.82,120.28 166.80,121.75 L 166.71,131.00 Q 164.28,131.93 162.04,130.50 L 161.96,89.25 Q 162.03,87.63 162.00,86.00 Q 161.91,81.85 162.73,85.54 Q 162.81,85.89 162.94,85.55 Q 163.47,84.16 164.93,84.24 A 1.07,0.82 72.1 0 1 165.67,84.75 Q 166.67,86.40 166.71,82.75 Z"/>
<circle fill="#25211a" cx="88.68" cy="108.89" r="6.86"/>
<circle fill="#212119" cx="135.99" cy="108.93" r="6.86"/>
<path fill="#212119" d="M 121.98,122.92 A 10.12 10.12 0.0 0 1 111.86,133.04 A 10.12 10.12 0.0 0 1 101.74,122.92 A 10.12 10.12 0.0 0 1 111.86,112.80 A 10.12 10.12 0.0 0 1 121.98,122.92 ZM 118.43,122.83 A 6.56 6.56 0.0 0 0 111.87,116.27 A 6.56 6.56 0.0 0 0 105.31,122.83 A 6.56 6.56 0.0 0 0 111.87,129.39 A 6.56 6.56 0.0 0 0 118.43,122.83 Z"/>
<circle fill="#fcfcfe" cx="111.87" cy="122.83" r="6.56"/>
<ellipse fill="#212119" cx="0.00" cy="0.00" transform="translate(141.46,119.33) rotate(-0.2)" rx="4.72" ry="1.79"/>
<rect fill="#212119" x="-4.84" y="-1.59" transform="translate(83.34,119.35) rotate(-0.2)" width="9.68" height="3.18" rx="1.52"/>
<path fill="#25211a" d="M 286.71,227.89 A 15.90 15.90 0.0 0 1 270.81,243.79 L 28.87,243.79 A 15.90 15.90 0.0 0 1 12.97,227.89 L 12.97,192.75 A 15.90 15.90 0.0 0 1 28.87,176.85 L 270.81,176.85 A 15.90 15.90 0.0 0 1 286.71,192.75 L 286.71,227.89 ZM 20.19,186.94 Q 18.26,189.54 19.04,192.34 A 0.68,0.64 -7.2 0 0 19.69,192.81 L 92.69,192.69 A 0.51,0.50 0.0 0 0 93.20,192.19 L 93.20,182.58 A 0.85,0.82 0.4 0 0 92.36,181.76 Q 60.55,181.57 30.44,181.96 Q 26.70,182.01 24.75,182.99 Q 22.12,184.32 20.19,186.94 ZM 151.50,182.09 A 0.34 0.34 0.0 0 0 151.16,181.75 L 112.28,181.75 A 0.34 0.34 0.0 0 0 111.94,182.09 L 111.94,192.41 A 0.34 0.34 0.0 0 0 112.28,192.75 L 151.16,192.75 A 0.34 0.34 0.0 0 0 151.50,192.41 L 151.50,182.09 ZM 161.12,191.30 L 164.55,192.84 A 0.71,0.68 -79.1 0 0 165.51,192.16 L 165.21,182.31 A 0.52,0.52 89.4 0 0 164.69,181.80 L 155.44,181.75 A 0.63,0.62 -87.5 0 0 154.82,182.33 Q 154.40,187.72 155.22,192.19 A 0.45,0.44 76.3 0 0 155.79,192.54 L 160.20,191.20 A 1.42,1.08 43.4 0 1 161.12,191.30 ZM 204.94,192.81 Q 210.37,193.02 215.80,193.15 Q 216.80,193.18 218.54,192.95 Q 219.93,192.77 221.32,192.83 Q 224.60,192.98 224.70,192.98 Q 236.67,192.88 249.12,193.20 Q 250.21,193.23 249.54,192.37 Q 248.06,190.49 248.57,188.35 Q 249.02,186.44 250.74,185.26 Q 252.59,183.99 254.81,184.43 Q 256.78,184.81 258.04,186.51 Q 259.61,188.64 259.16,191.14 A 1.38,1.37 5.3 0 0 260.51,192.75 L 280.70,192.92 A 0.52,0.52 -87.7 0 0 281.23,192.43 Q 281.46,188.91 279.10,186.15 Q 277.13,183.85 274.45,182.76 Q 272.60,182.01 268.93,181.98 Q 220.06,181.57 170.15,181.75 A 0.88,0.84 -0.7 0 0 169.28,182.60 L 169.40,192.32 A 0.54,0.50 -0.5 0 0 169.94,192.81 Q 198.40,192.56 204.94,192.81 ZM 104.12,190.83 L 107.33,192.95 Q 108.47,193.70 108.44,192.35 L 108.22,182.87 A 0.89,0.89 89.3 0 0 107.33,182.00 L 97.96,182.00 A 0.71,0.71 89.7 0 0 97.25,182.71 L 97.25,192.02 A 0.91,0.83 -12.8 0 0 98.52,192.74 L 103.22,190.70 A 1.07,0.82 45.6 0 1 104.12,190.83 ZM 255.8450,188.3986 A 2.11,1.92 -23.5 0 0 253.1444,187.4792 A 2.11,1.92 -23.5 0 0 251.9750,190.0814 A 2.11,1.92 -23.5 0 0 254.6756,191.0008 A 2.11,1.92 -23.5 0 0 255.8450,188.3986 ZM 255.49,194.72 Q 253.96,193.67 252.80,195.11 Q 250.41,198.05 254.06,199.33 Q 258.82,200.99 260.25,196.50 Q 260.90,194.47 259.00,195.25 Q 257.30,195.95 255.49,194.72 ZM 151.4923,196.7154 A 0.27 0.27 0.0 0 0 151.2219,196.4459 L 112.1019,196.5141 A 0.27 0.27 0.0 0 0 111.8324,196.7846 L 111.8477,205.5246 A 0.27 0.27 0.0 0 0 112.1181,205.7941 L 151.2381,205.7259 A 0.27 0.27 0.0 0 0 151.5076,205.4554 L 151.4923,196.7154 ZM 160.45,202.73 L 164.56,205.44 Q 166.00,206.39 165.75,204.75 Q 165.35,202.14 165.73,199.53 Q 166.16,196.63 164.23,196.78 Q 163.71,196.82 162.06,197.72 Q 159.12,199.33 156.73,196.86 Q 155.33,195.42 155.25,197.48 L 154.99,204.06 Q 154.91,206.10 156.59,204.89 L 159.56,202.74 A 0.79,0.79 44.2 0 1 160.45,202.73 ZM 211.03,202.80 A 0.73,0.60 42.6 0 1 210.88,201.74 L 215.71,197.97 A 1.16,1.00 42.9 0 1 217.02,198.02 L 221.16,201.04 Q 222.54,202.05 220.95,202.68 Q 218.92,203.48 217.81,205.26 Q 217.54,205.69 218.06,205.69 Q 226.90,205.79 235.75,205.57 Q 238.47,205.51 235.06,202.63 A 1.11,0.95 46.5 0 1 234.98,201.00 L 239.30,197.98 A 0.74,0.70 45.9 0 1 240.17,198.02 L 244.10,201.18 A 0.92,0.86 -47.8 0 1 244.12,202.50 L 242.53,204.10 Q 241.39,205.24 242.98,205.50 Q 246.59,206.08 250.15,205.53 Q 250.19,205.52 252.41,204.88 Q 255.00,204.14 257.70,205.95 Q 259.40,207.09 259.47,205.04 Q 259.50,204.13 260.90,203.14 Q 265.49,199.87 270.95,199.74 Q 273.46,199.68 274.97,201.15 Q 276.63,202.78 277.21,205.21 A 0.66,0.60 82.8 0 0 277.81,205.72 L 280.94,205.72 A 0.54,0.51 90.0 0 0 281.45,205.18 L 281.50,197.00 A 0.50,0.50 -45.0 0 0 281.00,196.50 L 264.34,196.50 A 0.59,0.59 -87.9 0 0 263.75,197.05 Q 263.51,200.46 260.44,201.94 Q 256.49,203.85 252.31,202.44 Q 248.96,201.31 248.71,197.06 A 0.54,0.54 88.9 0 0 248.18,196.55 Q 209.00,195.92 169.81,196.56 A 0.57,0.51 0.5 0 0 169.24,197.06 L 169.13,205.07 A 0.56,0.49 0.5 0 0 169.69,205.57 L 213.02,205.74 Q 215.07,205.75 213.47,204.59 L 211.03,202.80 ZM 93.28,196.77 A 0.27 0.27 0.0 0 0 93.01,196.50 L 18.61,196.50 A 0.27 0.27 0.0 0 0 18.34,196.77 L 18.34,205.47 A 0.27 0.27 0.0 0 0 18.61,205.74 L 93.01,205.74 A 0.27 0.27 0.0 0 0 93.28,205.47 L 93.28,196.77 ZM 102.15,198.17 L 98.12,196.52 A 0.72,0.63 -80.4 0 0 97.25,197.23 L 97.25,204.83 Q 97.25,206.31 98.43,205.45 L 102.19,202.69 Q 103.82,201.50 104.94,203.10 Q 106.24,204.96 107.69,205.16 A 0.55,0.50 -82.4 0 0 108.26,204.68 Q 108.68,201.49 108.03,196.96 Q 107.87,195.81 107.02,196.60 Q 105.32,198.19 103.06,198.41 Q 102.80,198.43 102.15,198.17 ZM 273.29,205.44 A 1.25,1.25 44.3 0 0 273.27,204.07 Q 272.09,202.32 270.07,203.01 Q 268.99,203.38 268.89,203.41 Q 266.41,204.08 265.53,204.69 Q 263.78,205.90 265.76,206.70 Q 271.14,208.86 273.29,205.44 ZM 242.0847,210.0519 A 2.42,1.97 9.8 0 0 240.0353,207.6987 A 2.42,1.97 9.8 0 0 237.3153,209.2281 A 2.42,1.97 9.8 0 0 239.3647,211.5813 A 2.42,1.97 9.8 0 0 242.0847,210.0519 ZM 256.1498,209.6419 A 2.01,1.75 -0.8 0 0 254.1156,207.9202 A 2.01,1.75 -0.8 0 0 252.1302,209.6981 A 2.01,1.75 -0.8 0 0 254.1644,211.4198 A 2.01,1.75 -0.8 0 0 256.1498,209.6419 ZM 102.13,210.43 L 97.84,208.92 A 0.50,0.45 -81.6 0 0 97.25,209.41 L 97.25,217.62 A 0.88,0.88 0.0 0 0 98.13,218.50 L 107.38,218.50 A 0.81,0.79 0.0 0 0 108.19,217.71 L 108.25,209.98 Q 108.27,207.72 106.58,209.25 Q 105.27,210.45 103.07,210.65 Q 102.83,210.68 102.13,210.43 ZM 158.44,210.35 Q 157.19,209.30 155.68,208.96 A 0.77,0.77 -84.8 0 0 154.75,209.74 L 155.00,217.59 A 0.99,0.99 -80.1 0 0 156.02,218.55 Q 158.82,218.47 161.89,218.49 Q 161.99,218.49 163.59,218.64 Q 165.73,218.85 165.66,216.83 Q 165.59,214.85 165.60,214.65 Q 165.75,212.04 165.07,209.54 A 0.51,0.48 -14.5 0 0 164.45,209.20 L 159.29,210.57 A 1.01,0.87 55.4 0 1 158.44,210.35 ZM 252.83,214.62 Q 249.57,213.90 249.24,210.56 Q 249.04,208.54 246.05,209.22 A 0.90,0.90 -87.0 0 0 245.39,209.82 Q 243.54,215.54 238.51,214.65 Q 236.59,214.31 235.52,213.00 Q 234.36,211.57 234.21,209.57 A 0.55,0.53 87.7 0 0 233.68,209.06 L 169.69,208.94 A 0.56,0.50 0.0 0 0 169.13,209.44 L 169.24,217.68 A 0.94,0.83 -0.6 0 0 170.19,218.50 Q 213.62,218.30 256.25,218.50 Q 263.24,218.53 269.00,218.10 Q 273.69,217.74 276.13,216.12 Q 279.31,214.01 281.07,210.15 A 0.71,0.70 16.6 0 0 280.53,209.16 Q 277.18,208.64 274.73,209.53 Q 271.10,210.83 270.97,210.85 Q 267.46,211.25 263.69,209.31 Q 260.33,207.59 259.45,210.20 Q 258.66,212.52 258.63,212.57 Q 256.83,215.50 252.83,214.62 ZM 86.55,218.51 Q 89.68,218.63 92.81,218.36 A 0.54,0.54 -2.3 0 0 93.31,217.82 L 93.19,209.60 A 0.61,0.61 89.5 0 0 92.58,209.00 L 18.88,209.00 A 0.39,0.39 80.4 0 0 18.51,209.52 Q 20.42,215.06 25.16,217.12 Q 27.69,218.22 34.49,218.34 Q 57.40,218.72 80.31,218.36 Q 81.67,218.34 86.55,218.51 ZM 151.4925,209.4155 A 0.45 0.45 0.0 0 0 151.0417,208.9663 L 112.4018,209.0337 A 0.45 0.45 0.0 0 0 111.9526,209.4845 L 111.9675,218.0245 A 0.45 0.45 0.0 0 0 112.4183,218.4737 L 151.0582,218.4063 A 0.45 0.45 0.0 0 0 151.5074,217.9555 L 151.4925,209.4155 ZM 279.26,234.27 Q 281.80,231.12 281.59,227.00 Q 281.38,222.77 281.63,219.31 Q 281.74,217.82 280.71,218.90 Q 277.43,222.36 273.18,223.24 Q 271.94,223.50 264.80,223.50 Q 147.40,223.50 30.00,223.50 Q 23.93,223.50 18.71,218.64 Q 18.33,218.29 18.31,218.81 Q 18.10,224.64 18.30,228.76 Q 18.43,231.49 20.10,233.66 Q 24.55,239.48 32.00,239.48 Q 147.44,239.50 262.89,239.50 Q 270.13,239.50 271.58,239.18 Q 276.13,238.17 279.26,234.27 Z"/>
<path fill="#f2e1bd" d="M 20.19,186.94 Q 22.12,184.32 24.75,182.99 Q 26.70,182.01 30.44,181.96 Q 60.55,181.57 92.36,181.76 A 0.85,0.82 0.4 0 1 93.20,182.58 L 93.20,192.19 A 0.51,0.50 -0.0 0 1 92.69,192.69 L 19.69,192.81 A 0.68,0.64 -7.2 0 1 19.04,192.34 Q 18.26,189.54 20.19,186.94 Z"/>
<rect fill="#f2e1bd" x="111.94" y="181.75" width="39.56" height="11.00" rx="0.34"/>
<path fill="#664d41" d="M 160.20,191.20 L 155.79,192.54 A 0.45,0.44 76.3 0 1 155.22,192.19 Q 154.40,187.72 154.82,182.33 A 0.63,0.62 -87.5 0 1 155.44,181.75 L 164.69,181.80 A 0.52,0.52 89.4 0 1 165.21,182.31 L 165.51,192.16 A 0.71,0.68 -79.1 0 1 164.55,192.84 L 161.12,191.30 A 1.42,1.08 43.4 0 0 160.20,191.20 Z"/>
<path fill="#f2e1bd" d="M 204.94,192.81 Q 198.40,192.56 169.94,192.81 A 0.54,0.50 -0.5 0 1 169.40,192.32 L 169.28,182.60 A 0.88,0.84 -0.7 0 1 170.15,181.75 Q 220.06,181.57 268.93,181.98 Q 272.60,182.01 274.45,182.76 Q 277.13,183.85 279.10,186.15 Q 281.46,188.91 281.23,192.43 A 0.52,0.52 -87.7 0 1 280.70,192.92 L 260.51,192.75 A 1.38,1.37 5.3 0 1 259.16,191.14 Q 259.61,188.64 258.04,186.51 Q 256.78,184.81 254.81,184.43 Q 252.59,183.99 250.74,185.26 Q 249.02,186.44 248.57,188.35 Q 248.06,190.49 249.54,192.37 Q 250.21,193.23 249.12,193.20 Q 236.67,192.88 224.70,192.98 Q 224.60,192.98 221.32,192.83 Q 219.93,192.77 218.54,192.95 Q 216.80,193.18 215.80,193.15 Q 210.37,193.02 204.94,192.81 ZM 218.82,186.44 Q 218.03,185.65 216.98,184.61 A 0.98,0.93 47.0 0 0 215.67,184.53 L 210.92,188.71 A 0.45,0.42 44.1 0 0 210.95,189.38 Q 212.59,190.71 214.33,191.89 Q 215.39,192.61 216.35,192.50 Q 217.51,192.37 218.45,191.65 Q 219.68,190.71 220.39,190.25 Q 222.32,189.03 220.48,187.72 Q 219.19,186.82 218.82,186.44 ZM 244.07,188.99 L 239.88,184.84 A 0.59,0.57 47.6 0 0 239.10,184.79 L 234.11,188.91 A 0.46,0.44 46.5 0 0 234.11,189.59 Q 236.29,191.55 239.02,192.58 A 1.08,0.80 32.3 0 0 239.95,192.51 L 244.06,189.44 A 0.32,0.28 49.5 0 0 244.07,188.99 Z"/>
<path fill="#664d41" d="M 103.22,190.70 L 98.52,192.74 A 0.91,0.83 -12.8 0 1 97.25,192.02 L 97.25,182.71 A 0.71,0.71 89.4 0 1 97.96,182.00 L 107.33,182.00 A 0.89,0.89 89.3 0 1 108.22,182.87 L 108.44,192.35 Q 108.47,193.70 107.33,192.95 L 104.12,190.83 A 1.07,0.82 45.6 0 0 103.22,190.70 Z"/>
<path fill="#212119" d="M 220.48,187.72 Q 222.32,189.03 220.39,190.25 Q 219.68,190.71 218.45,191.65 Q 217.51,192.37 216.35,192.50 Q 215.39,192.61 214.33,191.89 Q 212.59,190.71 210.95,189.38 A 0.45,0.42 44.1 0 1 210.92,188.71 L 215.67,184.53 A 0.98,0.93 47.0 0 1 216.98,184.61 Q 218.03,185.65 218.82,186.44 Q 219.19,186.82 220.48,187.72 Z"/>
<path fill="#212119" d="M 244.07,188.99 A 0.32,0.28 49.5 0 1 244.06,189.44 L 239.95,192.51 A 1.08,0.80 32.3 0 1 239.02,192.58 Q 236.29,191.55 234.11,189.59 A 0.46,0.44 46.5 0 1 234.11,188.91 L 239.10,184.79 A 0.59,0.57 47.6 0 1 239.88,184.84 L 244.07,188.99 Z"/>
<ellipse fill="#f2e1bd" cx="0.00" cy="0.00" transform="translate(253.91,189.24) rotate(-23.5)" rx="2.11" ry="1.92"/>
<path fill="#cf4b4e" d="M 255.49,194.72 Q 257.30,195.95 259.00,195.25 Q 260.90,194.47 260.25,196.50 Q 258.82,200.99 254.06,199.33 Q 250.41,198.05 252.80,195.11 Q 253.96,193.67 255.49,194.72 Z"/>
<rect fill="#f3dfc0" x="-19.83" y="-4.64" transform="translate(131.67,201.12) rotate(-0.1)" width="39.66" height="9.28" rx="0.27"/>
<path fill="#664d41" d="M 159.56,202.74 L 156.59,204.89 Q 154.91,206.10 154.99,204.06 L 155.25,197.48 Q 155.33,195.42 156.73,196.86 Q 159.12,199.33 162.06,197.72 Q 163.71,196.82 164.23,196.78 Q 166.16,196.63 165.73,199.53 Q 165.35,202.14 165.75,204.75 Q 166.00,206.39 164.56,205.44 L 160.45,202.73 A 0.79,0.79 44.2 0 0 159.56,202.74 Z"/>
<path fill="#f3dfc0" d="M 211.03,202.80 L 213.47,204.59 Q 215.07,205.75 213.02,205.74 L 169.69,205.57 A 0.56,0.49 0.5 0 1 169.13,205.07 L 169.24,197.06 A 0.57,0.51 0.5 0 1 169.81,196.56 Q 209.00,195.92 248.18,196.55 A 0.54,0.54 88.9 0 1 248.71,197.06 Q 248.96,201.31 252.31,202.44 Q 256.49,203.85 260.44,201.94 Q 263.51,200.46 263.75,197.05 A 0.59,0.59 -87.9 0 1 264.34,196.50 L 281.00,196.50 A 0.50,0.50 45.0 0 1 281.50,197.00 L 281.45,205.18 A 0.54,0.51 -90.0 0 1 280.94,205.72 L 277.81,205.72 A 0.66,0.60 82.8 0 1 277.21,205.21 Q 276.63,202.78 274.97,201.15 Q 273.46,199.68 270.95,199.74 Q 265.49,199.87 260.90,203.14 Q 259.50,204.13 259.47,205.04 Q 259.40,207.09 257.70,205.95 Q 255.00,204.14 252.41,204.88 Q 250.19,205.52 250.15,205.53 Q 246.59,206.08 242.98,205.50 Q 241.39,205.24 242.53,204.10 L 244.12,202.50 A 0.92,0.86 -47.8 0 0 244.10,201.18 L 240.17,198.02 A 0.74,0.70 45.9 0 0 239.30,197.98 L 234.98,201.00 A 1.11,0.95 46.5 0 0 235.06,202.63 Q 238.47,205.51 235.75,205.57 Q 226.90,205.79 218.06,205.69 Q 217.54,205.69 217.81,205.26 Q 218.92,203.48 220.95,202.68 Q 222.54,202.05 221.16,201.04 L 217.02,198.02 A 1.16,1.00 42.9 0 0 215.71,197.97 L 210.88,201.74 A 0.73,0.60 42.6 0 0 211.03,202.80 Z"/>
<rect fill="#f3dfc0" x="18.34" y="196.50" width="74.94" height="9.24" rx="0.27"/>
<path fill="#664d41" d="M 103.06,198.41 Q 105.32,198.19 107.02,196.60 Q 107.87,195.81 108.03,196.96 Q 108.68,201.49 108.26,204.68 A 0.55,0.50 -82.4 0 1 107.69,205.16 Q 106.24,204.96 104.94,203.10 Q 103.82,201.50 102.19,202.69 L 98.43,205.45 Q 97.25,206.31 97.25,204.83 L 97.25,197.23 A 0.72,0.63 -80.4 0 1 98.12,196.52 L 102.15,198.17 Q 102.80,198.43 103.06,198.41 Z"/>
<path fill="#cf4b4e" d="M 273.29,205.44 Q 271.14,208.86 265.76,206.70 Q 263.78,205.90 265.53,204.69 Q 266.41,204.08 268.89,203.41 Q 268.99,203.38 270.07,203.01 Q 272.09,202.32 273.27,204.07 A 1.25,1.25 44.3 0 1 273.29,205.44 Z"/>
<ellipse fill="#51b0bf" cx="0.00" cy="0.00" transform="translate(239.70,209.64) rotate(9.8)" rx="2.42" ry="1.97"/>
<ellipse fill="#f2e1bd" cx="0.00" cy="0.00" transform="translate(254.14,209.67) rotate(-0.8)" rx="2.01" ry="1.75"/>
<path fill="#664d41" d="M 103.07,210.65 Q 105.27,210.45 106.58,209.25 Q 108.27,207.72 108.25,209.98 L 108.19,217.71 A 0.81,0.79 0.0 0 1 107.38,218.50 L 98.13,218.50 A 0.88,0.88 -45.0 0 1 97.25,217.62 L 97.25,209.41 A 0.50,0.45 -81.6 0 1 97.84,208.92 L 102.13,210.43 Q 102.83,210.68 103.07,210.65 Z"/>
<path fill="#664d41" d="M 159.29,210.57 L 164.45,209.20 A 0.51,0.48 -14.5 0 1 165.07,209.54 Q 165.75,212.04 165.60,214.65 Q 165.59,214.85 165.66,216.83 Q 165.73,218.85 163.59,218.64 Q 161.99,218.49 161.89,218.49 Q 158.82,218.47 156.02,218.55 A 0.99,0.99 45.0 0 1 155.00,217.59 L 154.75,209.74 A 0.77,0.77 -84.8 0 1 155.68,208.96 Q 157.19,209.30 158.44,210.35 A 1.01,0.87 55.4 0 0 159.29,210.57 Z"/>
<path fill="#f2e1bd" d="M 252.83,214.62 Q 256.83,215.50 258.63,212.57 Q 258.66,212.52 259.45,210.20 Q 260.33,207.59 263.69,209.31 Q 267.46,211.25 270.97,210.85 Q 271.10,210.83 274.73,209.53 Q 277.18,208.64 280.53,209.16 A 0.71,0.70 16.6 0 1 281.07,210.15 Q 279.31,214.01 276.13,216.12 Q 273.69,217.74 269.00,218.10 Q 263.24,218.53 256.25,218.50 Q 213.62,218.30 170.19,218.50 A 0.94,0.83 -0.6 0 1 169.24,217.68 L 169.13,209.44 A 0.56,0.50 -0.0 0 1 169.69,208.94 L 233.68,209.06 A 0.55,0.53 87.7 0 1 234.21,209.57 Q 234.36,211.57 235.52,213.00 Q 236.59,214.31 238.51,214.65 Q 243.54,215.54 245.39,209.82 A 0.90,0.90 -87.0 0 1 246.05,209.22 Q 249.04,208.54 249.24,210.56 Q 249.57,213.90 252.83,214.62 ZM 221.20,212.97 L 216.68,209.75 A 0.79,0.76 46.0 0 0 215.80,209.72 L 210.62,213.15 A 0.52,0.50 47.6 0 0 210.60,213.96 L 214.88,217.49 A 1.13,1.01 45.1 0 0 216.22,217.57 L 221.23,213.65 A 0.43,0.42 43.1 0 0 221.20,212.97 Z"/>
<path fill="#f3dfc0" d="M 80.31,218.36 Q 57.40,218.72 34.49,218.34 Q 27.69,218.22 25.16,217.12 Q 20.42,215.06 18.51,209.52 A 0.39,0.39 80.4 0 1 18.88,209.00 L 92.58,209.00 A 0.61,0.61 89.5 0 1 93.19,209.60 L 93.31,217.82 A 0.54,0.54 -2.3 0 1 92.81,218.36 Q 89.68,218.63 86.55,218.51 Q 81.67,218.34 80.31,218.36 Z"/>
<rect fill="#f3dfc0" x="-19.77" y="-4.72" transform="translate(131.73,213.72) rotate(-0.1)" width="39.54" height="9.44" rx="0.45"/>
<path fill="#25211a" d="M 221.20,212.97 A 0.43,0.42 43.1 0 1 221.23,213.65 L 216.22,217.57 A 1.13,1.01 45.1 0 1 214.88,217.49 L 210.60,213.96 A 0.52,0.50 47.6 0 1 210.62,213.15 L 215.80,209.72 A 0.79,0.76 46.0 0 1 216.68,209.75 L 221.20,212.97 Z"/>
<path fill="#d7b580" d="M 279.26,234.27 Q 276.13,238.17 271.58,239.18 Q 270.13,239.50 262.89,239.50 Q 147.44,239.50 32.00,239.48 Q 24.55,239.48 20.10,233.66 Q 18.43,231.49 18.30,228.76 Q 18.10,224.64 18.31,218.81 Q 18.33,218.29 18.71,218.64 Q 23.93,223.50 30.00,223.50 Q 147.40,223.50 264.80,223.50 Q 271.94,223.50 273.18,223.24 Q 277.43,222.36 280.71,218.90 Q 281.74,217.82 281.63,219.31 Q 281.38,222.77 281.59,227.00 Q 281.80,231.12 279.26,234.27 Z"/>
</svg>
