<?xml version="1.0" encoding="UTF-8" standalone="no"?>
<!DOCTYPE svg PUBLIC "-//W3C//DTD SVG 1.1//EN" "http://www.w3.org/Graphics/SVG/1.1/DTD/svg11.dtd">
<svg xmlns="http://www.w3.org/2000/svg" version="1.1" viewBox="0 0 300 300">
<path fill="#0b0a0a" d="M 182.33,180.65 A 1.08,1.08 -24.7 0 0 181.74,182.24 Q 185.00,187.53 186.92,193.36 Q 188.51,198.17 190.07,205.15 Q 191.56,211.80 191.73,218.36 Q 191.80,220.91 189.95,222.68 Q 188.11,224.42 188.50,227.00 Q 188.84,229.28 187.80,233.71 A 1.84,1.70 -18.2 0 1 187.34,234.54 Q 184.68,237.25 184.06,238.81 Q 179.68,249.88 178.19,252.19 Q 176.05,255.50 172.75,254.25 Q 170.32,253.33 168.23,250.20 Q 165.00,245.34 161.48,240.09 A 0.62,0.62 43.3 0 0 160.43,240.12 Q 155.95,247.57 151.91,254.17 Q 147.65,261.14 142.34,254.68 Q 135.97,246.94 131.06,238.18 A 1.85,1.83 -13.8 0 0 129.51,237.25 Q 121.78,237.05 121.75,229.25 Q 121.74,225.65 121.51,223.80 A 2.01,1.34 31.6 0 0 121.11,222.93 Q 119.68,221.14 119.75,218.50 Q 119.88,213.38 120.58,209.67 Q 123.25,195.49 129.47,182.56 A 1.20,1.20 -68.9 0 0 128.73,180.89 Q 123.50,179.35 118.92,177.44 Q 110.18,173.81 103.74,167.02 Q 102.69,165.93 100.52,163.71 Q 98.84,162.00 97.50,160.19 A 1.61,1.60 -26.5 0 0 95.74,159.61 Q 82.00,163.68 72.35,156.98 Q 63.94,151.14 61.55,140.71 Q 59.12,130.09 65.65,119.82 Q 65.68,119.77 67.18,117.97 Q 68.81,116.01 68.50,112.75 Q 68.12,108.74 68.58,93.74 Q 69.02,79.00 75.00,67.00 Q 78.50,59.97 85.44,53.44 Q 89.43,49.68 95.47,47.78 Q 99.02,46.67 106.67,46.25 Q 113.07,45.90 119.38,45.26 Q 121.06,45.09 119.82,43.95 Q 111.21,35.98 108.63,24.64 Q 108.09,22.24 108.58,20.86 Q 109.34,18.71 111.82,19.36 Q 112.73,19.60 114.67,20.80 Q 124.64,26.92 135.31,28.44 Q 141.93,29.38 153.25,29.56 Q 172.58,29.87 189.81,38.44 Q 205.68,46.33 214.46,59.77 Q 219.53,67.53 222.17,78.09 Q 225.46,91.24 224.69,105.70 A 1.84,1.83 -85.2 0 0 226.32,107.63 Q 236.93,108.86 242.88,118.35 Q 247.87,126.31 247.10,135.18 Q 246.58,141.17 243.28,146.25 Q 239.91,151.42 234.63,154.67 Q 230.08,157.47 224.92,158.01 Q 219.76,158.54 214.42,157.17 A 1.18,1.18 24.7 0 0 213.15,157.64 Q 201.28,174.60 182.33,180.65 ZM 127.00,34.23 Q 123.69,33.35 119.87,32.39 Q 119.33,32.25 119.63,32.72 Q 122.45,37.01 125.69,39.56 Q 127.50,40.99 128.64,42.11 Q 130.21,43.65 130.01,45.51 Q 129.73,48.07 127.33,49.59 Q 124.39,51.44 121.75,52.00 Q 116.23,53.17 109.85,53.68 Q 100.77,54.40 98.27,55.16 Q 92.57,56.90 87.83,60.83 Q 86.11,62.26 83.94,65.94 Q 77.43,76.97 76.42,88.70 Q 76.17,91.59 75.97,99.81 Q 75.84,105.37 76.27,110.94 A 0.40,0.39 -11.8 0 0 76.79,111.27 Q 87.51,107.61 97.98,111.99 A 0.33,0.33 -78.8 0 0 98.44,111.68 Q 98.38,103.06 98.68,94.44 Q 98.76,91.95 99.50,90.71 Q 100.70,88.71 103.00,88.50 Q 110.61,87.81 121.84,87.98 Q 135.18,88.18 140.67,88.11 Q 173.82,87.63 183.75,88.00 Q 199.25,88.57 215.87,87.96 A 0.52,0.52 -5.0 0 0 216.37,87.37 Q 214.76,75.55 209.77,65.71 Q 207.46,61.13 201.94,55.81 Q 186.06,40.52 165.23,38.40 Q 157.14,37.58 149.00,37.24 Q 141.55,36.93 134.20,35.80 Q 131.17,35.33 127.00,34.23 ZM 106.36,95.94 A 0.43,0.41 -88.6 0 0 105.94,96.36 L 105.71,118.60 A 2.81,2.53 -64.8 0 0 106.19,120.19 Q 110.32,125.88 111.24,131.65 Q 111.86,135.57 111.67,138.85 Q 111.46,142.46 109.69,145.94 Q 107.00,151.19 103.81,155.12 A 0.76,0.74 -40.1 0 0 103.73,155.94 Q 105.99,160.25 110.44,163.56 Q 117.01,168.45 123.96,171.65 Q 130.74,174.77 138.92,176.06 Q 149.14,177.68 161.00,177.25 Q 178.86,176.60 192.62,167.54 Q 198.12,163.92 201.40,160.96 Q 205.52,157.25 208.37,152.34 Q 217.05,137.38 217.02,120.00 Q 217.00,108.25 217.00,96.14 A 0.49,0.48 -1.7 0 0 216.48,95.66 Q 210.35,96.12 204.50,96.11 Q 156.03,96.05 106.36,95.94 ZM 224.96,117.50 Q 224.70,130.38 224.00,134.00 Q 222.46,141.95 218.83,149.81 A 0.77,0.67 -76.7 0 0 219.40,150.89 L 224.50,150.79 Q 232.11,149.50 236.75,143.00 Q 240.05,138.38 239.78,133.08 Q 239.66,130.63 239.33,128.42 Q 238.97,125.96 237.81,123.94 Q 233.80,116.91 225.80,114.69 A 0.52,0.43 10.7 0 0 225.16,115.04 L 224.96,117.50 ZM 92.41,118.84 Q 83.44,115.64 74.27,121.53 Q 71.82,123.11 70.42,125.68 Q 66.64,132.63 68.43,139.78 Q 69.45,143.86 72.13,147.12 Q 74.88,150.48 78.76,152.34 Q 83.76,154.72 88.99,153.90 Q 94.42,153.05 98.72,148.97 Q 102.46,145.40 103.56,141.31 Q 105.63,133.61 102.31,127.28 Q 99.14,121.24 92.41,118.84 ZM 144.80,184.68 A 0.55,0.53 -6.8 0 0 144.27,185.33 Q 147.27,198.21 146.28,211.50 Q 145.66,219.79 138.48,222.26 Q 136.53,222.93 134.97,222.57 Q 133.04,222.12 131.82,220.57 Q 130.68,219.13 131.14,217.70 Q 131.80,215.67 135.27,217.33 Q 137.11,218.22 138.18,216.47 Q 138.89,215.32 139.49,213.33 Q 139.95,211.82 140.06,209.99 Q 140.79,197.69 137.43,185.80 Q 136.88,183.84 136.05,185.70 Q 132.41,193.89 130.90,203.23 Q 128.84,216.03 129.01,230.01 A 0.75,0.75 89.6 0 0 129.76,230.75 L 179.84,230.75 A 0.91,0.91 -89.4 0 0 180.75,229.86 Q 181.06,218.29 178.63,206.82 Q 176.28,195.70 173.08,184.79 A 0.66,0.65 -8.3 0 0 172.45,184.33 L 144.80,184.68 ZM 174.02,244.47 L 176.90,239.05 Q 177.77,237.42 175.76,237.50 L 169.19,237.77 Q 167.39,237.84 168.49,239.24 L 172.66,244.53 A 0.84,0.78 40.4 0 0 174.02,244.47 ZM 146.80,248.66 Q 150.65,244.16 152.75,239.29 A 1.10,1.10 11.8 0 0 151.74,237.75 L 140.51,237.75 Q 138.83,237.75 139.72,239.08 L 146.15,248.65 A 0.42,0.39 -42.2 0 0 146.80,248.66 Z"/>
<path fill="#eca747" d="M 134.20,35.80 Q 141.55,36.93 149.00,37.24 Q 157.14,37.58 165.23,38.40 Q 186.06,40.52 201.94,55.81 Q 207.46,61.13 209.77,65.71 Q 214.76,75.55 216.37,87.37 A 0.52,0.52 -5.0 0 1 215.87,87.96 Q 199.25,88.57 183.75,88.00 Q 173.82,87.63 140.67,88.11 Q 135.18,88.18 121.84,87.98 Q 110.61,87.81 103.00,88.50 Q 100.70,88.71 99.50,90.71 Q 98.76,91.95 98.68,94.44 Q 98.38,103.06 98.44,111.68 A 0.33,0.33 -78.8 0 1 97.98,111.99 Q 87.51,107.61 76.79,111.27 A 0.40,0.39 -11.8 0 1 76.27,110.94 Q 75.84,105.37 75.97,99.81 Q 76.17,91.59 76.42,88.70 Q 77.43,76.97 83.94,65.94 Q 86.11,62.26 87.83,60.83 Q 92.57,56.90 98.27,55.16 Q 100.77,54.40 109.85,53.68 Q 116.23,53.17 121.75,52.00 Q 124.39,51.44 127.33,49.59 Q 129.73,48.07 130.01,45.51 Q 130.21,43.65 128.64,42.11 Q 127.50,40.99 125.69,39.56 Q 122.45,37.01 119.63,32.72 Q 119.33,32.25 119.87,32.39 Q 123.69,33.35 127.00,34.23 Q 131.17,35.33 134.20,35.80 Z"/>
<path fill="#fcebca" d="M 106.36,95.94 Q 156.03,96.05 204.50,96.11 Q 210.35,96.12 216.48,95.66 A 0.49,0.48 -1.7 0 1 217.00,96.14 Q 217.00,108.25 217.02,120.00 Q 217.05,137.38 208.37,152.34 Q 205.52,157.25 201.40,160.96 Q 198.12,163.92 192.62,167.54 Q 178.86,176.60 161.00,177.25 Q 149.14,177.68 138.92,176.06 Q 130.74,174.77 123.96,171.65 Q 117.01,168.45 110.44,163.56 Q 105.99,160.25 103.73,155.94 A 0.76,0.74 -40.1 0 1 103.81,155.12 Q 107.00,151.19 109.69,145.94 Q 111.46,142.46 111.67,138.85 Q 111.86,135.57 111.24,131.65 Q 110.32,125.88 106.19,120.19 A 2.81,2.53 -64.8 0 1 105.71,118.60 L 105.94,96.36 A 0.43,0.41 -88.6 0 1 106.36,95.94 ZM 143.6978,137.5655 A 6.45,5.57 95.0 0 0 149.8088,131.6255 A 6.45,5.57 95.0 0 0 144.8222,124.7145 A 6.45,5.57 95.0 0 0 138.7112,130.6545 A 6.45,5.57 95.0 0 0 143.6978,137.5655 ZM 199.0472,137.7410 A 6.55,5.72 93.0 0 0 205.1022,131.4994 A 6.55,5.72 93.0 0 0 199.7328,124.6590 A 6.55,5.72 93.0 0 0 193.6778,130.9006 A 6.55,5.72 93.0 0 0 199.0472,137.7410 ZM 180.13,147.22 Q 179.22,145.20 177.15,145.98 A 1.45,1.33 -84.5 0 0 176.44,146.62 Q 174.58,150.05 178.25,151.75 Q 182.98,153.94 186.21,150.38 Q 187.33,149.16 187.47,148.00 Q 187.71,146.09 185.15,145.66 A 2.14,2.14 17.0 0 0 182.85,146.88 Q 182.20,148.30 180.78,147.87 A 1.24,0.83 78.8 0 1 180.13,147.22 Z"/>
<path fill="#eda542" d="M 224.50,150.79 Q 221.99,151.37 222.19,149.19 Q 222.49,145.82 223.02,144.76 Q 224.32,142.17 225.32,139.47 Q 226.27,136.92 226.42,133.88 Q 226.77,127.04 226.52,120.19 A 0.77,0.59 -83.9 0 0 226.12,119.53 Q 225.88,119.45 225.67,119.49 A 0.93,0.54 -87.6 0 0 225.19,120.24 Q 224.96,122.06 224.96,117.50 L 225.16,115.04 A 0.52,0.43 10.7 0 1 225.80,114.69 Q 233.80,116.91 237.81,123.94 Q 238.97,125.96 239.33,128.42 Q 239.66,130.63 239.78,133.08 Q 240.05,138.38 236.75,143.00 Q 232.11,149.50 224.50,150.79 Z"/>
<path fill="#de9d57" d="M 224.96,117.50 Q 224.96,122.06 225.19,120.24 A 0.93,0.54 -87.6 0 1 225.67,119.49 Q 225.88,119.45 226.12,119.53 A 0.77,0.59 -83.9 0 1 226.52,120.19 Q 226.77,127.04 226.42,133.88 Q 226.27,136.92 225.32,139.47 Q 224.32,142.17 223.02,144.76 Q 222.49,145.82 222.19,149.19 Q 221.99,151.37 224.50,150.79 L 219.40,150.89 A 0.77,0.67 -76.7 0 1 218.83,149.81 Q 222.46,141.95 224.00,134.00 Q 224.70,130.38 224.96,117.50 Z"/>
<path fill="#eca747" d="M 102.31,127.28 Q 105.63,133.61 103.56,141.31 Q 102.46,145.40 98.72,148.97 Q 94.42,153.05 88.99,153.90 Q 83.76,154.72 78.76,152.34 Q 74.88,150.48 72.13,147.12 Q 69.45,143.86 68.43,139.78 Q 66.64,132.63 70.42,125.68 Q 71.82,123.11 74.27,121.53 Q 83.44,115.64 92.41,118.84 Q 99.14,121.24 102.31,127.28 Z"/>
<ellipse fill="#070706" cx="0.00" cy="0.00" transform="translate(144.26,131.14) rotate(95.0)" rx="6.45" ry="5.57"/>
<ellipse fill="#0b0a0a" cx="0.00" cy="0.00" transform="translate(199.39,131.20) rotate(93.0)" rx="6.55" ry="5.72"/>
<path fill="#12110f" d="M 180.78,147.87 Q 182.20,148.30 182.85,146.88 A 2.14,2.14 17.0 0 1 185.15,145.66 Q 187.71,146.09 187.47,148.00 Q 187.33,149.16 186.21,150.38 Q 182.98,153.94 178.25,151.75 Q 174.58,150.05 176.44,146.62 A 1.45,1.33 -84.5 0 1 177.15,145.98 Q 179.22,145.20 180.13,147.22 A 1.24,0.83 78.8 0 0 180.78,147.87 Z"/>
<path fill="#0b0a0a" d="M 89.15,203.34 Q 89.80,205.90 90.52,208.77 Q 90.54,208.86 91.81,213.03 Q 92.75,216.14 92.19,217.94 Q 91.06,221.55 87.69,221.94 Q 85.45,222.20 84.05,220.68 Q 82.76,219.29 82.89,217.41 Q 83.11,214.32 87.42,213.28 A 0.69,0.68 75.2 0 0 87.91,212.43 L 80.70,186.27 A 0.80,0.79 76.0 0 1 81.29,185.27 L 102.04,180.74 A 1.59,1.58 75.9 0 1 103.89,181.86 Q 105.93,189.02 107.71,195.89 Q 108.11,197.44 108.05,198.15 Q 107.87,200.00 105.73,199.61 A 1.85,0.98 56.8 0 1 104.90,199.15 Q 104.05,198.39 103.25,198.50 Q 96.78,199.35 90.22,201.42 A 1.61,1.60 -16.0 0 0 89.15,203.34 ZM 102.7068,188.8213 A 1.35 1.35 0.0 0 0 101.1038,187.7843 L 86.6131,190.8908 A 1.35 1.35 0.0 0 0 85.5760,192.4938 L 86.4732,196.6787 A 1.35 1.35 0.0 0 0 88.0762,197.7157 L 102.5669,194.6092 A 1.35 1.35 0.0 0 0 103.6040,193.0062 L 102.7068,188.8213 Z"/>
<path fill="#53656f" d="M 144.80,184.68 L 172.45,184.33 A 0.66,0.65 -8.3 0 1 173.08,184.79 Q 176.28,195.70 178.63,206.82 Q 181.06,218.29 180.75,229.86 A 0.91,0.91 -89.4 0 1 179.84,230.75 L 129.76,230.75 A 0.75,0.75 89.6 0 1 129.01,230.01 Q 128.84,216.03 130.90,203.23 Q 132.41,193.89 136.05,185.70 Q 136.88,183.84 137.43,185.80 Q 140.79,197.69 140.06,209.99 Q 139.95,211.82 139.49,213.33 Q 138.89,215.32 138.18,216.47 Q 137.11,218.22 135.27,217.33 Q 131.80,215.67 131.14,217.70 Q 130.68,219.13 131.82,220.57 Q 133.04,222.12 134.97,222.57 Q 136.53,222.93 138.48,222.26 Q 145.66,219.79 146.28,211.50 Q 147.27,198.21 144.27,185.33 A 0.55,0.53 -6.8 0 1 144.80,184.68 ZM 167.47,190.83 A 3.50 3.50 0.0 0 0 163.97,187.33 A 3.50 3.50 0.0 0 0 160.47,190.83 A 3.50 3.50 0.0 0 0 163.97,194.33 A 3.50 3.50 0.0 0 0 167.47,190.83 ZM 167.4718,204.5385 A 3.75,3.38 -26.3 0 0 162.6124,203.1699 A 3.75,3.38 -26.3 0 0 160.7482,207.8615 A 3.75,3.38 -26.3 0 0 165.6076,209.2301 A 3.75,3.38 -26.3 0 0 167.4718,204.5385 ZM 167.2939,218.7374 A 3.79,3.49 -28.4 0 0 162.3001,217.4700 A 3.79,3.49 -28.4 0 0 160.6261,222.3426 A 3.79,3.49 -28.4 0 0 165.6199,223.6100 A 3.79,3.49 -28.4 0 0 167.2939,218.7374 Z"/>
<circle fill="#0b0a0a" cx="163.97" cy="190.83" r="3.50"/>
<ellipse fill="#0b0a0a" cx="0.00" cy="0.00" transform="translate(164.11,206.20) rotate(-26.3)" rx="3.75" ry="3.38"/>
<ellipse fill="#12110f" cx="0.00" cy="0.00" transform="translate(163.96,220.54) rotate(-28.4)" rx="3.79" ry="3.49"/>
<ellipse fill="#070706" cx="0.00" cy="0.00" transform="translate(157.35,278.79) rotate(0.1)" rx="69.95" ry="7.89"/>
</svg>
