<?xml version="1.0" encoding="UTF-8" standalone="no"?>
<!DOCTYPE svg PUBLIC "-//W3C//DTD SVG 1.1//EN" "http://www.w3.org/Graphics/SVG/1.1/DTD/svg11.dtd">
<svg xmlns="http://www.w3.org/2000/svg" version="1.1" viewBox="0 0 300 300">
<path fill="#462e21" d="M 213.79,51.67 Q 212.63,54.49 215.19,52.75 L 230.10,42.59 Q 231.13,41.89 230.51,42.98 Q 225.55,51.70 220.98,60.60 Q 220.89,60.77 217.68,67.47 Q 215.94,71.12 214.03,74.16 A 1.22,1.22 -69.0 0 0 214.85,76.01 L 256.01,83.16 Q 256.50,83.25 256.06,83.48 Q 238.31,92.86 234.81,95.06 Q 229.83,98.20 224.65,100.99 Q 217.98,104.58 214.42,106.76 Q 194.60,118.92 174.67,130.95 Q 173.27,131.79 173.99,130.32 Q 182.07,113.99 189.61,97.31 Q 195.64,83.99 197.91,79.12 Q 208.55,56.31 219.37,33.59 Q 227.10,17.34 235.40,1.38 Q 235.57,1.04 235.80,0.80 Q 237.11,-0.58 236.50,1.50 Q 235.70,4.24 232.28,11.11 Q 221.91,31.93 213.79,51.67 ZM 210.27,76.98 L 222.96,51.00 Q 223.15,50.61 222.78,50.83 L 211.37,57.76 A 3.83,3.06 -8.3 0 0 209.93,59.30 L 180.30,123.88 Q 179.88,124.80 180.74,124.26 Q 197.99,113.31 215.72,103.19 Q 228.48,95.91 241.06,88.31 Q 243.10,87.08 247.57,85.56 Q 248.00,85.42 248.19,85.15 Q 248.70,84.47 247.69,84.31 Q 225.77,80.85 210.54,77.54 A 0.40,0.39 -71.3 0 1 210.27,76.98 Z"/>
<path fill="#553832" d="M 163.50,288.96 Q 160.32,289.19 157.68,287.75 Q 157.23,287.50 156.75,287.50 Q 144.75,287.50 132.75,287.50 Q 130.75,287.50 130.00,287.04 Q 142.25,287.36 154.50,287.33 Q 164.55,287.31 177.25,285.00 Q 189.42,282.78 196.04,274.14 Q 201.06,267.58 200.77,259.73 Q 200.46,251.58 194.83,244.67 Q 189.90,238.63 184.53,232.97 Q 179.08,227.24 174.96,220.27 A 0.93,0.92 -46.8 0 1 174.94,219.37 Q 179.19,211.11 183.28,202.92 Q 185.68,198.12 185.75,190.75 Q 185.85,180.93 179.15,175.56 Q 178.75,175.25 178.74,175.76 Q 178.42,189.89 165.00,192.25 Q 160.24,193.09 156.25,189.21 Q 152.58,184.59 153.36,178.55 A 0.43,0.41 4.0 0 0 152.93,178.08 L 139.54,178.17 A 0.63,0.61 -3.9 0 0 138.91,178.87 Q 139.74,184.64 136.75,188.71 Q 133.73,192.50 129.25,192.25 Q 125.27,192.03 122.04,189.69 Q 119.11,187.57 117.59,183.89 Q 115.21,178.13 116.87,171.73 Q 116.99,171.25 116.59,171.52 Q 105.12,179.09 106.16,193.24 Q 106.72,200.75 109.74,207.65 Q 112.24,213.37 115.07,218.95 A 1.68,1.67 -40.5 0 1 114.93,220.69 Q 109.99,227.53 104.35,233.80 Q 100.67,237.90 99.21,239.73 Q 96.40,243.27 94.56,246.06 Q 89.10,254.35 90.21,264.75 Q 88.78,265.32 87.79,266.50 Q 86.34,260.10 87.56,255.06 Q 88.63,250.64 91.24,245.96 Q 93.07,242.67 96.95,238.08 Q 102.69,231.27 108.60,224.60 Q 110.56,222.38 111.80,219.71 A 1.08,1.05 44.4 0 0 111.78,218.81 Q 107.83,210.91 105.01,202.78 A 0.75,0.75 64.1 0 0 103.87,202.40 Q 73.97,222.53 44.14,241.11 Q 42.70,242.00 43.49,240.51 Q 46.88,234.11 49.81,227.50 Q 54.83,216.15 54.87,216.07 Q 60.81,203.20 66.83,190.37 Q 66.88,190.27 70.99,181.06 Q 74.15,173.97 78.11,167.29 Q 78.65,166.37 78.24,167.28 Q 74.52,175.53 71.12,183.91 Q 66.88,194.38 64.11,200.56 Q 58.46,213.14 52.89,225.65 Q 51.52,228.72 54.30,226.82 Q 66.79,218.31 79.19,209.69 Q 81.05,208.39 82.34,205.25 Q 86.85,194.31 91.77,183.55 Q 99.20,167.30 100.06,165.36 Q 111.54,139.44 122.57,113.30 Q 123.28,111.62 121.62,112.38 Q 119.81,113.21 117.56,114.81 Q 112.70,118.24 107.20,120.47 Q 104.28,121.65 101.60,123.29 Q 101.14,123.57 101.24,123.08 A 0.75,0.59 -16.3 0 1 101.54,122.66 Q 113.10,114.91 124.55,106.98 Q 129.18,103.78 134.29,101.13 A 3.06,3.05 80.2 0 0 135.91,98.82 Q 136.60,93.41 136.16,87.58 Q 135.81,82.94 134.24,80.21 Q 132.27,76.78 128.70,74.58 Q 125.52,72.61 121.34,73.04 A 1.14,1.07 -2.7 0 1 120.08,71.97 L 120.25,62.81 A 0.76,0.67 -8.9 0 1 120.79,62.16 Q 123.11,61.45 126.03,61.82 A 1.09,1.09 -86.5 0 0 127.25,60.74 L 127.25,52.64 A 1.08,1.08 0.5 0 0 126.19,51.56 L 121.11,51.45 A 1.04,0.97 1.1 0 1 120.09,50.46 L 120.25,40.81 A 0.82,0.74 -11.2 0 1 120.77,40.11 Q 122.48,39.44 124.97,39.88 Q 127.20,40.27 127.21,38.03 L 127.24,24.41 A 2.28,2.22 72.8 0 1 128.16,22.60 Q 134.41,18.09 140.56,14.31 Q 142.95,12.85 150.70,10.69 Q 153.29,9.97 155.87,10.39 Q 160.61,11.16 164.25,12.25 Q 169.37,13.78 170.78,18.28 Q 171.92,21.92 171.29,25.63 Q 170.62,29.62 166.94,32.19 Q 166.12,32.75 165.50,36.25 Q 165.19,37.98 165.80,39.54 A 0.80,0.64 -8.3 0 0 166.51,39.96 L 171.69,40.01 A 0.69,0.62 83.5 0 1 172.30,40.55 Q 173.43,45.50 172.30,50.45 A 0.76,0.68 -85.6 0 1 171.69,51.03 L 166.83,51.53 A 1.46,1.35 -3.0 0 0 165.51,52.88 L 165.52,60.04 Q 165.52,62.39 167.89,61.95 Q 171.92,61.21 172.51,63.39 Q 172.51,63.39 172.51,67.15 Q 172.52,69.51 172.44,71.81 A 0.68,0.67 83.2 0 1 171.94,72.45 Q 161.43,75.28 157.97,84.16 Q 156.50,87.93 156.50,96.53 Q 156.50,139.02 156.50,181.50 Q 156.50,184.81 158.26,186.94 Q 159.99,189.03 162.94,189.35 Q 166.13,189.70 169.31,187.81 Q 172.32,186.03 173.70,183.72 Q 178.79,175.24 171.22,170.82 Q 169.51,169.82 171.48,170.00 Q 184.70,171.17 187.69,184.06 Q 189.80,193.21 186.74,200.96 Q 183.58,208.97 179.75,216.69 Q 179.53,217.14 179.50,217.46 Q 179.43,218.31 180.12,218.08 Q 180.39,217.99 180.68,217.67 Q 187.49,210.25 199.19,202.19 Q 212.00,193.36 224.90,184.64 Q 225.48,184.25 239.06,174.77 Q 246.14,169.82 253.52,165.32 Q 254.01,165.02 253.75,165.53 Q 253.44,166.15 252.84,166.61 Q 249.09,169.45 246.72,173.51 Q 240.84,183.56 235.27,193.79 Q 219.82,222.20 204.77,250.81 Q 204.73,250.89 204.04,252.01 Q 202.74,254.15 203.25,257.25 Q 204.02,261.94 202.88,266.89 Q 201.80,271.52 198.91,275.48 Q 192.25,284.59 180.49,286.97 Q 172.08,288.68 163.50,288.96 ZM 142.00,88.96 L 144.00,88.96 L 152.12,88.99 A 1.80,1.75 -83.2 0 0 153.85,87.59 Q 156.18,77.17 164.85,71.99 A 1.56,1.35 -26.5 0 0 165.57,70.26 L 163.36,64.31 Q 162.71,62.57 162.70,61.74 L 162.50,32.94 A 2.35,2.29 -11.9 0 1 163.93,30.80 Q 166.25,29.83 167.65,27.59 Q 168.90,25.60 168.90,23.06 Q 168.90,16.88 162.43,14.98 Q 155.63,12.99 153.00,13.50 Q 141.02,15.84 131.00,24.27 A 2.08,2.06 70.4 0 0 130.25,25.87 Q 130.25,41.75 130.31,57.75 Q 130.33,64.20 129.02,70.42 A 1.21,1.20 22.4 0 0 129.55,71.68 Q 138.53,77.37 139.22,88.01 A 0.71,0.57 -89.5 0 0 139.73,88.65 L 142.00,88.96 ZM 153.4344,91.5974 A 0.27 0.27 0.0 0 0 153.1658,91.3260 L 139.4660,91.2543 A 0.27 0.27 0.0 0 0 139.1946,91.5228 L 139.1056,108.5026 A 0.27 0.27 0.0 0 0 139.3742,108.7740 L 153.0740,108.8457 A 0.27 0.27 0.0 0 0 153.3454,108.5772 L 153.4344,91.5974 ZM 153.48,110.19 A 0.30 0.30 0.0 0 0 153.18,109.89 L 139.34,109.89 A 0.30 0.30 0.0 0 0 139.04,110.19 L 139.04,176.61 A 0.30 0.30 0.0 0 0 139.34,176.91 L 153.18,176.91 A 0.30 0.30 0.0 0 0 153.48,176.61 L 153.48,110.19 ZM 125.05,166.48 Q 117.73,170.37 118.96,179.01 Q 120.26,188.11 128.29,188.95 Q 131.82,189.32 133.79,187.50 Q 135.99,185.45 136.00,181.50 Q 136.05,165.66 135.94,150.23 A 0.38,0.38 74.8 0 0 135.37,149.90 Q 121.13,158.03 110.05,168.82 Q 107.32,171.48 105.81,174.37 Q 104.17,177.51 103.04,180.89 Q 102.36,182.94 103.56,182.20 Q 103.91,181.99 104.14,181.51 Q 110.20,169.10 124.06,165.81 Q 124.76,165.65 125.16,165.89 Q 125.63,166.17 125.05,166.48 ZM 179.55,219.18 Q 177.69,219.18 178.75,220.70 Q 185.65,230.69 194.74,239.86 A 0.92,0.89 37.0 0 0 196.19,239.68 L 206.69,220.05 A 0.56,0.54 13.6 0 0 206.18,219.25 L 179.55,219.18 Z"/>
<path fill="#91b8bd" d="M 144.00,88.96 L 144.00,67.79 Q 144.75,67.17 145.71,67.25 Q 146.95,77.62 145.81,88.00 A 0.67,0.58 -79.2 0 0 146.21,88.69 Q 146.93,88.90 147.58,88.54 A 1.02,0.86 80.3 0 0 148.04,87.76 Q 148.38,83.91 148.25,82.50 Q 147.57,74.98 148.54,67.50 Q 154.12,68.74 154.35,64.35 Q 154.47,62.17 152.99,61.15 Q 151.23,59.93 148.79,61.50 Q 147.07,57.72 148.79,54.00 Q 154.13,55.19 154.36,51.09 Q 154.48,48.94 153.07,47.85 Q 151.31,46.47 148.79,48.25 Q 147.07,44.20 148.54,40.00 Q 153.60,41.79 154.37,37.99 Q 154.82,35.77 153.24,34.46 Q 151.20,32.75 148.54,35.25 Q 147.23,29.52 148.50,23.75 Q 148.96,21.68 147.93,23.00 Q 147.75,23.24 147.66,23.53 Q 146.27,27.91 146.94,33.06 Q 147.07,34.12 146.21,35.25 Q 143.42,32.48 141.03,34.46 Q 139.54,35.69 139.63,37.61 Q 139.75,40.36 142.93,40.30 Q 143.59,40.29 144.46,39.85 Q 145.18,39.49 145.96,39.25 Q 146.22,40.97 146.12,42.70 Q 146.12,42.81 146.26,45.29 Q 146.34,46.72 145.46,48.00 Q 143.00,46.60 141.17,47.74 Q 139.50,48.79 139.32,50.91 Q 139.13,53.21 141.76,53.84 Q 142.52,54.01 143.73,53.77 Q 144.71,53.57 145.71,53.50 Q 146.86,57.33 145.46,61.00 Q 142.52,59.49 140.68,61.14 Q 139.12,62.55 139.31,64.74 Q 139.53,67.23 142.50,67.96 L 142.28,67.99 A 0.31,0.26 85.7 0 0 142.07,68.29 L 142.00,88.96 L 139.73,88.65 A 0.71,0.57 -89.5 0 1 139.22,88.01 Q 138.53,77.37 129.55,71.68 A 1.21,1.20 22.4 0 1 129.02,70.42 Q 130.33,64.20 130.31,57.75 Q 130.25,41.75 130.25,25.87 A 2.08,2.06 70.4 0 1 131.00,24.27 Q 141.02,15.84 153.00,13.50 Q 155.63,12.99 162.43,14.98 Q 168.90,16.88 168.90,23.06 Q 168.90,25.60 167.65,27.59 Q 166.25,29.83 163.93,30.80 A 2.35,2.29 -11.9 0 0 162.50,32.94 L 162.70,61.74 Q 162.71,62.57 163.36,64.31 L 165.57,70.26 A 1.56,1.35 -26.5 0 1 164.85,71.99 Q 156.18,77.17 153.85,87.59 A 1.80,1.75 -83.2 0 1 152.12,88.99 L 144.00,88.96 Z"/>
<path fill="#bbd7d8" d="M 148.54,35.25 Q 147.69,37.63 148.54,40.00 Q 147.07,44.20 148.79,48.25 Q 147.16,51.14 148.79,54.00 Q 147.07,57.72 148.79,61.50 Q 147.33,64.44 148.54,67.50 Q 147.57,74.98 148.25,82.50 Q 148.38,83.91 148.04,87.76 A 1.02,0.86 80.3 0 1 147.58,88.54 Q 146.93,88.90 146.21,88.69 A 0.67,0.58 -79.2 0 1 145.81,88.00 Q 146.95,77.62 145.71,67.25 Q 147.40,64.01 145.46,61.00 Q 146.86,57.33 145.71,53.50 Q 147.30,50.64 145.46,48.00 Q 146.34,46.72 146.26,45.29 Q 146.12,42.81 146.12,42.70 Q 146.22,40.97 145.96,39.25 Q 146.96,37.32 146.21,35.25 Q 147.07,34.12 146.94,33.06 Q 146.27,27.91 147.66,23.53 Q 147.75,23.24 147.93,23.00 Q 148.96,21.68 148.50,23.75 Q 147.23,29.52 148.54,35.25 Z"/>
<path fill="#3e2b22" fill-opacity="0.996" d="M 146.21,35.25 Q 146.96,37.32 145.96,39.25 Q 145.18,39.49 144.46,39.85 Q 143.59,40.29 142.93,40.30 Q 139.75,40.36 139.63,37.61 Q 139.54,35.69 141.03,34.46 Q 143.42,32.48 146.21,35.25 ZM 144.15,36.72 A 1.23 1.23 0.0 0 0 142.92,35.49 A 1.23 1.23 0.0 0 0 141.69,36.72 A 1.23 1.23 0.0 0 0 142.92,37.95 A 1.23 1.23 0.0 0 0 144.15,36.72 Z"/>
<path fill="#3e2b22" fill-opacity="0.996" d="M 148.54,40.00 Q 147.69,37.63 148.54,35.25 Q 151.20,32.75 153.24,34.46 Q 154.82,35.77 154.37,37.99 Q 153.60,41.79 148.54,40.00 ZM 152.72,36.87 A 1.21 1.21 0.0 0 0 151.51,35.66 A 1.21 1.21 0.0 0 0 150.30,36.87 A 1.21 1.21 0.0 0 0 151.51,38.08 A 1.21 1.21 0.0 0 0 152.72,36.87 Z"/>
<path fill="#bbd7d8" d="M 142.92 36.72 m -1.23, 0 a 1.23,1.23 0 1,0 2.46,0 a 1.23,1.23 0 1,0 -2.46,0" />
<path fill="#dcd8d3" d="M 151.51 36.87 m -1.21, 0 a 1.21,1.21 0 1,0 2.42,0 a 1.21,1.21 0 1,0 -2.42,0" />
<path fill="#3a201a" d="M 145.46,48.00 Q 147.30,50.64 145.71,53.50 Q 144.71,53.57 143.73,53.77 Q 142.52,54.01 141.76,53.84 Q 139.13,53.21 139.32,50.91 Q 139.50,48.79 141.17,47.74 Q 143.00,46.60 145.46,48.00 ZM 141.9973,51.8027 A 1.47,1.26 120.8 0 0 143.8323,51.1852 A 1.47,1.26 120.8 0 0 143.5027,49.2773 A 1.47,1.26 120.8 0 0 141.6677,49.8948 A 1.47,1.26 120.8 0 0 141.9973,51.8027 Z"/>
<path fill="#3e2b22" fill-opacity="0.996" d="M 148.79,54.00 Q 147.16,51.14 148.79,48.25 Q 151.31,46.47 153.07,47.85 Q 154.48,48.94 154.36,51.09 Q 154.13,55.19 148.79,54.00 ZM 150.7643,51.8185 A 1.41,1.14 116.8 0 0 152.4175,51.0740 A 1.41,1.14 116.8 0 0 152.0357,49.3015 A 1.41,1.14 116.8 0 0 150.3825,50.0460 A 1.41,1.14 116.8 0 0 150.7643,51.8185 Z"/>
<path fill="#dcd8d3" d="M 140.40 49.70 A 1.47 1.26 120.8 1 1 145.10 51.15 A 1.47 1.26 120.8 1 1 140.40 49.70 Z" />
<path fill="#dcd8d3" d="M 149.23 49.88 A 1.41 1.14 116.8 1 1 153.57 51.05 A 1.41 1.14 116.8 1 1 149.23 49.88 Z" />
<path fill="#f1be46" d="M 210.54,77.54 Q 225.77,80.85 247.69,84.31 Q 248.70,84.47 248.19,85.15 Q 248.00,85.42 247.57,85.56 Q 243.10,87.08 241.06,88.31 Q 228.48,95.91 215.72,103.19 Q 197.99,113.31 180.74,124.26 Q 179.88,124.80 180.30,123.88 L 209.93,59.30 A 3.83,3.06 -8.3 0 1 211.37,57.76 L 222.78,50.83 Q 223.15,50.61 222.96,51.00 L 210.27,76.98 A 0.40,0.39 -71.3 0 0 210.54,77.54 Z"/>
<path fill="#3e2b22" fill-opacity="0.996" d="M 145.46,61.00 Q 147.40,64.01 145.71,67.25 Q 144.75,67.17 144.00,67.79 L 142.50,67.96 Q 139.53,67.23 139.31,64.74 Q 139.12,62.55 140.68,61.14 Q 142.52,59.49 145.46,61.00 ZM 142.3584,64.9190 A 1.32,1.12 111.4 0 0 143.8828,64.0987 A 1.32,1.12 111.4 0 0 143.3216,62.4610 A 1.32,1.12 111.4 0 0 141.7972,63.2813 A 1.32,1.12 111.4 0 0 142.3584,64.9190 Z"/>
<path fill="#3a201a" d="M 148.54,67.50 Q 147.33,64.44 148.79,61.50 Q 151.23,59.93 152.99,61.15 Q 154.47,62.17 154.35,64.35 Q 154.12,68.74 148.54,67.50 ZM 150.9627,64.9972 A 1.35,1.15 108.9 0 0 152.4880,64.0925 A 1.35,1.15 108.9 0 0 151.8373,62.4428 A 1.35,1.15 108.9 0 0 150.3120,63.3475 A 1.35,1.15 108.9 0 0 150.9627,64.9972 Z"/>
<path fill="#dcd8d3" d="M 140.73 63.11 A 1.32 1.12 111.4 1 1 144.95 64.15 A 1.32 1.12 111.4 1 1 140.73 63.11 Z" />
<path fill="#dcd8d3" d="M 149.41 63.19 A 1.35 1.15 108.9 1 1 153.39 64.23 A 1.35 1.15 108.9 1 1 149.41 63.19 Z" />
<path fill="#bbd7d8" d="M 144.00,67.79 L 144.00,88.96 L 142.00,88.96 L 142.07,68.29 A 0.31,0.26 85.7 0 1 142.28,67.99 L 142.50,67.96 L 144.00,67.79 Z"/>
<path fill="#3e2b22" fill-opacity="0.996" d="M 178.05,85.74 Q 178.69,84.68 179.14,83.53 A 1.37,0.78 -80.6 0 1 179.73,82.80 Q 180.50,82.47 180.84,83.59 Q 182.11,87.75 185.97,89.23 Q 186.96,89.61 185.95,89.93 Q 182.22,91.14 180.27,94.46 Q 178.51,97.48 177.61,94.10 Q 176.70,90.69 173.69,89.31 Q 170.75,87.96 174.25,87.75 Q 175.41,87.68 176.45,87.22 Q 177.42,86.80 178.05,85.74 ZM 180.0491,86.6766 A 0.27 0.27 0.0 0 0 179.6677,86.6579 L 177.1341,88.9552 A 0.27 0.27 0.0 0 0 177.1155,89.3366 L 179.1709,91.6034 A 0.27 0.27 0.0 0 0 179.5523,91.6221 L 182.0859,89.3248 A 0.27 0.27 0.0 0 0 182.1045,88.9434 L 180.0491,86.6766 Z"/>
<path fill="#3e2b22" fill-opacity="0.996" d="M 73.56,145.68 A 0.64,0.64 -15.1 0 0 74.52,146.23 Q 81.31,142.34 88.22,139.42 Q 90.72,138.36 88.95,139.83 Q 88.76,139.99 88.53,140.13 Q 78.29,146.14 68.88,152.10 Q 67.57,152.93 68.21,151.52 Q 73.27,140.54 78.39,129.71 Q 81.17,123.84 86.68,111.51 Q 92.01,99.58 97.96,87.95 Q 98.16,87.54 98.41,87.54 A 0.45,0.30 -73.4 0 1 98.59,88.13 Q 86.67,116.03 74.10,143.65 Q 73.55,144.86 73.56,145.68 Z"/>
<path fill="#855a4c" d="M 139.91 91.72 L 152.62 91.72 L 152.62 109.24 L 139.91 109.24 L 139.91 91.72 Z M 146.27 100.05 A 0.27 0.27 0.3 1 1 146.00 100.05 A 0.27 0.27 0.3 1 1 146.27 100.05 Z" />
<path fill="#855a4c" d="M 139.04 109.89 L 153.48 109.89 L 153.48 176.91 L 139.04 176.91 L 139.04 109.89 Z" />
<path fill="#f4d089" d="M 136.75,188.71 Q 137.33,188.67 137.29,189.25 Q 136.40,191.24 138.75,191.25 Q 146.38,191.30 154.00,191.20 Q 154.90,191.18 155.26,190.80 Q 155.77,190.25 155.50,189.29 L 156.25,189.21 Q 160.24,193.09 165.00,192.25 Q 178.42,189.89 178.74,175.76 Q 178.75,175.25 179.15,175.56 Q 185.85,180.93 185.75,190.75 Q 185.68,198.12 183.28,202.92 Q 179.19,211.11 174.94,219.37 A 0.93,0.92 -46.8 0 0 174.96,220.27 Q 179.08,227.24 184.53,232.97 Q 189.90,238.63 194.83,244.67 Q 200.46,251.58 200.77,259.73 Q 201.06,267.58 196.04,274.14 Q 189.42,282.78 177.25,285.00 Q 164.55,287.31 154.50,287.33 Q 142.25,287.36 130.00,287.04 Q 121.20,286.67 112.58,284.88 Q 105.48,283.41 100.69,280.31 Q 92.47,275.00 90.21,264.75 Q 89.10,254.35 94.56,246.06 Q 96.40,243.27 99.21,239.73 Q 100.67,237.90 104.35,233.80 Q 109.99,227.53 114.93,220.69 A 1.68,1.67 -40.5 0 0 115.07,218.95 Q 112.24,213.37 109.74,207.65 Q 106.72,200.75 106.16,193.24 Q 105.12,179.09 116.59,171.52 Q 116.99,171.25 116.87,171.73 Q 115.21,178.13 117.59,183.89 Q 119.11,187.57 122.04,189.69 Q 125.27,192.03 129.25,192.25 Q 133.73,192.50 136.75,188.71 ZM 128.49,207.56 Q 125.82,206.12 125.00,203.71 Q 124.12,201.14 123.69,203.83 Q 122.72,209.90 126.15,212.58 Q 128.01,214.03 130.61,214.11 Q 133.48,214.20 135.31,212.31 Q 138.02,209.51 137.65,204.24 Q 137.44,201.33 136.32,203.32 Q 136.12,203.67 135.92,204.35 Q 135.12,207.11 132.76,208.01 Q 130.76,208.78 128.49,207.56 ZM 157.78,207.28 Q 156.31,206.13 155.66,204.27 Q 155.42,203.58 155.21,203.29 Q 154.26,201.93 153.94,204.19 Q 153.46,207.61 154.74,210.20 Q 156.00,212.75 159.13,213.67 Q 165.44,215.51 168.25,208.50 Q 169.03,206.55 168.50,203.75 Q 168.13,201.82 167.17,202.86 Q 166.91,203.13 166.58,203.85 Q 164.89,207.52 161.10,208.09 Q 159.18,208.38 157.78,207.28 ZM 143.30,215.32 L 148.32,215.43 A 0.53,0.50 88.7 0 1 148.81,215.93 L 148.92,217.26 Q 148.96,217.82 149.33,217.38 Q 151.00,215.39 150.96,212.80 A 0.30,0.30 -15.2 0 0 150.51,212.55 Q 146.73,214.57 142.65,213.38 Q 142.15,213.23 141.60,212.79 Q 139.72,211.27 140.58,214.30 Q 140.90,215.41 141.44,216.43 Q 142.78,218.95 142.81,215.82 A 0.51,0.48 -88.8 0 1 143.30,215.32 ZM 132.31,227.00 A 1.02,0.99 1.1 0 0 131.24,228.00 L 131.50,267.50 Q 131.52,270.07 132.69,267.94 Q 134.01,265.53 135.47,263.21 Q 144.57,248.77 161.51,253.75 A 0.71,0.71 8.1 0 0 162.43,253.06 L 162.25,221.31 A 0.25,0.25 75.0 0 0 161.87,221.09 Q 149.68,227.92 132.31,227.00 ZM 184.8781,249.9465 A 4.78,4.25 -1.6 0 0 179.9813,245.8317 A 4.78,4.25 -1.6 0 0 175.3219,250.2135 A 4.78,4.25 -1.6 0 0 180.2187,254.3283 A 4.78,4.25 -1.6 0 0 184.8781,249.9465 ZM 188.97,267.05 A 6.78 6.78 0.0 0 0 182.19,260.27 A 6.78 6.78 0.0 0 0 175.41,267.05 A 6.78 6.78 0.0 0 0 182.19,273.83 A 6.78 6.78 0.0 0 0 188.97,267.05 Z"/>
<path fill="#855a4c" d="M 156.25,189.21 L 155.50,189.29 Q 146.39,189.81 137.29,189.25 Q 137.33,188.67 136.75,188.71 Q 139.74,184.64 138.91,178.87 A 0.63,0.61 -3.9 0 1 139.54,178.17 L 152.93,178.08 A 0.43,0.41 4.0 0 1 153.36,178.55 Q 152.58,184.59 156.25,189.21 Z"/>
<path fill="#553832" d="M 155.50,189.29 Q 155.77,190.25 155.26,190.80 Q 154.90,191.18 154.00,191.20 Q 146.38,191.30 138.75,191.25 Q 136.40,191.24 137.29,189.25 Q 146.39,189.81 155.50,189.29 Z"/>
<path fill="#4c3028" d="M 132.76,208.01 Q 135.12,207.11 135.92,204.35 Q 136.12,203.67 136.32,203.32 Q 137.44,201.33 137.65,204.24 Q 138.02,209.51 135.31,212.31 Q 133.48,214.20 130.61,214.11 Q 128.01,214.03 126.15,212.58 Q 122.72,209.90 123.69,203.83 Q 124.12,201.14 125.00,203.71 Q 125.82,206.12 128.49,207.56 Q 130.76,208.78 132.76,208.01 Z"/>
<path fill="#4c3028" d="M 161.10,208.09 Q 164.89,207.52 166.58,203.85 Q 166.91,203.13 167.17,202.86 Q 168.13,201.82 168.50,203.75 Q 169.03,206.55 168.25,208.50 Q 165.44,215.51 159.13,213.67 Q 156.00,212.75 154.74,210.20 Q 153.46,207.61 153.94,204.19 Q 154.26,201.93 155.21,203.29 Q 155.42,203.58 155.66,204.27 Q 156.31,206.13 157.78,207.28 Q 159.18,208.38 161.10,208.09 Z"/>
<path fill="#3a201a" d="M 142.81,215.82 Q 142.78,218.95 141.44,216.43 Q 140.90,215.41 140.58,214.30 Q 139.72,211.27 141.60,212.79 Q 142.15,213.23 142.65,213.38 Q 146.73,214.57 150.51,212.55 A 0.30,0.30 -15.2 0 1 150.96,212.80 Q 151.00,215.39 149.33,217.38 Q 148.96,217.82 148.92,217.26 L 148.81,215.93 A 0.53,0.50 88.7 0 0 148.32,215.43 L 143.30,215.32 A 0.51,0.48 -88.8 0 0 142.81,215.82 Z"/>
<path fill="#523531" d="M 132.31,227.00 Q 149.68,227.92 161.87,221.09 A 0.25,0.25 75.0 0 1 162.25,221.31 L 162.43,253.06 A 0.71,0.71 8.1 0 1 161.51,253.75 Q 144.57,248.77 135.47,263.21 Q 134.01,265.53 132.69,267.94 Q 131.52,270.07 131.50,267.50 L 131.24,228.00 A 1.02,0.99 1.1 0 1 132.31,227.00 ZM 141.00,228.96 L 133.44,228.92 A 0.58,0.53 1.0 0 0 132.86,229.43 L 132.69,234.93 Q 132.62,237.24 134.90,236.20 L 138.00,234.79 Q 138.04,235.48 138.77,235.33 Q 148.75,233.23 159.90,231.02 A 1.06,1.05 -5.7 0 0 160.75,229.99 L 160.75,224.21 A 0.33,0.33 77.5 0 0 160.28,223.91 Q 150.81,228.32 141.00,228.96 ZM 156.88,245.87 Q 151.55,241.00 145.25,244.75 Q 140.52,247.56 137.38,252.68 Q 136.21,254.58 135.14,257.62 Q 134.23,260.20 133.39,262.80 Q 133.14,263.58 133.52,263.47 A 0.89,0.49 -74.9 0 0 133.95,263.02 Q 138.67,253.26 149.41,251.04 Q 154.58,249.97 159.71,251.74 Q 160.96,252.17 160.47,250.95 Q 159.33,248.10 156.88,245.87 Z"/>
<path fill="#f9f7e2" d="M 138.00,234.79 Q 139.43,233.92 140.93,233.17 Q 145.02,231.12 141.00,228.96 Q 150.81,228.32 160.28,223.91 A 0.33,0.33 77.5 0 1 160.75,224.21 L 160.75,229.99 A 1.06,1.05 -5.7 0 1 159.90,231.02 Q 148.75,233.23 138.77,235.33 Q 138.04,235.48 138.00,234.79 Z"/>
<path fill="#f9f7e2" d="M 156.88,245.87 Q 159.33,248.10 160.47,250.95 Q 160.96,252.17 159.71,251.74 Q 154.58,249.97 149.41,251.04 Q 138.67,253.26 133.95,263.02 A 0.89,0.49 -74.9 0 1 133.52,263.47 Q 133.14,263.58 133.39,262.80 Q 134.23,260.20 135.14,257.62 Q 136.21,254.58 137.38,252.68 Q 140.52,247.56 145.25,244.75 Q 151.55,241.00 156.88,245.87 Z"/>
<path fill="#3e2b22" fill-opacity="0.996" d="M 184.8781,249.9465 A 4.78,4.25 -1.6 0 1 180.2187,254.3283 A 4.78,4.25 -1.6 0 1 175.3219,250.2135 A 4.78,4.25 -1.6 0 1 179.9813,245.8317 A 4.78,4.25 -1.6 0 1 184.8781,249.9465 ZM 182.71,250.13 A 2.73 2.73 0.0 0 0 179.98,247.40 A 2.73 2.73 0.0 0 0 177.25,250.13 A 2.73 2.73 0.0 0 0 179.98,252.86 A 2.73 2.73 0.0 0 0 182.71,250.13 Z"/>
<path fill="#f4d089" d="M 179.98 250.13 m -2.73, 0 a 2.73,2.73 0 1,0 5.46,0 a 2.73,2.73 0 1,0 -5.46,0" />
<path fill="#462e21" d="M 188.97,267.05 A 6.78 6.78 0.0 0 1 182.19,273.83 A 6.78 6.78 0.0 0 1 175.41,267.05 A 6.78 6.78 0.0 0 1 182.19,260.27 A 6.78 6.78 0.0 0 1 188.97,267.05 ZM 186.79,267.05 A 4.68 4.68 0.0 0 0 182.11,262.37 A 4.68 4.68 0.0 0 0 177.43,267.05 A 4.68 4.68 0.0 0 0 182.11,271.73 A 4.68 4.68 0.0 0 0 186.79,267.05 Z"/>
<path fill="#3a201a" d="M 90.21,264.75 Q 92.47,275.00 100.69,280.31 Q 105.48,283.41 112.58,284.88 Q 121.20,286.67 130.00,287.04 Q 130.75,287.50 132.75,287.50 Q 144.75,287.50 156.75,287.50 Q 157.23,287.50 157.68,287.75 Q 160.32,289.19 163.50,288.96 Q 141.10,289.99 118.75,288.25 Q 118.00,288.19 116.07,287.64 Q 114.81,287.28 113.38,287.16 Q 106.73,286.59 100.80,283.47 Q 90.40,278.00 87.79,266.50 Q 88.78,265.32 90.21,264.75 Z"/>
</svg>
