<?xml version="1.0" encoding="UTF-8" standalone="no"?>
<!DOCTYPE svg PUBLIC "-//W3C//DTD SVG 1.1//EN" "http://www.w3.org/Graphics/SVG/1.1/DTD/svg11.dtd">
<svg xmlns="http://www.w3.org/2000/svg" version="1.1" viewBox="0 0 300 300">
<path fill="#393022" d="M 120.73,53.81 Q 119.94,58.83 120.19,63.92 Q 120.25,65.22 119.72,65.94 Q 118.63,67.43 117.28,65.65 A 1.72,1.36 -70.0 0 1 116.98,64.75 Q 116.41,53.13 116.98,41.88 Q 117.08,40.02 118.80,39.32 Q 126.68,36.10 135.18,35.78 Q 138.60,35.66 138.83,35.69 Q 141.23,36.06 141.24,39.25 Q 141.25,47.75 141.31,56.25 Q 141.33,58.99 138.93,58.66 A 1.02,0.96 79.6 0 1 138.19,58.12 Q 137.00,55.85 137.65,52.45 Q 138.19,49.64 135.33,49.86 Q 128.73,50.35 121.28,53.14 A 0.86,0.85 84.8 0 0 120.73,53.81 ZM 136.32,40.44 Q 127.50,40.50 122.06,43.06 Q 118.73,44.63 120.79,48.01 A 0.66,0.64 -23.9 0 0 121.54,48.29 Q 131.35,45.34 134.31,45.31 Q 139.24,45.27 137.05,40.88 A 0.83,0.82 -13.7 0 0 136.32,40.44 Z"/>
<path fill="#393022" d="M 123.69,265.95 Q 124.72,265.92 124.11,265.08 Q 120.84,260.67 118.88,256.02 A 1.24,1.15 87.9 0 0 118.23,255.37 L 112.44,253.05 A 2.92,2.84 5.9 0 1 110.69,250.96 Q 110.41,249.56 108.92,249.65 Q 107.67,249.72 107.56,249.72 Q 104.46,249.46 102.50,247.50 Q 97.80,242.80 100.50,236.25 Q 100.92,235.24 100.44,233.96 A 1.36,1.09 51.3 0 1 100.44,233.04 Q 101.24,231.23 102.42,229.66 Q 103.86,227.77 104.46,226.40 Q 107.70,218.99 111.31,212.10 A 1.15,1.15 24.6 0 0 110.71,210.49 Q 97.57,205.42 90.31,194.07 A 4.44,4.41 85.5 0 0 88.37,192.40 Q 73.00,185.44 69.84,169.73 Q 69.36,167.32 68.92,164.91 Q 68.62,163.25 67.74,160.18 Q 66.59,156.16 66.48,151.98 Q 66.35,147.14 66.34,147.02 Q 65.30,125.86 75.82,107.80 Q 77.49,104.92 80.38,101.77 Q 82.93,98.97 85.49,96.13 A 0.57,0.57 -45.8 0 0 85.48,95.36 Q 80.28,90.01 77.46,83.53 Q 76.61,81.57 77.21,80.27 Q 78.09,78.37 80.76,79.54 Q 82.37,80.25 82.40,80.26 Q 91.06,83.40 100.31,80.06 Q 109.34,76.81 115.94,71.44 Q 121.64,66.79 130.11,63.40 Q 138.55,60.01 145.75,59.55 Q 155.56,58.93 165.65,62.39 Q 167.20,62.92 166.45,61.46 Q 164.87,58.35 163.30,55.49 Q 162.60,54.23 162.92,53.38 Q 163.44,52.00 165.50,52.50 Q 174.22,54.61 182.43,62.33 A 4.62,4.61 71.9 0 0 184.73,63.50 Q 197.89,65.91 205.76,75.82 Q 208.81,79.66 210.79,84.76 Q 212.63,89.49 213.59,94.73 A 4.80,4.77 -71.0 0 0 214.70,97.02 Q 223.94,107.55 225.50,121.00 Q 226.08,125.95 225.52,137.99 Q 225.50,138.50 225.73,138.95 Q 232.31,151.80 230.56,166.26 Q 229.05,178.72 220.77,188.02 Q 214.33,195.26 204.73,197.00 Q 203.18,197.29 202.11,198.44 Q 195.65,205.40 185.92,209.62 A 0.46,0.46 -27.3 0 0 185.71,210.27 Q 190.53,218.33 196.03,225.24 Q 199.43,229.52 201.74,234.45 Q 202.89,236.89 202.51,239.25 Q 200.94,248.87 190.05,247.86 A 1.39,1.34 -59.6 0 0 189.15,248.11 Q 184.79,251.20 179.78,253.13 A 1.10,1.03 -3.1 0 0 179.16,253.78 Q 177.17,259.83 174.02,264.82 Q 173.26,266.02 174.68,266.05 Q 182.27,266.24 189.41,267.40 Q 190.09,267.51 190.53,267.79 Q 192.10,268.78 189.50,269.25 Q 184.66,270.11 167.75,270.31 Q 151.62,270.50 135.50,270.62 Q 122.79,270.72 110.19,269.03 Q 107.81,268.70 109.29,267.76 Q 109.68,267.51 110.27,267.40 Q 117.15,266.15 123.69,265.95 ZM 100.96,86.75 L 96.48,87.61 Q 96.17,87.67 95.50,87.69 Q 94.85,87.70 95.00,88.46 Q 91.51,87.27 87.83,87.31 A 0.64,0.42 11.8 0 0 87.37,87.49 Q 87.28,87.61 87.25,87.75 A 0.70,0.49 17.4 0 0 87.73,88.37 L 98.25,92.29 Q 98.01,93.61 96.91,94.40 Q 80.71,106.09 75.47,125.45 Q 73.08,134.29 72.76,143.44 Q 72.75,143.84 72.89,144.03 Q 73.10,144.30 73.50,144.29 Q 73.17,144.46 72.94,144.72 Q 72.75,144.94 72.73,145.34 Q 72.37,151.84 73.11,158.32 Q 73.23,159.31 73.84,159.23 A 1.14,0.55 -69.2 0 0 74.51,158.60 L 77.01,153.90 A 4.14,3.06 -44.2 0 0 77.44,151.28 L 75.75,144.29 L 76.75,143.46 Q 78.88,142.71 79.32,144.99 Q 80.59,151.66 85.00,157.47 Q 85.62,158.29 85.58,157.26 L 85.33,150.56 A 0.88,0.87 73.8 0 1 85.74,149.80 Q 94.93,144.06 100.79,134.98 A 1.45,1.13 -75.8 0 1 101.54,134.40 Q 102.99,134.02 103.02,135.37 Q 103.03,136.00 102.62,136.95 Q 99.34,144.63 92.54,149.16 Q 91.53,149.84 92.74,149.75 Q 97.73,149.40 102.14,147.10 Q 109.70,143.15 115.73,137.15 Q 116.41,136.48 117.02,136.14 Q 119.69,134.69 118.54,137.62 Q 118.24,138.39 117.60,139.10 Q 112.79,144.52 106.71,148.50 Q 98.82,152.91 89.74,152.50 A 0.41,0.41 -86.4 0 0 89.31,152.88 Q 88.52,162.54 89.30,172.27 Q 90.33,184.94 98.06,194.49 Q 100.83,197.91 103.08,199.87 Q 105.77,202.21 109.31,203.94 Q 125.71,211.94 143.50,211.21 Q 159.87,211.79 176.81,206.81 Q 189.12,203.20 197.64,194.85 A 0.31,0.31 32.0 0 0 197.52,194.34 Q 185.67,190.17 182.12,177.92 Q 177.24,161.13 184.78,145.45 A 0.49,0.49 25.3 0 0 184.54,144.79 Q 175.37,140.45 169.81,131.93 A 0.49,0.49 -46.3 0 0 168.98,131.95 Q 167.83,133.87 166.01,135.32 Q 164.50,136.53 164.42,136.61 Q 151.76,147.45 135.50,151.46 Q 122.11,154.25 109.69,152.06 Q 108.59,151.87 108.54,150.50 Q 110.27,149.30 112.27,148.81 Q 115.78,147.94 116.14,147.81 Q 130.81,142.23 141.97,131.16 Q 142.71,130.42 143.33,130.23 Q 144.62,129.83 145.05,130.96 A 0.83,0.72 -35.7 0 1 144.85,131.79 Q 134.34,142.80 120.76,149.71 Q 120.31,149.94 120.82,149.89 Q 144.08,147.62 162.12,132.85 Q 166.31,129.42 169.70,125.18 Q 170.54,124.12 170.97,125.40 Q 174.19,134.97 183.00,140.04 L 187.84,143.01 Q 189.59,144.08 188.51,145.74 Q 185.66,150.08 185.04,155.25 Q 182.57,164.29 184.29,173.50 Q 185.92,185.95 196.60,190.17 Q 199.97,191.50 203.54,190.79 Q 208.01,189.89 211.73,187.44 Q 216.29,184.46 219.54,178.49 Q 227.83,163.31 220.96,146.05 Q 219.11,141.41 215.42,138.17 Q 214.21,137.12 214.67,136.67 Q 215.17,136.18 217.37,136.56 A 0.75,0.74 9.8 0 0 218.23,135.96 Q 221.78,116.70 210.69,102.81 Q 205.79,96.68 196.94,91.06 Q 195.93,90.42 190.00,88.42 Q 189.42,88.22 189.05,87.97 Q 187.47,86.87 190.00,86.74 Q 198.90,86.27 205.18,92.81 Q 205.60,93.26 205.48,92.65 Q 201.97,75.38 184.50,69.50 A 0.38,0.37 9.5 0 0 184.00,69.85 L 184.04,75.75 L 182.96,80.50 L 182.29,80.50 Q 179.24,69.64 171.69,61.83 Q 170.98,61.09 171.17,62.10 Q 172.24,67.73 171.55,72.66 Q 171.31,74.32 170.19,73.07 Q 168.15,70.80 165.39,69.52 Q 154.20,64.36 142.07,66.87 Q 132.92,68.77 124.93,73.32 Q 124.58,73.52 116.51,79.24 Q 109.41,84.26 100.96,86.75 ZM 77.61,158.08 Q 74.14,170.59 81.10,180.40 Q 81.32,180.70 81.57,180.94 Q 83.20,182.44 82.27,180.21 Q 79.31,173.06 80.39,165.53 Q 80.83,162.46 80.61,161.46 Q 80.13,159.26 78.18,157.88 A 0.37,0.37 25.6 0 0 77.61,158.08 ZM 140.75,236.96 Q 140.08,238.41 140.36,239.93 Q 140.76,242.17 140.76,242.24 Q 141.22,248.13 142.90,254.32 A 1.16,1.03 80.8 0 0 143.95,255.17 L 151.29,255.00 Q 169.45,253.68 184.91,244.85 A 0.89,0.89 51.9 0 0 185.08,243.44 Q 177.66,236.24 172.00,228.45 Q 171.81,228.18 171.70,227.89 Q 170.69,225.23 172.62,227.61 Q 173.37,228.54 173.43,227.60 Q 173.45,227.34 173.29,227.06 Q 170.70,222.50 169.01,217.54 Q 168.81,216.94 169.34,217.46 Q 169.43,217.56 169.50,217.68 Q 174.67,228.10 178.06,232.19 Q 180.39,235.00 183.70,237.48 A 0.73,0.72 -43.4 0 0 184.54,237.50 Q 188.81,234.62 191.19,230.44 Q 192.18,228.69 190.04,227.85 A 1.65,1.01 5.7 0 1 189.29,227.28 L 179.92,211.34 A 1.17,1.08 67.9 0 0 178.72,210.78 Q 167.34,213.31 156.47,214.53 Q 155.73,214.61 156.28,215.19 L 160.32,219.45 A 1.25,1.08 -44.3 0 1 160.18,221.07 Q 151.31,229.97 140.75,236.96 ZM 118.04,215.68 Q 118.49,215.90 118.08,216.49 Q 117.79,216.91 117.70,217.22 Q 114.00,231.51 114.55,247.59 A 2.49,2.49 10.9 0 0 116.04,249.79 Q 126.65,254.38 139.34,254.78 A 0.54,0.53 85.3 0 0 139.88,254.14 Q 138.46,246.66 137.64,238.85 Q 137.42,236.77 136.25,235.13 Q 130.26,226.75 123.39,219.06 A 0.76,0.65 40.8 0 1 123.27,218.24 L 125.46,214.42 A 0.40,0.34 -68.3 0 0 125.27,213.85 L 117.82,212.36 A 0.74,0.64 -69.3 0 0 117.08,212.76 Q 111.65,223.46 107.67,234.78 A 0.72,0.69 -61.1 0 0 107.88,235.58 Q 109.02,236.49 110.54,236.76 A 0.51,0.51 -80.6 0 0 111.13,236.33 Q 112.73,225.27 117.34,216.01 A 0.61,0.48 -63.6 0 1 118.04,215.68 ZM 157.30,219.63 L 151.68,214.80 Q 149.77,213.17 148.80,215.33 L 140.74,233.27 Q 140.25,234.37 141.19,233.60 L 157.31,220.37 A 0.49,0.47 45.3 0 0 157.30,219.63 ZM 130.95,214.96 L 127.07,218.12 A 0.53,0.44 47.7 0 0 127.10,218.85 Q 131.32,223.10 134.76,228.02 Q 136.20,230.08 135.48,227.68 L 131.74,215.24 A 0.52,0.49 62.9 0 0 130.95,214.96 ZM 186.79,240.70 Q 188.07,241.70 189.26,242.51 Q 191.67,244.16 193.88,243.31 Q 195.83,242.57 196.78,240.34 Q 198.36,236.61 194.88,232.99 A 0.94,0.94 -53.6 0 0 193.36,233.22 Q 191.28,237.32 186.83,240.11 A 0.36,0.36 -41.4 0 0 186.79,240.70 ZM 109.23,240.36 Q 107.22,239.37 104.93,237.95 A 0.72,0.72 20.1 0 0 103.84,238.45 Q 103.12,243.06 106.31,244.89 Q 107.34,245.48 108.06,245.74 Q 109.69,246.35 109.99,244.55 Q 110.05,244.20 110.43,242.64 Q 110.80,241.14 109.23,240.36 ZM 157.09,263.42 Q 163.61,269.03 168.11,263.74 Q 169.22,262.43 170.48,259.53 Q 171.37,257.50 172.39,255.08 Q 172.59,254.61 172.09,254.73 Q 162.60,257.08 153.25,258.08 A 0.44,0.44 -20.1 0 0 152.93,258.76 Q 154.59,261.27 157.09,263.42 ZM 125.50,257.54 Q 126.11,261.18 128.39,263.51 Q 130.02,265.17 132.00,263.96 Q 135.59,261.77 136.12,258.81 A 0.51,0.51 -81.3 0 0 135.69,258.22 L 126.75,256.96 Q 126.61,255.96 125.56,256.39 Q 124.14,256.96 125.50,257.54 ZM 151.88,266.30 Q 153.48,266.28 152.50,265.03 Q 150.78,262.84 149.69,260.85 Q 148.64,258.95 147.75,258.69 Q 146.53,258.31 144.53,258.80 A 1.54,1.45 -86.6 0 0 143.48,259.79 L 141.49,265.77 A 0.51,0.51 -80.8 0 0 141.97,266.44 L 151.88,266.30 Z"/>
<path fill="#393022" d="M 99.60 60.61 A 6.52 5.88 -5.0 1 1 112.26 69.76 A 6.52 5.88 -5.0 1 1 99.60 60.61 Z" />
<path fill="#ddd1b8" d="M 182.29,80.50 Q 181.92,83.98 181.31,87.41 Q 181.02,89.07 179.17,89.90 A 0.49,0.49 60.6 0 0 178.97,90.62 Q 183.42,97.18 185.39,103.99 Q 189.95,119.73 185.50,135.50 Q 184.61,138.67 183.00,140.04 Q 174.19,134.97 170.97,125.40 Q 170.54,124.12 169.70,125.18 Q 166.31,129.42 162.12,132.85 Q 144.08,147.62 120.82,149.89 Q 120.31,149.94 120.76,149.71 Q 134.34,142.80 144.85,131.79 A 0.83,0.72 -35.7 0 0 145.05,130.96 Q 144.62,129.83 143.33,130.23 Q 142.71,130.42 141.97,131.16 Q 130.81,142.23 116.14,147.81 Q 115.78,147.94 112.27,148.81 Q 110.27,149.30 108.54,150.50 L 106.71,148.50 Q 112.79,144.52 117.60,139.10 Q 118.24,138.39 118.54,137.62 Q 119.69,134.69 117.02,136.14 Q 116.41,136.48 115.73,137.15 Q 109.70,143.15 102.14,147.10 Q 97.73,149.40 92.74,149.75 Q 91.53,149.84 92.54,149.16 Q 99.34,144.63 102.62,136.95 Q 103.03,136.00 103.02,135.37 Q 102.99,134.02 101.54,134.40 A 1.45,1.13 -75.8 0 0 100.79,134.98 Q 94.93,144.06 85.74,149.80 A 0.88,0.87 73.8 0 0 85.33,150.56 L 85.58,157.26 Q 85.62,158.29 85.00,157.47 Q 80.59,151.66 79.32,144.99 Q 78.88,142.71 76.75,143.46 L 76.28,142.65 A 1.47,1.18 38.7 0 1 76.08,141.75 Q 76.55,138.76 76.80,135.75 Q 77.12,131.91 77.62,129.79 Q 80.20,118.68 86.52,109.20 Q 88.39,106.40 90.98,103.73 Q 93.90,100.70 96.19,98.94 Q 97.93,97.59 98.51,95.80 Q 99.48,92.86 99.64,92.50 Q 100.89,89.79 100.96,86.75 Q 109.41,84.26 116.51,79.24 Q 124.58,73.52 124.93,73.32 Q 132.92,68.77 142.07,66.87 Q 154.20,64.36 165.39,69.52 Q 168.15,70.80 170.19,73.07 Q 171.31,74.32 171.55,72.66 Q 172.24,67.73 171.17,62.10 Q 170.98,61.09 171.69,61.83 Q 179.24,69.64 182.29,80.50 ZM 168.56,81.19 Q 153.37,73.88 136.53,78.84 Q 135.96,79.01 135.51,79.26 Q 133.14,80.61 135.86,80.68 Q 136.38,80.70 137.00,80.54 Q 152.99,76.54 168.10,82.99 A 0.94,0.81 35.7 0 0 168.98,82.91 Q 170.18,81.97 168.56,81.19 Z"/>
<path fill="#989179" d="M 184.29,173.50 Q 184.86,173.52 184.96,172.99 Q 186.33,165.36 186.03,157.60 Q 186.02,157.51 186.11,156.42 Q 186.19,155.29 185.04,155.25 Q 185.66,150.08 188.51,145.74 Q 189.59,144.08 187.84,143.01 L 183.00,140.04 Q 184.61,138.67 185.50,135.50 Q 189.95,119.73 185.39,103.99 Q 183.42,97.18 178.97,90.62 A 0.49,0.49 60.6 0 1 179.17,89.90 Q 181.02,89.07 181.31,87.41 Q 181.92,83.98 182.29,80.50 L 182.96,80.50 Q 183.27,82.08 184.15,81.83 Q 184.70,81.67 185.04,80.88 Q 185.87,78.94 185.73,76.81 A 1.24,0.86 -80.5 0 0 185.33,75.96 Q 184.79,75.57 184.04,75.75 L 184.00,69.85 A 0.38,0.37 9.5 0 1 184.50,69.50 Q 201.97,75.38 205.48,92.65 Q 205.60,93.26 205.18,92.81 Q 198.90,86.27 190.00,86.74 Q 187.47,86.87 189.05,87.97 Q 189.42,88.22 190.00,88.42 Q 195.93,90.42 196.94,91.06 Q 205.79,96.68 210.69,102.81 Q 221.78,116.70 218.23,135.96 A 0.75,0.74 9.8 0 1 217.37,136.56 Q 215.17,136.18 214.67,136.67 Q 214.21,137.12 215.42,138.17 Q 219.11,141.41 220.96,146.05 Q 227.83,163.31 219.54,178.49 Q 216.29,184.46 211.73,187.44 Q 208.01,189.89 203.54,190.79 Q 199.97,191.50 196.60,190.17 Q 185.92,185.95 184.29,173.50 Z"/>
<path fill="#ddd1b8" d="M 184.04,75.75 Q 184.79,75.57 185.33,75.96 A 1.24,0.86 -80.5 0 1 185.73,76.81 Q 185.87,78.94 185.04,80.88 Q 184.70,81.67 184.15,81.83 Q 183.27,82.08 182.96,80.50 L 184.04,75.75 Z"/>
<path fill="#35291b" d="M 168.56,81.19 Q 170.18,81.97 168.98,82.91 A 0.94,0.81 35.7 0 1 168.10,82.99 Q 152.99,76.54 137.00,80.54 Q 136.38,80.70 135.86,80.68 Q 133.14,80.61 135.51,79.26 Q 135.96,79.01 136.53,78.84 Q 153.37,73.88 168.56,81.19 Z"/>
<path fill="#f5f2e9" d="M 100.96,86.75 Q 100.89,89.79 99.64,92.50 Q 99.48,92.86 98.51,95.80 Q 97.93,97.59 96.19,98.94 Q 93.90,100.70 90.98,103.73 Q 88.39,106.40 86.52,109.20 Q 80.20,118.68 77.62,129.79 Q 77.12,131.91 76.80,135.75 Q 76.55,138.76 76.08,141.75 A 1.47,1.18 38.7 0 0 76.28,142.65 L 76.75,143.46 L 75.75,144.29 L 73.50,144.29 Q 73.10,144.30 72.89,144.03 Q 72.75,143.84 72.76,143.44 Q 73.08,134.29 75.47,125.45 Q 80.71,106.09 96.91,94.40 Q 98.01,93.61 98.25,92.29 Q 99.22,90.43 97.47,89.63 Q 96.24,89.07 95.00,88.46 Q 94.85,87.70 95.50,87.69 Q 96.17,87.67 96.48,87.61 L 100.96,86.75 Z"/>
<path fill="#393022" d="M 38.75,115.77 Q 37.23,108.31 38.00,100.75 Q 38.35,97.27 41.91,94.90 Q 48.84,90.27 54.00,89.25 Q 57.68,88.53 58.25,92.50 Q 58.96,97.40 58.44,105.89 Q 58.19,110.02 56.66,112.65 Q 52.85,119.17 45.06,121.06 Q 42.12,121.78 42.62,124.77 Q 44.67,136.94 46.86,148.63 A 1.14,1.14 -20.1 0 0 48.55,149.41 Q 54.23,146.15 54.33,140.24 Q 54.36,138.93 53.70,136.86 Q 53.25,135.43 52.87,133.98 A 1.62,1.37 52.9 0 1 52.92,133.03 Q 54.26,129.72 57.75,131.75 Q 60.00,133.06 60.50,137.03 Q 62.19,150.43 50.30,155.12 A 1.48,1.47 73.7 0 0 49.40,156.77 Q 50.45,162.04 51.38,167.06 Q 52.17,171.35 51.27,173.91 Q 49.72,178.35 45.31,179.91 Q 41.15,181.38 37.56,179.98 Q 32.83,178.13 33.81,171.56 Q 34.04,170.04 35.86,168.58 Q 37.20,167.49 38.97,166.95 Q 43.23,165.65 47.17,167.23 Q 48.50,167.76 48.19,166.33 L 46.50,158.45 A 1.59,1.52 78.0 0 0 44.68,157.21 Q 39.03,158.44 33.90,156.98 Q 28.67,155.49 25.09,151.51 Q 21.85,147.91 20.78,143.09 Q 19.79,138.64 20.93,133.93 Q 23.09,125.03 31.57,120.11 Q 34.75,118.26 38.10,116.97 A 1.06,1.05 73.7 0 0 38.75,115.77 ZM 43.51,102.38 A 5.17,5.12 70.4 0 0 42.28,105.01 Q 41.61,109.51 42.24,114.19 A 0.47,0.47 80.3 0 0 42.80,114.59 Q 55.99,111.94 53.44,97.65 A 0.99,0.99 -12.0 0 0 52.24,96.87 Q 47.36,98.07 43.51,102.38 ZM 32.19,149.06 Q 37.36,152.35 43.30,150.97 A 0.79,0.77 -11.5 0 0 43.90,150.09 L 39.57,124.83 A 1.24,1.21 -19.5 0 0 37.76,123.99 Q 35.43,125.28 33.28,126.81 Q 24.27,133.19 28.02,144.03 Q 29.08,147.09 32.19,149.06 Z"/>
<path fill="#393022" d="M 267.94,111.31 Q 256.54,111.37 246.68,115.96 A 1.60,1.59 -12.5 0 0 245.75,117.41 L 245.75,134.51 A 1.25,1.25 80.0 0 0 247.43,135.69 Q 251.85,134.08 255.88,136.41 Q 260.50,139.09 258.75,144.00 Q 258.04,145.98 256.25,147.39 Q 254.74,148.58 252.55,149.13 Q 246.41,150.66 243.03,145.78 Q 241.76,143.95 241.69,140.88 Q 241.25,121.88 241.72,103.76 Q 241.79,101.29 244.08,100.38 Q 257.00,95.22 269.76,95.75 Q 272.19,95.85 272.25,98.28 Q 272.67,113.90 272.51,129.56 Q 272.51,129.64 272.62,131.44 Q 272.82,134.50 269.68,134.14 A 0.85,0.82 82.8 0 1 269.00,133.59 Q 268.26,131.45 268.50,128.75 Q 269.20,120.91 268.48,111.81 A 0.54,0.54 87.7 0 0 267.94,111.31 ZM 268.55,102.81 Q 268.52,100.55 266.26,100.58 Q 256.85,100.70 246.78,104.39 A 1.13,0.99 -2.6 0 0 246.12,105.02 Q 245.40,107.02 245.96,110.20 A 0.60,0.60 -16.7 0 0 246.79,110.64 Q 255.10,107.04 264.20,106.56 Q 267.18,106.40 267.26,106.36 Q 268.58,105.70 268.55,102.81 Z"/>
<path fill="#eacea7" d="M 143.50,211.21 Q 145.54,211.22 147.06,210.01 Q 147.48,209.68 147.93,209.59 Q 156.68,207.77 164.38,203.44 Q 167.88,201.48 170.12,198.43 Q 177.22,188.79 176.75,177.50 Q 176.42,169.47 176.48,163.98 Q 176.60,153.87 176.20,151.55 Q 174.87,143.96 170.39,137.10 A 1.47,1.47 50.8 0 0 168.13,136.87 Q 158.91,146.13 145.25,150.25 Q 139.32,152.04 135.50,151.46 Q 151.76,147.45 164.42,136.61 Q 164.50,136.53 166.01,135.32 Q 167.83,133.87 168.98,131.95 A 0.49,0.49 -46.3 0 1 169.81,131.93 Q 175.37,140.45 184.54,144.79 A 0.49,0.49 25.3 0 1 184.78,145.45 Q 177.24,161.13 182.12,177.92 Q 185.67,190.17 197.52,194.34 A 0.31,0.31 32.0 0 1 197.64,194.85 Q 189.12,203.20 176.81,206.81 Q 159.87,211.79 143.50,211.21 Z"/>
<path fill="#feeecf" d="M 143.50,211.21 Q 125.71,211.94 109.31,203.94 Q 105.77,202.21 103.08,199.87 Q 100.83,197.91 98.06,194.49 Q 90.33,184.94 89.30,172.27 Q 88.52,162.54 89.31,152.88 A 0.41,0.41 -86.4 0 1 89.74,152.50 Q 98.82,152.91 106.71,148.50 L 108.54,150.50 Q 108.59,151.87 109.69,152.06 Q 122.11,154.25 135.50,151.46 Q 139.32,152.04 145.25,150.25 Q 158.91,146.13 168.13,136.87 A 1.47,1.47 50.8 0 1 170.39,137.10 Q 174.87,143.96 176.20,151.55 Q 176.60,153.87 176.48,163.98 Q 176.42,169.47 176.75,177.50 Q 177.22,188.79 170.12,198.43 Q 167.88,201.48 164.38,203.44 Q 156.68,207.77 147.93,209.59 Q 147.48,209.68 147.06,210.01 Q 145.54,211.22 143.50,211.21 ZM 112.81,169.94 Q 108.49,167.21 103.51,168.55 Q 97.28,170.22 97.24,176.51 A 1.19,1.16 22.2 0 0 97.61,177.36 Q 99.59,179.21 100.81,177.46 Q 101.14,176.99 101.43,174.76 Q 101.71,172.62 103.94,171.68 Q 108.64,169.72 111.07,173.76 A 1.57,1.07 76.5 0 0 111.78,174.40 Q 113.09,174.87 114.25,174.00 Q 116.53,172.28 112.81,169.94 ZM 160.53,172.12 Q 168.58,169.02 170.22,177.20 A 1.03,0.91 -86.3 0 0 170.76,177.90 Q 173.63,179.15 173.76,176.29 Q 173.83,174.94 172.98,173.51 Q 167.82,164.84 157.70,169.70 Q 155.12,170.94 155.58,173.58 A 0.92,0.92 -84.1 0 0 156.14,174.27 Q 158.66,175.34 159.87,172.77 A 1.31,1.12 -85.0 0 1 160.53,172.12 Z"/>
<path fill="#d4c5ae" d="M 185.04,155.25 Q 186.19,155.29 186.11,156.42 Q 186.02,157.51 186.03,157.60 Q 186.33,165.36 184.96,172.99 Q 184.86,173.52 184.29,173.50 Q 182.57,164.29 185.04,155.25 Z"/>
<path fill="#35291b" d="M 112.81,169.94 Q 116.53,172.28 114.25,174.00 Q 113.09,174.87 111.78,174.40 A 1.57,1.07 76.5 0 1 111.07,173.76 Q 108.64,169.72 103.94,171.68 Q 101.71,172.62 101.43,174.76 Q 101.14,176.99 100.81,177.46 Q 99.59,179.21 97.61,177.36 A 1.19,1.16 22.2 0 1 97.24,176.51 Q 97.28,170.22 103.51,168.55 Q 108.49,167.21 112.81,169.94 Z"/>
<path fill="#393022" d="M 159.87,172.77 Q 158.66,175.34 156.14,174.27 A 0.92,0.92 -84.1 0 1 155.58,173.58 Q 155.12,170.94 157.70,169.70 Q 167.82,164.84 172.98,173.51 Q 173.83,174.94 173.76,176.29 Q 173.63,179.15 170.76,177.90 A 1.03,0.91 -86.3 0 1 170.22,177.20 Q 168.58,169.02 160.53,172.12 A 1.31,1.12 -85.0 0 0 159.87,172.77 Z"/>
<path fill="#839988" d="M 151.29,255.00 Q 150.32,254.39 146.25,252.50 Q 143.04,251.01 143.00,247.04 Q 147.18,247.94 147.75,244.25 Q 148.08,242.15 145.46,241.25 Q 145.71,240.49 145.06,240.44 Q 142.82,238.80 140.75,236.96 Q 151.31,229.97 160.18,221.07 A 1.25,1.08 -44.3 0 0 160.32,219.45 L 156.28,215.19 Q 155.73,214.61 156.47,214.53 Q 167.34,213.31 178.72,210.78 A 1.17,1.08 67.9 0 1 179.92,211.34 L 189.29,227.28 A 1.65,1.01 5.7 0 0 190.04,227.85 Q 192.18,228.69 191.19,230.44 Q 188.81,234.62 184.54,237.50 A 0.73,0.72 -43.4 0 1 183.70,237.48 Q 180.39,235.00 178.06,232.19 Q 174.67,228.10 169.50,217.68 Q 169.43,217.56 169.34,217.46 Q 168.81,216.94 169.01,217.54 Q 170.70,222.50 173.29,227.06 Q 173.45,227.34 173.43,227.60 Q 173.37,228.54 172.62,227.61 Q 170.69,225.23 171.70,227.89 Q 171.81,228.18 172.00,228.45 Q 177.66,236.24 185.08,243.44 A 0.89,0.89 51.9 0 1 184.91,244.85 Q 169.45,253.68 151.29,255.00 Z"/>
<path fill="#e7eddd" d="M 117.34,216.01 Q 112.73,225.27 111.13,236.33 A 0.51,0.51 -80.6 0 1 110.54,236.76 Q 109.02,236.49 107.88,235.58 A 0.72,0.69 -61.1 0 1 107.67,234.78 Q 111.65,223.46 117.08,212.76 A 0.74,0.64 -69.3 0 1 117.82,212.36 L 125.27,213.85 A 0.40,0.34 -68.3 0 1 125.46,214.42 L 123.27,218.24 A 0.76,0.65 40.8 0 0 123.39,219.06 Q 130.26,226.75 136.25,235.13 Q 137.42,236.77 137.64,238.85 Q 138.46,246.66 139.88,254.14 A 0.54,0.53 85.3 0 1 139.34,254.78 Q 126.65,254.38 116.04,249.79 A 2.49,2.49 10.9 0 1 114.55,247.59 Q 114.00,231.51 117.70,217.22 Q 117.79,216.91 118.08,216.49 Q 118.49,215.90 118.04,215.68 A 0.61,0.48 -63.6 0 0 117.34,216.01 ZM 135.9161,246.6099 A 2.90,2.55 69.7 0 0 137.3016,243.0053 A 2.90,2.55 69.7 0 0 133.9039,241.1701 A 2.90,2.55 69.7 0 0 132.5184,244.7747 A 2.90,2.55 69.7 0 0 135.9161,246.6099 Z"/>
<path fill="#839988" d="M 157.30,219.63 A 0.49,0.47 45.3 0 1 157.31,220.37 L 141.19,233.60 Q 140.25,234.37 140.74,233.27 L 148.80,215.33 Q 149.77,213.17 151.68,214.80 L 157.30,219.63 Z"/>
<path fill="#dfdfd3" d="M 130.95,214.96 A 0.52,0.49 62.9 0 1 131.74,215.24 L 135.48,227.68 Q 136.20,230.08 134.76,228.02 Q 131.32,223.10 127.10,218.85 A 0.53,0.44 47.7 0 1 127.07,218.12 L 130.95,214.96 Z"/>
<path fill="#eacea7" d="M 186.79,240.70 A 0.36,0.36 -41.4 0 1 186.83,240.11 Q 191.28,237.32 193.36,233.22 A 0.94,0.94 -53.6 0 1 194.88,232.99 Q 198.36,236.61 196.78,240.34 Q 195.83,242.57 193.88,243.31 Q 191.67,244.16 189.26,242.51 Q 188.07,241.70 186.79,240.70 Z"/>
<path fill="#dfdfd3" d="M 140.75,236.96 Q 142.82,238.80 145.06,240.44 Q 145.71,240.49 145.46,241.25 Q 143.84,240.73 142.75,242.01 Q 140.47,244.70 143.00,247.04 Q 143.04,251.01 146.25,252.50 Q 150.32,254.39 151.29,255.00 L 143.95,255.17 A 1.16,1.03 80.8 0 1 142.90,254.32 Q 141.22,248.13 140.76,242.24 Q 140.76,242.17 140.36,239.93 Q 140.08,238.41 140.75,236.96 Z"/>
<path fill="#393022" d="M 132.19 242.69 A 2.90 2.55 69.7 1 1 137.64 245.94 A 2.90 2.55 69.7 1 1 132.19 242.69 Z" />
<path fill="#393022" d="M 145.46,241.25 Q 148.08,242.15 147.75,244.25 Q 147.18,247.94 143.00,247.04 Q 140.47,244.70 142.75,242.01 Q 143.84,240.73 145.46,241.25 Z"/>
<path fill="#839988" d="M 157.09,263.42 Q 154.59,261.27 152.93,258.76 A 0.44,0.44 -20.1 0 1 153.25,258.08 Q 162.60,257.08 172.09,254.73 Q 172.59,254.61 172.39,255.08 Q 171.37,257.50 170.48,259.53 Q 169.22,262.43 168.11,263.74 Q 163.61,269.03 157.09,263.42 Z"/>
<path fill="#989179" d="M 126.75,256.96 L 125.50,257.54 Q 124.14,256.96 125.56,256.39 Q 126.61,255.96 126.75,256.96 Z"/>
</svg>