<?xml version="1.0" encoding="UTF-8" standalone="no"?>
<!DOCTYPE svg PUBLIC "-//W3C//DTD SVG 1.1//EN" "http://www.w3.org/Graphics/SVG/1.1/DTD/svg11.dtd">
<svg xmlns="http://www.w3.org/2000/svg" version="1.1" viewBox="0 0 300 300">
<path fill="#2c383d" d="M 178.29,262.25 Q 178.07,263.40 179.58,263.21 A 1.18,1.17 -7.3 0 1 180.90,264.22 Q 181.40,268.08 178.75,268.11 Q 176.82,268.12 176.74,268.13 Q 172.45,268.62 168.18,267.90 A 1.12,1.11 78.1 0 1 167.42,267.40 L 162.00,258.96 Q 162.29,257.39 161.75,255.90 Q 161.58,255.43 161.62,254.94 Q 161.88,251.88 159.23,251.87 Q 159.08,251.87 156.77,252.02 Q 155.51,252.09 154.29,252.42 A 0.88,0.69 -7.0 0 0 153.67,253.04 L 153.00,258.96 Q 151.57,262.04 151.83,266.99 A 1.19,1.19 -3.7 0 1 150.73,268.24 Q 144.17,268.75 137.10,267.83 A 1.08,0.88 87.2 0 1 136.31,266.95 L 135.46,261.50 Q 135.75,260.71 135.00,259.75 Q 132.14,256.10 131.09,251.12 A 1.37,1.35 3.0 0 0 130.15,250.09 Q 123.67,248.14 118.71,246.11 Q 115.13,244.64 111.25,244.77 Q 107.69,244.89 107.45,241.55 A 0.52,0.52 88.8 0 0 106.94,241.06 Q 101.75,241.00 98.56,238.44 Q 92.08,233.23 95.25,225.50 Q 96.15,223.31 98.35,222.16 Q 99.81,221.40 100.16,220.75 Q 100.83,219.52 100.10,218.20 Q 98.88,216.02 101.38,216.06 Q 103.86,216.10 105.12,214.60 Q 105.25,214.46 106.86,211.37 Q 108.94,207.38 110.88,203.31 Q 110.92,203.23 111.99,200.63 Q 113.44,197.08 116.67,194.50 A 0.58,0.57 -52.4 0 0 116.55,193.52 Q 103.05,187.48 93.33,178.19 A 1.97,1.93 -27.5 0 0 91.66,177.68 Q 78.55,179.91 71.02,171.10 Q 68.08,167.65 67.47,163.64 Q 66.84,159.50 68.12,155.08 A 1.05,1.04 9.4 0 0 67.16,153.75 Q 60.50,153.44 56.32,148.40 A 1.05,0.88 36.6 0 1 56.11,147.51 Q 56.60,145.97 58.50,145.75 Q 61.71,145.38 59.06,143.69 Q 54.08,140.51 52.51,134.79 A 0.75,0.74 -13.0 0 0 51.65,134.26 Q 48.10,134.99 45.15,134.54 Q 41.89,134.05 39.57,131.70 Q 36.04,128.15 37.57,123.44 Q 38.96,119.17 42.85,116.71 Q 46.69,114.27 51.74,114.66 Q 57.21,115.08 60.31,119.19 Q 61.08,120.20 61.22,121.76 A 0.94,0.52 -89.9 0 0 61.65,122.54 Q 61.89,122.62 62.09,122.41 A 1.04,0.59 73.3 0 0 62.26,121.65 Q 61.06,111.84 62.50,103.75 Q 68.10,72.29 98.07,61.56 A 0.98,0.98 77.0 0 0 98.72,60.52 Q 98.13,55.06 99.45,49.49 Q 103.28,33.30 119.42,29.12 Q 127.59,27.00 136.01,27.91 Q 147.93,29.20 159.70,31.50 Q 165.59,32.64 171.25,34.57 Q 178.65,37.10 182.21,39.20 Q 192.67,45.38 194.01,58.46 A 1.86,1.86 -84.5 0 0 195.31,60.04 Q 207.33,63.68 217.07,70.72 Q 224.43,76.03 227.19,85.38 A 1.58,1.57 -8.9 0 0 228.74,86.51 Q 230.65,86.45 231.90,87.41 Q 232.80,88.10 233.50,90.02 Q 237.33,100.43 235.10,111.50 A 1.13,1.08 -59.0 0 0 235.30,112.39 Q 236.29,113.72 237.13,115.14 Q 237.97,116.54 238.11,118.20 Q 239.16,130.99 230.82,140.02 A 1.49,1.48 -31.3 0 0 230.47,141.43 Q 231.38,144.75 228.90,145.63 Q 227.21,146.22 228.67,147.26 Q 233.38,150.62 234.48,155.84 Q 235.51,160.74 233.15,165.39 Q 229.43,172.75 219.60,173.00 A 2.25,2.24 -72.5 0 0 217.86,173.91 Q 207.19,188.34 190.09,195.47 A 0.36,0.35 57.5 0 0 189.97,196.04 Q 191.12,197.28 191.88,198.31 Q 192.57,199.27 193.14,200.97 Q 195.48,208.01 199.05,213.63 Q 200.44,215.81 203.02,215.76 Q 208.19,215.65 206.40,219.67 A 1.34,1.34 -65.3 0 0 207.05,221.43 Q 211.37,223.46 211.78,228.25 Q 212.19,233.04 208.46,235.93 Q 204.75,238.80 199.52,238.47 A 0.89,0.88 -7.3 0 0 198.62,239.62 L 199.99,243.71 A 1.39,1.36 70.3 0 1 199.20,245.43 Q 192.07,248.26 184.52,249.50 A 1.82,1.81 -86.1 0 0 183.07,250.77 Q 182.58,252.36 181.93,253.77 Q 181.65,254.36 180.13,256.40 Q 178.25,258.94 178.29,262.25 ZM 174.43,68.05 Q 177.34,81.02 170.05,92.08 Q 169.28,93.25 170.62,92.74 L 175.25,90.97 Q 177.69,90.04 178.94,88.70 Q 186.69,80.43 188.07,69.51 Q 189.25,60.25 184.79,52.14 Q 181.53,46.21 176.94,44.31 Q 155.14,35.32 128.31,34.56 Q 119.46,34.32 112.80,39.85 Q 107.61,44.17 106.05,50.66 Q 104.62,56.60 106.22,62.52 Q 107.85,68.56 112.34,72.10 Q 118.09,76.64 126.25,76.23 Q 130.42,76.02 133.67,73.82 Q 136.51,71.91 137.12,69.24 Q 137.92,65.81 134.55,63.18 Q 132.87,61.86 134.92,62.44 Q 140.28,63.95 142.70,69.74 Q 146.39,78.57 145.02,88.38 A 0.62,0.61 -77.0 0 0 145.43,89.05 L 154.12,91.95 A 0.98,0.97 -68.9 0 0 155.31,91.42 Q 157.84,85.83 159.34,79.57 Q 161.67,69.82 158.46,60.96 Q 156.44,55.39 151.75,51.31 Q 142.61,43.36 130.50,43.50 Q 119.02,43.64 115.25,54.00 Q 113.98,57.49 115.30,61.00 Q 115.81,62.39 116.74,63.09 Q 118.29,64.27 119.62,62.95 Q 120.55,62.03 120.72,60.27 Q 120.85,58.83 120.73,57.26 A 0.63,0.63 -83.7 0 1 121.54,56.61 Q 123.92,57.34 125.22,58.94 Q 126.46,60.47 126.51,62.81 Q 126.60,67.44 121.55,68.78 Q 115.44,70.41 111.99,65.32 Q 109.12,61.11 109.82,56.01 Q 110.38,51.87 112.51,48.51 Q 114.54,45.30 118.11,43.17 Q 123.66,39.86 130.50,40.05 Q 136.85,40.23 142.74,42.19 Q 148.92,44.25 153.49,48.09 Q 163.54,56.52 163.50,70.50 Q 163.47,81.35 158.21,92.79 A 0.56,0.46 -68.2 0 0 158.44,93.51 L 163.19,95.13 A 0.99,0.69 -53.3 0 0 164.05,94.84 Q 166.19,92.77 167.65,90.16 Q 173.44,79.86 174.28,68.06 Q 174.31,67.56 174.43,68.05 ZM 212.81,76.44 Q 205.65,70.61 197.52,68.18 Q 194.70,67.34 192.39,66.48 A 0.85,0.85 11.7 0 0 191.25,67.23 Q 190.69,78.61 183.39,88.12 Q 183.04,88.57 183.58,88.39 Q 199.54,83.11 211.39,93.91 A 0.61,0.59 47.8 0 0 212.15,93.96 Q 217.30,90.12 218.19,83.74 A 1.64,1.60 36.5 0 0 218.04,82.80 Q 216.31,79.29 212.81,76.44 ZM 123.31,79.44 Q 110.11,78.76 103.19,67.49 A 0.89,0.88 -25.3 0 0 102.14,67.12 Q 87.14,72.30 77.81,84.56 Q 76.39,86.44 75.62,89.51 A 1.17,1.17 36.4 0 0 75.76,90.43 Q 81.96,100.69 93.55,105.20 A 0.63,0.63 27.3 0 0 94.31,104.96 Q 111.16,78.83 141.48,87.74 A 0.55,0.55 -77.7 0 0 142.18,87.29 Q 143.32,78.82 140.23,71.45 Q 139.84,70.51 139.43,71.45 Q 136.97,77.20 130.83,78.65 Q 126.76,79.62 123.31,79.44 ZM 220.98,85.57 Q 218.83,91.89 214.17,96.46 A 0.67,0.66 53.3 0 0 214.06,97.25 L 217.76,103.81 A 0.37,0.36 51.8 0 0 218.34,103.89 Q 225.95,95.74 221.88,85.54 Q 221.40,84.34 220.98,85.57 ZM 98.56,161.69 Q 89.82,160.16 89.51,151.00 A 1.16,1.07 -73.0 0 0 89.11,150.17 Q 85.00,146.79 80.85,148.34 Q 77.20,149.70 75.19,153.76 Q 72.98,158.20 74.75,163.00 Q 77.25,169.77 84.51,170.63 Q 89.34,171.20 93.26,169.47 A 1.50,1.48 55.6 0 1 94.93,169.79 Q 110.02,185.18 130.06,190.28 Q 143.06,193.59 161.25,193.50 Q 184.14,193.38 201.09,181.10 Q 208.92,175.43 213.10,167.16 Q 215.68,162.05 216.80,153.40 Q 218.84,137.66 218.25,121.75 Q 217.84,110.67 212.61,101.31 Q 209.85,96.35 206.19,93.72 Q 201.93,90.64 196.69,89.90 Q 192.41,89.29 185.48,91.17 Q 174.15,94.24 163.21,98.57 A 1.22,1.19 45.6 0 1 162.29,98.55 Q 152.99,94.64 138.31,90.44 Q 121.09,85.51 108.47,94.14 Q 100.22,99.78 95.70,109.22 Q 90.33,120.44 92.77,133.85 A 1.69,1.69 86.0 0 0 94.37,135.24 Q 103.31,135.63 107.27,143.27 Q 110.48,149.47 108.24,155.47 Q 107.04,158.69 104.81,160.33 Q 102.12,162.31 98.56,161.69 ZM 88.59,120.20 Q 86.86,119.36 85.18,118.44 Q 83.42,117.48 82.02,116.26 Q 76.31,111.28 72.49,104.68 A 0.43,0.42 66.1 0 1 72.72,104.06 Q 74.78,103.40 76.31,105.69 Q 80.96,112.62 88.82,117.40 A 0.73,0.70 -65.4 0 0 89.86,116.99 L 92.76,108.46 A 0.66,0.63 -70.6 0 0 92.38,107.63 Q 80.40,103.49 73.89,92.98 Q 73.28,92.01 72.77,93.03 Q 67.30,103.77 71.83,114.09 Q 74.10,119.28 78.15,122.71 Q 82.28,126.21 87.88,127.86 A 0.65,0.65 9.5 0 0 88.71,127.27 L 89.03,120.95 A 0.79,0.78 14.7 0 0 88.59,120.20 ZM 227.19,94.67 Q 224.74,101.66 218.98,107.12 A 1.14,1.13 -30.7 0 0 218.68,108.28 Q 220.53,114.12 221.01,120.10 Q 221.07,120.85 221.66,120.38 Q 226.24,116.71 228.00,110.87 Q 230.42,102.88 228.50,94.74 Q 227.96,92.48 227.19,94.67 ZM 230.04,115.45 Q 226.43,120.47 221.74,123.54 A 0.97,0.89 75.3 0 0 221.33,124.31 L 221.10,139.69 Q 221.09,140.17 221.44,139.86 Q 224.80,136.88 228.06,131.56 Q 232.39,124.51 230.90,115.65 Q 230.71,114.52 230.04,115.45 ZM 88.33,130.83 Q 78.22,128.60 71.35,120.15 Q 70.10,118.61 70.43,120.56 Q 71.37,126.21 75.17,129.83 Q 81.15,135.51 89.32,136.04 A 0.48,0.48 2.3 0 0 89.83,135.57 Q 89.88,133.39 89.02,131.40 A 1.02,0.96 -3.6 0 0 88.33,130.83 ZM 55.0943,121.3964 A 6.34,4.19 -35.3 0 0 47.4988,121.6404 A 6.34,4.19 -35.3 0 0 44.7457,128.7236 A 6.34,4.19 -35.3 0 0 52.3412,128.4796 A 6.34,4.19 -35.3 0 0 55.0943,121.3964 ZM 98.66,142.32 Q 96.23,140.43 93.17,139.91 Q 89.59,139.31 86.05,138.53 Q 74.81,136.04 68.24,125.94 A 0.35,0.35 45.5 0 0 67.66,125.93 Q 64.65,130.22 59.38,131.60 A 0.63,0.63 63.5 0 0 59.05,132.60 Q 67.70,143.56 81.50,143.83 Q 85.83,143.91 88.69,145.06 Q 93.02,146.80 94.35,150.81 Q 94.88,152.38 96.19,153.37 Q 98.65,155.24 100.31,154.03 Q 101.46,153.19 101.95,151.00 Q 103.11,145.81 98.66,142.32 ZM 223.70,156.81 Q 223.69,159.28 221.72,160.78 A 1.70,0.91 -23.3 0 0 221.12,161.53 L 219.76,165.97 Q 219.58,166.56 220.19,166.40 Q 227.90,164.35 227.26,156.75 Q 226.93,152.89 223.97,150.61 A 0.37,0.36 27.9 0 0 223.40,150.78 L 221.90,155.28 A 0.48,0.47 17.3 0 0 222.23,155.89 L 223.20,156.17 A 0.70,0.64 9.4 0 1 223.70,156.81 ZM 143.31,220.19 Q 140.85,218.00 143.76,215.78 Q 145.98,214.07 147.06,216.30 Q 147.78,217.79 147.98,216.12 L 148.61,210.73 Q 148.96,207.69 146.76,206.51 L 133.73,199.49 Q 131.54,198.31 132.89,200.46 Q 135.45,204.52 133.00,209.34 Q 131.98,211.35 131.58,209.27 Q 131.51,208.89 131.50,208.22 Q 131.46,202.30 127.15,199.23 Q 124.87,197.61 122.51,197.87 Q 119.39,198.21 118.43,201.56 Q 117.83,203.70 117.80,203.78 Q 115.11,210.95 109.92,216.45 A 0.64,0.61 -53.8 0 0 110.05,217.43 L 119.22,222.52 A 0.87,0.86 33.7 0 0 120.31,222.31 L 128.19,212.60 Q 129.52,210.97 130.67,212.65 Q 131.56,213.96 130.37,215.64 Q 125.16,223.07 118.72,229.66 A 0.38,0.38 -54.6 0 0 118.82,230.26 Q 130.21,235.88 142.01,238.16 A 0.99,0.86 24.9 0 0 142.87,237.91 Q 143.73,237.00 143.59,235.75 Q 143.54,235.24 143.25,235.67 Q 141.87,237.77 139.81,236.44 Q 136.56,234.33 139.81,231.81 Q 141.12,230.80 142.80,231.53 A 0.92,0.78 35.8 0 0 143.66,231.46 Q 146.26,229.48 146.92,226.23 Q 147.30,224.36 145.93,224.56 A 0.45,0.41 74.6 0 0 145.63,225.15 Q 146.83,228.46 143.77,229.98 A 0.96,0.95 46.6 0 1 142.88,229.95 Q 138.73,227.51 141.43,224.92 Q 141.51,224.85 144.81,223.02 Q 146.58,222.04 147.66,220.20 Q 148.17,219.32 147.92,219.16 A 0.79,0.37 -57.0 0 0 147.18,219.62 Q 145.54,222.17 143.31,220.19 ZM 171.79,209.00 Q 171.67,210.15 172.04,211.25 L 175.60,225.82 Q 175.94,227.21 176.65,225.94 Q 177.87,223.74 180.16,224.93 Q 182.13,225.94 180.89,227.79 Q 178.81,230.89 176.55,228.31 Q 175.60,227.22 176.18,228.55 L 180.33,238.05 A 0.60,0.59 -22.8 0 0 181.10,238.36 Q 187.26,235.81 191.86,232.07 A 0.54,0.52 -37.7 0 0 191.96,231.35 Q 183.99,220.13 181.77,206.50 Q 181.21,203.06 180.29,199.62 A 0.36,0.36 -29.0 0 0 179.69,199.45 Q 176.65,202.35 174.05,205.27 Q 173.96,205.36 172.99,206.26 Q 171.83,207.32 171.79,209.00 ZM 157.16,201.64 L 141.05,199.66 Q 140.61,199.60 140.98,199.86 Q 145.82,203.27 150.91,205.59 A 1.96,1.75 -49.7 0 0 152.80,205.33 L 157.24,201.93 Q 157.54,201.69 157.16,201.64 ZM 164.51,201.69 L 168.60,204.68 A 0.80,0.74 47.4 0 0 169.44,204.75 Q 172.39,203.04 174.76,200.62 Q 175.87,199.48 174.26,199.75 L 164.59,201.35 Q 164.14,201.42 164.51,201.69 ZM 195.24,217.09 Q 188.37,210.61 184.99,202.47 Q 184.80,202.02 184.56,202.05 A 0.49,0.32 79.1 0 0 184.33,202.62 Q 186.35,211.40 189.94,219.98 A 0.69,0.66 63.1 0 0 190.91,220.32 L 195.21,217.64 A 0.36,0.33 50.2 0 0 195.24,217.09 ZM 163.30,203.18 Q 162.08,202.25 162.25,203.74 L 163.25,212.52 Q 163.50,214.66 164.75,212.84 Q 168.63,207.22 163.30,203.18 ZM 159.07,203.52 Q 155.19,204.25 154.00,207.50 Q 152.21,212.37 157.32,214.11 A 1.64,1.64 20.1 0 0 159.37,213.16 Q 161.15,208.64 159.72,203.92 A 0.58,0.57 76.4 0 0 159.07,203.52 ZM 157.96,223.83 Q 156.88,224.07 156.75,223.00 Q 156.50,220.89 157.56,216.55 A 0.68,0.56 23.7 0 0 157.22,215.87 L 152.49,213.14 A 0.54,0.49 22.3 0 0 151.71,213.43 L 149.46,223.45 A 0.72,0.66 -71.0 0 0 149.79,224.21 L 163.04,230.80 A 0.89,0.78 37.7 0 0 163.93,230.75 L 171.31,225.12 A 1.98,1.73 64.9 0 0 171.89,223.10 L 169.10,213.26 A 1.29,1.15 -28.9 0 0 167.11,212.81 L 164.63,214.84 A 1.43,1.24 -25.7 0 0 164.12,216.03 Q 164.65,220.00 165.53,223.05 Q 165.71,223.66 165.69,224.09 Q 165.62,225.61 164.47,224.59 Q 164.08,224.24 163.87,223.65 Q 162.30,219.21 162.03,214.50 A 1.29,0.70 -83.6 0 0 161.67,213.62 Q 161.21,213.27 160.97,214.24 Q 159.85,218.75 158.58,223.21 A 0.90,0.79 -86.2 0 1 157.96,223.83 ZM 146.36,218.11 A 1.44 1.44 0.0 0 0 144.92,216.67 A 1.44 1.44 0.0 0 0 143.48,218.11 A 1.44 1.44 0.0 0 0 144.92,219.55 A 1.44 1.44 0.0 0 0 146.36,218.11 ZM 117.32,224.21 L 109.42,219.30 Q 108.25,218.57 108.33,219.90 Q 108.43,221.32 107.35,223.18 A 1.32,1.10 -55.7 0 0 107.50,224.75 L 112.32,228.75 A 1.21,1.14 -47.0 0 0 113.89,228.65 L 117.50,225.12 A 0.63,0.55 37.7 0 0 117.32,224.21 ZM 199.30,224.06 Q 199.19,222.05 197.77,219.44 A 0.59,0.56 58.1 0 0 196.94,219.22 L 192.64,222.20 A 1.15,1.09 61.2 0 0 192.28,223.58 L 194.03,227.55 A 0.57,0.55 -20.8 0 0 194.73,227.85 Q 197.26,227.00 198.99,224.96 A 1.32,1.23 -27.9 0 0 199.30,224.06 ZM 203.70,225.30 A 1.27,1.07 -43.8 0 0 202.23,225.40 L 197.24,229.35 A 1.12,1.01 -48.4 0 0 197.26,231.11 Q 199.27,232.25 201.42,232.10 Q 203.65,231.95 204.96,230.31 Q 206.92,227.85 203.70,225.30 ZM 144.64,226.90 A 1.51 1.51 0.0 0 0 143.13,225.39 A 1.51 1.51 0.0 0 0 141.62,226.90 A 1.51 1.51 0.0 0 0 143.13,228.41 A 1.51 1.51 0.0 0 0 144.64,226.90 ZM 105.21,234.00 Q 107.86,234.41 110.39,231.68 A 0.44,0.43 38.6 0 0 110.31,231.02 Q 106.99,228.80 105.12,225.94 A 0.42,0.41 -15.7 0 0 104.77,225.75 L 104.54,225.75 Q 103.88,225.15 103.31,225.56 Q 98.01,229.44 103.06,233.69 Q 103.57,234.11 105.21,234.00 ZM 178.4460,228.1409 A 1.21,1.03 102.6 0 0 179.7152,227.1847 A 1.21,1.03 102.6 0 0 178.9740,225.7791 A 1.21,1.03 102.6 0 0 177.7048,226.7353 A 1.21,1.03 102.6 0 0 178.4460,228.1409 ZM 163.27,233.33 Q 156.33,230.87 149.73,227.40 A 0.67,0.65 -68.5 0 0 148.79,227.82 L 145.79,238.87 A 0.62,0.61 -79.8 0 0 146.32,239.65 Q 161.53,240.91 176.17,239.17 A 1.12,1.10 74.8 0 0 177.04,237.62 L 172.97,228.33 A 0.35,0.35 59.3 0 0 172.43,228.19 Q 168.67,231.32 164.21,233.30 A 1.30,1.27 42.5 0 1 163.27,233.33 ZM 142.35,234.16 A 1.42 1.42 0.0 0 0 140.93,232.74 A 1.42 1.42 0.0 0 0 139.51,234.16 A 1.42 1.42 0.0 0 0 140.93,235.58 A 1.42 1.42 0.0 0 0 142.35,234.16 ZM 169.00,262.04 Q 168.45,262.74 169.26,262.98 Q 170.51,263.34 171.77,263.16 Q 171.83,263.15 173.25,263.06 Q 174.45,262.99 174.21,261.50 Q 176.54,256.06 179.94,251.18 Q 180.62,250.21 179.42,250.31 L 165.55,251.51 A 1.35,1.29 -6.5 0 0 164.32,252.99 Q 164.94,257.22 167.56,261.19 Q 168.08,261.99 169.00,262.04 ZM 137.00,256.46 Q 136.55,257.00 136.93,257.38 Q 137.32,257.76 137.37,257.83 Q 138.94,260.12 140.26,262.56 A 0.97,0.77 73.0 0 0 140.99,263.06 L 146.93,263.23 A 0.74,0.60 -79.6 0 0 147.55,262.70 L 150.24,253.53 A 0.64,0.60 -78.2 0 0 149.74,252.72 Q 147.37,252.44 144.78,252.44 Q 144.75,252.44 143.39,252.20 Q 142.57,252.05 141.96,252.75 Q 139.28,251.43 135.08,251.18 A 0.60,0.59 -2.3 0 0 134.45,251.86 Q 134.88,254.94 137.00,256.46 Z"/>
<path fill="#cac8bf" d="M 174.28,68.06 Q 173.44,79.86 167.65,90.16 Q 166.19,92.77 164.05,94.84 A 0.99,0.69 -53.3 0 1 163.19,95.13 L 158.44,93.51 A 0.56,0.46 -68.2 0 1 158.21,92.79 Q 163.47,81.35 163.50,70.50 Q 163.54,56.52 153.49,48.09 Q 148.92,44.25 142.74,42.19 Q 136.85,40.23 130.50,40.05 Q 123.66,39.86 118.11,43.17 Q 114.54,45.30 112.51,48.51 Q 110.38,51.87 109.82,56.01 Q 109.12,61.11 111.99,65.32 Q 115.44,70.41 121.55,68.78 Q 126.60,67.44 126.51,62.81 Q 126.46,60.47 125.22,58.94 Q 123.92,57.34 121.54,56.61 A 0.63,0.63 -83.7 0 0 120.73,57.26 Q 120.85,58.83 120.72,60.27 Q 120.55,62.03 119.62,62.95 Q 118.29,64.27 116.74,63.09 Q 115.81,62.39 115.30,61.00 Q 113.98,57.49 115.25,54.00 Q 119.02,43.64 130.50,43.50 Q 142.61,43.36 151.75,51.31 Q 156.44,55.39 158.46,60.96 Q 161.67,69.82 159.34,79.57 Q 157.84,85.83 155.31,91.42 A 0.98,0.97 -68.9 0 1 154.12,91.95 L 145.43,89.05 A 0.62,0.61 -77.0 0 1 145.02,88.38 Q 146.39,78.57 142.70,69.74 Q 140.28,63.95 134.92,62.44 Q 132.87,61.86 134.55,63.18 Q 137.92,65.81 137.12,69.24 Q 136.51,71.91 133.67,73.82 Q 130.42,76.02 126.25,76.23 Q 118.09,76.64 112.34,72.10 Q 107.85,68.56 106.22,62.52 Q 104.62,56.60 106.05,50.66 Q 107.61,44.17 112.80,39.85 Q 119.46,34.32 128.31,34.56 Q 155.14,35.32 176.94,44.31 Q 181.53,46.21 184.79,52.14 Q 189.25,60.25 188.07,69.51 Q 186.69,80.43 178.94,88.70 Q 177.69,90.04 175.25,90.97 L 170.62,92.74 Q 169.28,93.25 170.05,92.08 Q 177.34,81.02 174.43,68.05 Q 174.31,67.56 174.28,68.06 Z"/>
<path fill="#cac8bf" d="M 212.81,76.44 Q 216.31,79.29 218.04,82.80 A 1.64,1.60 36.5 0 1 218.19,83.74 Q 217.30,90.12 212.15,93.96 A 0.61,0.59 47.8 0 1 211.39,93.91 Q 199.54,83.11 183.58,88.39 Q 183.04,88.57 183.39,88.12 Q 190.69,78.61 191.25,67.23 A 0.85,0.85 11.7 0 1 192.39,66.48 Q 194.70,67.34 197.52,68.18 Q 205.65,70.61 212.81,76.44 Z"/>
<path fill="#cac8bf" d="M 123.31,79.44 Q 126.76,79.62 130.83,78.65 Q 136.97,77.20 139.43,71.45 Q 139.84,70.51 140.23,71.45 Q 143.32,78.82 142.18,87.29 A 0.55,0.55 -77.7 0 1 141.48,87.74 Q 111.16,78.83 94.31,104.96 A 0.63,0.63 27.3 0 1 93.55,105.20 Q 81.96,100.69 75.76,90.43 A 1.17,1.17 36.4 0 1 75.62,89.51 Q 76.39,86.44 77.81,84.56 Q 87.14,72.30 102.14,67.12 A 0.89,0.88 -25.3 0 1 103.19,67.49 Q 110.11,78.76 123.31,79.44 Z"/>
<path fill="#cac8bf" d="M 220.98,85.57 Q 221.40,84.34 221.88,85.54 Q 225.95,95.74 218.34,103.89 A 0.37,0.36 51.8 0 1 217.76,103.81 L 214.06,97.25 A 0.67,0.66 53.3 0 1 214.17,96.46 Q 218.83,91.89 220.98,85.57 Z"/>
<path fill="#f5dac6" d="M 98.56,161.69 Q 102.12,162.31 104.81,160.33 Q 107.04,158.69 108.24,155.47 Q 110.48,149.47 107.27,143.27 Q 103.31,135.63 94.37,135.24 A 1.69,1.69 86.0 0 1 92.77,133.85 Q 90.33,120.44 95.70,109.22 Q 100.22,99.78 108.47,94.14 Q 121.09,85.51 138.31,90.44 Q 152.99,94.64 162.29,98.55 A 1.22,1.19 45.6 0 0 163.21,98.57 Q 174.15,94.24 185.48,91.17 Q 192.41,89.29 196.69,89.90 Q 201.93,90.64 206.19,93.72 Q 209.85,96.35 212.61,101.31 Q 217.84,110.67 218.25,121.75 Q 218.84,137.66 216.80,153.40 Q 215.68,162.05 213.10,167.16 Q 208.92,175.43 201.09,181.10 Q 184.14,193.38 161.25,193.50 Q 143.06,193.59 130.06,190.28 Q 110.02,185.18 94.93,169.79 A 1.50,1.48 55.6 0 0 93.26,169.47 Q 89.34,171.20 84.51,170.63 Q 77.25,169.77 74.75,163.00 Q 72.98,158.20 75.19,153.76 Q 77.20,149.70 80.85,148.34 Q 85.00,146.79 89.11,150.17 A 1.16,1.07 -73.0 0 1 89.51,151.00 Q 89.82,160.16 98.56,161.69 ZM 132.56,113.94 Q 126.56,110.90 119.22,114.26 Q 114.07,116.62 110.16,120.69 A 1.07,0.88 -32.0 0 0 109.87,121.55 Q 110.16,123.02 111.45,122.93 Q 112.23,122.87 113.18,121.98 Q 116.70,118.66 118.81,117.56 Q 125.28,114.21 132.04,116.81 A 1.03,0.92 37.1 0 0 132.93,116.74 Q 135.17,115.26 132.56,113.94 ZM 208.88,117.85 Q 207.18,116.42 205.32,115.18 Q 199.70,111.46 193.49,113.63 Q 192.52,113.97 192.01,114.48 Q 190.88,115.60 192.32,116.51 A 1.24,0.94 -31.7 0 0 193.23,116.60 Q 200.69,114.48 208.03,120.97 A 2.16,2.14 -34.8 0 0 210.24,121.36 Q 212.37,120.52 210.30,118.94 Q 208.99,117.95 208.88,117.85 ZM 126.8768,159.5298 A 14.67,13.43 89.7 0 0 140.2298,144.7897 A 14.67,13.43 89.7 0 0 126.7232,130.1902 A 14.67,13.43 89.7 0 0 113.3702,144.9303 A 14.67,13.43 89.7 0 0 126.8768,159.5298 ZM 200.8159,159.3486 A 14.65,13.61 85.2 0 0 213.1523,143.6111 A 14.65,13.61 85.2 0 0 198.3641,130.1514 A 14.65,13.61 85.2 0 0 186.0277,145.8889 A 14.65,13.61 85.2 0 0 200.8159,159.3486 ZM 85.81,162.94 Q 83.56,161.12 82.24,159.12 Q 81.67,158.27 81.17,157.98 Q 79.89,157.25 79.44,158.59 Q 79.17,159.40 79.64,160.34 Q 81.34,163.76 84.63,165.69 A 1.00,0.98 48.2 0 0 85.53,165.75 Q 87.95,164.66 85.81,162.94 ZM 121.8147,162.6592 A 5.19,4.98 -9.1 0 0 115.9024,158.5627 A 5.19,4.98 -9.1 0 0 111.5653,164.3008 A 5.19,4.98 -9.1 0 0 117.4776,168.3973 A 5.19,4.98 -9.1 0 0 121.8147,162.6592 ZM 211.99,163.62 A 5.17 5.17 0.0 0 0 206.82,158.45 A 5.17 5.17 0.0 0 0 201.65,163.62 A 5.17 5.17 0.0 0 0 206.82,168.79 A 5.17 5.17 0.0 0 0 211.99,163.62 ZM 165.32,167.14 Q 163.97,166.92 162.77,166.28 Q 159.59,164.57 159.12,166.36 A 1.90,1.90 19.5 0 0 160.19,168.60 Q 165.99,171.12 170.53,168.10 Q 171.59,167.40 171.85,166.38 Q 172.33,164.47 170.07,164.33 A 0.87,0.77 -70.4 0 0 169.31,164.75 Q 167.59,167.49 165.32,167.14 Z"/>
<path fill="#cac8bf" d="M 88.59,120.20 A 0.79,0.78 14.7 0 1 89.03,120.95 L 88.71,127.27 A 0.65,0.65 9.5 0 1 87.88,127.86 Q 82.28,126.21 78.15,122.71 Q 74.10,119.28 71.83,114.09 Q 67.30,103.77 72.77,93.03 Q 73.28,92.01 73.89,92.98 Q 80.40,103.49 92.38,107.63 A 0.66,0.63 -70.6 0 1 92.76,108.46 L 89.86,116.99 A 0.73,0.70 -65.4 0 1 88.82,117.40 Q 80.96,112.62 76.31,105.69 Q 74.78,103.40 72.72,104.06 A 0.43,0.42 66.1 0 0 72.49,104.68 Q 76.31,111.28 82.02,116.26 Q 83.42,117.48 85.18,118.44 Q 86.86,119.36 88.59,120.20 Z"/>
<path fill="#cac8bf" d="M 227.19,94.67 Q 227.96,92.48 228.50,94.74 Q 230.42,102.88 228.00,110.87 Q 226.24,116.71 221.66,120.38 Q 221.07,120.85 221.01,120.10 Q 220.53,114.12 218.68,108.28 A 1.14,1.13 -30.7 0 1 218.98,107.12 Q 224.74,101.66 227.19,94.67 Z"/>
<path fill="#2c383d" d="M 132.56,113.94 Q 135.17,115.26 132.93,116.74 A 1.03,0.92 37.1 0 1 132.04,116.81 Q 125.28,114.21 118.81,117.56 Q 116.70,118.66 113.18,121.98 Q 112.23,122.87 111.45,122.93 Q 110.16,123.02 109.87,121.55 A 1.07,0.88 -32.0 0 1 110.16,120.69 Q 114.07,116.62 119.22,114.26 Q 126.56,110.90 132.56,113.94 Z"/>
<path fill="#2c383d" d="M 210.30,118.94 Q 212.37,120.52 210.24,121.36 A 2.16,2.14 -34.8 0 1 208.03,120.97 Q 200.69,114.48 193.23,116.60 A 1.24,0.94 -31.7 0 1 192.32,116.51 Q 190.88,115.60 192.01,114.48 Q 192.52,113.97 193.49,113.63 Q 199.70,111.46 205.32,115.18 Q 207.18,116.42 208.88,117.85 Q 208.99,117.95 210.30,118.94 Z"/>
<path fill="#cac8bf" d="M 230.04,115.45 Q 230.71,114.52 230.90,115.65 Q 232.39,124.51 228.06,131.56 Q 224.80,136.88 221.44,139.86 Q 221.09,140.17 221.10,139.69 L 221.33,124.31 A 0.97,0.89 75.3 0 1 221.74,123.54 Q 226.43,120.47 230.04,115.45 Z"/>
<path fill="#cac8bf" d="M 89.02,131.40 Q 89.88,133.39 89.83,135.57 A 0.48,0.48 2.3 0 1 89.32,136.04 Q 81.15,135.51 75.17,129.83 Q 71.37,126.21 70.43,120.56 Q 70.10,118.61 71.35,120.15 Q 78.22,128.60 88.33,130.83 A 1.02,0.96 -3.6 0 1 89.02,131.40 Z"/>
<ellipse fill="#cac8bf" cx="0.00" cy="0.00" transform="translate(49.92,125.06) rotate(-35.3)" rx="6.34" ry="4.19"/>
<path fill="#cac8bf" d="M 98.66,142.32 Q 103.11,145.81 101.95,151.00 Q 101.46,153.19 100.31,154.03 Q 98.65,155.24 96.19,153.37 Q 94.88,152.38 94.35,150.81 Q 93.02,146.80 88.69,145.06 Q 85.83,143.91 81.50,143.83 Q 67.70,143.56 59.05,132.60 A 0.63,0.63 63.5 0 1 59.38,131.60 Q 64.65,130.22 67.66,125.93 A 0.35,0.35 45.5 0 1 68.24,125.94 Q 74.81,136.04 86.05,138.53 Q 89.59,139.31 93.17,139.91 Q 96.23,140.43 98.66,142.32 Z"/>
<path fill="#243940" d="M 126.8768,159.5298 A 14.67,13.43 89.7 0 1 113.3702,144.9303 A 14.67,13.43 89.7 0 1 126.7232,130.1902 A 14.67,13.43 89.7 0 1 140.2298,144.7897 A 14.67,13.43 89.7 0 1 126.8768,159.5298 ZM 137.00,143.18 A 6.69 6.69 0.0 0 0 130.31,136.49 A 6.69 6.69 0.0 0 0 123.62,143.18 A 6.69 6.69 0.0 0 0 130.31,149.87 A 6.69 6.69 0.0 0 0 137.00,143.18 Z"/>
<path fill="#243940" d="M 200.8159,159.3486 A 14.65,13.61 85.2 0 1 186.0277,145.8889 A 14.65,13.61 85.2 0 1 198.3641,130.1514 A 14.65,13.61 85.2 0 1 213.1523,143.6111 A 14.65,13.61 85.2 0 1 200.8159,159.3486 ZM 209.82,143.20 A 6.75 6.75 0.0 0 0 203.07,136.45 A 6.75 6.75 0.0 0 0 196.32,143.20 A 6.75 6.75 0.0 0 0 203.07,149.95 A 6.75 6.75 0.0 0 0 209.82,143.20 Z"/>
<circle fill="#ffffff" cx="130.31" cy="143.18" r="6.69"/>
<circle fill="#ffffff" cx="203.07" cy="143.20" r="6.75"/>
<path fill="#f5dac6" d="M 223.20,156.17 L 222.23,155.89 A 0.48,0.47 17.3 0 1 221.90,155.28 L 223.40,150.78 A 0.37,0.36 27.9 0 1 223.97,150.61 Q 226.93,152.89 227.26,156.75 Q 227.90,164.35 220.19,166.40 Q 219.58,166.56 219.76,165.97 L 221.12,161.53 A 1.70,0.91 -23.3 0 1 221.72,160.78 Q 223.69,159.28 223.70,156.81 A 0.70,0.64 9.4 0 0 223.20,156.17 Z"/>
<path fill="#2c383d" d="M 85.81,162.94 Q 87.95,164.66 85.53,165.75 A 1.00,0.98 48.2 0 1 84.63,165.69 Q 81.34,163.76 79.64,160.34 Q 79.17,159.40 79.44,158.59 Q 79.89,157.25 81.17,157.98 Q 81.67,158.27 82.24,159.12 Q 83.56,161.12 85.81,162.94 Z"/>
<ellipse fill="#e5988c" cx="0.00" cy="0.00" transform="translate(116.69,163.48) rotate(-9.1)" rx="5.19" ry="4.98"/>
<circle fill="#e5988c" cx="206.82" cy="163.62" r="5.17"/>
<path fill="#2c383d" d="M 165.32,167.14 Q 167.59,167.49 169.31,164.75 A 0.87,0.77 -70.4 0 1 170.07,164.33 Q 172.33,164.47 171.85,166.38 Q 171.59,167.40 170.53,168.10 Q 165.99,171.12 160.19,168.60 A 1.90,1.90 19.5 0 1 159.12,166.36 Q 159.59,164.57 162.77,166.28 Q 163.97,166.92 165.32,167.14 Z"/>
<path fill="#5a9ab2" d="M 143.31,220.19 Q 145.54,222.17 147.18,219.62 A 0.79,0.37 -57.0 0 1 147.92,219.16 Q 148.17,219.32 147.66,220.20 Q 146.58,222.04 144.81,223.02 Q 141.51,224.85 141.43,224.92 Q 138.73,227.51 142.88,229.95 A 0.96,0.95 46.6 0 0 143.77,229.98 Q 146.83,228.46 145.63,225.15 A 0.45,0.41 74.6 0 1 145.93,224.56 Q 147.30,224.36 146.92,226.23 Q 146.26,229.48 143.66,231.46 A 0.92,0.78 35.8 0 1 142.80,231.53 Q 141.12,230.80 139.81,231.81 Q 136.56,234.33 139.81,236.44 Q 141.87,237.77 143.25,235.67 Q 143.54,235.24 143.59,235.75 Q 143.73,237.00 142.87,237.91 A 0.99,0.86 24.9 0 1 142.01,238.16 Q 130.21,235.88 118.82,230.26 A 0.38,0.38 -54.6 0 1 118.72,229.66 Q 125.16,223.07 130.37,215.64 Q 131.56,213.96 130.67,212.65 Q 129.52,210.97 128.19,212.60 L 120.31,222.31 A 0.87,0.86 33.7 0 1 119.22,222.52 L 110.05,217.43 A 0.64,0.61 -53.8 0 1 109.92,216.45 Q 115.11,210.95 117.80,203.78 Q 117.83,203.70 118.43,201.56 Q 119.39,198.21 122.51,197.87 Q 124.87,197.61 127.15,199.23 Q 131.46,202.30 131.50,208.22 Q 131.51,208.89 131.58,209.27 Q 131.98,211.35 133.00,209.34 Q 135.45,204.52 132.89,200.46 Q 131.54,198.31 133.73,199.49 L 146.76,206.51 Q 148.96,207.69 148.61,210.73 L 147.98,216.12 Q 147.78,217.79 147.06,216.30 Q 145.98,214.07 143.76,215.78 Q 140.85,218.00 143.31,220.19 ZM 145.1302,213.1383 A 3.01,2.63 91.9 0 0 147.8586,210.2172 A 3.01,2.63 91.9 0 0 145.3298,207.1217 A 3.01,2.63 91.9 0 0 142.6014,210.0428 A 3.01,2.63 91.9 0 0 145.1302,213.1383 Z"/>
<path fill="#5a9ab2" d="M 172.04,211.25 Q 173.31,212.70 174.83,212.58 Q 176.32,212.46 177.02,211.03 Q 177.90,209.22 175.94,207.56 Q 173.75,205.72 172.75,208.50 Q 172.52,209.15 171.79,209.00 Q 171.83,207.32 172.99,206.26 Q 173.96,205.36 174.05,205.27 Q 176.65,202.35 179.69,199.45 A 0.36,0.36 -29.0 0 1 180.29,199.62 Q 181.21,203.06 181.77,206.50 Q 183.99,220.13 191.96,231.35 A 0.54,0.52 -37.7 0 1 191.86,232.07 Q 187.26,235.81 181.10,238.36 A 0.60,0.59 -22.8 0 1 180.33,238.05 L 176.18,228.55 Q 175.60,227.22 176.55,228.31 Q 178.81,230.89 180.89,227.79 Q 182.13,225.94 180.16,224.93 Q 177.87,223.74 176.65,225.94 Q 175.94,227.21 175.60,225.82 L 172.04,211.25 ZM 178.88,217.88 A 2.41 2.41 0.0 0 0 176.47,215.47 A 2.41 2.41 0.0 0 0 174.06,217.88 A 2.41 2.41 0.0 0 0 176.47,220.29 A 2.41 2.41 0.0 0 0 178.88,217.88 ZM 182.0355,236.4900 A 2.39,2.14 79.5 0 0 183.7042,233.7500 A 2.39,2.14 79.5 0 0 181.1645,231.7900 A 2.39,2.14 79.5 0 0 179.4958,234.5300 A 2.39,2.14 79.5 0 0 182.0355,236.4900 Z"/>
<path fill="#ffffff" d="M 157.16,201.64 Q 157.54,201.69 157.24,201.93 L 152.80,205.33 A 1.96,1.75 -49.7 0 1 150.91,205.59 Q 145.82,203.27 140.98,199.86 Q 140.61,199.60 141.05,199.66 L 157.16,201.64 Z"/>
<path fill="#ffffff" d="M 164.51,201.69 Q 164.14,201.42 164.59,201.35 L 174.26,199.75 Q 175.87,199.48 174.76,200.62 Q 172.39,203.04 169.44,204.75 A 0.80,0.74 47.4 0 1 168.60,204.68 L 164.51,201.69 Z"/>
<path fill="#5a9ab2" d="M 195.24,217.09 A 0.36,0.33 50.2 0 1 195.21,217.64 L 190.91,220.32 A 0.69,0.66 63.1 0 1 189.94,219.98 Q 186.35,211.40 184.33,202.62 A 0.49,0.32 79.1 0 1 184.56,202.05 Q 184.80,202.02 184.99,202.47 Q 188.37,210.61 195.24,217.09 Z"/>
<path fill="#ffffff" d="M 163.30,203.18 Q 168.63,207.22 164.75,212.84 Q 163.50,214.66 163.25,212.52 L 162.25,203.74 Q 162.08,202.25 163.30,203.18 Z"/>
<path fill="#ffffff" d="M 159.72,203.92 Q 161.15,208.64 159.37,213.16 A 1.64,1.64 20.1 0 1 157.32,214.11 Q 152.21,212.37 154.00,207.50 Q 155.19,204.25 159.07,203.52 A 0.58,0.57 76.4 0 1 159.72,203.92 Z"/>
<path fill="#40474a" d="M 145.1302,213.1383 A 3.01,2.63 91.9 0 1 142.6014,210.0428 A 3.01,2.63 91.9 0 1 145.3298,207.1217 A 3.01,2.63 91.9 0 1 147.8586,210.2172 A 3.01,2.63 91.9 0 1 145.1302,213.1383 ZM 146.65,210.11 A 1.48 1.48 0.0 0 0 145.17,208.63 A 1.48 1.48 0.0 0 0 143.69,210.11 A 1.48 1.48 0.0 0 0 145.17,211.59 A 1.48 1.48 0.0 0 0 146.65,210.11 Z"/>
<path fill="#40474a" d="M 172.04,211.25 Q 171.67,210.15 171.79,209.00 Q 172.52,209.15 172.75,208.50 Q 173.75,205.72 175.94,207.56 Q 177.90,209.22 177.02,211.03 Q 176.32,212.46 174.83,212.58 Q 173.31,212.70 172.04,211.25 ZM 175.2270,211.2575 A 1.28,0.97 75.2 0 0 175.8378,209.7722 A 1.28,0.97 75.2 0 0 174.5730,208.7825 A 1.28,0.97 75.2 0 0 173.9622,210.2678 A 1.28,0.97 75.2 0 0 175.2270,211.2575 Z"/>
<circle fill="#ffffff" cx="145.17" cy="210.11" r="1.48"/>
<ellipse fill="#ffffff" cx="0.00" cy="0.00" transform="translate(174.90,210.02) rotate(75.2)" rx="1.28" ry="0.97"/>
<path fill="#ffffff" d="M 158.58,223.21 Q 159.85,218.75 160.97,214.24 Q 161.21,213.27 161.67,213.62 A 1.29,0.70 -83.6 0 1 162.03,214.50 Q 162.30,219.21 163.87,223.65 Q 164.08,224.24 164.47,224.59 Q 165.62,225.61 165.69,224.09 Q 165.71,223.66 165.53,223.05 Q 164.65,220.00 164.12,216.03 A 1.43,1.24 -25.7 0 1 164.63,214.84 L 167.11,212.81 A 1.29,1.15 -28.9 0 1 169.10,213.26 L 171.89,223.10 A 1.98,1.73 64.9 0 1 171.31,225.12 L 163.93,230.75 A 0.89,0.78 37.7 0 1 163.04,230.80 L 149.79,224.21 A 0.72,0.66 -71.0 0 1 149.46,223.45 L 151.71,213.43 A 0.54,0.49 22.3 0 1 152.49,213.14 L 157.22,215.87 A 0.68,0.56 23.7 0 1 157.56,216.55 Q 156.50,220.89 156.75,223.00 Q 156.88,224.07 157.96,223.83 A 0.90,0.79 -86.2 0 0 158.58,223.21 Z"/>
<path fill="#40474a" d="M 178.88,217.88 A 2.41 2.41 0.0 0 1 176.47,220.29 A 2.41 2.41 0.0 0 1 174.06,217.88 A 2.41 2.41 0.0 0 1 176.47,215.47 A 2.41 2.41 0.0 0 1 178.88,217.88 ZM 177.64,217.87 A 1.12 1.12 0.0 0 0 176.52,216.75 A 1.12 1.12 0.0 0 0 175.40,217.87 A 1.12 1.12 0.0 0 0 176.52,218.99 A 1.12 1.12 0.0 0 0 177.64,217.87 Z"/>
<circle fill="#ffffff" cx="144.92" cy="218.11" r="1.44"/>
<circle fill="#d1d9e2" cx="176.52" cy="217.87" r="1.12"/>
<path fill="#5a9ab2" d="M 117.32,224.21 A 0.63,0.55 37.7 0 1 117.50,225.12 L 113.89,228.65 A 1.21,1.14 -47.0 0 1 112.32,228.75 L 107.50,224.75 A 1.32,1.10 -55.7 0 1 107.35,223.18 Q 108.43,221.32 108.33,219.90 Q 108.25,218.57 109.42,219.30 L 117.32,224.21 Z"/>
<path fill="#5a9ab2" d="M 198.99,224.96 Q 197.26,227.00 194.73,227.85 A 0.57,0.55 -20.8 0 1 194.03,227.55 L 192.28,223.58 A 1.15,1.09 61.2 0 1 192.64,222.20 L 196.94,219.22 A 0.59,0.56 58.1 0 1 197.77,219.44 Q 199.19,222.05 199.30,224.06 A 1.32,1.23 -27.9 0 1 198.99,224.96 Z"/>
<circle fill="#ffffff" cx="143.13" cy="226.90" r="1.51"/>
<path fill="#ffffff" d="M 104.54,225.75 L 104.77,225.75 A 0.42,0.41 -15.7 0 1 105.12,225.94 Q 106.99,228.80 110.31,231.02 A 0.44,0.43 38.6 0 1 110.39,231.68 Q 107.86,234.41 105.21,234.00 Q 106.15,232.94 106.14,231.72 Q 106.14,231.12 105.27,229.61 Q 104.28,227.88 104.54,225.75 Z"/>
<ellipse fill="#d1d9e2" cx="0.00" cy="0.00" transform="translate(178.71,226.96) rotate(102.6)" rx="1.21" ry="1.03"/>
<path fill="#74584f" d="M 164.21,233.30 Q 168.67,231.32 172.43,228.19 A 0.35,0.35 59.3 0 1 172.97,228.33 L 177.04,237.62 A 1.12,1.10 74.8 0 1 176.17,239.17 Q 161.53,240.91 146.32,239.65 A 0.62,0.61 -79.8 0 1 145.79,238.87 L 148.79,227.82 A 0.67,0.65 -68.5 0 1 149.73,227.40 Q 156.33,230.87 163.27,233.33 A 1.30,1.27 42.5 0 0 164.21,233.30 Z"/>
<path fill="#40474a" d="M 182.0355,236.4900 A 2.39,2.14 79.5 0 1 179.4958,234.5300 A 2.39,2.14 79.5 0 1 181.1645,231.7900 A 2.39,2.14 79.5 0 1 183.7042,233.7500 A 2.39,2.14 79.5 0 1 182.0355,236.4900 ZM 181.5287,235.2588 A 1.13,0.95 92.6 0 0 182.5290,234.1731 A 1.13,0.95 92.6 0 0 181.6313,233.0012 A 1.13,0.95 92.6 0 0 180.6310,234.0869 A 1.13,0.95 92.6 0 0 181.5287,235.2588 Z"/>
<circle fill="#ffffff" cx="140.93" cy="234.16" r="1.42"/>
<ellipse fill="#d1d9e2" cx="0.00" cy="0.00" transform="translate(181.58,234.13) rotate(92.6)" rx="1.13" ry="0.95"/>
<path fill="#ffffff" d="M 137.00,256.46 L 142.45,255.52 A 0.47,0.41 -14.9 0 0 142.83,254.96 L 141.96,252.75 Q 142.57,252.05 143.39,252.20 Q 144.75,252.44 144.78,252.44 Q 147.37,252.44 149.74,252.72 A 0.64,0.60 -78.2 0 1 150.24,253.53 L 147.55,262.70 A 0.74,0.60 -79.6 0 1 146.93,263.23 L 140.99,263.06 A 0.97,0.77 73.0 0 1 140.26,262.56 Q 138.94,260.12 137.37,257.83 Q 137.32,257.76 136.93,257.38 Q 136.55,257.00 137.00,256.46 Z"/>
<path fill="#a3999a" d="M 153.00,258.96 L 162.00,258.96 L 167.42,267.40 A 1.12,1.11 78.1 0 0 168.18,267.90 Q 172.45,268.62 176.74,268.13 Q 176.82,268.12 178.75,268.11 Q 181.40,268.08 180.90,264.22 A 1.18,1.17 -7.3 0 0 179.58,263.21 Q 178.07,263.40 178.29,262.25 Q 185.55,261.18 191.70,265.07 A 0.96,0.96 -55.7 0 1 191.96,266.45 Q 191.00,267.76 189.47,268.36 Q 189.25,268.45 186.55,269.21 Q 184.10,269.91 181.00,270.25 Q 164.17,272.11 147.25,271.60 Q 135.91,271.26 125.02,268.17 Q 123.32,267.69 122.31,266.86 Q 120.58,265.45 122.58,264.48 Q 129.00,261.37 135.46,261.50 L 136.31,266.95 A 1.08,0.88 87.2 0 0 137.10,267.83 Q 144.17,268.75 150.73,268.24 A 1.19,1.19 -3.7 0 0 151.83,266.99 Q 151.57,262.04 153.00,258.96 Z"/>
<path fill="#ffffff" d="M 174.21,261.50 Q 174.45,262.99 173.25,263.06 Q 171.83,263.15 171.77,263.16 Q 170.51,263.34 169.26,262.98 Q 168.45,262.74 169.00,262.04 L 174.21,261.50 Z"/>
</svg>
