<?xml version="1.0" encoding="UTF-8" standalone="no"?>
<!DOCTYPE svg PUBLIC "-//W3C//DTD SVG 1.1//EN" "http://www.w3.org/Graphics/SVG/1.1/DTD/svg11.dtd">
<svg xmlns="http://www.w3.org/2000/svg" version="1.1" viewBox="0 0 300 300">
<path fill="#030303" d="M 169.56,0.00 Q 173.56,0.00 177.56,0.00 Q 178.14,0.62 177.94,1.32 Q 177.72,2.11 177.71,2.23 Q 176.68,14.40 178.89,26.42 Q 183.34,50.72 191.60,74.55 A 0.99,0.99 -25.0 0 0 193.03,75.07 Q 201.96,69.82 210.27,64.78 Q 221.41,58.03 226.67,53.39 Q 237.27,44.05 244.09,31.82 Q 245.75,28.83 245.50,32.24 Q 244.62,44.27 243.35,56.26 Q 241.70,71.85 236.82,87.59 Q 236.29,89.31 237.87,88.45 Q 248.46,82.74 258.14,76.37 Q 260.69,74.69 263.26,73.60 Q 264.25,73.18 264.00,74.23 Q 258.51,97.46 248.62,119.15 Q 244.18,128.88 239.85,138.90 A 0.94,0.91 -51.0 0 0 239.93,139.80 Q 246.01,148.75 241.72,158.74 Q 238.25,166.80 229.26,169.13 A 1.37,1.33 86.1 0 0 228.27,170.30 L 225.60,196.23 A 0.48,0.47 18.2 0 1 224.88,196.58 Q 221.12,194.39 217.79,191.25 L 213.04,186.50 Q 212.79,186.02 212.40,186.40 Q 208.24,190.44 203.18,193.26 Q 202.83,193.46 202.25,193.50 Q 200.89,193.61 200.00,194.71 Q 198.54,195.23 197.56,196.36 Q 197.29,196.68 196.78,196.92 L 191.46,199.50 Q 187.98,199.72 184.75,201.04 Q 182.85,201.11 181.05,201.67 Q 180.70,201.77 177.86,202.29 Q 176.06,202.63 175.49,204.33 Q 175.13,205.45 175.86,207.05 Q 178.43,212.64 180.20,218.55 A 0.35,0.27 -19.9 0 0 180.64,218.69 Q 180.96,218.55 181.13,219.02 A 1.55,0.71 -61.6 0 1 181.07,219.96 Q 180.48,221.81 182.06,222.94 Q 183.97,224.30 183.56,226.46 Q 183.45,227.00 183.36,226.44 Q 182.82,222.90 182.75,225.44 Q 182.70,226.97 183.74,227.60 A 0.76,0.56 24.9 0 1 184.12,228.30 L 183.93,229.04 A 1.56,0.87 54.3 0 0 184.03,229.92 L 184.99,232.45 A 1.30,0.32 72.7 0 0 185.46,233.23 Q 186.53,233.90 187.59,233.29 Q 187.95,233.08 188.50,233.04 L 194.96,232.55 A 0.57,0.45 85.0 0 0 195.36,231.94 Q 195.24,230.35 196.75,230.04 Q 197.98,231.23 200.19,231.44 Q 206.04,231.98 210.75,230.46 Q 214.78,229.66 217.75,226.79 Q 218.47,225.40 219.75,224.54 Q 221.82,223.94 223.72,224.62 A 1.57,1.22 78.8 0 1 224.43,225.24 Q 225.52,227.05 226.27,225.54 Q 226.81,224.48 227.08,224.22 Q 228.56,222.76 230.71,223.40 A 1.24,1.03 81.2 0 1 231.40,224.01 Q 233.19,227.60 234.53,223.91 A 1.40,1.15 90.0 0 1 235.12,223.19 Q 238.50,221.39 239.89,224.05 Q 241.29,226.74 241.38,226.87 Q 244.79,232.07 243.69,238.44 Q 243.57,239.12 242.29,240.69 Q 241.78,241.32 240.89,242.89 Q 239.05,246.13 235.26,244.40 A 1.39,1.12 86.1 0 1 234.63,243.72 Q 233.24,240.39 231.35,242.90 A 1.36,0.92 67.8 0 0 231.16,243.80 Q 231.34,245.41 229.50,245.79 Q 228.70,245.62 228.00,245.96 Q 225.90,246.05 225.54,244.00 L 221.00,242.29 Q 219.81,241.32 217.75,241.25 Q 214.59,241.14 212.69,241.22 Q 211.06,241.28 210.21,242.13 Q 209.18,243.17 209.02,244.75 Q 209.00,244.97 209.21,244.86 Q 209.48,244.72 209.51,244.97 A 0.68,0.30 -41.4 0 1 209.29,245.44 L 206.00,249.04 Q 204.18,249.45 202.39,249.16 Q 200.31,248.83 199.09,249.06 Q 197.42,249.38 195.75,249.71 Q 194.15,249.43 192.85,248.55 Q 191.11,247.35 190.20,247.15 Q 187.66,246.59 185.11,246.95 Q 181.66,247.43 181.48,247.45 Q 175.76,247.98 168.93,249.94 Q 168.52,250.06 168.10,249.97 Q 165.88,249.48 165.00,251.50 Q 163.74,254.40 166.75,254.50 Q 170.83,254.64 172.98,257.83 A 1.84,1.30 -70.6 0 1 173.24,258.74 L 173.29,261.75 L 170.71,266.25 Q 169.76,267.92 169.81,269.79 Q 169.89,272.61 169.89,272.74 Q 169.71,276.98 171.25,280.96 L 171.71,281.00 L 176.75,281.96 Q 180.45,282.53 183.75,284.29 Q 187.77,287.17 183.71,290.25 Q 170.77,293.93 157.29,293.00 Q 155.18,291.58 155.46,289.00 Q 155.03,281.87 154.69,274.74 Q 154.44,269.25 154.26,273.61 Q 154.25,273.75 154.22,273.90 Q 153.70,276.11 153.80,273.73 Q 153.81,273.57 153.86,273.42 Q 155.26,269.28 151.81,268.85 A 0.34,0.31 83.1 0 0 151.49,269.29 Q 151.88,270.49 151.50,271.60 A 1.21,0.56 -14.9 0 1 150.83,272.16 L 147.04,273.80 A 0.89,0.43 -80.6 0 0 146.66,274.34 Q 146.42,275.09 146.07,274.21 A 0.31,0.28 -26.9 0 0 145.63,274.09 Q 145.08,274.45 144.36,273.85 Q 143.99,273.54 143.94,273.99 Q 143.57,277.36 143.69,280.75 Q 143.79,283.37 143.13,279.69 Q 142.95,278.70 143.04,279.70 Q 143.48,284.59 142.92,289.25 Q 142.90,289.36 142.95,290.86 Q 142.97,291.89 142.21,292.75 Q 132.72,293.82 123.25,292.46 L 116.50,290.54 Q 112.03,289.16 113.76,286.44 Q 114.58,285.14 116.70,284.14 Q 121.62,281.80 127.07,281.12 A 0.98,0.85 6.5 0 0 127.80,280.62 Q 128.38,279.34 127.28,278.77 Q 126.74,278.49 125.69,278.59 Q 110.73,279.97 102.06,267.94 Q 100.96,266.41 98.14,260.02 A 0.58,0.47 64.7 0 0 97.45,259.69 Q 96.53,260.17 95.78,262.39 Q 95.32,263.73 94.36,264.77 Q 92.95,266.30 92.97,264.12 Q 92.98,263.56 93.24,262.93 Q 94.90,258.91 96.11,254.73 A 1.66,1.59 45.7 0 0 96.10,253.78 Q 91.21,238.49 100.21,225.50 Q 105.38,220.14 112.81,220.06 A 1.40,0.99 16.0 0 0 113.70,219.75 Q 114.78,218.73 113.79,217.25 L 113.29,210.25 L 114.75,202.48 A 2.02,1.84 -71.8 0 0 113.81,200.37 Q 108.39,197.57 102.19,195.56 Q 98.45,194.35 90.75,188.54 L 86.93,185.51 A 0.88,0.75 -37.2 0 0 86.05,185.46 Q 84.17,186.40 83.00,188.21 L 75.25,195.46 Q 73.10,196.82 73.00,194.58 Q 72.95,193.51 72.94,193.43 Q 71.74,182.46 70.71,171.01 Q 70.54,169.20 68.74,168.97 Q 65.75,168.59 63.08,166.66 Q 55.49,161.17 54.51,151.75 Q 53.94,146.29 56.08,142.29 Q 57.15,140.28 55.99,138.32 Q 38.42,108.78 29.86,75.76 Q 29.28,73.54 31.12,74.92 Q 41.23,82.51 53.00,89.19 Q 54.01,89.76 54.00,88.60 Q 53.98,87.16 53.49,85.39 Q 46.53,60.43 45.91,34.50 Q 45.89,33.38 46.46,33.41 A 1.04,0.61 71.1 0 1 47.16,34.01 Q 53.89,47.55 64.56,57.98 Q 68.66,61.99 75.98,67.38 Q 81.95,71.77 88.08,75.95 A 0.81,0.81 24.8 0 0 89.31,75.50 Q 95.60,52.52 94.22,28.25 Q 93.93,23.25 92.00,18.64 Q 89.75,13.25 86.81,8.18 Q 85.94,6.68 87.49,7.47 L 142.22,35.33 A 0.72,0.71 -59.7 0 0 143.12,35.09 Q 147.19,29.17 150.81,23.35 Q 157.74,12.23 166.28,2.29 Q 167.62,0.72 169.56,0.00 ZM 64.98,102.00 Q 53.51,97.30 42.05,90.96 Q 41.06,90.41 41.41,91.49 Q 49.04,114.49 61.21,135.54 A 0.87,0.86 66.0 0 0 62.22,135.93 Q 64.68,135.15 68.65,135.29 A 0.73,0.73 5.9 0 0 69.39,134.69 Q 71.71,120.56 79.34,109.29 Q 84.33,101.92 91.44,97.94 Q 100.68,92.76 111.21,96.12 Q 116.88,97.93 121.94,101.05 Q 138.21,111.06 155.32,121.40 Q 157.04,122.43 158.86,121.61 Q 163.68,119.45 169.08,116.35 Q 179.67,110.28 190.54,104.72 Q 197.09,101.38 200.44,100.91 Q 206.12,100.12 211.31,102.94 Q 218.60,106.89 223.25,115.02 Q 228.42,124.05 229.27,134.44 A 1.11,0.88 -80.7 0 0 229.71,135.23 Q 230.51,135.72 231.50,135.60 Q 232.05,135.53 232.48,135.62 Q 234.64,136.05 235.31,134.56 Q 245.55,112.09 253.44,88.68 Q 253.66,88.03 253.05,88.32 L 227.10,100.48 Q 225.67,101.15 226.21,99.66 Q 234.10,77.86 237.21,54.31 Q 237.31,53.54 236.70,54.03 Q 222.75,65.21 207.86,73.89 Q 198.50,79.35 189.48,84.86 A 0.46,0.45 -25.9 0 1 188.82,84.64 Q 174.69,48.79 169.33,9.20 Q 169.24,8.58 168.88,9.09 Q 161.66,18.98 155.48,28.67 Q 150.63,36.29 145.24,43.53 A 0.62,0.62 -59.6 0 1 144.48,43.73 Q 122.36,33.64 100.68,21.73 Q 99.92,21.31 100.02,22.17 Q 100.80,28.64 100.86,35.22 Q 100.92,41.06 100.12,48.25 Q 98.04,67.09 92.84,85.82 A 0.40,0.39 -67.0 0 1 92.26,86.06 Q 72.24,74.11 54.92,58.80 Q 54.09,58.06 54.28,59.16 Q 57.94,80.83 65.27,101.71 Q 65.44,102.19 64.98,102.00 ZM 210.56,110.19 Q 204.18,105.30 196.82,109.13 Q 177.23,119.31 157.95,129.74 A 1.32,1.32 45.8 0 1 156.66,129.72 Q 138.55,119.41 121.87,108.36 Q 116.69,104.93 110.82,102.92 Q 103.95,100.56 97.00,102.75 Q 90.06,104.94 84.81,112.56 Q 80.96,118.16 79.13,123.72 Q 77.68,128.16 76.76,135.87 Q 75.00,150.70 79.75,163.50 Q 84.78,177.07 97.39,185.27 Q 102.28,188.45 108.15,191.05 Q 113.59,193.46 119.75,195.00 Q 142.56,200.71 165.30,198.18 Q 177.18,196.86 184.92,194.47 Q 197.43,190.62 207.69,181.94 Q 212.00,178.29 215.56,172.56 Q 222.94,160.70 223.52,147.45 Q 223.90,138.86 222.20,131.13 Q 220.41,122.98 215.68,115.82 Q 213.40,112.36 210.56,110.19 ZM 66.22,160.77 Q 68.29,162.57 70.95,163.10 A 0.35,0.34 -89.6 0 0 71.35,162.69 Q 69.65,152.50 69.09,142.18 A 0.57,0.55 90.0 0 0 68.57,141.65 Q 63.21,141.32 61.75,146.00 Q 59.08,154.53 66.22,160.77 ZM 233.86,143.38 Q 232.71,142.45 231.13,142.23 A 0.78,0.74 -84.3 0 0 230.29,142.95 L 228.87,161.94 A 0.31,0.29 81.4 0 0 229.27,162.26 Q 237.27,158.97 237.05,150.00 Q 236.95,145.89 233.86,143.38 ZM 78.44,178.17 Q 78.20,179.44 78.77,181.46 Q 79.24,183.15 80.06,181.60 Q 81.13,179.56 78.97,177.97 A 0.34,0.33 23.6 0 0 78.44,178.17 ZM 218.38,179.90 Q 216.92,182.12 219.20,183.57 Q 220.50,184.39 220.42,182.86 Q 220.38,182.01 220.57,181.03 Q 220.77,180.00 220.72,179.46 Q 220.47,176.73 218.38,179.90 ZM 124.24,205.18 L 124.25,210.76 Q 124.25,212.88 125.12,210.99 Q 125.83,209.45 125.97,207.00 Q 126.01,206.32 126.35,205.60 Q 127.35,203.44 124.65,204.50 A 0.76,0.64 81.2 0 0 124.24,205.18 ZM 147.41,210.73 Q 146.99,210.19 147.03,210.91 A 0.60,0.51 16.9 0 0 147.30,211.33 Q 148.99,212.44 147.47,213.35 Q 146.87,213.71 146.71,213.86 Q 145.63,214.84 148.33,214.10 A 1.82,1.82 -32.4 0 1 149.96,214.46 Q 153.86,217.69 150.62,219.92 Q 149.41,220.76 150.95,220.33 Q 151.44,220.20 151.94,220.12 A 1.86,1.09 41.2 0 1 152.88,220.30 Q 154.34,220.99 154.09,219.24 Q 154.03,218.79 154.12,218.26 Q 154.26,217.53 154.08,216.79 A 1.45,1.05 17.6 0 0 153.52,216.03 Q 151.84,214.83 151.19,213.56 Q 150.13,211.51 151.95,211.92 A 1.28,1.02 -3.5 0 1 152.73,212.47 L 153.77,214.38 Q 154.11,215.01 154.24,214.31 Q 154.90,211.00 154.65,208.96 Q 154.58,208.44 154.32,207.97 Q 153.20,206.00 153.51,209.62 A 1.06,1.06 79.1 0 1 152.77,210.72 Q 149.80,211.65 147.81,211.02 A 0.96,0.66 70.4 0 1 147.41,210.73 ZM 157.9616,207.9232 A 0.56 0.56 0.0 0 0 157.4235,207.3422 L 157.1037,207.3299 A 0.56 0.56 0.0 0 0 156.5227,207.8680 L 155.9384,223.0768 A 0.56 0.56 0.0 0 0 156.4765,223.6578 L 156.7963,223.6701 A 0.56 0.56 0.0 0 0 157.3773,223.1320 L 157.9616,207.9232 ZM 123.27,229.38 Q 124.68,228.97 125.00,230.75 Q 125.44,233.17 127.44,231.69 Q 130.29,229.57 129.81,225.94 Q 129.39,222.69 126.54,220.09 Q 124.75,218.45 122.97,218.26 Q 120.53,217.99 118.94,220.19 Q 115.85,224.46 117.97,229.45 Q 118.60,230.95 119.62,231.55 Q 121.47,232.62 122.62,230.03 A 1.24,0.88 -80.5 0 1 123.27,229.38 ZM 125.75,255.71 Q 126.06,252.60 123.60,253.89 Q 121.87,254.80 120.75,253.29 L 124.00,252.97 A 1.36,0.59 3.1 0 0 124.86,252.65 Q 126.01,251.35 122.24,251.90 Q 121.52,252.00 120.80,251.88 Q 119.50,251.65 120.29,253.25 L 121.46,256.50 Q 121.67,257.25 121.34,257.77 Q 121.09,258.17 120.35,258.26 Q 118.03,258.55 115.51,258.77 A 0.66,0.64 79.2 0 1 114.83,258.29 L 110.72,243.93 A 0.72,0.71 78.2 0 1 111.30,243.03 L 116.20,242.37 A 0.86,0.74 66.5 0 1 116.95,242.73 Q 118.06,244.30 120.03,243.68 Q 120.46,243.54 120.99,243.59 Q 121.87,243.68 122.43,243.14 A 0.86,0.61 61.7 0 0 122.53,242.30 Q 122.10,241.19 123.50,241.00 Q 125.87,240.68 134.00,240.04 A 1.47,0.99 -20.5 0 1 134.93,240.26 L 136.14,241.16 A 1.28,0.91 53.1 0 0 136.99,241.43 L 145.74,240.22 A 0.68,0.66 -1.8 0 0 146.31,239.63 Q 146.66,235.78 152.04,233.86 Q 154.19,233.10 154.18,230.81 Q 154.16,226.86 149.00,227.50 Q 144.11,228.11 138.33,232.02 Q 134.82,234.39 130.85,233.28 A 0.62,0.61 -45.8 0 0 130.49,233.29 Q 126.11,234.82 124.50,234.25 Q 123.51,233.90 121.50,234.25 Q 117.88,234.89 116.06,231.69 Q 115.19,230.15 114.08,226.54 A 0.66,0.63 80.0 0 0 113.44,226.07 Q 107.90,226.29 104.69,230.69 Q 100.18,236.86 101.18,244.76 Q 102.44,254.65 106.73,263.66 Q 111.10,272.86 121.48,271.56 Q 129.00,270.62 132.19,268.19 Q 138.88,263.08 142.56,261.81 Q 148.04,259.93 153.44,261.06 Q 159.39,262.31 164.96,261.33 Q 165.87,261.16 166.33,260.83 Q 167.25,260.16 166.72,259.22 A 0.96,0.75 -11.0 0 0 165.93,258.82 Q 160.24,258.80 155.38,256.07 Q 154.21,255.42 153.56,254.46 Q 152.90,253.48 152.40,252.27 A 2.08,1.96 75.0 0 0 150.31,250.98 L 138.89,252.31 A 0.94,0.91 69.1 0 0 138.26,253.77 Q 138.91,254.70 138.49,255.32 Q 138.22,255.72 137.35,255.85 Q 132.54,256.59 127.74,257.42 A 0.97,0.73 -20.0 0 1 126.88,257.16 L 125.75,255.71 ZM 236.25,233.84 A 1.64 1.64 0.0 0 0 234.61,232.20 A 1.64 1.64 0.0 0 0 232.97,233.84 A 1.64 1.64 0.0 0 0 234.61,235.48 A 1.64 1.64 0.0 0 0 236.25,233.84 ZM 224.96,234.75 Q 223.39,236.02 225.50,235.71 Q 227.91,236.24 227.34,234.04 A 1.46,1.41 11.3 0 0 226.80,233.26 Q 224.48,231.59 224.96,234.75 ZM 203.80,236.23 Q 200.53,235.64 197.38,235.69 Q 195.63,235.73 194.71,236.19 Q 193.12,237.00 193.15,238.75 Q 193.19,240.68 194.00,242.21 Q 195.36,244.79 200.13,244.05 Q 200.83,243.94 201.41,243.52 Q 204.43,241.38 204.85,237.64 A 1.29,1.28 -81.9 0 0 203.80,236.23 ZM 190.0934,237.8505 A 0.42 0.42 0.0 0 0 189.6184,237.4939 L 136.8897,244.9983 A 0.42 0.42 0.0 0 0 136.5331,245.4733 L 136.5866,245.8495 A 0.42 0.42 0.0 0 0 137.0616,246.2061 L 189.7903,238.7017 A 0.42 0.42 0.0 0 0 190.1469,238.2267 L 190.0934,237.8505 ZM 189.6292,239.8012 A 0.27 0.27 0.0 0 0 189.3211,239.5756 L 137.1031,247.6594 A 0.27 0.27 0.0 0 0 136.8776,247.9675 L 136.9908,248.6988 A 0.27 0.27 0.0 0 0 137.2989,248.9244 L 189.5169,240.8406 A 0.27 0.27 0.0 0 0 189.7424,240.5325 L 189.6292,239.8012 ZM 146.1746,241.6450 A 0.33 0.33 0.0 0 0 145.7970,241.3707 L 136.5128,242.8412 A 0.33 0.33 0.0 0 0 136.2385,243.2187 L 136.2854,243.5150 A 0.33 0.33 0.0 0 0 136.6630,243.7893 L 145.9472,242.3188 A 0.33 0.33 0.0 0 0 146.2215,241.9413 L 146.1746,241.6450 ZM 123.3330,245.0597 A 2.84,0.58 -7.9 0 0 120.4403,244.8755 A 2.84,0.58 -7.9 0 0 117.7070,245.8403 A 2.84,0.58 -7.9 0 0 120.5997,246.0245 A 2.84,0.58 -7.9 0 0 123.3330,245.0597 ZM 124.3773,247.6909 A 3.08,0.84 -5.2 0 0 121.2339,247.1335 A 3.08,0.84 -5.2 0 0 118.2427,248.2491 A 3.08,0.84 -5.2 0 0 121.3861,248.8065 A 3.08,0.84 -5.2 0 0 124.3773,247.6909 ZM 151.1733,248.7768 A 0.35 0.35 0.0 0 0 150.7833,248.4720 L 137.8802,250.0563 A 0.35 0.35 0.0 0 0 137.5755,250.4464 L 137.6267,250.8632 A 0.35 0.35 0.0 0 0 138.0167,251.1680 L 150.9198,249.5837 A 0.35 0.35 0.0 0 0 151.2245,249.1936 L 151.1733,248.7768 ZM 124.8923,250.2105 A 2.86,0.60 -4.2 0 0 121.9961,249.8216 A 2.86,0.60 -4.2 0 0 119.1877,250.6295 A 2.86,0.60 -4.2 0 0 122.0839,251.0184 A 2.86,0.60 -4.2 0 0 124.8923,250.2105 ZM 166.0472,268.8091 A 0.27 0.27 0.0 0 0 165.7635,268.5536 L 159.1126,268.9022 A 0.27 0.27 0.0 0 0 158.8571,269.1859 L 159.4328,280.1709 A 0.27 0.27 0.0 0 0 159.7165,280.4264 L 166.3674,280.0778 A 0.27 0.27 0.0 0 0 166.6229,279.7941 L 166.0472,268.8091 ZM 132.35,275.94 L 132.35,279.57 A 0.57,0.55 89.5 0 0 132.91,280.14 L 137.95,280.05 A 0.76,0.59 -82.7 0 0 138.55,279.45 Q 139.25,276.20 138.92,271.96 A 0.34,0.33 72.6 0 0 138.42,271.69 L 132.84,275.13 A 1.03,0.90 -17.8 0 0 132.35,275.94 Z"/>
<path fill="#595954" d="M 65.27,101.71 Q 57.94,80.83 54.28,59.16 Q 54.09,58.06 54.92,58.80 Q 72.24,74.11 92.26,86.06 A 0.40,0.39 -67.0 0 0 92.84,85.82 Q 98.04,67.09 100.12,48.25 Q 100.92,41.06 100.86,35.22 Q 100.80,28.64 100.02,22.17 Q 99.92,21.31 100.68,21.73 Q 122.36,33.64 144.48,43.73 A 0.62,0.62 -59.6 0 0 145.24,43.53 Q 150.63,36.29 155.48,28.67 Q 161.66,18.98 168.88,9.09 Q 169.24,8.58 169.33,9.20 Q 174.69,48.79 188.82,84.64 A 0.46,0.45 -25.9 0 0 189.48,84.86 Q 198.50,79.35 207.86,73.89 Q 222.75,65.21 236.70,54.03 Q 237.31,53.54 237.21,54.31 Q 234.10,77.86 226.21,99.66 Q 225.67,101.15 227.10,100.48 L 253.05,88.32 Q 253.66,88.03 253.44,88.68 Q 245.55,112.09 235.31,134.56 Q 234.64,136.05 232.48,135.62 Q 232.05,135.53 231.50,135.60 Q 230.51,135.72 229.71,135.23 A 1.11,0.88 -80.7 0 1 229.27,134.44 Q 228.42,124.05 223.25,115.02 Q 218.60,106.89 211.31,102.94 Q 206.12,100.12 200.44,100.91 Q 197.09,101.38 190.54,104.72 Q 179.67,110.28 169.08,116.35 Q 163.68,119.45 158.86,121.61 Q 157.04,122.43 155.32,121.40 Q 138.21,111.06 121.94,101.05 Q 116.88,97.93 111.21,96.12 Q 100.68,92.76 91.44,97.94 Q 84.33,101.92 79.34,109.29 Q 71.71,120.56 69.39,134.69 A 0.73,0.73 5.9 0 1 68.65,135.29 Q 64.68,135.15 62.22,135.93 A 0.87,0.86 66.0 0 1 61.21,135.54 Q 49.04,114.49 41.41,91.49 Q 41.06,90.41 42.05,90.96 Q 53.51,97.30 64.98,102.00 Q 65.44,102.19 65.27,101.71 Z"/>
<path fill="#feefc9" d="M 210.56,110.19 Q 213.40,112.36 215.68,115.82 Q 220.41,122.98 222.20,131.13 Q 223.90,138.86 223.52,147.45 Q 222.94,160.70 215.56,172.56 Q 212.00,178.29 207.69,181.94 Q 197.43,190.62 184.92,194.47 Q 177.18,196.86 165.30,198.18 Q 142.56,200.71 119.75,195.00 Q 113.59,193.46 108.15,191.05 Q 102.28,188.45 97.39,185.27 Q 84.78,177.07 79.75,163.50 Q 75.00,150.70 76.76,135.87 Q 77.68,128.16 79.13,123.72 Q 80.96,118.16 84.81,112.56 Q 90.06,104.94 97.00,102.75 Q 103.95,100.56 110.82,102.92 Q 116.69,104.93 121.87,108.36 Q 138.55,119.41 156.66,129.72 A 1.32,1.32 45.8 0 0 157.95,129.74 Q 177.23,119.31 196.82,109.13 Q 204.18,105.30 210.56,110.19 ZM 135.56,138.71 Q 133.31,138.91 131.11,140.98 A 1.46,1.43 36.0 0 1 129.51,141.22 L 101.94,128.33 Q 99.78,127.33 101.55,128.93 L 128.55,153.39 A 0.52,0.52 -47.8 0 0 129.28,153.35 Q 133.69,148.55 137.00,143.00 Q 138.29,140.84 136.44,139.03 A 1.11,1.08 64.2 0 0 135.56,138.71 ZM 173.60,140.72 Q 172.63,140.04 171.65,139.36 Q 168.36,137.10 168.39,140.24 Q 168.40,141.27 168.99,142.67 Q 171.21,147.97 173.88,153.45 A 0.42,0.42 -31.4 0 0 174.51,153.60 Q 179.21,150.04 183.42,145.99 Q 190.05,139.60 190.11,139.55 Q 195.99,134.13 201.82,128.65 Q 202.19,128.31 201.72,128.50 Q 187.87,134.14 174.45,140.78 A 0.85,0.83 -40.1 0 1 173.60,140.72 ZM 117.6801,174.1599 A 8.56,3.42 90.2 0 0 121.1300,165.6119 A 8.56,3.42 90.2 0 0 117.7399,157.0401 A 8.56,3.42 90.2 0 0 114.2900,165.5881 A 8.56,3.42 90.2 0 0 117.6801,174.1599 ZM 185.4251,174.3100 A 8.65,3.23 89.9 0 0 188.6400,165.6544 A 8.65,3.23 89.9 0 0 185.3949,157.0100 A 8.65,3.23 89.9 0 0 182.1800,165.6656 A 8.65,3.23 89.9 0 0 185.4251,174.3100 ZM 161.33,174.95 Q 153.39,171.64 145.88,175.46 A 1.49,1.41 -2.0 0 0 145.21,176.14 Q 143.65,179.49 147.50,178.50 Q 154.15,176.79 159.76,178.22 Q 161.26,178.60 161.78,178.63 Q 164.40,178.76 162.61,176.01 A 2.84,2.80 84.1 0 0 161.33,174.95 Z"/>
<path fill="#030303" d="M 136.44,139.03 Q 138.29,140.84 137.00,143.00 Q 133.69,148.55 129.28,153.35 A 0.52,0.52 -47.8 0 1 128.55,153.39 L 101.55,128.93 Q 99.78,127.33 101.94,128.33 L 129.51,141.22 A 1.46,1.43 36.0 0 0 131.11,140.98 Q 133.31,138.91 135.56,138.71 A 1.11,1.08 64.2 0 1 136.44,139.03 Z"/>
<path fill="#030303" d="M 174.45,140.78 Q 187.87,134.14 201.72,128.50 Q 202.19,128.31 201.82,128.65 Q 195.99,134.13 190.11,139.55 Q 190.05,139.60 183.42,145.99 Q 179.21,150.04 174.51,153.60 A 0.42,0.42 -31.4 0 1 173.88,153.45 Q 171.21,147.97 168.99,142.67 Q 168.40,141.27 168.39,140.24 Q 168.36,137.10 171.65,139.36 Q 172.63,140.04 173.60,140.72 A 0.85,0.83 -40.1 0 0 174.45,140.78 Z"/>
<path fill="#feefbe" d="M 66.22,160.77 Q 59.08,154.53 61.75,146.00 Q 63.21,141.32 68.57,141.65 A 0.57,0.55 90.0 0 1 69.09,142.18 Q 69.65,152.50 71.35,162.69 A 0.35,0.34 -89.6 0 1 70.95,163.10 Q 68.29,162.57 66.22,160.77 Z"/>
<path fill="#feefbe" d="M 233.86,143.38 Q 236.95,145.89 237.05,150.00 Q 237.27,158.97 229.27,162.26 A 0.31,0.29 81.4 0 1 228.87,161.94 L 230.29,142.95 A 0.78,0.74 -84.3 0 1 231.13,142.23 Q 232.71,142.45 233.86,143.38 Z"/>
<ellipse fill="#080707" cx="0.00" cy="0.00" transform="translate(117.71,165.60) rotate(90.2)" rx="8.56" ry="3.42"/>
<ellipse fill="#080707" cx="0.00" cy="0.00" transform="translate(185.41,165.66) rotate(89.9)" rx="8.65" ry="3.23"/>
<path fill="#080707" d="M 161.33,174.95 A 2.84,2.80 84.1 0 1 162.61,176.01 Q 164.40,178.76 161.78,178.63 Q 161.26,178.60 159.76,178.22 Q 154.15,176.79 147.50,178.50 Q 143.65,179.49 145.21,176.14 A 1.49,1.41 -2.0 0 1 145.88,175.46 Q 153.39,171.64 161.33,174.95 ZM 157.3395,175.2573 A 3.59,0.35 -1.0 0 0 153.7439,174.9701 A 3.59,0.35 -1.0 0 0 150.1605,175.3827 A 3.59,0.35 -1.0 0 0 153.7561,175.6699 A 3.59,0.35 -1.0 0 0 157.3395,175.2573 Z"/>
<ellipse fill="#807064" cx="0.00" cy="0.00" transform="translate(153.75,175.32) rotate(-1.0)" rx="3.59" ry="0.35"/>
<path fill="#010101" fill-opacity="0.090" d="M 78.97,177.97 Q 81.13,179.56 80.06,181.60 Q 79.24,183.15 78.77,181.46 Q 78.20,179.44 78.44,178.17 A 0.34,0.33 23.6 0 1 78.97,177.97 Z"/>
<path fill="#000000" fill-opacity="0.337" d="M 90.75,188.54 Q 89.86,190.18 88.92,188.76 Q 88.13,187.55 88.57,188.93 Q 89.07,190.51 90.19,190.59 A 0.58,0.54 -1.1 0 1 90.71,191.06 Q 90.83,192.11 91.72,192.53 Q 92.95,193.10 93.15,193.26 Q 100.06,198.68 106.27,204.88 Q 106.35,204.97 108.21,206.62 Q 110.16,208.34 110.69,210.56 Q 110.95,211.68 111.54,211.38 A 0.34,0.28 -19.7 0 1 112.01,211.55 Q 112.58,215.38 112.74,209.99 Q 112.75,209.73 112.83,209.51 Q 113.30,208.26 113.29,210.25 L 113.79,217.25 Q 112.49,219.99 109.78,219.01 A 0.36,0.31 -59.4 0 1 109.68,218.48 Q 110.10,217.93 109.19,217.56 Q 108.53,217.30 107.69,216.31 Q 106.31,214.70 105.34,212.83 Q 103.49,209.27 100.37,206.79 Q 99.76,206.31 99.01,205.35 Q 98.37,204.53 97.49,203.99 Q 95.66,202.86 95.62,202.83 Q 93.01,200.89 90.20,199.22 Q 88.29,198.09 86.98,197.02 Q 85.45,195.78 83.95,194.51 A 1.72,1.39 -82.7 0 1 83.45,193.70 Q 83.08,192.29 82.06,191.19 A 1.56,1.03 -34.8 0 1 82.81,189.31 Q 83.89,188.66 83.00,188.21 Q 84.17,186.40 86.05,185.46 A 0.88,0.75 -37.2 0 1 86.93,185.51 L 90.75,188.54 Z"/>
<path fill="#000000" fill-opacity="0.412" d="M 213.04,186.50 Q 212.51,187.98 211.50,188.50 Q 209.39,189.59 211.21,190.08 A 0.77,0.73 3.8 0 1 211.77,190.69 Q 212.76,197.17 210.31,202.56 Q 206.40,211.17 209.35,219.34 Q 210.37,222.16 212.66,223.93 Q 214.97,225.71 217.75,226.79 Q 214.78,229.66 210.75,230.46 L 209.02,228.69 A 1.82,1.36 67.3 0 0 208.21,228.21 Q 202.76,226.92 202.34,221.56 Q 202.21,219.87 201.81,218.90 Q 201.28,217.62 200.66,216.38 Q 199.57,214.21 199.40,212.51 Q 198.84,207.01 200.56,201.74 Q 200.64,201.47 202.06,199.18 Q 202.94,197.75 202.54,195.81 Q 202.31,194.72 201.66,195.63 Q 201.01,196.54 199.05,196.87 Q 198.35,196.99 198.72,196.38 Q 199.29,195.46 200.29,195.29 A 1.58,0.69 0.8 0 0 201.10,194.95 Q 201.95,194.15 200.00,194.71 Q 200.89,193.61 202.25,193.50 Q 202.83,193.46 203.18,193.26 Q 208.24,190.44 212.40,186.40 Q 212.79,186.02 213.04,186.50 Z"/>
<path fill="#000000" fill-opacity="0.231" d="M 213.04,186.50 L 217.79,191.25 L 216.74,191.10 A 0.40,0.37 1.4 0 0 216.29,191.50 Q 216.90,198.71 216.25,200.25 Q 213.47,206.84 212.93,213.99 Q 212.32,222.03 219.75,224.54 Q 218.47,225.40 217.75,226.79 Q 214.97,225.71 212.66,223.93 Q 210.37,222.16 209.35,219.34 Q 206.40,211.17 210.31,202.56 Q 212.76,197.17 211.77,190.69 A 0.77,0.73 3.8 0 0 211.21,190.08 Q 209.39,189.59 211.50,188.50 Q 212.51,187.98 213.04,186.50 Z"/>
<path fill="#000000" fill-opacity="0.196" d="M 83.00,188.21 Q 83.89,188.66 82.81,189.31 A 1.56,1.03 -34.8 0 0 82.06,191.19 Q 83.08,192.29 83.45,193.70 A 1.72,1.39 -82.7 0 0 83.95,194.51 Q 85.45,195.78 86.98,197.02 Q 88.29,198.09 90.20,199.22 Q 93.01,200.89 95.62,202.83 Q 95.66,202.86 97.49,203.99 Q 98.37,204.53 99.01,205.35 Q 99.76,206.31 100.37,206.79 Q 103.49,209.27 105.34,212.83 Q 106.31,214.70 107.69,216.31 Q 108.53,217.30 109.19,217.56 Q 110.10,217.93 109.68,218.48 A 0.36,0.31 -59.4 0 0 109.78,219.01 Q 112.49,219.99 113.79,217.25 Q 114.78,218.73 113.70,219.75 A 1.40,0.99 16.0 0 1 112.81,220.06 Q 105.38,220.14 100.21,225.50 Q 101.27,223.93 99.53,223.12 A 0.37,0.35 -59.3 0 1 99.40,222.57 Q 100.16,221.58 99.28,220.48 Q 96.42,216.92 92.25,210.25 Q 90.77,207.88 88.35,205.92 Q 83.97,202.37 83.88,202.29 Q 80.83,199.42 78.94,197.31 Q 77.39,195.59 75.25,195.46 L 83.00,188.21 Z"/>
<path fill="#000000" fill-opacity="0.443" d="M 90.75,188.54 Q 98.45,194.35 102.19,195.56 Q 108.39,197.57 113.81,200.37 A 2.02,1.84 -71.8 0 1 114.75,202.48 L 113.29,210.25 Q 113.30,208.26 112.83,209.51 Q 112.75,209.73 112.74,209.99 Q 112.58,215.38 112.01,211.55 A 0.34,0.28 -19.7 0 0 111.54,211.38 Q 110.95,211.68 110.69,210.56 Q 110.16,208.34 108.21,206.62 Q 106.35,204.97 106.27,204.88 Q 100.06,198.68 93.15,193.26 Q 92.95,193.10 91.72,192.53 Q 90.83,192.11 90.71,191.06 A 0.58,0.54 -1.1 0 0 90.19,190.59 Q 89.07,190.51 88.57,188.93 Q 88.13,187.55 88.92,188.76 Q 89.86,190.18 90.75,188.54 Z"/>
<path fill="#000000" fill-opacity="0.553" d="M 210.75,230.46 Q 206.04,231.98 200.19,231.44 Q 197.98,231.23 196.75,230.04 L 197.25,229.96 Q 198.76,229.72 200.07,230.48 Q 200.56,230.76 200.53,230.26 Q 200.46,229.30 199.32,229.19 A 0.70,0.62 82.3 0 1 198.75,228.70 Q 198.56,228.05 197.74,228.14 A 1.21,0.51 -13.1 0 1 196.82,227.98 L 195.01,226.16 A 1.15,0.63 -72.1 0 1 194.84,225.27 Q 195.07,223.96 195.03,222.63 Q 195.01,221.52 194.35,220.12 Q 193.71,218.73 193.19,217.30 Q 193.16,217.21 192.09,214.80 Q 191.46,213.38 191.43,211.81 A 0.92,0.52 22.6 0 0 190.95,211.19 Q 190.68,211.03 190.66,210.66 Q 190.63,210.09 190.60,209.97 Q 189.68,206.20 192.37,203.38 A 0.06,0.06 30.0 0 0 192.34,203.28 L 192.25,203.25 Q 192.07,203.19 192.22,203.06 Q 193.54,201.91 192.64,200.69 A 0.81,0.63 -23.1 0 0 191.85,200.48 Q 190.89,200.74 191.46,199.50 L 196.78,196.92 Q 197.29,196.68 197.56,196.36 Q 198.54,195.23 200.00,194.71 Q 201.95,194.15 201.10,194.95 A 1.58,0.69 0.8 0 1 200.29,195.29 Q 199.29,195.46 198.72,196.38 Q 198.35,196.99 199.05,196.87 Q 201.01,196.54 201.66,195.63 Q 202.31,194.72 202.54,195.81 Q 202.94,197.75 202.06,199.18 Q 200.64,201.47 200.56,201.74 Q 198.84,207.01 199.40,212.51 Q 199.57,214.21 200.66,216.38 Q 201.28,217.62 201.81,218.90 Q 202.21,219.87 202.34,221.56 Q 202.76,226.92 208.21,228.21 A 1.82,1.36 67.3 0 1 209.02,228.69 L 210.75,230.46 Z"/>
<path fill="#000000" fill-opacity="0.643" d="M 191.46,199.50 Q 190.89,200.74 191.85,200.48 A 0.81,0.63 -23.1 0 1 192.64,200.69 Q 193.54,201.91 192.22,203.06 Q 192.07,203.19 192.25,203.25 L 192.34,203.28 A 0.06,0.06 30.0 0 1 192.37,203.38 Q 189.68,206.20 190.60,209.97 Q 190.63,210.09 190.66,210.66 Q 190.68,211.03 190.95,211.19 A 0.92,0.52 22.6 0 1 191.43,211.81 Q 191.46,213.38 192.09,214.80 Q 193.16,217.21 193.19,217.30 Q 193.71,218.73 194.35,220.12 Q 195.01,221.52 195.03,222.63 Q 195.07,223.96 194.84,225.27 A 1.15,0.63 -72.1 0 0 195.01,226.16 L 196.82,227.98 A 1.21,0.51 -13.1 0 0 197.74,228.14 Q 198.56,228.05 198.75,228.70 A 0.70,0.62 82.3 0 0 199.32,229.19 Q 200.46,229.30 200.53,230.26 Q 200.56,230.76 200.07,230.48 Q 198.76,229.72 197.25,229.96 Q 195.14,229.47 194.41,231.27 A 0.74,0.46 -69.9 0 1 193.76,231.78 Q 193.32,231.66 193.30,230.83 A 0.63,0.63 -7.9 0 0 192.52,230.24 Q 190.23,230.81 189.77,229.05 A 1.26,1.13 11.8 0 0 189.24,228.33 Q 188.42,227.79 188.88,226.97 A 0.72,0.69 -47.5 0 0 188.86,226.20 Q 188.45,225.61 188.87,225.09 A 1.07,0.71 -38.7 0 0 189.13,224.27 Q 188.37,221.38 187.50,219.75 Q 186.75,218.34 186.51,217.15 A 1.02,0.88 11.6 0 0 186.01,216.50 Q 185.41,216.16 185.97,215.87 A 0.24,0.24 49.3 0 0 186.00,215.46 Q 185.56,215.13 185.59,214.55 A 1.51,1.03 -69.4 0 0 185.38,213.68 Q 183.66,211.25 184.49,205.10 A 2.76,2.76 73.0 0 1 185.37,203.44 Q 186.12,202.77 184.56,202.50 A 0.48,0.43 13.0 0 1 184.16,201.94 Q 184.33,201.43 184.75,201.04 Q 187.98,199.72 191.46,199.50 Z"/>
<path fill="#000000" fill-opacity="0.722" d="M 184.75,201.04 Q 184.33,201.43 184.16,201.94 A 0.48,0.43 13.0 0 0 184.56,202.50 Q 186.12,202.77 185.37,203.44 A 2.76,2.76 73.0 0 0 184.49,205.10 Q 183.66,211.25 185.38,213.68 A 1.51,1.03 -69.4 0 1 185.59,214.55 Q 185.56,215.13 186.00,215.46 A 0.24,0.24 49.3 0 1 185.97,215.87 Q 185.41,216.16 186.01,216.50 A 1.02,0.88 11.6 0 1 186.51,217.15 Q 186.75,218.34 187.50,219.75 Q 188.37,221.38 189.13,224.27 A 1.07,0.71 -38.7 0 1 188.87,225.09 Q 188.45,225.61 188.86,226.20 A 0.72,0.69 -47.5 0 1 188.88,226.97 Q 188.42,227.79 189.24,228.33 A 1.26,1.13 11.8 0 1 189.77,229.05 Q 190.23,230.81 192.52,230.24 A 0.63,0.63 -7.9 0 1 193.30,230.83 Q 193.32,231.66 193.76,231.78 A 0.74,0.46 -69.9 0 0 194.41,231.27 Q 195.14,229.47 197.25,229.96 L 196.75,230.04 Q 195.24,230.35 195.36,231.94 A 0.57,0.45 85.0 0 1 194.96,232.55 L 188.50,233.04 Q 187.95,233.08 187.59,233.29 Q 186.53,233.90 185.46,233.23 A 1.30,0.32 72.7 0 1 184.99,232.45 L 184.03,229.92 A 1.56,0.87 54.3 0 1 183.93,229.04 L 184.12,228.30 A 0.76,0.56 24.9 0 0 183.74,227.60 Q 182.70,226.97 182.75,225.44 Q 182.82,222.90 183.36,226.44 Q 183.45,227.00 183.56,226.46 Q 183.97,224.30 182.06,222.94 Q 180.48,221.81 181.07,219.96 A 1.55,0.71 -61.6 0 0 181.13,219.02 Q 180.96,218.55 180.64,218.69 A 0.35,0.27 -19.9 0 1 180.20,218.55 Q 178.43,212.64 175.86,207.05 Q 175.13,205.45 175.49,204.33 Q 176.06,202.63 177.86,202.29 Q 180.70,201.77 181.05,201.67 Q 182.85,201.11 184.75,201.04 Z"/>
<path fill="#000000" fill-opacity="0.231" d="M 124.65,204.50 Q 127.35,203.44 126.35,205.60 Q 126.01,206.32 125.97,207.00 Q 125.83,209.45 125.12,210.99 Q 124.25,212.88 124.25,210.76 L 124.24,205.18 A 0.76,0.64 81.2 0 1 124.65,204.50 Z"/>
<path fill="#999898" d="M 147.81,211.02 Q 149.80,211.65 152.77,210.72 A 1.06,1.06 79.1 0 0 153.51,209.62 Q 153.20,206.00 154.32,207.97 Q 154.58,208.44 154.65,208.96 Q 154.90,211.00 154.24,214.31 Q 154.11,215.01 153.77,214.38 L 152.73,212.47 A 1.28,1.02 -3.5 0 0 151.95,211.92 Q 150.13,211.51 151.19,213.56 Q 151.84,214.83 153.52,216.03 A 1.45,1.05 17.6 0 1 154.08,216.79 Q 154.26,217.53 154.12,218.26 Q 154.03,218.79 154.09,219.24 Q 154.34,220.99 152.88,220.30 A 1.86,1.09 41.2 0 0 151.94,220.12 Q 151.44,220.20 150.95,220.33 Q 149.41,220.76 150.62,219.92 Q 153.86,217.69 149.96,214.46 A 1.82,1.82 -32.4 0 0 148.33,214.10 Q 145.63,214.84 146.71,213.86 Q 146.87,213.71 147.47,213.35 Q 148.99,212.44 147.30,211.33 A 0.60,0.51 16.9 0 1 147.03,210.91 Q 146.99,210.19 147.41,210.73 A 0.96,0.66 70.4 0 0 147.81,211.02 Z"/>
<rect fill="#999898" x="-0.72" y="-8.17" transform="translate(156.95,215.50) rotate(2.2)" width="1.44" height="16.34" rx="0.56"/>
<path fill="#feefbe" d="M 122.62,230.03 Q 121.47,232.62 119.62,231.55 Q 118.60,230.95 117.97,229.45 Q 115.85,224.46 118.94,220.19 Q 120.53,217.99 122.97,218.26 Q 124.75,218.45 126.54,220.09 Q 129.39,222.69 129.81,225.94 Q 130.29,229.57 127.44,231.69 Q 125.44,233.17 125.00,230.75 Q 124.68,228.97 123.27,229.38 A 1.24,0.88 -80.5 0 0 122.62,230.03 Z"/>
<path fill="#e16934" d="M 121.46,256.50 Q 123.35,255.23 125.75,255.71 L 126.88,257.16 A 0.97,0.73 -20.0 0 0 127.74,257.42 Q 132.54,256.59 137.35,255.85 Q 138.22,255.72 138.49,255.32 Q 138.91,254.70 138.26,253.77 A 0.94,0.91 69.1 0 1 138.89,252.31 L 150.31,250.98 A 2.08,1.96 75.0 0 1 152.40,252.27 Q 152.90,253.48 153.56,254.46 Q 154.21,255.42 155.38,256.07 Q 160.24,258.80 165.93,258.82 A 0.96,0.75 -11.0 0 1 166.72,259.22 Q 167.25,260.16 166.33,260.83 Q 165.87,261.16 164.96,261.33 Q 159.39,262.31 153.44,261.06 Q 148.04,259.93 142.56,261.81 Q 138.88,263.08 132.19,268.19 Q 129.00,270.62 121.48,271.56 Q 111.10,272.86 106.73,263.66 Q 102.44,254.65 101.18,244.76 Q 100.18,236.86 104.69,230.69 Q 107.90,226.29 113.44,226.07 A 0.66,0.63 80.0 0 1 114.08,226.54 Q 115.19,230.15 116.06,231.69 Q 117.88,234.89 121.50,234.25 Q 123.51,233.90 124.50,234.25 Q 126.11,234.82 130.49,233.29 A 0.62,0.61 -45.8 0 1 130.85,233.28 Q 134.82,234.39 138.33,232.02 Q 144.11,228.11 149.00,227.50 Q 154.16,226.86 154.18,230.81 Q 154.19,233.10 152.04,233.86 Q 146.66,235.78 146.31,239.63 A 0.68,0.66 -1.8 0 1 145.74,240.22 L 136.99,241.43 A 1.28,0.91 53.1 0 1 136.14,241.16 L 134.93,240.26 A 1.47,0.99 -20.5 0 0 134.00,240.04 Q 125.87,240.68 123.50,241.00 Q 122.10,241.19 122.53,242.30 A 0.86,0.61 61.7 0 1 122.43,243.14 Q 121.87,243.68 120.99,243.59 Q 120.46,243.54 120.03,243.68 Q 118.06,244.30 116.95,242.73 A 0.86,0.74 66.5 0 0 116.20,242.37 L 111.30,243.03 A 0.72,0.71 78.2 0 0 110.72,243.93 L 114.83,258.29 A 0.66,0.64 79.2 0 0 115.51,258.77 Q 118.03,258.55 120.35,258.26 Q 121.09,258.17 121.34,257.77 Q 121.67,257.25 121.46,256.50 ZM 133.16,263.81 A 2.77 2.77 0.0 0 0 130.39,261.04 A 2.77 2.77 0.0 0 0 127.62,263.81 A 2.77 2.77 0.0 0 0 130.39,266.58 A 2.77 2.77 0.0 0 0 133.16,263.81 ZM 118.17,265.30 A 2.82 2.82 0.0 0 0 115.35,262.48 A 2.82 2.82 0.0 0 0 112.53,265.30 A 2.82 2.82 0.0 0 0 115.35,268.12 A 2.82 2.82 0.0 0 0 118.17,265.30 ZM 125.40,265.94 A 2.61 2.61 0.0 0 0 122.79,263.33 A 2.61 2.61 0.0 0 0 120.18,265.94 A 2.61 2.61 0.0 0 0 122.79,268.55 A 2.61 2.61 0.0 0 0 125.40,265.94 Z"/>
<circle fill="#e1e1da" cx="234.61" cy="233.84" r="1.64"/>
<path fill="#e1e1da" d="M 225.50,235.71 L 224.96,234.75 Q 224.48,231.59 226.80,233.26 A 1.46,1.41 11.3 0 1 227.34,234.04 Q 227.91,236.24 225.50,235.71 Z"/>
<path fill="#000000" fill-opacity="0.412" d="M 224.96,234.75 L 225.50,235.71 Q 223.39,236.02 224.96,234.75 Z"/>
<path fill="#feefbe" d="M 203.80,236.23 A 1.29,1.28 -81.9 0 1 204.85,237.64 Q 204.43,241.38 201.41,243.52 Q 200.83,243.94 200.13,244.05 Q 195.36,244.79 194.00,242.21 Q 193.19,240.68 193.15,238.75 Q 193.12,237.00 194.71,236.19 Q 195.63,235.73 197.38,235.69 Q 200.53,235.64 203.80,236.23 Z"/>
<rect fill="#e1e1da" x="-27.05" y="-0.61" transform="translate(163.34,241.85) rotate(-8.1)" width="54.10" height="1.22" rx="0.42"/>
<rect fill="#e1e1da" x="-26.69" y="-0.64" transform="translate(163.31,244.25) rotate(-8.8)" width="53.38" height="1.28" rx="0.27"/>
<path fill="#000000" fill-opacity="0.553" d="M 221.00,242.29 Q 219.60,242.29 219.58,243.06 A 1.95,1.95 -15.2 0 1 218.68,244.63 Q 209.39,250.56 202.27,253.62 A 1.71,1.29 -79.5 0 0 201.57,254.26 Q 200.91,255.34 199.79,255.80 Q 198.00,256.52 197.94,256.56 Q 186.64,263.02 179.00,271.00 Q 175.69,274.46 173.18,276.00 A 1.10,0.89 82.0 0 0 172.73,276.75 Q 172.64,277.46 172.17,277.91 A 0.51,0.44 45.0 0 1 171.50,277.86 Q 170.64,277.00 170.92,277.99 Q 170.98,278.19 171.18,278.44 Q 171.98,279.39 171.25,280.96 Q 169.71,276.98 169.89,272.74 Q 169.89,272.61 169.81,269.79 Q 169.76,267.92 170.71,266.25 Q 170.83,269.40 170.75,270.00 Q 170.48,271.99 171.58,271.50 A 0.92,0.68 44.0 0 1 172.35,271.60 Q 172.86,271.93 173.30,271.02 Q 173.81,269.99 174.82,269.67 A 1.05,0.97 0.4 0 0 175.47,269.08 Q 176.11,267.42 177.73,266.64 A 1.38,1.19 -89.4 0 0 178.33,265.96 Q 178.71,264.95 179.75,264.78 Q 180.38,264.68 180.68,264.50 Q 182.90,263.18 184.75,261.42 Q 186.10,260.15 188.06,259.05 Q 189.61,258.19 191.50,256.75 Q 195.26,253.89 202.21,251.59 A 0.72,0.59 83.6 0 0 202.63,250.94 Q 202.64,250.23 203.43,250.37 Q 205.32,250.71 206.00,249.04 L 209.29,245.44 A 0.68,0.30 -41.4 0 0 209.51,244.97 Q 209.48,244.72 209.21,244.86 Q 209.00,244.97 209.02,244.75 Q 209.18,243.17 210.21,242.13 Q 211.06,241.28 212.69,241.22 Q 214.59,241.14 217.75,241.25 Q 219.81,241.32 221.00,242.29 Z"/>
<rect fill="#cebeb3" x="-5.03" y="-0.48" transform="translate(141.23,242.58) rotate(-9.0)" width="10.06" height="0.96" rx="0.33"/>
<path fill="#000000" fill-opacity="0.443" d="M 221.00,242.29 L 225.54,244.00 Q 225.54,245.31 224.32,245.02 A 1.10,1.10 26.5 0 0 223.20,245.39 Q 221.20,247.76 219.92,248.30 Q 219.39,248.52 219.13,248.82 Q 217.39,250.84 213.75,252.25 Q 212.46,252.75 207.10,255.99 Q 207.03,256.03 206.11,256.76 Q 205.42,257.31 204.50,257.30 A 1.40,1.03 18.6 0 0 203.63,257.58 Q 201.30,259.65 198.65,261.23 Q 194.98,263.43 193.56,264.64 Q 190.15,267.55 187.09,270.83 Q 186.09,271.89 183.03,274.79 Q 180.96,276.75 179.29,279.09 A 0.92,0.84 19.0 0 1 178.50,279.43 Q 177.29,279.33 176.81,280.04 A 1.68,1.67 23.0 0 1 175.08,280.74 Q 171.09,279.90 171.71,281.00 L 171.25,280.96 Q 171.98,279.39 171.18,278.44 Q 170.98,278.19 170.92,277.99 Q 170.64,277.00 171.50,277.86 A 0.51,0.44 45.0 0 0 172.17,277.91 Q 172.64,277.46 172.73,276.75 A 1.10,0.89 82.0 0 1 173.18,276.00 Q 175.69,274.46 179.00,271.00 Q 186.64,263.02 197.94,256.56 Q 198.00,256.52 199.79,255.80 Q 200.91,255.34 201.57,254.26 A 1.71,1.29 -79.5 0 1 202.27,253.62 Q 209.39,250.56 218.68,244.63 A 1.95,1.95 -15.2 0 0 219.58,243.06 Q 219.60,242.29 221.00,242.29 Z"/>
<path fill="#000000" fill-opacity="0.337" d="M 225.54,244.00 Q 225.90,246.05 228.00,245.96 L 226.75,246.04 Q 224.80,246.86 223.40,248.35 Q 221.36,250.53 220.56,251.09 Q 216.88,253.69 213.10,256.14 Q 209.32,258.60 205.72,261.29 Q 202.48,263.71 199.16,266.02 Q 195.56,268.52 192.87,271.09 Q 188.44,275.31 183.61,280.13 A 2.15,2.15 -68.1 0 1 182.14,280.76 Q 179.50,280.80 176.75,281.96 L 171.71,281.00 Q 171.09,279.90 175.08,280.74 A 1.68,1.67 23.0 0 0 176.81,280.04 Q 177.29,279.33 178.50,279.43 A 0.92,0.84 19.0 0 0 179.29,279.09 Q 180.96,276.75 183.03,274.79 Q 186.09,271.89 187.09,270.83 Q 190.15,267.55 193.56,264.64 Q 194.98,263.43 198.65,261.23 Q 201.30,259.65 203.63,257.58 A 1.40,1.03 18.6 0 1 204.50,257.30 Q 205.42,257.31 206.11,256.76 Q 207.03,256.03 207.10,255.99 Q 212.46,252.75 213.75,252.25 Q 217.39,250.84 219.13,248.82 Q 219.39,248.52 219.92,248.30 Q 221.20,247.76 223.20,245.39 A 1.10,1.10 26.5 0 1 224.32,245.02 Q 225.54,245.31 225.54,244.00 Z"/>
<ellipse fill="#cebeb3" cx="0.00" cy="0.00" transform="translate(120.52,245.45) rotate(-7.9)" rx="2.84" ry="0.58"/>
<path fill="#010101" fill-opacity="0.090" d="M 229.50,245.79 Q 228.67,246.40 229.24,247.23 A 1.21,1.19 44.6 0 1 229.26,248.57 Q 227.78,250.86 226.59,252.69 Q 225.32,254.64 223.63,256.59 Q 220.35,260.34 217.25,264.25 Q 215.80,266.08 212.06,269.36 A 1.62,1.15 14.6 0 1 211.19,269.69 Q 209.99,269.78 209.41,270.73 Q 208.54,272.15 208.45,272.25 Q 202.62,278.79 196.77,285.31 A 1.24,0.63 6.8 0 1 195.95,285.61 Q 195.47,285.64 195.45,286.25 A 1.12,0.83 77.0 0 1 195.10,287.05 Q 190.73,290.28 186.78,294.03 Q 185.09,295.62 183.07,296.64 Q 181.76,297.30 178.81,297.97 Q 175.08,298.82 171.44,300.00 Q 147.69,300.00 123.94,300.00 Q 122.21,298.80 120.22,298.15 Q 119.89,298.04 119.25,298.09 Q 117.44,298.22 115.58,295.80 Q 114.33,294.19 115.88,292.86 Q 116.47,292.36 116.50,290.54 L 123.25,292.46 Q 120.95,292.46 121.00,293.95 A 1.14,1.04 20.5 0 0 121.42,294.77 L 125.77,298.28 A 1.74,1.10 -89.7 0 1 126.25,299.05 Q 126.44,299.70 127.26,299.61 Q 128.16,299.50 128.27,299.50 Q 149.27,299.68 170.25,299.26 A 0.79,0.71 -77.8 0 0 170.91,298.78 Q 171.41,297.60 172.75,297.50 Q 173.07,297.48 173.62,297.18 L 177.45,295.08 A 1.37,0.84 -14.2 0 0 178.06,294.45 Q 178.45,293.31 179.75,293.33 Q 180.74,293.35 181.28,291.59 Q 181.55,290.72 182.00,291.51 Q 182.75,292.80 183.61,291.95 A 0.32,0.27 29.7 0 0 183.44,291.48 Q 182.68,291.23 183.71,290.25 Q 187.77,287.17 183.75,284.29 Q 184.50,283.56 185.52,283.66 A 0.89,0.76 18.3 0 0 186.29,283.35 Q 188.43,280.46 190.50,279.00 Q 192.46,277.62 193.76,276.16 Q 195.34,274.38 196.75,273.40 Q 199.16,271.74 201.50,269.25 Q 203.79,266.83 207.27,264.25 Q 207.30,264.22 209.73,262.21 Q 211.35,260.86 213.35,260.17 Q 214.73,259.69 215.55,259.03 Q 216.54,258.24 217.51,257.42 Q 218.40,256.67 220.56,255.20 Q 222.99,253.57 224.79,251.23 Q 224.85,251.15 226.45,249.51 Q 227.86,248.08 226.75,246.04 L 228.00,245.96 Q 228.70,245.62 229.50,245.79 Z"/>
<path fill="#000000" fill-opacity="0.231" d="M 226.75,246.04 Q 227.86,248.08 226.45,249.51 Q 224.85,251.15 224.79,251.23 Q 222.99,253.57 220.56,255.20 Q 218.40,256.67 217.51,257.42 Q 216.54,258.24 215.55,259.03 Q 214.73,259.69 213.35,260.17 Q 211.35,260.86 209.73,262.21 Q 207.30,264.22 207.27,264.25 Q 203.79,266.83 201.50,269.25 Q 199.16,271.74 196.75,273.40 Q 195.34,274.38 193.76,276.16 Q 192.46,277.62 190.50,279.00 Q 188.43,280.46 186.29,283.35 A 0.89,0.76 18.3 0 1 185.52,283.66 Q 184.50,283.56 183.75,284.29 Q 180.45,282.53 176.75,281.96 Q 179.50,280.80 182.14,280.76 A 2.15,2.15 -68.1 0 0 183.61,280.13 Q 188.44,275.31 192.87,271.09 Q 195.56,268.52 199.16,266.02 Q 202.48,263.71 205.72,261.29 Q 209.32,258.60 213.10,256.14 Q 216.88,253.69 220.56,251.09 Q 221.36,250.53 223.40,248.35 Q 224.80,246.86 226.75,246.04 Z"/>
<path fill="#000000" fill-opacity="0.804" d="M 195.75,249.71 Q 196.70,250.55 195.25,250.00 Q 193.00,249.14 192.25,249.25 Q 187.64,249.92 183.60,252.25 Q 179.67,254.51 176.00,257.17 Q 175.94,257.22 175.67,257.49 Q 175.13,258.02 174.31,257.18 Q 173.82,256.68 173.74,257.40 L 173.29,261.75 L 173.24,258.74 A 1.84,1.30 -70.6 0 0 172.98,257.83 Q 170.83,254.64 166.75,254.50 Q 163.74,254.40 165.00,251.50 Q 165.88,249.48 168.10,249.97 Q 168.52,250.06 168.93,249.94 Q 175.76,247.98 181.48,247.45 Q 181.66,247.43 185.11,246.95 Q 187.66,246.59 190.20,247.15 Q 191.11,247.35 192.85,248.55 Q 194.15,249.43 195.75,249.71 Z"/>
<ellipse fill="#cebeb3" cx="0.00" cy="0.00" transform="translate(121.31,247.97) rotate(-5.2)" rx="3.08" ry="0.84"/>
<rect fill="#cebeb3" x="-6.85" y="-0.56" transform="translate(144.40,249.82) rotate(-7.0)" width="13.70" height="1.12" rx="0.35"/>
<path fill="#000000" fill-opacity="0.643" d="M 206.00,249.04 Q 205.32,250.71 203.43,250.37 Q 202.64,250.23 202.63,250.94 A 0.72,0.59 83.6 0 1 202.21,251.59 Q 195.26,253.89 191.50,256.75 Q 189.61,258.19 188.06,259.05 Q 186.10,260.15 184.75,261.42 Q 182.90,263.18 180.68,264.50 Q 180.38,264.68 179.75,264.78 Q 178.71,264.95 178.33,265.96 A 1.38,1.19 -89.4 0 1 177.73,266.64 Q 176.11,267.42 175.47,269.08 A 1.05,0.97 0.4 0 1 174.82,269.67 Q 173.81,269.99 173.30,271.02 Q 172.86,271.93 172.35,271.60 A 0.92,0.68 44.0 0 0 171.58,271.50 Q 170.48,271.99 170.75,270.00 Q 170.83,269.40 170.71,266.25 L 173.29,261.75 L 173.74,257.40 Q 173.82,256.68 174.31,257.18 Q 175.13,258.02 175.67,257.49 Q 175.94,257.22 176.00,257.17 Q 179.67,254.51 183.60,252.25 Q 187.64,249.92 192.25,249.25 Q 193.00,249.14 195.25,250.00 Q 196.70,250.55 195.75,249.71 Q 197.42,249.38 199.09,249.06 Q 200.31,248.83 202.39,249.16 Q 204.18,249.45 206.00,249.04 Z"/>
<ellipse fill="#cebeb3" cx="0.00" cy="0.00" transform="translate(122.04,250.42) rotate(-4.2)" rx="2.86" ry="0.60"/>
<path fill="#cebeb3" d="M 120.75,253.29 L 120.29,253.25 Q 119.50,251.65 120.80,251.88 Q 121.52,252.00 122.24,251.90 Q 126.01,251.35 124.86,252.65 A 1.36,0.59 3.1 0 1 124.00,252.97 L 120.75,253.29 Z"/>
<path fill="#807064" d="M 120.29,253.25 L 120.75,253.29 Q 121.87,254.80 123.60,253.89 Q 126.06,252.60 125.75,255.71 Q 123.35,255.23 121.46,256.50 L 120.29,253.25 Z"/>
<path fill="#030303" d="M 133.16,263.81 A 2.77 2.77 0.0 0 1 130.39,266.58 A 2.77 2.77 0.0 0 1 127.62,263.81 A 2.77 2.77 0.0 0 1 130.39,261.04 A 2.77 2.77 0.0 0 1 133.16,263.81 ZM 131.23,263.93 A 0.98 0.98 0.0 0 0 130.25,262.95 A 0.98 0.98 0.0 0 0 129.27,263.93 A 0.98 0.98 0.0 0 0 130.25,264.91 A 0.98 0.98 0.0 0 0 131.23,263.93 Z"/>
<path fill="#030303" d="M 118.17,265.30 A 2.82 2.82 0.0 0 1 115.35,268.12 A 2.82 2.82 0.0 0 1 112.53,265.30 A 2.82 2.82 0.0 0 1 115.35,262.48 A 2.82 2.82 0.0 0 1 118.17,265.30 ZM 115.18,265.96 Q 116.59,265.60 115.25,264.80 A 0.79,0.72 40.1 0 0 114.39,264.83 Q 113.82,265.28 114.29,265.76 A 1.00,0.82 -26.9 0 0 115.18,265.96 Z"/>
<circle fill="#999898" cx="130.25" cy="263.93" r="0.98"/>
<path fill="#080707" d="M 125.40,265.94 A 2.61 2.61 0.0 0 1 122.79,268.55 A 2.61 2.61 0.0 0 1 120.18,265.94 A 2.61 2.61 0.0 0 1 122.79,263.33 A 2.61 2.61 0.0 0 1 125.40,265.94 ZM 122.8772,266.9287 A 0.84,0.72 80.6 0 0 123.4503,265.9824 A 0.84,0.72 80.6 0 0 122.6028,265.2713 A 0.84,0.72 80.6 0 0 122.0297,266.2176 A 0.84,0.72 80.6 0 0 122.8772,266.9287 Z"/>
<path fill="#999898" d="M 114.29,265.76 Q 113.82,265.28 114.39,264.83 A 0.79,0.72 40.1 0 1 115.25,264.80 Q 116.59,265.60 115.18,265.96 A 1.00,0.82 -26.9 0 1 114.29,265.76 Z"/>
<ellipse fill="#807064" cx="0.00" cy="0.00" transform="translate(122.74,266.10) rotate(80.6)" rx="0.84" ry="0.72"/>
<rect fill="#595954" x="-3.60" y="-5.77" transform="translate(162.74,274.49) rotate(-3.0)" width="7.20" height="11.54" rx="0.27"/>
<path fill="#000001" fill-opacity="0.678" d="M 155.46,289.00 Q 154.52,291.03 154.50,287.99 A 0.54,0.53 -9.3 0 0 153.80,287.49 L 145.37,290.11 A 1.16,1.11 3.3 0 0 144.68,290.70 Q 144.43,291.23 144.08,290.91 Q 143.84,290.69 143.86,290.99 Q 144.00,292.90 142.29,293.25 L 142.21,292.75 Q 142.97,291.89 142.95,290.86 Q 142.90,289.36 142.92,289.25 Q 143.48,284.59 143.04,279.70 Q 142.95,278.70 143.13,279.69 Q 143.79,283.37 143.69,280.75 Q 143.57,277.36 143.94,273.99 Q 143.99,273.54 144.36,273.85 Q 145.08,274.45 145.63,274.09 A 0.31,0.28 -26.9 0 1 146.07,274.21 Q 146.42,275.09 146.66,274.34 A 0.89,0.43 -80.6 0 1 147.04,273.80 L 150.83,272.16 A 1.21,0.56 -14.9 0 0 151.50,271.60 Q 151.88,270.49 151.49,269.29 A 0.34,0.31 83.1 0 1 151.81,268.85 Q 155.26,269.28 153.86,273.42 Q 153.81,273.57 153.80,273.73 Q 153.70,276.11 154.22,273.90 Q 154.25,273.75 154.26,273.61 Q 154.44,269.25 154.69,274.74 Q 155.03,281.87 155.46,289.00 Z"/>
<path fill="#595954" d="M 132.84,275.13 L 138.42,271.69 A 0.34,0.33 72.6 0 1 138.92,271.96 Q 139.25,276.20 138.55,279.45 A 0.76,0.59 -82.7 0 1 137.95,280.05 L 132.91,280.14 A 0.57,0.55 89.5 0 1 132.35,279.57 L 132.35,275.94 A 1.03,0.90 -17.8 0 1 132.84,275.13 Z"/>
<path fill="#000000" fill-opacity="0.412" d="M 155.46,289.00 Q 155.18,291.58 157.29,293.00 Q 157.13,293.37 157.30,293.59 Q 157.42,293.75 157.75,293.74 Q 160.63,293.59 163.50,293.57 Q 163.86,293.56 163.58,293.79 Q 163.17,294.11 163.55,294.34 Q 163.88,294.53 163.54,294.60 Q 159.31,295.46 155.02,295.57 Q 150.98,295.68 146.51,296.05 Q 141.14,296.49 135.76,295.66 Q 132.29,295.12 128.78,294.76 Q 127.14,294.59 128.13,294.14 Q 128.32,294.06 128.90,294.04 Q 129.21,294.03 129.43,293.87 A 1.48,0.49 -42.4 0 1 130.24,293.51 L 142.29,293.25 Q 144.00,292.90 143.86,290.99 Q 143.84,290.69 144.08,290.91 Q 144.43,291.23 144.68,290.70 A 1.16,1.11 3.3 0 1 145.37,290.11 L 153.80,287.49 A 0.54,0.53 -9.3 0 1 154.50,287.99 Q 154.52,291.03 155.46,289.00 Z"/>
<path fill="#000000" fill-opacity="0.231" d="M 183.71,290.25 Q 182.68,291.23 183.44,291.48 A 0.32,0.27 29.7 0 1 183.61,291.95 Q 182.75,292.80 182.00,291.51 Q 181.55,290.72 181.28,291.59 Q 180.74,293.35 179.75,293.33 Q 178.45,293.31 178.06,294.45 A 1.37,0.84 -14.2 0 1 177.45,295.08 L 173.62,297.18 Q 173.07,297.48 172.75,297.50 Q 171.41,297.60 170.91,298.78 A 0.79,0.71 -77.8 0 1 170.25,299.26 Q 149.27,299.68 128.27,299.50 Q 128.16,299.50 127.26,299.61 Q 126.44,299.70 126.25,299.05 A 1.74,1.10 -89.7 0 0 125.77,298.28 L 121.42,294.77 A 1.14,1.04 20.5 0 1 121.00,293.95 Q 120.95,292.46 123.25,292.46 Q 132.72,293.82 142.21,292.75 L 142.29,293.25 L 130.24,293.51 A 1.48,0.49 -42.4 0 0 129.43,293.87 Q 129.21,294.03 128.90,294.04 Q 128.32,294.06 128.13,294.14 Q 127.14,294.59 128.78,294.76 Q 132.29,295.12 135.76,295.66 Q 141.14,296.49 146.51,296.05 Q 150.98,295.68 155.02,295.57 Q 159.31,295.46 163.54,294.60 Q 163.88,294.53 163.55,294.34 Q 163.17,294.11 163.58,293.79 Q 163.86,293.56 163.50,293.57 Q 160.63,293.59 157.75,293.74 Q 157.42,293.75 157.30,293.59 Q 157.13,293.37 157.29,293.00 Q 170.77,293.93 183.71,290.25 Z"/>
</svg>
