<?xml version="1.0" encoding="UTF-8" standalone="no"?>
<!DOCTYPE svg PUBLIC "-//W3C//DTD SVG 1.1//EN" "http://www.w3.org/Graphics/SVG/1.1/DTD/svg11.dtd">
<svg xmlns="http://www.w3.org/2000/svg" version="1.1" viewBox="0 0 300 300">
<path fill="#222123" d="M 225.96,137.25 Q 225.19,137.48 225.00,138.19 Q 224.77,139.05 224.73,139.13 Q 223.17,142.44 221.36,145.61 Q 219.05,149.68 218.17,152.15 Q 214.68,161.98 215.00,172.25 Q 215.19,178.39 213.25,183.71 Q 212.48,183.66 212.27,184.20 Q 211.99,184.91 211.86,185.05 Q 203.89,193.58 191.28,190.84 A 2.81,2.80 32.7 0 0 189.04,191.32 Q 180.62,197.46 171.41,199.44 Q 170.70,199.59 170.29,199.87 Q 168.86,200.85 170.98,201.35 Q 189.18,205.68 207.48,202.57 Q 211.13,201.94 213.13,200.41 Q 215.63,198.49 217.04,195.50 Q 219.29,196.34 220.44,194.44 Q 226.21,184.84 234.75,167.79 L 234.97,167.76 A 0.54,0.36 -74.0 0 0 235.30,167.48 Q 240.97,156.99 247.94,142.69 Q 255.96,126.23 276.58,85.39 Q 277.68,83.21 279.08,82.73 Q 281.26,81.99 282.76,84.57 A 0.97,0.88 -49.6 0 1 282.79,85.45 Q 268.56,116.10 253.53,146.36 Q 249.62,154.23 244.84,164.38 Q 239.89,174.90 234.72,185.31 A 1.42,1.00 -46.9 0 0 234.59,186.25 Q 234.91,187.33 236.25,187.21 Q 237.48,188.39 236.75,189.96 Q 234.81,194.09 232.56,198.07 A 1.63,1.62 -46.5 0 0 232.60,199.74 Q 233.42,201.03 233.63,202.50 Q 233.81,203.79 233.29,205.32 Q 231.29,211.29 224.89,214.28 Q 224.32,214.55 223.93,215.06 Q 221.61,218.05 219.48,220.63 Q 218.08,222.32 217.29,224.37 Q 216.52,226.38 215.66,228.47 A 1.23,1.22 -74.9 0 1 214.36,229.22 Q 196.25,226.79 179.48,222.51 Q 178.60,222.28 178.88,223.15 Q 182.86,235.16 182.74,249.60 Q 182.72,251.67 180.85,251.82 L 169.39,252.75 A 1.12,0.99 2.8 0 0 168.41,253.53 Q 166.31,262.84 161.28,270.09 A 0.47,0.43 33.1 0 0 161.44,270.72 L 163.93,272.37 A 1.81,1.08 50.0 0 0 164.82,272.68 L 217.09,272.77 A 1.14,1.11 72.4 0 1 218.02,273.27 Q 219.25,275.08 220.00,275.04 L 217.61,276.41 Q 217.13,276.69 216.69,276.69 Q 149.39,277.00 82.08,276.57 Q 80.82,276.56 79.90,276.06 Q 78.90,275.52 78.00,274.79 L 80.16,273.12 A 1.48,1.46 -63.4 0 1 81.06,272.81 Q 98.28,272.70 115.48,272.29 Q 116.58,272.27 118.86,271.53 Q 120.57,270.98 122.44,271.24 Q 123.06,271.33 122.70,270.82 Q 117.40,263.41 115.26,253.38 A 0.80,0.79 -5.8 0 0 114.48,252.75 Q 107.58,252.75 101.49,251.75 Q 99.73,251.46 99.75,249.68 Q 99.91,236.47 103.60,224.02 A 0.54,0.54 -88.4 0 0 102.96,223.34 L 86.50,227.21 Q 80.40,227.60 72.00,229.50 Q 68.32,230.33 67.58,226.75 A 1.54,1.23 -80.1 0 0 67.13,225.93 Q 63.01,222.47 61.50,222.25 Q 50.56,220.62 50.00,209.75 Q 49.82,206.30 53.09,204.89 Q 60.20,201.82 66.69,203.81 Q 70.48,204.98 73.21,204.00 Q 88.99,205.04 104.49,201.95 Q 104.85,201.88 104.79,201.50 Q 107.41,202.24 109.52,200.86 Q 109.96,200.57 109.46,200.42 Q 100.29,197.59 92.81,193.19 Q 91.85,192.62 91.04,192.75 Q 90.87,192.41 90.50,192.46 Q 89.29,189.69 87.07,190.45 Q 84.28,191.39 84.14,191.41 Q 79.00,191.98 74.03,190.41 Q 64.70,187.48 62.63,177.77 Q 62.04,174.98 60.22,172.81 Q 59.17,171.56 58.66,169.25 Q 58.48,168.42 57.86,169.00 Q 56.89,169.90 55.48,170.36 A 1.10,1.09 -38.5 0 1 54.57,170.26 Q 52.40,168.99 51.06,166.19 Q 45.19,153.92 46.05,139.35 A 0.96,0.95 83.2 0 0 44.82,138.38 Q 42.03,139.25 42.04,136.74 Q 42.04,136.61 42.33,134.13 Q 44.08,119.24 51.14,106.25 Q 53.98,101.02 58.03,97.19 Q 62.05,93.37 67.00,90.00 Q 69.46,88.33 71.70,87.59 A 1.24,0.73 -8.1 0 0 72.44,87.00 Q 72.68,86.32 71.50,86.27 Q 66.26,86.06 68.66,82.94 Q 69.36,82.04 71.02,80.75 Q 85.62,69.49 103.01,63.49 Q 106.45,62.30 109.10,61.91 Q 112.19,61.45 115.40,61.50 A 0.70,0.70 88.5 0 0 116.11,60.75 Q 115.56,53.39 118.19,47.28 Q 120.68,41.51 126.67,37.31 Q 134.16,32.06 143.00,31.25 Q 165.63,29.17 181.77,44.73 Q 185.21,48.04 185.69,49.81 Q 186.59,53.13 183.31,53.09 Q 182.83,53.08 182.38,53.30 Q 181.19,53.90 179.97,53.75 Q 179.05,53.63 177.95,52.62 Q 167.24,42.77 153.48,42.83 Q 144.36,42.87 137.01,46.70 Q 129.19,50.78 124.31,58.81 Q 123.11,60.79 125.31,59.56 Q 130.51,56.66 136.48,56.26 Q 152.91,55.17 165.16,65.56 A 1.67,1.66 54.8 0 0 166.80,65.85 Q 179.51,61.12 191.13,66.29 Q 203.72,71.90 212.56,80.44 Q 220.73,88.32 225.30,100.02 Q 232.10,117.37 226.25,134.25 Q 225.59,136.16 225.96,137.25 ZM 179.12,48.34 Q 172.35,41.97 167.09,39.63 Q 151.21,32.55 135.55,37.66 Q 128.41,39.99 124.71,44.30 Q 120.19,49.56 120.08,56.95 Q 120.05,58.64 120.93,57.20 Q 132.80,37.77 156.00,39.00 Q 169.92,39.74 178.39,49.00 Q 178.58,49.20 178.81,49.27 Q 179.28,49.40 179.34,49.23 A 0.87,0.85 -59.4 0 0 179.12,48.34 ZM 73.00,92.71 Q 56.96,99.11 51.23,115.45 Q 49.83,119.42 48.79,123.50 L 47.27,130.16 Q 46.92,131.69 48.05,130.58 Q 51.78,126.91 55.75,123.52 Q 56.64,122.77 57.33,122.78 Q 58.46,122.80 58.79,124.25 Q 57.05,126.42 55.27,128.55 Q 51.11,133.52 50.54,139.75 Q 50.29,142.56 50.35,146.75 Q 50.40,150.29 51.29,153.75 Q 51.91,160.08 55.18,165.51 Q 55.44,165.95 55.35,165.44 Q 54.27,159.57 53.05,153.74 Q 52.36,150.39 54.69,148.69 Q 55.92,147.79 57.99,146.92 Q 59.50,146.30 61.58,145.86 Q 65.37,145.07 69.17,144.40 Q 74.24,143.50 76.72,142.70 Q 86.46,139.58 94.34,132.85 Q 100.38,127.69 106.08,122.16 Q 106.44,121.81 106.23,122.27 Q 100.70,134.26 88.78,142.03 Q 87.95,142.57 88.93,142.39 Q 99.71,140.34 106.98,132.72 Q 112.49,126.95 117.98,121.15 Q 118.07,121.05 118.19,121.02 Q 118.60,120.92 118.32,121.36 Q 114.44,127.61 110.54,133.85 Q 107.94,138.01 104.72,140.74 Q 103.14,142.08 105.17,141.69 Q 111.35,140.51 116.93,137.68 Q 123.58,134.31 130.74,129.95 A 3.24,3.18 -59.3 0 1 132.51,129.48 Q 134.90,129.56 136.13,128.12 Q 139.97,123.64 142.56,118.31 Q 142.67,118.08 143.02,117.83 Q 143.46,117.51 143.27,118.04 Q 141.38,123.33 139.60,128.66 Q 136.61,137.58 129.74,144.01 Q 128.43,145.24 130.21,144.97 Q 134.22,144.36 137.65,142.34 Q 139.64,141.16 143.95,137.77 Q 150.11,132.93 154.59,126.52 Q 155.95,124.57 157.98,120.68 Q 159.54,117.69 161.19,114.75 Q 161.44,114.31 161.36,114.80 Q 159.91,123.86 156.07,132.65 Q 155.90,133.06 156.33,132.99 Q 168.98,130.84 174.72,119.45 Q 178.94,111.09 176.13,101.88 Q 175.69,100.42 176.75,101.51 Q 188.20,113.24 197.94,127.31 Q 200.38,130.85 203.03,138.96 Q 203.20,139.46 203.26,138.94 Q 203.64,135.92 202.56,132.69 Q 200.50,126.48 197.33,121.53 Q 197.21,121.35 196.99,121.15 Q 196.59,120.77 196.82,120.64 A 0.60,0.40 51.8 0 1 197.44,120.84 Q 208.46,133.04 211.58,149.68 Q 211.79,150.79 212.51,149.93 Q 221.74,138.82 224.00,125.00 Q 225.03,118.67 223.25,111.46 Q 223.46,110.09 222.75,108.96 Q 219.31,91.11 204.56,79.94 Q 197.91,74.90 191.25,72.21 Q 181.98,67.05 171.60,68.75 Q 171.53,68.76 168.96,69.48 Q 167.39,69.92 165.83,69.63 Q 164.52,69.38 162.11,67.65 Q 147.20,56.92 129.17,62.07 Q 127.54,62.54 126.10,63.36 Q 124.65,64.17 123.24,65.11 Q 121.82,66.06 120.12,65.87 Q 112.13,65.00 105.53,66.95 Q 98.65,68.98 93.56,71.31 Q 92.06,72.00 90.56,73.27 Q 88.97,74.62 87.65,75.29 Q 81.23,78.55 75.67,82.56 Q 74.15,83.65 75.99,84.00 Q 81.32,85.02 86.74,85.24 Q 89.40,85.35 92.84,86.21 Q 93.49,86.38 92.82,86.46 Q 82.17,87.80 73.00,92.71 ZM 275.25,94.96 Q 273.66,97.09 271.44,101.44 Q 261.91,120.08 257.98,127.83 Q 249.58,144.42 241.81,161.31 Q 241.51,161.96 241.81,162.28 A 0.57,0.43 -50.5 0 0 242.55,162.10 Q 244.14,159.96 245.33,157.57 Q 260.86,126.45 275.71,95.00 L 279.98,86.02 A 0.60,0.49 -65.7 0 0 279.78,85.26 Q 279.29,85.06 278.95,85.76 Q 277.00,89.75 274.92,93.68 Q 274.52,94.43 275.25,94.96 ZM 125.50,157.96 Q 121.91,158.84 122.53,156.42 A 1.76,0.85 -29.0 0 1 123.08,155.64 L 129.45,149.93 Q 130.56,148.92 129.03,149.03 Q 126.35,149.22 123.43,150.41 Q 117.91,152.65 112.01,153.44 A 1.43,1.11 -25.6 0 1 111.08,153.24 Q 109.83,152.34 110.25,151.08 Q 110.55,150.16 111.85,149.54 Q 113.50,148.76 115.25,148.21 Q 124.53,144.38 130.56,135.56 Q 130.98,134.95 130.68,134.79 A 0.91,0.46 -42.6 0 0 129.91,135.01 Q 121.30,141.58 110.00,144.00 Q 102.68,145.57 94.25,149.21 Q 88.36,150.84 81.50,150.46 A 0.70,0.69 3.3 0 0 80.76,151.11 Q 80.47,155.60 80.45,160.03 Q 80.43,165.13 81.46,168.87 Q 85.41,183.25 98.88,190.92 Q 108.47,196.38 120.50,198.00 Q 142.36,200.94 162.69,197.69 Q 165.91,197.17 170.25,195.46 Q 178.27,192.66 183.31,189.06 Q 198.59,178.16 197.21,158.50 Q 197.36,150.64 194.71,143.25 Q 190.52,131.45 180.33,121.76 A 0.91,0.90 -52.9 0 0 178.93,121.96 Q 172.64,132.83 161.89,140.67 Q 154.17,146.31 141.75,152.25 Q 132.51,156.67 125.50,157.96 ZM 241.6541,164.3903 A 0.69 0.69 0.0 0 0 241.3558,163.4612 L 241.3381,163.4520 A 0.69 0.69 0.0 0 0 240.4090,163.7503 L 225.5259,192.7097 A 0.69 0.69 0.0 0 0 225.8242,193.6388 L 225.8419,193.6480 A 0.69 0.69 0.0 0 0 226.7710,193.3497 L 241.6541,164.3903 ZM 73.55,172.04 Q 71.08,170.60 69.38,172.06 Q 68.12,173.14 68.16,175.32 Q 68.25,180.88 73.18,184.07 Q 78.56,187.54 84.94,186.87 Q 85.44,186.82 85.10,186.44 Q 80.42,181.20 76.26,174.64 Q 75.22,173.01 73.55,172.04 ZM 207.05,171.93 Q 205.46,170.77 203.95,172.04 Q 202.41,173.34 201.44,175.08 Q 199.73,178.12 199.69,178.17 Q 196.86,182.34 193.80,186.36 Q 193.50,186.76 194.00,186.80 Q 204.85,187.71 208.64,177.67 Q 210.00,174.07 207.05,171.93 ZM 229.7815,195.5363 A 2.89,0.53 113.2 0 0 231.4071,193.0888 A 2.89,0.53 113.2 0 0 232.0585,190.2237 A 2.89,0.53 113.2 0 0 230.4329,192.6712 A 2.89,0.53 113.2 0 0 229.7815,195.5363 ZM 229.15,200.85 Q 226.58,198.10 225.58,200.39 Q 224.99,201.75 224.04,202.89 Q 223.21,203.89 224.28,204.77 Q 224.62,205.05 224.93,205.51 L 226.18,207.37 A 0.54,0.50 -35.5 0 0 226.92,207.46 Q 228.87,206.03 229.73,203.81 Q 230.37,202.15 229.15,200.85 ZM 219.7695,201.0128 A 0.79,0.61 -27.7 0 0 218.7864,200.8399 A 0.79,0.61 -27.7 0 0 218.3705,201.7472 A 0.79,0.61 -27.7 0 0 219.3536,201.9201 A 0.79,0.61 -27.7 0 0 219.7695,201.0128 ZM 125.59,206.73 Q 124.51,209.87 121.93,212.73 A 0.98,0.95 -43.3 0 0 121.87,213.96 L 131.12,225.80 Q 131.44,226.22 131.43,225.69 Q 131.25,215.43 128.09,205.72 Q 127.28,203.23 125.70,202.83 Q 123.78,202.34 121.39,204.09 Q 120.06,205.06 121.71,205.02 Q 124.01,204.95 125.37,205.94 A 0.71,0.64 -63.6 0 1 125.59,206.73 ZM 155.69,214.95 Q 155.45,213.25 157.68,211.95 A 0.94,0.94 45.0 0 0 158.02,210.67 Q 154.87,205.19 159.71,205.19 Q 161.77,205.18 160.23,203.81 Q 158.52,202.29 155.44,202.62 A 0.70,0.69 -87.6 0 0 154.84,203.18 Q 152.53,214.41 152.11,224.69 Q 152.03,226.89 153.30,225.08 L 159.40,216.45 Q 160.05,215.53 158.90,215.51 L 156.32,215.47 A 0.66,0.61 -3.6 0 1 155.69,214.95 ZM 105.00,206.46 Q 91.14,209.18 77.01,209.01 A 0.55,0.52 2.2 0 0 76.45,209.50 Q 76.33,211.18 77.04,212.75 L 77.65,221.89 A 0.74,0.70 -4.0 0 0 78.44,222.54 Q 94.94,221.40 110.21,216.75 Q 108.56,225.05 106.50,233.25 Q 105.73,236.29 105.50,241.96 Q 104.70,244.60 105.20,247.31 Q 105.46,248.75 107.00,248.21 Q 118.78,250.33 128.94,246.44 Q 131.54,245.44 131.61,242.59 Q 131.66,240.61 131.67,240.53 Q 131.97,236.85 131.31,232.14 A 4.59,4.20 -71.2 0 0 130.33,229.90 L 117.30,214.43 A 1.30,1.20 46.0 0 1 117.26,212.81 L 120.46,209.05 A 0.97,0.93 -61.9 0 0 120.02,207.50 Q 117.47,206.84 115.46,205.26 A 0.79,0.58 33.0 0 1 115.15,204.44 L 115.37,203.95 Q 115.53,203.61 115.21,203.70 L 105.00,206.46 ZM 132.47,207.12 Q 137.52,202.57 131.99,203.65 A 0.57,0.47 -12.2 0 0 131.52,204.25 L 132.26,207.08 A 0.13,0.12 -30.6 0 0 132.47,207.12 ZM 150.13,206.60 Q 151.58,202.31 147.71,203.58 A 0.36,0.31 60.8 0 0 147.60,204.11 L 149.51,206.67 Q 149.92,207.22 150.13,206.60 ZM 219.90,204.28 Q 216.31,202.93 213.59,205.87 A 1.41,1.09 72.6 0 0 213.27,206.74 L 213.19,218.08 Q 213.18,219.49 214.21,218.56 Q 219.82,213.53 221.36,207.03 Q 221.84,205.01 219.90,204.28 ZM 176.00,247.96 Q 176.59,248.25 177.09,248.03 A 0.93,0.67 82.3 0 0 177.51,247.25 Q 177.66,236.79 174.91,226.71 Q 173.48,221.47 171.96,216.25 Q 171.99,214.95 173.55,216.19 Q 174.10,216.62 174.77,216.80 Q 191.23,221.30 207.50,222.46 A 0.59,0.58 -81.4 0 0 208.11,222.00 Q 209.51,215.19 208.96,208.25 Q 209.29,207.57 209.16,206.96 A 0.60,0.49 -9.7 0 0 208.50,206.58 Q 189.98,209.66 171.54,206.00 L 167.98,204.66 A 1.37,0.87 -37.4 0 0 167.06,204.74 L 159.86,207.88 A 0.43,0.41 -32.2 0 0 159.69,208.54 L 163.58,212.95 A 1.99,1.96 42.6 0 1 163.70,215.42 Q 158.96,221.91 154.23,228.38 Q 152.72,230.44 152.43,232.67 Q 151.71,238.18 152.73,243.62 A 3.59,3.56 -79.6 0 0 154.36,246.01 Q 158.80,248.79 164.00,248.64 Q 169.00,248.50 174.00,248.50 Q 175.31,248.50 176.00,247.96 ZM 135.75,242.71 Q 135.03,248.59 129.54,250.18 Q 129.06,250.32 129.57,250.33 L 153.71,250.49 Q 154.59,250.49 153.79,250.13 Q 148.84,247.90 148.21,242.75 Q 148.33,242.59 148.42,242.43 Q 148.50,242.27 148.50,242.06 Q 148.13,227.23 149.70,212.50 A 0.78,0.75 18.1 0 0 149.31,211.76 Q 145.90,209.81 142.95,206.22 Q 142.17,205.27 142.22,206.50 L 142.51,214.47 A 1.91,1.89 -10.3 0 1 141.19,216.35 Q 139.25,216.98 139.26,214.50 Q 139.27,210.87 139.25,207.25 Q 139.25,206.80 138.91,207.12 L 134.25,211.52 A 1.69,1.53 -28.1 0 0 133.73,212.96 Q 136.35,227.96 135.75,242.71 ZM 63.04,211.75 Q 62.11,213.40 62.75,214.75 Q 63.78,216.92 66.19,219.81 Q 67.01,220.81 68.75,220.96 L 72.69,220.97 A 0.54,0.51 -89.4 0 0 73.20,220.44 Q 73.25,217.16 72.29,214.00 Q 72.03,211.66 70.38,210.42 Q 69.88,210.05 67.04,208.61 Q 60.49,205.30 54.16,209.47 A 0.38,0.38 -42.6 0 0 54.13,210.08 Q 55.99,211.58 58.50,211.22 Q 60.88,210.87 63.04,211.75 ZM 57.42,216.30 L 62.13,218.02 Q 62.81,218.27 62.55,217.56 Q 61.95,215.96 61.06,215.12 A 1.08,0.77 -23.6 0 0 60.20,214.94 L 57.56,215.46 Q 55.96,215.77 57.42,216.30 ZM 162.65,252.80 L 156.81,252.32 A 0.49,0.47 -87.2 0 0 156.30,252.80 L 156.25,266.36 Q 156.24,268.77 157.59,266.77 Q 161.53,260.94 163.11,253.46 A 0.55,0.52 -81.4 0 0 162.65,252.80 ZM 127.48,260.92 Q 127.72,257.11 127.25,253.32 A 0.71,0.66 -88.6 0 0 126.71,252.71 Q 123.88,252.14 121.05,252.71 A 0.52,0.52 -10.4 0 0 120.64,253.30 Q 121.91,261.43 126.71,268.10 Q 127.00,268.51 127.07,268.00 Q 127.27,266.36 127.31,264.71 Q 127.37,262.59 127.48,260.92 ZM 152.2366,256.5421 A 0.56 0.56 0.0 0 0 151.6756,255.9831 L 132.2956,256.0169 A 0.56 0.56 0.0 0 0 131.7366,256.5779 L 131.7634,271.9579 A 0.56 0.56 0.0 0 0 132.3244,272.5169 L 151.7044,272.4831 A 0.56 0.56 0.0 0 0 152.2634,271.9221 L 152.2366,256.5421 Z"/>
<path fill="#2a4c5e" d="M 179.12,48.34 A 0.87,0.85 -59.4 0 1 179.34,49.23 Q 179.28,49.40 178.81,49.27 Q 178.58,49.20 178.39,49.00 Q 169.92,39.74 156.00,39.00 Q 132.80,37.77 120.93,57.20 Q 120.05,58.64 120.08,56.95 Q 120.19,49.56 124.71,44.30 Q 128.41,39.99 135.55,37.66 Q 151.21,32.55 167.09,39.63 Q 172.35,41.97 179.12,48.34 Z"/>
<rect fill="#221f20" x="-1.43" y="-7.22" transform="translate(193.14,52.19) rotate(36.0)" width="2.86" height="14.44" rx="1.38"/>
<path fill="#34333d" d="M 191.25,72.21 Q 190.00,72.69 191.49,73.27 Q 194.48,74.44 197.08,76.24 Q 198.27,77.07 202.08,80.09 Q 216.34,91.44 222.29,109.00 Q 222.51,110.33 223.25,111.46 Q 225.03,118.67 224.00,125.00 Q 221.74,138.82 212.51,149.93 Q 211.79,150.79 211.58,149.68 Q 208.46,133.04 197.44,120.84 A 0.60,0.40 51.8 0 0 196.82,120.64 Q 196.59,120.77 196.99,121.15 Q 197.21,121.35 197.33,121.53 Q 200.50,126.48 202.56,132.69 Q 203.64,135.92 203.26,138.94 Q 203.20,139.46 203.03,138.96 Q 200.38,130.85 197.94,127.31 Q 188.20,113.24 176.75,101.51 Q 175.69,100.42 176.13,101.88 Q 178.94,111.09 174.72,119.45 Q 168.98,130.84 156.33,132.99 Q 155.90,133.06 156.07,132.65 Q 159.91,123.86 161.36,114.80 Q 161.44,114.31 161.19,114.75 Q 159.54,117.69 157.98,120.68 Q 155.95,124.57 154.59,126.52 Q 150.11,132.93 143.95,137.77 Q 139.64,141.16 137.65,142.34 Q 134.22,144.36 130.21,144.97 Q 128.43,145.24 129.74,144.01 Q 136.61,137.58 139.60,128.66 Q 141.38,123.33 143.27,118.04 Q 143.46,117.51 143.02,117.83 Q 142.67,118.08 142.56,118.31 Q 139.97,123.64 136.13,128.12 Q 134.90,129.56 132.51,129.48 A 3.24,3.18 -59.3 0 0 130.74,129.95 Q 123.58,134.31 116.93,137.68 Q 111.35,140.51 105.17,141.69 Q 103.14,142.08 104.72,140.74 Q 107.94,138.01 110.54,133.85 Q 114.44,127.61 118.32,121.36 Q 118.60,120.92 118.19,121.02 Q 118.07,121.05 117.98,121.15 Q 112.49,126.95 106.98,132.72 Q 99.71,140.34 88.93,142.39 Q 87.95,142.57 88.78,142.03 Q 100.70,134.26 106.23,122.27 Q 106.44,121.81 106.08,122.16 Q 100.38,127.69 94.34,132.85 Q 86.46,139.58 76.72,142.70 Q 74.24,143.50 69.17,144.40 Q 65.37,145.07 61.58,145.86 Q 59.50,146.30 57.99,146.92 Q 55.92,147.79 54.69,148.69 Q 52.36,150.39 53.05,153.74 Q 54.27,159.57 55.35,165.44 Q 55.44,165.95 55.18,165.51 Q 51.91,160.08 51.29,153.75 Q 51.90,153.02 51.94,150.94 Q 52.06,144.70 54.25,135.50 Q 55.67,129.53 60.63,122.96 Q 61.26,122.13 60.49,122.79 L 58.79,124.25 Q 58.46,122.80 57.33,122.78 Q 56.64,122.77 55.75,123.52 Q 51.78,126.91 48.05,130.58 Q 46.92,131.69 47.27,130.16 L 48.79,123.50 Q 49.20,123.32 49.50,122.50 Q 56.18,104.56 72.56,93.56 Q 73.33,93.05 73.00,92.71 Q 82.17,87.80 92.82,86.46 Q 93.49,86.38 92.84,86.21 Q 89.40,85.35 86.74,85.24 Q 81.32,85.02 75.99,84.00 Q 74.15,83.65 75.67,82.56 Q 81.23,78.55 87.65,75.29 Q 88.97,74.62 90.56,73.27 Q 92.06,72.00 93.56,71.31 Q 98.65,68.98 105.53,66.95 Q 112.13,65.00 120.12,65.87 Q 121.82,66.06 123.24,65.11 Q 124.65,64.17 126.10,63.36 Q 127.54,62.54 129.17,62.07 Q 147.20,56.92 162.11,67.65 Q 164.52,69.38 165.83,69.63 Q 167.39,69.92 168.96,69.48 Q 171.53,68.76 171.60,68.75 Q 181.98,67.05 191.25,72.21 Z"/>
<path fill="#53bbc4" d="M 191.25,72.21 Q 197.91,74.90 204.56,79.94 Q 219.31,91.11 222.75,108.96 L 222.29,109.00 Q 216.34,91.44 202.08,80.09 Q 198.27,77.07 197.08,76.24 Q 194.48,74.44 191.49,73.27 Q 190.00,72.69 191.25,72.21 Z"/>
<path fill="#615f61" d="M 275.71,95.00 L 275.25,94.96 Q 274.52,94.43 274.92,93.68 Q 277.00,89.75 278.95,85.76 Q 279.29,85.06 279.78,85.26 A 0.60,0.49 -65.7 0 1 279.98,86.02 L 275.71,95.00 Z"/>
<path fill="#53bbc4" d="M 73.00,92.71 Q 73.33,93.05 72.56,93.56 Q 56.18,104.56 49.50,122.50 Q 49.20,123.32 48.79,123.50 Q 49.83,119.42 51.23,115.45 Q 56.96,99.11 73.00,92.71 Z"/>
<path fill="#30556a" d="M 222.29,109.00 L 222.75,108.96 Q 223.46,110.09 223.25,111.46 Q 222.51,110.33 222.29,109.00 Z"/>
<path fill="#e3c6b1" d="M 194.71,143.25 Q 194.41,143.50 194.06,143.52 A 0.94,0.66 70.9 0 1 193.34,143.00 Q 190.74,137.84 187.34,133.17 Q 184.84,129.74 181.06,128.11 A 0.77,0.76 -62.0 0 0 180.12,128.40 Q 176.37,134.23 173.71,140.25 Q 172.89,139.54 171.94,139.60 A 1.52,1.01 -60.9 0 0 171.09,140.04 L 164.79,146.25 Q 164.77,145.23 163.50,145.50 Q 160.56,146.13 158.43,147.62 Q 156.94,148.66 156.91,148.68 Q 144.15,156.71 129.19,159.19 Q 127.60,159.45 125.50,157.96 Q 132.51,156.67 141.75,152.25 Q 154.17,146.31 161.89,140.67 Q 172.64,132.83 178.93,121.96 A 0.91,0.90 -52.9 0 1 180.33,121.76 Q 190.52,131.45 194.71,143.25 Z"/>
<path fill="#53bbc4" d="M 51.29,153.75 Q 50.40,150.29 50.35,146.75 Q 50.29,142.56 50.54,139.75 Q 51.11,133.52 55.27,128.55 Q 57.05,126.42 58.79,124.25 L 60.49,122.79 Q 61.26,122.13 60.63,122.96 Q 55.67,129.53 54.25,135.50 Q 52.06,144.70 51.94,150.94 Q 51.90,153.02 51.29,153.75 Z"/>
<path fill="#fce6cf" d="M 194.71,143.25 Q 197.36,150.64 197.21,158.50 Q 197.31,161.38 196.29,163.94 Q 194.61,168.15 194.59,168.21 Q 189.17,184.81 173.19,192.44 Q 171.18,193.40 170.25,195.46 Q 165.91,197.17 162.69,197.69 Q 142.36,200.94 120.50,198.00 Q 108.47,196.38 98.88,190.92 Q 85.41,183.25 81.46,168.87 Q 80.43,165.13 80.45,160.03 Q 80.47,155.60 80.76,151.11 A 0.70,0.69 3.3 0 1 81.50,150.46 Q 88.36,150.84 94.25,149.21 Q 97.25,149.62 101.25,148.50 Q 105.54,147.30 111.57,148.00 A 1.50,1.10 -50.5 0 0 112.47,147.77 Q 113.99,146.84 115.25,148.21 Q 113.50,148.76 111.85,149.54 Q 110.55,150.16 110.25,151.08 Q 109.83,152.34 111.08,153.24 A 1.43,1.11 -25.6 0 0 112.01,153.44 Q 117.91,152.65 123.43,150.41 Q 126.35,149.22 129.03,149.03 Q 130.56,148.92 129.45,149.93 L 123.08,155.64 A 1.76,0.85 -29.0 0 0 122.53,156.42 Q 121.91,158.84 125.50,157.96 Q 127.60,159.45 129.19,159.19 Q 144.15,156.71 156.91,148.68 Q 156.94,148.66 158.43,147.62 Q 160.56,146.13 163.50,145.50 Q 164.77,145.23 164.79,146.25 Q 164.40,148.52 166.05,148.74 Q 167.05,148.87 168.14,148.07 Q 169.67,146.95 170.86,145.19 Q 171.93,143.59 173.42,144.83 L 180.88,151.11 Q 182.45,152.43 184.06,151.14 Q 185.72,149.81 183.65,148.36 Q 178.38,144.67 173.71,140.25 Q 176.37,134.23 180.12,128.40 A 0.77,0.76 -62.0 0 1 181.06,128.11 Q 184.84,129.74 187.34,133.17 Q 190.74,137.84 193.34,143.00 A 0.94,0.66 70.9 0 0 194.06,143.52 Q 194.41,143.50 194.71,143.25 ZM 120.69,169.37 Q 112.03,163.36 103.56,169.56 Q 101.71,170.92 100.68,173.52 A 1.21,1.07 -49.7 0 0 100.70,174.46 Q 101.58,176.26 103.17,175.70 Q 103.97,175.42 105.02,173.95 Q 108.40,169.17 114.65,170.48 Q 116.95,170.96 119.02,173.18 A 1.21,1.20 -34.5 0 0 120.44,173.44 Q 124.01,171.67 120.69,169.37 ZM 173.54,168.97 Q 166.04,164.02 158.85,168.62 Q 157.49,169.50 156.98,170.66 Q 155.90,173.14 159.20,173.41 A 1.13,0.99 -62.6 0 0 160.04,173.08 Q 165.87,167.38 171.70,172.39 Q 172.10,172.73 173.18,174.57 Q 174.11,176.13 176.05,175.55 Q 178.58,174.79 177.10,172.61 Q 175.50,170.25 173.54,168.97 ZM 113.4959,180.3034 A 5.56,3.32 2.2 0 0 108.0674,176.7724 A 5.56,3.32 2.2 0 0 102.3841,179.8766 A 5.56,3.32 2.2 0 0 107.8126,183.4076 A 5.56,3.32 2.2 0 0 113.4959,180.3034 ZM 177.1319,179.6900 A 5.37,3.42 -4.7 0 0 171.4998,176.7215 A 5.37,3.42 -4.7 0 0 166.4281,180.5700 A 5.37,3.42 -4.7 0 0 172.0602,183.5385 A 5.37,3.42 -4.7 0 0 177.1319,179.6900 ZM 146.31,178.69 Q 143.59,176.50 139.93,178.08 Q 138.32,178.77 138.52,180.72 A 0.83,0.83 71.4 0 0 139.77,181.34 Q 142.30,179.81 145.06,181.25 A 1.53,1.07 45.4 0 0 145.98,181.42 Q 148.98,180.83 146.31,178.69 Z"/>
<path fill="#e3c6b1" d="M 115.25,148.21 Q 113.99,146.84 112.47,147.77 A 1.50,1.10 -50.5 0 1 111.57,148.00 Q 105.54,147.30 101.25,148.50 Q 97.25,149.62 94.25,149.21 Q 102.68,145.57 110.00,144.00 Q 121.30,141.58 129.91,135.01 A 0.91,0.46 -42.6 0 1 130.68,134.79 Q 130.98,134.95 130.56,135.56 Q 124.53,144.38 115.25,148.21 Z"/>
<path fill="#c9e4e6" d="M 225.96,137.25 Q 232.98,150.88 233.75,166.25 Q 233.78,166.92 234.75,167.79 Q 226.21,184.84 220.44,194.44 Q 219.29,196.34 217.04,195.50 Q 214.26,191.31 214.25,186.25 Q 214.25,185.55 213.25,183.71 Q 215.19,178.39 215.00,172.25 Q 214.68,161.98 218.17,152.15 Q 219.05,149.68 221.36,145.61 Q 223.17,142.44 224.73,139.13 Q 224.77,139.05 225.00,138.19 Q 225.19,137.48 225.96,137.25 Z"/>
<path fill="#221f20" d="M 173.71,140.25 Q 178.38,144.67 183.65,148.36 Q 185.72,149.81 184.06,151.14 Q 182.45,152.43 180.88,151.11 L 173.42,144.83 Q 171.93,143.59 170.86,145.19 Q 169.67,146.95 168.14,148.07 Q 167.05,148.87 166.05,148.74 Q 164.40,148.52 164.79,146.25 L 171.09,140.04 A 1.52,1.01 -60.9 0 1 171.94,139.60 Q 172.89,139.54 173.71,140.25 Z"/>
<path fill="#221f20" d="M 38.5526,180.6488 A 18.26,17.90 28.2 0 1 14.0013,187.7953 A 18.26,17.90 28.2 0 1 6.3674,163.3912 A 18.26,17.90 28.2 0 1 30.9187,156.2447 A 18.26,17.90 28.2 0 1 38.5526,180.6488 ZM 35.5049,173.1780 A 13.17,12.48 5.7 0 0 23.6395,159.4517 A 13.17,12.48 5.7 0 0 9.2951,170.5620 A 13.17,12.48 5.7 0 0 21.1605,184.2883 A 13.17,12.48 5.7 0 0 35.5049,173.1780 Z"/>
<path fill="#221f20" d="M 295.1933,170.9819 A 19.06,17.45 -2.4 0 1 276.8807,189.2147 A 19.06,17.45 -2.4 0 1 257.1067,172.5781 A 19.06,17.45 -2.4 0 1 275.4193,154.3453 A 19.06,17.45 -2.4 0 1 295.1933,170.9819 ZM 260.75,174.21 Q 259.83,175.63 261.50,175.79 L 261.33,177.19 A 1.41,1.09 34.9 0 0 261.61,178.09 Q 269.78,189.06 281.25,185.22 Q 287.80,183.04 290.52,178.11 Q 293.69,172.37 290.43,165.07 Q 289.06,161.99 286.69,160.56 Q 276.43,154.36 265.94,160.69 Q 258.61,165.10 260.75,174.21 Z"/>
<path fill="#e4e2e3" d="M 261.50,175.79 Q 261.83,174.71 260.75,174.21 Q 258.61,165.10 265.94,160.69 Q 276.43,154.36 286.69,160.56 Q 289.06,161.99 290.43,165.07 Q 293.69,172.37 290.52,178.11 Q 287.80,183.04 281.25,185.22 Q 269.78,189.06 261.61,178.09 A 1.41,1.09 34.9 0 1 261.33,177.19 L 261.50,175.79 ZM 268.0772,172.6400 A 4.10,3.07 89.9 0 0 271.1400,168.5346 A 4.10,3.07 89.9 0 0 268.0628,164.4400 A 4.10,3.07 89.9 0 0 265.0000,168.5454 A 4.10,3.07 89.9 0 0 268.0772,172.6400 ZM 284.3615,172.5580 A 4.09,3.02 91.8 0 0 287.5085,168.5649 A 4.09,3.02 91.8 0 0 284.6185,164.3820 A 4.09,3.02 91.8 0 0 281.4715,168.3751 A 4.09,3.02 91.8 0 0 284.3615,172.5580 ZM 276.65,175.93 Q 278.97,178.39 282.25,179.25 Q 284.38,179.81 285.19,177.94 Q 285.97,176.12 284.62,175.81 Q 284.11,175.69 282.97,176.15 Q 281.64,176.68 280.81,175.94 Q 279.03,174.34 278.14,173.60 Q 276.00,171.83 274.47,174.14 Q 272.73,176.76 269.77,175.93 Q 267.44,175.28 268.55,177.86 A 1.54,1.53 84.6 0 0 269.63,178.76 Q 273.88,179.72 276.07,176.01 A 0.37,0.36 -51.9 0 1 276.65,175.93 Z"/>
<path fill="#dac3b2" d="M 197.21,158.50 Q 198.59,178.16 183.31,189.06 Q 178.27,192.66 170.25,195.46 Q 171.18,193.40 173.19,192.44 Q 189.17,184.81 194.59,168.21 Q 194.61,168.15 196.29,163.94 Q 197.31,161.38 197.21,158.50 Z"/>
<path fill="#e4e2e3" d="M 35.5049,173.1780 A 13.17,12.48 5.7 0 1 21.1605,184.2883 A 13.17,12.48 5.7 0 1 9.2951,170.5620 A 13.17,12.48 5.7 0 1 23.6395,159.4517 A 13.17,12.48 5.7 0 1 35.5049,173.1780 ZM 26.5106,167.3739 A 1.62 1.62 0.0 0 0 24.9020,165.7426 L 18.4422,165.6975 A 1.62 1.62 0.0 0 0 16.8109,167.3061 L 16.8094,167.5261 A 1.62 1.62 0.0 0 0 18.4180,169.1574 L 24.8778,169.2025 A 1.62 1.62 0.0 0 0 26.5091,167.5939 L 26.5106,167.3739 ZM 30.0313,180.8195 A 1.73 1.73 0.0 0 0 29.3406,178.4724 L 19.6827,173.2068 A 1.73 1.73 0.0 0 0 17.3357,173.8976 L 17.2687,174.0205 A 1.73 1.73 0.0 0 0 17.9594,176.3676 L 27.6173,181.6332 A 1.73 1.73 0.0 0 0 29.9643,180.9424 L 30.0313,180.8195 Z"/>
<rect fill="#e9d586" x="-0.70" y="-16.97" transform="translate(233.59,178.55) rotate(27.2)" width="1.40" height="33.94" rx="0.69"/>
<ellipse fill="#222123" cx="0.00" cy="0.00" transform="translate(268.07,168.54) rotate(89.9)" rx="4.10" ry="3.07"/>
<ellipse fill="#222123" cx="0.00" cy="0.00" transform="translate(284.49,168.47) rotate(91.8)" rx="4.09" ry="3.02"/>
<rect fill="#221f20" x="-4.85" y="-1.73" transform="translate(21.66,167.45) rotate(0.4)" width="9.70" height="3.46" rx="1.62"/>
<path fill="#221f20" d="M 120.69,169.37 Q 124.01,171.67 120.44,173.44 A 1.21,1.20 -34.5 0 1 119.02,173.18 Q 116.95,170.96 114.65,170.48 Q 108.40,169.17 105.02,173.95 Q 103.97,175.42 103.17,175.70 Q 101.58,176.26 100.70,174.46 A 1.21,1.07 -49.7 0 1 100.68,173.52 Q 101.71,170.92 103.56,169.56 Q 112.03,163.36 120.69,169.37 Z"/>
<path fill="#221f20" d="M 173.54,168.97 Q 175.50,170.25 177.10,172.61 Q 178.58,174.79 176.05,175.55 Q 174.11,176.13 173.18,174.57 Q 172.10,172.73 171.70,172.39 Q 165.87,167.38 160.04,173.08 A 1.13,0.99 -62.6 0 1 159.20,173.41 Q 155.90,173.14 156.98,170.66 Q 157.49,169.50 158.85,168.62 Q 166.04,164.02 173.54,168.97 Z"/>
<path fill="#ecc4af" d="M 73.55,172.04 Q 75.22,173.01 76.26,174.64 Q 80.42,181.20 85.10,186.44 Q 85.44,186.82 84.94,186.87 Q 78.56,187.54 73.18,184.07 Q 68.25,180.88 68.16,175.32 Q 68.12,173.14 69.38,172.06 Q 71.08,170.60 73.55,172.04 Z"/>
<path fill="#ecc4af" d="M 207.05,171.93 Q 210.00,174.07 208.64,177.67 Q 204.85,187.71 194.00,186.80 Q 193.50,186.76 193.80,186.36 Q 196.86,182.34 199.69,178.17 Q 199.73,178.12 201.44,175.08 Q 202.41,173.34 203.95,172.04 Q 205.46,170.77 207.05,171.93 Z"/>
<path fill="#221f20" d="M 276.07,176.01 Q 273.88,179.72 269.63,178.76 A 1.54,1.53 84.6 0 1 268.55,177.86 Q 267.44,175.28 269.77,175.93 Q 272.73,176.76 274.47,174.14 Q 276.00,171.83 278.14,173.60 Q 279.03,174.34 280.81,175.94 Q 281.64,176.68 282.97,176.15 Q 284.11,175.69 284.62,175.81 Q 285.97,176.12 285.19,177.94 Q 284.38,179.81 282.25,179.25 Q 278.97,178.39 276.65,175.93 A 0.37,0.36 -51.9 0 0 276.07,176.01 Z"/>
<rect fill="#221f20" x="-7.23" y="-1.80" transform="translate(23.65,177.42) rotate(28.6)" width="14.46" height="3.60" rx="1.73"/>
<ellipse fill="#f4b8b1" cx="0.00" cy="0.00" transform="translate(107.94,180.09) rotate(2.2)" rx="5.56" ry="3.32"/>
<ellipse fill="#f4b8b1" cx="0.00" cy="0.00" transform="translate(171.78,180.13) rotate(-4.7)" rx="5.37" ry="3.42"/>
<path fill="#222123" d="M 146.31,178.69 Q 148.98,180.83 145.98,181.42 A 1.53,1.07 45.4 0 1 145.06,181.25 Q 142.30,179.81 139.77,181.34 A 0.83,0.83 71.4 0 1 138.52,180.72 Q 138.32,178.77 139.93,178.08 Q 143.59,176.50 146.31,178.69 Z"/>
<path fill="#c9e4e6" d="M 230.75,274.04 Q 227.49,271.82 223.90,273.24 A 1.93,0.98 -66.8 0 0 223.16,273.86 Q 222.44,274.78 221.25,274.96 L 220.00,275.04 Q 219.25,275.08 218.02,273.27 A 1.14,1.11 72.4 0 0 217.09,272.77 L 164.82,272.68 A 1.81,1.08 50.0 0 1 163.93,272.37 L 161.44,270.72 A 0.47,0.43 33.1 0 1 161.28,270.09 Q 166.31,262.84 168.41,253.53 A 1.12,0.99 2.8 0 1 169.39,252.75 L 180.85,251.82 Q 182.72,251.67 182.74,249.60 Q 182.86,235.16 178.88,223.15 Q 178.60,222.28 179.48,222.51 Q 196.25,226.79 214.36,229.22 A 1.23,1.22 -74.9 0 0 215.66,228.47 Q 216.52,226.38 217.29,224.37 Q 218.08,222.32 219.48,220.63 Q 221.61,218.05 223.93,215.06 Q 224.32,214.55 224.89,214.28 Q 231.29,211.29 233.29,205.32 Q 233.81,203.79 233.63,202.50 Q 233.42,201.03 232.60,199.74 A 1.63,1.62 -46.5 0 1 232.56,198.07 Q 234.81,194.09 236.75,189.96 Q 237.48,188.39 236.25,187.21 Q 237.52,185.35 238.19,183.19 Q 239.35,179.42 239.50,183.50 Q 239.76,190.55 238.83,197.49 Q 237.50,207.42 237.48,207.55 Q 236.83,213.39 235.95,219.21 Q 234.62,227.88 234.53,230.85 Q 234.17,242.19 238.23,253.01 Q 243.58,267.23 230.75,274.04 Z"/>
<ellipse fill="#dac3b2" cx="0.00" cy="0.00" transform="translate(230.92,192.88) rotate(113.2)" rx="2.89" ry="0.53"/>
<rect fill="#221f20" x="-1.47" y="-5.95" transform="translate(22.00,198.02) rotate(-0.3)" width="2.94" height="11.90" rx="1.42"/>
<path fill="#c9e4e6" d="M 90.50,192.46 Q 90.87,192.41 91.04,192.75 Q 91.34,195.91 94.34,197.13 Q 99.58,199.28 104.79,201.50 Q 104.85,201.88 104.49,201.95 Q 88.99,205.04 73.21,204.00 Q 75.95,198.25 81.15,194.82 Q 84.02,192.92 84.42,192.75 Q 86.20,191.97 88.50,192.50 Q 88.84,192.58 90.50,192.46 Z"/>
<path fill="#e3c6b1" d="M 229.15,200.85 Q 230.37,202.15 229.73,203.81 Q 228.87,206.03 226.92,207.46 A 0.54,0.50 -35.5 0 1 226.18,207.37 L 224.93,205.51 Q 224.62,205.05 224.28,204.77 Q 223.21,203.89 224.04,202.89 Q 224.99,201.75 225.58,200.39 Q 226.58,198.10 229.15,200.85 Z"/>
<ellipse fill="#dac3b2" cx="0.00" cy="0.00" transform="translate(219.07,201.38) rotate(-27.7)" rx="0.79" ry="0.61"/>
<path fill="#2e5063" d="M 125.37,205.94 Q 124.01,204.95 121.71,205.02 Q 120.06,205.06 121.39,204.09 Q 123.78,202.34 125.70,202.83 Q 127.28,203.23 128.09,205.72 Q 131.25,215.43 131.43,225.69 Q 131.44,226.22 131.12,225.80 L 121.87,213.96 A 0.98,0.95 -43.3 0 1 121.93,212.73 Q 124.51,209.87 125.59,206.73 A 0.71,0.64 -63.6 0 0 125.37,205.94 Z"/>
<path fill="#2e5063" d="M 156.32,215.47 L 158.90,215.51 Q 160.05,215.53 159.40,216.45 L 153.30,225.08 Q 152.03,226.89 152.11,224.69 Q 152.53,214.41 154.84,203.18 A 0.70,0.69 -87.6 0 1 155.44,202.62 Q 158.52,202.29 160.23,203.81 Q 161.77,205.18 159.71,205.19 Q 154.87,205.19 158.02,210.67 A 0.94,0.94 45.0 0 1 157.68,211.95 Q 155.45,213.25 155.69,214.95 A 0.66,0.61 -3.6 0 0 156.32,215.47 Z"/>
<path fill="#30556a" d="M 107.00,248.21 L 107.00,244.79 Q 109.88,244.90 112.73,244.56 Q 113.90,244.42 114.48,243.89 Q 115.57,242.91 114.53,241.67 A 1.44,0.84 -5.4 0 0 113.69,241.28 L 108.25,240.46 Q 110.89,229.11 112.00,220.75 Q 112.32,218.34 111.16,215.77 A 0.46,0.39 57.7 0 0 110.50,215.57 Q 110.06,215.96 110.21,216.75 Q 94.94,221.40 78.44,222.54 A 0.74,0.70 -4.0 0 1 77.65,221.89 L 77.04,212.75 Q 90.74,211.32 103.91,207.35 Q 104.14,207.28 104.61,207.27 Q 105.42,207.24 105.00,206.46 L 115.21,203.70 Q 115.53,203.61 115.37,203.95 L 115.15,204.44 A 0.79,0.58 33.0 0 0 115.46,205.26 Q 117.47,206.84 120.02,207.50 A 0.97,0.93 -61.9 0 1 120.46,209.05 L 117.26,212.81 A 1.30,1.20 46.0 0 0 117.30,214.43 L 130.33,229.90 A 4.59,4.20 -71.2 0 1 131.31,232.14 Q 131.97,236.85 131.67,240.53 Q 131.66,240.61 131.61,242.59 Q 131.54,245.44 128.94,246.44 Q 118.78,250.33 107.00,248.21 Z"/>
<path fill="#e4e2e3" d="M 132.47,207.12 A 0.13,0.12 -30.6 0 1 132.26,207.08 L 131.52,204.25 A 0.57,0.47 -12.2 0 1 131.99,203.65 Q 137.52,202.57 132.47,207.12 Z"/>
<path fill="#e4e2e3" d="M 150.13,206.60 Q 149.92,207.22 149.51,206.67 L 147.60,204.11 A 0.36,0.31 60.8 0 1 147.71,203.58 Q 151.58,202.31 150.13,206.60 Z"/>
<path fill="#f4e4d0" d="M 219.90,204.28 Q 221.84,205.01 221.36,207.03 Q 219.82,213.53 214.21,218.56 Q 213.18,219.49 213.19,218.08 L 213.27,206.74 A 1.41,1.09 72.6 0 1 213.59,205.87 Q 216.31,202.93 219.90,204.28 Z"/>
<path fill="#30556a" d="M 171.54,206.00 Q 171.58,206.67 172.50,207.00 Q 190.77,213.54 208.96,208.25 Q 209.51,215.19 208.11,222.00 A 0.59,0.58 -81.4 0 1 207.50,222.46 Q 191.23,221.30 174.77,216.80 Q 174.10,216.62 173.55,216.19 Q 171.99,214.95 171.96,216.25 Q 171.55,214.74 171.00,213.46 Q 170.20,211.59 170.45,213.61 Q 172.19,227.61 175.21,241.00 Q 172.34,241.07 169.52,241.38 Q 168.32,241.51 167.65,242.06 Q 166.08,243.36 168.31,244.54 A 1.79,1.29 -26.8 0 0 169.25,244.69 Q 172.53,244.32 175.71,245.00 L 176.00,247.96 Q 175.31,248.50 174.00,248.50 Q 169.00,248.50 164.00,248.64 Q 158.80,248.79 154.36,246.01 A 3.59,3.56 -79.6 0 1 152.73,243.62 Q 151.71,238.18 152.43,232.67 Q 152.72,230.44 154.23,228.38 Q 158.96,221.91 163.70,215.42 A 1.99,1.96 42.6 0 0 163.58,212.95 L 159.69,208.54 A 0.43,0.41 -32.2 0 1 159.86,207.88 L 167.06,204.74 A 1.37,0.87 -37.4 0 1 167.98,204.66 L 171.54,206.00 Z"/>
<path fill="#fbf8f0" d="M 148.21,242.75 L 135.75,242.71 Q 136.35,227.96 133.73,212.96 A 1.69,1.53 -28.1 0 1 134.25,211.52 L 138.91,207.12 Q 139.25,206.80 139.25,207.25 Q 139.27,210.87 139.26,214.50 Q 139.25,216.98 141.19,216.35 A 1.91,1.89 -10.3 0 0 142.51,214.47 L 142.22,206.50 Q 142.17,205.27 142.95,206.22 Q 145.90,209.81 149.31,211.76 A 0.78,0.75 18.1 0 1 149.70,212.50 Q 148.13,227.23 148.50,242.06 Q 148.50,242.27 148.42,242.43 Q 148.33,242.59 148.21,242.75 Z"/>
<path fill="#62cdd3" d="M 171.54,206.00 Q 189.98,209.66 208.50,206.58 A 0.60,0.49 -9.7 0 1 209.16,206.96 Q 209.29,207.57 208.96,208.25 Q 190.77,213.54 172.50,207.00 Q 171.58,206.67 171.54,206.00 Z"/>
<path fill="#62cdd3" d="M 105.00,206.46 Q 105.42,207.24 104.61,207.27 Q 104.14,207.28 103.91,207.35 Q 90.74,211.32 77.04,212.75 Q 76.33,211.18 76.45,209.50 A 0.55,0.52 2.2 0 1 77.01,209.01 Q 91.14,209.18 105.00,206.46 Z"/>
<path fill="#f4e4d0" d="M 72.29,214.00 L 67.96,216.50 Q 66.65,215.47 66.01,213.99 Q 65.48,212.77 64.95,212.40 Q 64.13,211.84 63.04,211.75 Q 60.88,210.87 58.50,211.22 Q 55.99,211.58 54.13,210.08 A 0.38,0.38 -42.6 0 1 54.16,209.47 Q 60.49,205.30 67.04,208.61 Q 69.88,210.05 70.38,210.42 Q 72.03,211.66 72.29,214.00 Z"/>
<path fill="#edd5b9" d="M 63.04,211.75 Q 64.13,211.84 64.95,212.40 Q 65.48,212.77 66.01,213.99 Q 66.65,215.47 67.96,216.50 Q 69.06,218.59 68.75,220.96 Q 67.01,220.81 66.19,219.81 Q 63.78,216.92 62.75,214.75 Q 62.11,213.40 63.04,211.75 Z"/>
<path fill="#62cdd3" d="M 171.96,216.25 Q 173.48,221.47 174.91,226.71 Q 177.66,236.79 177.51,247.25 A 0.93,0.67 82.3 0 1 177.09,248.03 Q 176.59,248.25 176.00,247.96 L 175.71,245.00 Q 176.40,242.83 175.21,241.00 Q 172.19,227.61 170.45,213.61 Q 170.20,211.59 171.00,213.46 Q 171.55,214.74 171.96,216.25 Z"/>
<path fill="#fbf8f0" d="M 72.29,214.00 Q 73.25,217.16 73.20,220.44 A 0.54,0.51 -89.4 0 1 72.69,220.97 L 68.75,220.96 Q 69.06,218.59 67.96,216.50 L 72.29,214.00 Z"/>
<path fill="#dac3b2" d="M 57.42,216.30 Q 55.96,215.77 57.56,215.46 L 60.20,214.94 A 1.08,0.77 -23.6 0 1 61.06,215.12 Q 61.95,215.96 62.55,217.56 Q 62.81,218.27 62.13,218.02 L 57.42,216.30 Z"/>
<path fill="#62cdd3" d="M 108.25,240.46 L 106.25,242.04 L 105.50,241.96 Q 105.73,236.29 106.50,233.25 Q 108.56,225.05 110.21,216.75 Q 110.06,215.96 110.50,215.57 A 0.46,0.39 57.7 0 1 111.16,215.77 Q 112.32,218.34 112.00,220.75 Q 110.89,229.11 108.25,240.46 Z"/>
<path fill="#c9e4e6" d="M 78.00,274.79 Q 70.19,273.81 67.31,272.19 Q 54.47,264.94 62.81,252.31 Q 65.22,248.67 71.78,242.54 Q 79.56,235.27 86.50,227.21 L 102.96,223.34 A 0.54,0.54 -88.4 0 1 103.60,224.02 Q 99.91,236.47 99.75,249.68 Q 99.73,251.46 101.49,251.75 Q 107.58,252.75 114.48,252.75 A 0.80,0.79 -5.8 0 1 115.26,253.38 Q 117.40,263.41 122.70,270.82 Q 123.06,271.33 122.44,271.24 Q 120.57,270.98 118.86,271.53 Q 116.58,272.27 115.48,272.29 Q 98.28,272.70 81.06,272.81 A 1.48,1.46 -63.4 0 0 80.16,273.12 L 78.00,274.79 Z"/>
<path fill="#222123" d="M 108.25,240.46 L 113.69,241.28 A 1.44,0.84 -5.4 0 1 114.53,241.67 Q 115.57,242.91 114.48,243.89 Q 113.90,244.42 112.73,244.56 Q 109.88,244.90 107.00,244.79 Q 105.63,243.68 106.25,242.04 L 108.25,240.46 Z"/>
<path fill="#222123" d="M 175.21,241.00 Q 176.40,242.83 175.71,245.00 Q 172.53,244.32 169.25,244.69 A 1.79,1.29 -26.8 0 1 168.31,244.54 Q 166.08,243.36 167.65,242.06 Q 168.32,241.51 169.52,241.38 Q 172.34,241.07 175.21,241.00 Z"/>
<path fill="#4f95a5" d="M 105.50,241.96 L 106.25,242.04 Q 105.63,243.68 107.00,244.79 L 107.00,248.21 Q 105.46,248.75 105.20,247.31 Q 104.70,244.60 105.50,241.96 Z"/>
<path fill="#244153" d="M 135.75,242.71 L 148.21,242.75 Q 148.84,247.90 153.79,250.13 Q 154.59,250.49 153.71,250.49 L 129.57,250.33 Q 129.06,250.32 129.54,250.18 Q 135.03,248.59 135.75,242.71 Z"/>
<path fill="#244153" d="M 162.65,252.80 A 0.55,0.52 -81.4 0 1 163.11,253.46 Q 161.53,260.94 157.59,266.77 Q 156.24,268.77 156.25,266.36 L 156.30,252.80 A 0.49,0.47 -87.2 0 1 156.81,252.32 L 162.65,252.80 Z"/>
<path fill="#244153" d="M 127.31,264.71 Q 127.27,266.36 127.07,268.00 Q 127.00,268.51 126.71,268.10 Q 121.91,261.43 120.64,253.30 A 0.52,0.52 -10.4 0 1 121.05,252.71 Q 123.88,252.14 126.71,252.71 A 0.71,0.66 -88.6 0 1 127.25,253.32 Q 127.72,257.11 127.48,260.92 Q 127.37,262.59 127.31,264.71 Z"/>
<rect fill="#c9e4e6" x="-10.25" y="-8.25" transform="translate(142.00,264.25) rotate(-0.1)" width="20.50" height="16.50" rx="0.56"/>
<path fill="#221f20" d="M 230.75,274.04 Q 228.28,278.64 223.70,276.12 Q 223.66,276.09 222.79,275.36 Q 222.18,274.86 221.25,274.96 Q 222.44,274.78 223.16,273.86 A 1.93,0.98 -66.8 0 1 223.90,273.24 Q 227.49,271.82 230.75,274.04 Z"/>
</svg>
