<?xml version="1.0" encoding="UTF-8" standalone="no"?>
<!DOCTYPE svg PUBLIC "-//W3C//DTD SVG 1.1//EN" "http://www.w3.org/Graphics/SVG/1.1/DTD/svg11.dtd">
<svg xmlns="http://www.w3.org/2000/svg" version="1.1" viewBox="0 0 300 300">
<path fill="#302422" d="M 116.86,269.43 L 115.38,264.27 A 0.99,0.79 2.3 0 0 114.70,263.68 Q 110.33,262.48 105.80,262.33 A 1.37,1.22 23.8 0 0 104.91,262.62 Q 104.10,263.31 103.84,264.19 A 1.84,1.83 -80.8 0 1 102.02,265.51 Q 88.94,265.06 76.80,260.93 Q 72.85,259.59 76.29,257.23 Q 82.12,253.24 85.22,246.99 Q 85.33,246.76 89.68,234.48 Q 94.39,221.19 99.74,208.14 Q 100.85,205.42 102.44,202.93 A 0.98,0.97 -56.9 0 0 102.16,201.59 Q 98.13,198.93 94.49,194.82 A 2.50,2.49 66.2 0 0 92.37,193.99 Q 72.84,195.92 71.77,177.04 A 2.76,2.75 13.2 0 0 70.39,174.82 Q 64.77,171.61 63.33,166.03 Q 62.70,163.59 61.83,161.85 Q 59.40,157.00 59.49,151.50 Q 59.49,151.00 59.88,151.31 Q 63.19,153.97 67.08,155.69 Q 69.70,156.86 68.88,154.11 Q 67.53,149.63 67.48,144.75 Q 67.37,135.25 67.75,125.76 A 0.81,0.77 -81.0 0 1 68.74,125.00 L 73.25,126.34 A 2.47,2.43 27.2 0 0 75.88,125.52 L 79.79,120.54 A 1.89,1.77 -43.4 0 0 79.92,118.41 Q 77.33,114.51 77.04,110.23 Q 76.98,109.40 77.41,107.83 Q 77.82,106.33 77.44,105.31 Q 69.31,83.76 60.97,62.39 A 2.55,2.55 -8.8 0 0 58.77,60.78 Q 55.73,60.59 53.55,59.18 Q 51.65,57.95 50.14,55.21 Q 45.54,46.87 53.94,41.19 Q 58.17,38.32 62.66,39.80 Q 66.75,41.14 68.96,44.84 Q 71.95,49.85 68.43,55.95 A 0.81,0.80 33.4 0 0 68.65,57.00 Q 74.54,61.40 82.29,63.74 Q 83.92,64.24 85.52,63.66 Q 94.60,60.36 98.01,51.29 A 0.61,0.60 25.8 0 0 97.75,50.56 Q 94.50,48.60 92.78,45.47 Q 91.05,42.31 91.56,38.80 Q 92.30,33.76 97.00,31.00 Q 102.36,27.86 108.25,30.75 Q 112.71,32.94 113.83,37.83 Q 114.51,40.82 113.60,43.52 Q 112.60,46.45 110.11,48.33 A 1.08,1.08 44.0 0 0 110.14,50.07 Q 116.44,54.53 123.75,56.25 Q 125.24,56.60 127.43,56.45 Q 129.15,56.33 131.03,55.79 Q 145.03,51.75 150.55,37.85 A 1.77,1.77 28.4 0 0 149.93,35.77 Q 143.01,30.85 144.93,23.75 Q 145.98,19.88 148.90,17.68 Q 151.97,15.36 156.25,15.31 Q 164.41,15.22 167.02,21.55 Q 168.59,25.36 167.77,29.06 Q 166.89,33.06 163.17,35.70 A 1.60,1.60 -30.0 0 0 162.64,37.68 Q 165.32,43.44 169.29,47.77 Q 173.94,52.82 179.13,54.24 Q 187.03,56.40 194.54,50.38 A 1.19,1.19 -45.7 0 0 194.52,48.51 Q 187.69,43.27 190.56,35.81 Q 191.97,32.16 195.63,30.39 Q 198.88,28.81 202.55,29.27 Q 206.58,29.78 209.15,32.63 Q 212.71,36.57 211.97,41.69 Q 211.20,47.02 205.10,49.97 A 0.51,0.48 -31.9 0 0 204.90,50.72 L 210.42,57.58 A 1.82,1.62 -27.5 0 0 212.33,58.06 Q 216.74,56.56 220.47,53.20 A 0.76,0.75 46.8 0 0 220.50,52.12 Q 217.03,48.58 217.23,44.06 Q 217.42,39.84 220.52,36.79 Q 224.39,32.96 230.15,34.37 Q 233.24,35.13 235.27,37.09 Q 237.59,39.32 238.17,42.43 Q 238.99,46.76 236.44,50.15 Q 233.99,53.41 229.08,54.66 A 1.78,1.78 1.8 0 0 227.81,55.85 L 214.59,97.43 Q 214.10,98.96 214.28,100.58 Q 215.01,107.32 212.24,111.93 A 1.31,1.31 -55.5 0 0 212.55,113.63 Q 216.08,116.38 217.83,120.42 Q 219.43,124.13 219.85,128.57 Q 220.46,134.91 217.21,140.82 A 2.40,1.85 56.1 0 0 217.10,142.51 L 219.83,151.57 A 0.78,0.65 82.5 0 0 220.43,152.12 Q 223.30,152.38 225.84,150.80 Q 227.63,149.68 227.29,151.76 Q 226.14,158.79 221.12,163.42 A 1.25,1.21 -20.2 0 0 220.72,164.25 Q 220.44,168.25 219.06,176.06 Q 217.00,187.79 208.19,197.44 Q 200.63,205.71 191.90,210.30 Q 190.17,211.21 190.38,213.15 Q 191.12,219.92 184.93,219.66 Q 183.88,219.62 184.46,220.40 L 187.88,224.92 A 0.75,0.57 -29.1 0 0 188.71,225.04 Q 208.28,216.36 227.48,206.48 A 1.14,1.10 -28.2 0 0 227.97,204.95 L 223.49,196.75 Q 222.22,194.42 224.74,193.75 Q 232.17,191.78 238.92,188.15 Q 241.97,186.51 243.64,188.95 Q 244.56,190.31 244.59,190.34 Q 251.96,199.64 254.44,211.33 Q 254.83,213.19 253.15,214.09 Q 245.68,218.09 239.04,223.27 Q 237.56,224.43 236.40,222.95 Q 234.40,220.38 233.40,217.19 Q 232.76,215.13 230.80,216.06 L 193.67,233.62 Q 191.17,234.80 192.40,237.24 Q 194.90,242.23 194.07,245.96 Q 193.21,249.83 189.83,251.05 Q 187.42,251.93 186.45,252.60 Q 179.77,257.19 171.34,260.74 A 2.14,2.01 88.2 0 0 170.17,262.07 L 168.25,268.51 A 1.35,1.33 -81.6 0 0 169.52,270.25 Q 181.05,270.23 192.44,274.06 Q 196.82,275.54 192.75,277.25 Q 185.64,280.25 177.95,281.00 Q 144.19,284.33 110.51,280.65 Q 106.33,280.20 103.55,279.53 Q 100.10,278.70 96.76,277.46 Q 93.00,276.07 95.74,274.38 Q 96.52,273.89 97.96,273.42 Q 105.79,270.87 116.07,270.39 A 0.84,0.75 -8.6 0 0 116.86,269.43 ZM 162.5451,26.2152 A 6.10,5.73 -2.3 0 0 156.2200,20.7346 A 6.10,5.73 -2.3 0 0 150.3549,26.7048 A 6.10,5.73 -2.3 0 0 156.6800,32.1854 A 6.10,5.73 -2.3 0 0 162.5451,26.2152 ZM 206.17,40.17 A 5.28 5.28 0.0 0 0 200.89,34.89 A 5.28 5.28 0.0 0 0 195.61,40.17 A 5.28 5.28 0.0 0 0 200.89,45.45 A 5.28 5.28 0.0 0 0 206.17,40.17 ZM 108.32,40.43 A 5.40 5.40 0.0 0 0 102.92,35.03 A 5.40 5.40 0.0 0 0 97.52,40.43 A 5.40 5.40 0.0 0 0 102.92,45.83 A 5.40 5.40 0.0 0 0 108.32,40.43 ZM 93.00,66.54 Q 90.20,68.14 87.14,68.90 Q 84.27,69.61 80.99,68.85 Q 74.53,67.36 69.05,63.84 Q 67.64,62.93 68.24,64.48 L 75.00,81.80 A 0.88,0.85 -25.9 0 0 76.25,82.21 Q 77.99,81.18 80.44,82.06 Q 82.34,82.75 83.64,82.08 Q 84.20,81.79 84.56,81.78 Q 87.87,81.70 88.52,85.57 A 0.92,0.92 -45.0 0 0 89.27,86.32 Q 94.42,87.25 98.12,84.35 A 1.28,1.28 -45.1 0 0 98.12,82.34 Q 96.27,80.89 97.54,78.25 Q 99.67,75.70 102.13,77.67 A 0.34,0.33 29.7 0 0 102.66,77.53 Q 103.87,74.25 107.54,72.14 A 0.54,0.54 61.0 0 0 107.74,71.40 Q 106.42,69.13 107.55,67.50 Q 108.51,66.11 110.48,65.82 Q 113.61,65.36 113.49,69.84 A 0.65,0.64 0.4 0 0 114.15,70.50 Q 118.33,70.46 120.41,73.85 Q 120.91,74.66 121.36,73.82 Q 122.91,70.98 125.35,71.60 Q 127.20,72.08 127.56,73.92 Q 127.92,75.79 126.49,77.51 A 0.47,0.47 32.6 0 0 126.65,78.23 Q 134.08,81.85 141.28,76.95 A 0.96,0.96 54.2 0 0 141.50,75.57 Q 140.07,73.70 141.06,72.00 Q 141.89,70.57 143.54,70.32 Q 145.35,70.05 146.69,71.61 A 0.29,0.29 36.3 0 0 147.18,71.54 Q 148.95,67.16 153.69,66.50 A 0.37,0.37 73.7 0 0 153.97,65.98 Q 152.86,63.47 154.22,61.68 Q 155.35,60.19 157.18,60.03 Q 159.34,59.85 160.39,62.33 Q 161.06,63.89 159.84,65.30 Q 158.93,66.36 160.30,66.54 Q 164.62,67.12 165.87,71.97 Q 166.00,72.47 166.33,72.08 Q 168.40,69.67 170.73,70.47 Q 172.30,71.02 172.73,72.54 Q 173.21,74.26 171.69,75.73 A 0.51,0.48 -43.4 0 0 171.65,76.43 Q 176.53,81.49 183.45,77.60 A 0.45,0.44 54.4 0 0 183.56,76.92 Q 181.40,74.45 183.22,72.47 Q 184.28,71.32 185.71,71.31 Q 187.42,71.30 188.35,73.00 A 0.35,0.33 -37.8 0 0 188.90,73.06 Q 191.21,70.64 194.96,70.28 A 0.58,0.57 -2.3 0 0 195.48,69.72 Q 195.56,67.57 196.99,66.73 Q 200.15,64.90 201.99,67.42 Q 202.60,68.26 202.48,69.22 Q 202.36,70.22 201.79,71.09 A 0.51,0.49 -56.5 0 0 201.92,71.77 Q 205.29,74.00 205.93,78.00 A 0.33,0.33 69.5 0 0 206.43,78.23 Q 212.59,74.50 211.76,81.72 Q 211.61,83.03 210.58,83.01 Q 209.29,82.98 210.03,84.03 Q 210.86,85.22 211.57,85.08 Q 212.07,84.99 212.47,83.99 Q 216.95,72.74 219.88,60.99 Q 220.00,60.51 219.60,60.81 Q 215.66,63.81 210.74,64.44 A 1.39,1.34 56.1 0 1 209.82,64.24 Q 205.87,61.81 203.41,57.83 Q 201.93,55.44 200.29,53.16 A 0.44,0.44 -38.9 0 0 199.63,53.09 Q 196.06,56.27 191.86,58.39 Q 187.38,60.66 183.17,60.57 Q 178.53,60.46 174.21,58.26 Q 162.62,52.35 157.58,40.05 Q 156.92,38.45 156.26,40.05 Q 150.15,54.76 135.30,60.13 Q 130.43,61.89 126.01,61.84 Q 121.13,61.79 116.56,60.04 Q 114.01,59.06 110.85,56.84 Q 108.25,55.02 105.58,52.92 Q 103.86,51.57 103.01,53.58 Q 99.61,61.68 93.00,66.54 ZM 232.67,44.59 A 5.14 5.14 0.0 0 0 227.53,39.45 A 5.14 5.14 0.0 0 0 222.39,44.59 A 5.14 5.14 0.0 0 0 227.53,49.73 A 5.14 5.14 0.0 0 0 232.67,44.59 ZM 64.8981,51.7685 A 5.45,5.16 14.0 0 0 60.8583,45.4433 A 5.45,5.16 14.0 0 0 54.3219,49.1315 A 5.45,5.16 14.0 0 0 58.3617,55.4567 A 5.45,5.16 14.0 0 0 64.8981,51.7685 ZM 156.5657,78.1682 A 4.19,3.96 91.7 0 0 160.6483,74.0975 A 4.19,3.96 91.7 0 0 156.8143,69.7918 A 4.19,3.96 91.7 0 0 152.7317,73.8625 A 4.19,3.96 91.7 0 0 156.5657,78.1682 ZM 199.99,78.33 A 3.72 3.72 0.0 0 0 196.27,74.61 A 3.72 3.72 0.0 0 0 192.55,78.33 A 3.72 3.72 0.0 0 0 196.27,82.05 A 3.72 3.72 0.0 0 0 199.99,78.33 ZM 116.43,79.23 A 4.05 4.05 0.0 0 0 112.38,75.18 A 4.05 4.05 0.0 0 0 108.33,79.23 A 4.05 4.05 0.0 0 0 112.38,83.28 A 4.05 4.05 0.0 0 0 116.43,79.23 ZM 101.96,86.75 Q 96.33,92.33 88.26,90.44 A 1.53,1.53 -72.5 0 0 86.50,91.36 Q 85.01,95.01 81.42,97.46 A 0.57,0.55 -29.7 0 0 81.22,98.15 L 83.48,102.89 A 0.59,0.58 -21.9 0 0 84.20,103.19 Q 94.46,99.69 104.75,97.79 Q 106.59,97.69 111.50,96.75 Q 151.52,89.11 193.27,94.34 Q 199.98,95.18 207.15,97.18 A 0.97,0.94 17.4 0 0 208.32,96.59 L 210.25,91.01 A 0.71,0.69 26.6 0 0 209.98,90.22 Q 206.01,87.49 203.48,83.82 A 0.59,0.58 -35.3 0 0 202.65,83.68 Q 199.00,86.45 194.49,87.85 A 0.89,0.73 -27.6 0 1 193.63,87.67 L 187.62,81.27 A 0.75,0.67 55.3 0 0 186.81,81.07 Q 175.26,86.58 166.85,78.35 A 0.58,0.56 -40.3 0 0 166.11,78.30 L 157.16,84.73 A 0.82,0.76 41.7 0 1 156.31,84.75 Q 151.46,81.99 147.59,78.21 A 0.85,0.85 -48.8 0 0 146.32,78.30 Q 143.49,81.97 139.02,83.08 Q 131.14,85.05 123.16,81.39 A 0.73,0.72 -55.6 0 0 122.33,81.55 L 114.57,89.82 A 1.84,1.80 38.1 0 1 112.25,90.07 L 104.18,84.77 A 0.60,0.53 34.9 0 0 103.41,84.86 L 101.96,86.75 ZM 80.1077,91.9422 A 3.70,2.80 81.8 0 0 82.3514,87.8806 A 3.70,2.80 81.8 0 0 79.0523,84.6178 A 3.70,2.80 81.8 0 0 76.8086,88.6794 A 3.70,2.80 81.8 0 0 80.1077,91.9422 ZM 103.75,102.29 Q 93.57,104.78 83.64,108.63 A 0.94,0.92 -19.4 0 0 83.08,109.76 L 85.52,117.79 A 0.58,0.56 -16.5 0 0 86.23,118.16 L 105.75,112.54 Q 147.08,104.76 189.00,108.48 Q 196.94,109.19 205.46,110.89 A 0.80,0.75 13.6 0 0 206.38,110.37 L 208.50,102.75 A 1.06,1.00 15.9 0 0 207.76,101.50 Q 199.41,99.09 190.83,98.11 Q 186.29,97.60 173.66,96.86 Q 138.39,94.79 103.75,102.29 ZM 161.36,112.64 Q 155.99,112.07 150.24,112.92 A 0.38,0.38 72.9 0 0 149.96,113.45 Q 157.13,129.22 149.20,145.16 A 0.41,0.39 -71.5 0 0 149.47,145.74 L 159.82,147.60 A 2.51,2.30 -67.2 0 0 162.23,146.49 Q 173.07,130.20 162.75,113.52 A 1.87,1.87 77.3 0 0 161.36,112.64 ZM 183.02,113.43 L 167.06,112.56 A 0.33,0.32 78.9 0 0 166.76,113.02 Q 169.79,119.99 170.44,124.31 Q 172.46,137.75 164.61,148.35 Q 164.17,148.95 164.89,148.96 L 177.76,149.24 A 2.86,2.63 -69.5 0 0 179.97,148.12 Q 191.28,133.28 185.24,115.22 Q 184.67,113.52 183.02,113.43 ZM 144.56,112.95 Q 137.68,113.07 130.44,114.35 A 0.61,0.60 -5.2 0 0 129.94,114.94 Q 130.15,127.58 136.72,138.10 Q 138.25,140.55 140.27,141.98 Q 142.45,143.51 144.97,144.51 A 0.64,0.62 -62.9 0 0 145.72,144.26 Q 155.21,129.47 146.01,113.76 A 1.65,1.64 74.1 0 0 144.56,112.95 ZM 199.47,115.19 L 188.55,113.83 A 0.37,0.34 85.1 0 0 188.19,114.29 Q 191.62,126.81 188.44,139.44 Q 187.72,142.27 184.02,148.07 Q 183.75,148.50 184.25,148.50 Q 192.55,148.39 199.45,143.77 Q 201.76,142.22 202.92,139.68 Q 207.77,129.05 202.40,117.54 Q 201.41,115.44 199.47,115.19 ZM 125.81,114.96 Q 115.66,115.50 105.98,118.59 A 0.51,0.51 90.0 0 0 105.66,119.23 Q 109.88,131.07 122.21,134.16 Q 126.17,135.16 130.94,135.56 A 0.31,0.31 -9.3 0 0 131.25,135.13 Q 128.43,128.47 127.75,121.75 Q 127.34,117.69 126.49,115.40 A 0.70,0.67 -10.9 0 0 125.81,114.96 ZM 207.38,116.63 Q 206.51,115.99 206.69,117.06 Q 207.40,121.31 208.50,126.25 Q 209.03,128.63 208.07,135.75 A 1.01,0.84 -68.3 0 0 208.35,136.61 L 210.54,138.49 A 1.64,1.52 -54.4 0 0 212.90,138.01 Q 215.15,134.27 214.99,130.25 Q 214.83,126.19 213.01,122.79 Q 211.23,119.47 207.38,116.63 ZM 90.69,128.56 Q 98.83,134.03 107.74,130.02 A 0.39,0.38 58.7 0 0 107.88,129.43 Q 104.45,125.12 102.37,120.02 A 0.61,0.60 -17.0 0 0 101.69,119.66 Q 94.28,121.13 87.28,124.00 A 0.44,0.43 -25.7 0 0 87.05,124.62 Q 88.39,127.01 90.69,128.56 ZM 126.04,138.27 Q 117.89,136.83 110.85,132.40 A 0.97,0.96 49.0 0 0 109.94,132.33 Q 94.24,139.16 83.47,126.16 A 0.43,0.42 -44.6 0 0 82.82,126.16 Q 80.55,128.90 81.31,132.29 Q 82.69,138.53 87.99,141.97 Q 98.14,148.57 109.19,145.57 Q 110.93,145.10 116.87,142.10 Q 121.14,139.95 126.05,138.60 Q 126.77,138.40 126.04,138.27 ZM 99.09,149.23 Q 82.31,147.09 77.40,130.95 Q 77.09,129.91 76.40,130.76 Q 74.57,133.05 73.80,136.15 Q 69.52,153.21 82.85,163.64 Q 84.86,165.22 88.69,165.31 Q 96.72,165.51 99.11,173.54 Q 101.66,182.15 96.24,190.09 Q 95.67,190.92 96.64,190.63 Q 106.00,187.86 107.75,177.75 Q 108.57,173.03 108.72,160.58 Q 108.77,157.09 109.51,154.53 Q 110.33,151.70 111.55,148.72 Q 111.89,147.90 111.04,148.16 Q 105.04,150.00 99.09,149.23 ZM 196.50,201.21 Q 201.16,198.46 204.21,194.00 Q 215.11,181.50 215.35,164.75 Q 215.48,155.76 212.69,147.23 Q 211.48,143.52 208.98,140.61 A 0.31,0.30 -50.0 0 0 208.49,140.66 Q 206.41,144.26 203.69,146.92 Q 201.06,149.49 197.18,151.18 Q 190.42,154.12 182.50,154.50 Q 168.79,155.16 156.56,152.95 Q 143.68,150.62 132.74,143.67 Q 130.16,142.03 128.29,141.82 Q 125.71,141.52 123.31,142.31 Q 114.15,145.33 112.38,155.02 Q 111.48,159.97 111.75,165.00 Q 112.05,170.51 111.25,175.90 Q 110.33,182.03 107.75,185.98 Q 104.89,190.38 100.23,193.30 A 0.40,0.40 50.7 0 0 100.17,193.92 Q 105.79,199.39 113.31,202.69 Q 126.50,208.48 140.26,210.43 A 0.87,0.83 -66.3 0 0 141.05,210.10 Q 144.46,205.64 149.35,202.87 Q 157.93,198.02 167.70,196.75 A 0.72,0.69 -86.1 0 0 168.29,196.21 Q 169.36,191.84 174.06,192.70 Q 177.32,193.29 176.21,196.62 A 0.57,0.57 -70.7 0 0 176.55,197.33 Q 183.48,199.92 187.68,205.91 A 0.68,0.68 56.2 0 0 188.59,206.09 L 196.50,201.21 ZM 68.19,162.27 Q 67.50,162.09 67.69,162.78 Q 69.05,167.64 74.08,169.94 A 1.49,1.10 -45.8 0 0 75.41,169.72 L 80.39,166.21 A 0.48,0.46 -41.7 0 0 80.45,165.48 L 74.84,160.47 A 0.36,0.32 38.8 0 0 74.33,160.50 Q 72.24,163.34 68.19,162.27 ZM 84.5921,188.5339 A 9.98,9.71 107.0 0 0 96.7957,181.8289 A 9.98,9.71 107.0 0 0 90.4279,169.4461 A 9.98,9.71 107.0 0 0 78.2243,176.1511 A 9.98,9.71 107.0 0 0 84.5921,188.5339 ZM 233.41,206.55 A 1.37,1.32 -27.1 0 1 232.81,208.29 Q 224.19,212.97 215.92,216.89 Q 208.73,220.30 198.89,225.13 Q 190.54,229.23 181.91,232.75 A 0.67,0.40 -23.8 0 0 181.43,233.42 Q 181.61,233.73 182.50,233.49 Q 184.39,232.96 186.32,232.59 Q 188.37,232.19 190.00,231.38 Q 211.28,220.80 233.50,210.40 A 0.96,0.94 63.4 0 1 234.75,210.83 L 238.09,217.11 A 0.52,0.49 60.2 0 0 238.80,217.32 L 248.05,211.48 A 0.79,0.67 69.9 0 0 248.34,210.69 Q 246.53,201.85 240.53,193.99 A 1.11,1.04 -29.0 0 0 239.27,193.67 L 229.72,197.58 A 0.46,0.45 66.3 0 0 229.48,198.20 L 233.41,206.55 ZM 180.32,205.44 Q 177.14,202.59 174.20,201.13 Q 172.69,200.38 171.05,200.73 Q 157.55,203.56 147.86,211.37 Q 146.32,212.61 145.21,214.31 A 0.58,0.58 -71.3 0 0 145.65,215.21 Q 158.38,216.12 169.62,209.38 A 1.30,1.30 -41.2 0 1 171.11,209.48 Q 176.70,213.95 184.69,214.00 A 0.70,0.70 -9.3 0 0 185.36,213.07 Q 183.78,208.54 180.32,205.44 ZM 111.88,207.89 L 107.73,206.24 A 1.23,1.11 24.8 0 0 106.24,206.70 Q 101.01,216.31 98.14,227.04 Q 95.34,237.52 91.12,247.48 Q 89.69,250.85 88.35,252.67 Q 86.66,254.98 84.31,257.02 Q 82.93,258.21 84.69,258.67 Q 91.42,260.41 98.06,260.55 A 0.57,0.55 -84.9 0 0 98.63,260.06 Q 101.11,242.81 104.76,225.77 Q 106.05,219.76 107.32,216.89 Q 109.17,212.70 112.23,208.97 A 0.74,0.67 29.7 0 0 111.88,207.89 ZM 140.77,226.97 Q 138.80,226.09 135.51,225.65 Q 126.12,224.40 117.86,222.30 Q 115.21,221.62 117.68,220.44 Q 120.57,219.06 123.55,220.21 Q 123.98,220.38 124.33,220.26 Q 124.92,220.07 124.34,219.72 L 121.06,217.76 Q 119.10,216.59 121.31,216.21 Q 126.51,215.32 128.37,220.31 A 1.28,1.26 -6.9 0 0 129.44,221.14 Q 137.36,221.94 144.63,223.92 A 1.56,1.54 -52.9 0 0 145.86,223.74 Q 149.69,221.32 153.55,223.26 A 2.02,1.64 51.0 0 0 154.49,223.46 Q 164.69,222.82 170.65,231.36 A 1.43,1.42 -23.7 0 0 172.15,231.94 Q 178.07,230.59 183.08,227.02 A 0.47,0.47 51.7 0 0 183.16,226.33 Q 178.11,220.42 171.95,216.32 A 1.87,1.87 -42.0 0 0 170.05,216.22 Q 160.24,221.38 149.29,221.59 Q 144.33,221.68 143.84,221.59 Q 140.76,220.98 139.64,217.13 A 1.45,1.45 86.8 0 0 138.48,216.09 Q 127.62,214.21 115.86,210.02 A 1.16,1.14 28.5 0 0 114.55,210.40 Q 109.97,216.43 109.74,224.17 Q 109.67,226.49 110.58,228.16 Q 111.74,230.28 113.56,231.19 Q 123.36,236.05 135.40,235.65 Q 139.82,235.50 140.56,235.13 Q 143.04,233.91 142.25,228.90 A 2.58,2.56 7.6 0 0 140.77,226.97 ZM 151.15,227.05 Q 148.24,225.24 147.03,228.92 Q 146.33,231.03 146.21,233.26 Q 146.03,236.49 150.80,237.40 Q 153.49,237.92 154.40,235.33 Q 156.20,230.21 151.15,227.05 ZM 151.31,241.19 Q 147.91,241.14 146.56,239.94 Q 143.99,237.65 144.66,241.02 Q 146.23,248.84 152.88,251.73 Q 156.01,253.09 159.26,252.41 Q 162.72,251.70 165.31,249.46 Q 168.97,246.30 169.51,241.64 Q 170.09,236.74 166.56,232.44 Q 163.37,228.56 158.54,227.42 Q 158.07,227.31 158.22,227.80 L 159.12,230.77 A 1.21,0.95 -42.3 0 1 158.97,231.66 Q 158.11,233.09 157.56,236.06 Q 156.60,241.26 151.31,241.19 ZM 110.8958,234.1288 A 0.70 0.70 0.0 0 0 110.3125,233.3289 L 109.3838,233.1835 A 0.70 0.70 0.0 0 0 108.5840,233.7667 L 105.0442,256.3712 A 0.70 0.70 0.0 0 0 105.6275,257.1711 L 106.5562,257.3165 A 0.70 0.70 0.0 0 0 107.3560,256.7333 L 110.8958,234.1288 ZM 177.33,238.07 Q 177.29,236.91 176.65,235.60 A 0.77,0.77 74.7 0 0 175.90,235.17 Q 170.60,235.55 172.77,240.05 A 0.66,0.66 -18.3 0 0 173.49,240.41 Q 175.38,240.02 176.92,238.87 A 1.01,0.94 -20.1 0 0 177.33,238.07 ZM 187.40,236.73 Q 185.35,234.85 184.82,236.34 Q 184.44,237.41 184.41,237.48 Q 183.03,240.34 183.47,243.41 Q 183.71,245.09 184.83,245.57 Q 185.89,246.03 187.67,245.94 A 1.17,1.17 4.5 0 0 188.75,245.02 Q 189.53,241.35 188.76,238.87 A 4.84,4.77 -77.8 0 0 187.40,236.73 ZM 146.50,252.67 Q 141.57,248.25 141.23,240.37 A 0.74,0.74 85.1 0 0 140.39,239.66 Q 127.31,241.37 115.08,236.77 A 0.84,0.83 13.2 0 0 113.95,237.46 L 111.76,257.86 A 0.60,0.60 -81.3 0 0 112.23,258.50 Q 121.49,260.41 130.88,260.88 Q 141.97,261.44 149.61,260.79 Q 166.19,259.36 180.70,250.43 A 1.03,0.86 65.1 0 0 181.01,249.27 L 179.01,243.81 A 0.69,0.50 75.6 0 0 178.44,243.34 Q 176.58,243.48 174.91,244.21 Q 173.45,244.85 172.46,246.65 Q 170.77,249.72 169.94,250.69 Q 164.87,256.53 158.00,256.76 Q 151.30,256.99 146.50,252.67 ZM 161.28,272.11 Q 163.26,269.04 164.18,264.64 A 0.92,0.89 90.0 0 0 163.12,263.55 L 158.46,264.58 A 1.63,1.58 -15.3 0 0 157.24,266.63 L 159.02,272.00 Q 159.82,274.39 161.28,272.11 ZM 124.23,273.76 Q 126.26,276.24 127.24,273.27 L 129.55,266.30 A 0.45,0.43 -76.8 0 0 129.20,265.72 L 121.75,264.78 A 0.45,0.44 -87.9 0 0 121.26,265.25 Q 121.44,270.33 124.23,273.76 ZM 152.4080,267.1126 A 1.60 1.60 0.0 0 0 150.7996,265.5210 L 135.8798,265.5991 A 1.60 1.60 0.0 0 0 134.2882,267.2074 L 134.2920,267.9274 A 1.60 1.60 0.0 0 0 135.9004,269.5190 L 150.8202,269.4409 A 1.60 1.60 0.0 0 0 152.4118,267.8326 L 152.4080,267.1126 Z"/>
<ellipse fill="#e6bf69" cx="0.00" cy="0.00" transform="translate(156.45,26.46) rotate(-2.3)" rx="6.10" ry="5.73"/>
<circle fill="#e6bf69" cx="200.89" cy="40.17" r="5.28"/>
<circle fill="#e6bf69" cx="102.92" cy="40.43" r="5.40"/>
<path fill="#e6bf69" d="M 97.54,78.25 L 97.26,78.00 A 1.19,0.37 35.2 0 1 96.84,77.45 L 94.21,68.16 A 1.67,0.81 26.0 0 0 93.63,67.42 Q 93.18,67.07 93.00,66.54 Q 99.61,61.68 103.01,53.58 Q 103.86,51.57 105.58,52.92 Q 108.25,55.02 110.85,56.84 Q 114.01,59.06 116.56,60.04 Q 121.13,61.79 126.01,61.84 Q 130.43,61.89 135.30,60.13 Q 150.15,54.76 156.26,40.05 Q 156.92,38.45 157.58,40.05 Q 162.62,52.35 174.21,58.26 Q 178.53,60.46 183.17,60.57 Q 187.38,60.66 191.86,58.39 Q 196.06,56.27 199.63,53.09 A 0.44,0.44 -38.9 0 1 200.29,53.16 Q 201.93,55.44 203.41,57.83 Q 205.87,61.81 209.82,64.24 A 1.39,1.34 56.1 0 0 210.74,64.44 Q 215.66,63.81 219.60,60.81 Q 220.00,60.51 219.88,60.99 Q 216.95,72.74 212.47,83.99 Q 212.07,84.99 211.57,85.08 Q 210.86,85.22 210.03,84.03 Q 209.29,82.98 210.58,83.01 Q 211.61,83.03 211.76,81.72 Q 212.59,74.50 206.43,78.23 A 0.33,0.33 69.5 0 1 205.93,78.00 Q 205.29,74.00 201.92,71.77 A 0.51,0.49 -56.5 0 1 201.79,71.09 Q 202.36,70.22 202.48,69.22 Q 202.60,68.26 201.99,67.42 Q 200.15,64.90 196.99,66.73 Q 195.56,67.57 195.48,69.72 A 0.58,0.57 -2.3 0 1 194.96,70.28 Q 191.21,70.64 188.90,73.06 A 0.35,0.33 -37.8 0 1 188.35,73.00 Q 187.42,71.30 185.71,71.31 Q 184.28,71.32 183.22,72.47 Q 181.40,74.45 183.56,76.92 A 0.45,0.44 54.4 0 1 183.45,77.60 Q 176.53,81.49 171.65,76.43 A 0.51,0.48 -43.4 0 1 171.69,75.73 Q 173.21,74.26 172.73,72.54 Q 172.30,71.02 170.73,70.47 Q 168.40,69.67 166.33,72.08 Q 166.00,72.47 165.87,71.97 Q 164.62,67.12 160.30,66.54 Q 158.93,66.36 159.84,65.30 Q 161.06,63.89 160.39,62.33 Q 159.34,59.85 157.18,60.03 Q 155.35,60.19 154.22,61.68 Q 152.86,63.47 153.97,65.98 A 0.37,0.37 73.7 0 1 153.69,66.50 Q 148.95,67.16 147.18,71.54 A 0.29,0.29 36.3 0 1 146.69,71.61 Q 145.35,70.05 143.54,70.32 Q 141.89,70.57 141.06,72.00 Q 140.07,73.70 141.50,75.57 A 0.96,0.96 54.2 0 1 141.28,76.95 Q 134.08,81.85 126.65,78.23 A 0.47,0.47 32.6 0 1 126.49,77.51 Q 127.92,75.79 127.56,73.92 Q 127.20,72.08 125.35,71.60 Q 122.91,70.98 121.36,73.82 Q 120.91,74.66 120.41,73.85 Q 118.33,70.46 114.15,70.50 A 0.65,0.64 0.4 0 1 113.49,69.84 Q 113.61,65.36 110.48,65.82 Q 108.51,66.11 107.55,67.50 Q 106.42,69.13 107.74,71.40 A 0.54,0.54 61.0 0 1 107.54,72.14 Q 103.87,74.25 102.66,77.53 A 0.34,0.33 29.7 0 1 102.13,77.67 Q 99.67,75.70 97.54,78.25 Z"/>
<circle fill="#e6bf69" cx="227.53" cy="44.59" r="5.14"/>
<ellipse fill="#e6bf69" cx="0.00" cy="0.00" transform="translate(59.61,50.45) rotate(14.0)" rx="5.45" ry="5.16"/>
<path fill="#bb9445" d="M 93.00,66.54 Q 93.18,67.07 93.63,67.42 A 1.67,0.81 26.0 0 1 94.21,68.16 L 96.84,77.45 A 1.19,0.37 35.2 0 0 97.26,78.00 L 97.54,78.25 Q 96.27,80.89 98.12,82.34 A 1.28,1.28 -45.1 0 1 98.12,84.35 Q 94.42,87.25 89.27,86.32 A 0.92,0.92 -0.0 0 1 88.52,85.57 Q 87.87,81.70 84.56,81.78 Q 84.20,81.79 83.64,82.08 Q 82.34,82.75 80.44,82.06 Q 77.99,81.18 76.25,82.21 A 0.88,0.85 -25.9 0 1 75.00,81.80 L 68.24,64.48 Q 67.64,62.93 69.05,63.84 Q 74.53,67.36 80.99,68.85 Q 84.27,69.61 87.14,68.90 Q 90.20,68.14 93.00,66.54 Z"/>
<ellipse fill="#81aed2" cx="0.00" cy="0.00" transform="translate(156.69,73.98) rotate(91.7)" rx="4.19" ry="3.96"/>
<circle fill="#81aed2" cx="196.27" cy="78.33" r="3.72"/>
<circle fill="#81aed2" cx="112.38" cy="79.23" r="4.05"/>
<path fill="#e6bf69" d="M 104.75,97.79 L 101.96,86.75 L 103.41,84.86 A 0.60,0.53 34.9 0 1 104.18,84.77 L 112.25,90.07 A 1.84,1.80 38.1 0 0 114.57,89.82 L 122.33,81.55 A 0.73,0.72 -55.6 0 1 123.16,81.39 Q 131.14,85.05 139.02,83.08 Q 143.49,81.97 146.32,78.30 A 0.85,0.85 -48.8 0 1 147.59,78.21 Q 151.46,81.99 156.31,84.75 A 0.82,0.76 41.7 0 0 157.16,84.73 L 166.11,78.30 A 0.58,0.56 -40.3 0 1 166.85,78.35 Q 175.26,86.58 186.81,81.07 A 0.75,0.67 55.3 0 1 187.62,81.27 L 193.63,87.67 A 0.89,0.73 -27.6 0 0 194.49,87.85 Q 199.00,86.45 202.65,83.68 A 0.59,0.58 -35.3 0 1 203.48,83.82 Q 206.01,87.49 209.98,90.22 A 0.71,0.69 26.6 0 1 210.25,91.01 L 208.32,96.59 A 0.97,0.94 17.4 0 1 207.15,97.18 Q 199.98,95.18 193.27,94.34 Q 151.52,89.11 111.50,96.75 Q 106.59,97.69 104.75,97.79 Z"/>
<ellipse fill="#3f6e9c" cx="0.00" cy="0.00" transform="translate(79.58,88.28) rotate(81.8)" rx="3.70" ry="2.80"/>
<path fill="#bb9445" d="M 101.96,86.75 L 104.75,97.79 Q 94.46,99.69 84.20,103.19 A 0.59,0.58 -21.9 0 1 83.48,102.89 L 81.22,98.15 A 0.57,0.55 -29.7 0 1 81.42,97.46 Q 85.01,95.01 86.50,91.36 A 1.53,1.53 -72.5 0 1 88.26,90.44 Q 96.33,92.33 101.96,86.75 Z"/>
<path fill="#e6bf69" d="M 105.75,112.54 L 103.75,102.29 Q 138.39,94.79 173.66,96.86 Q 186.29,97.60 190.83,98.11 Q 199.41,99.09 207.76,101.50 A 1.06,1.00 15.9 0 1 208.50,102.75 L 206.38,110.37 A 0.80,0.75 13.6 0 1 205.46,110.89 Q 196.94,109.19 189.00,108.48 Q 147.08,104.76 105.75,112.54 Z"/>
<path fill="#bb9445" d="M 103.75,102.29 L 105.75,112.54 L 86.23,118.16 A 0.58,0.56 -16.5 0 1 85.52,117.79 L 83.08,109.76 A 0.94,0.92 -19.4 0 1 83.64,108.63 Q 93.57,104.78 103.75,102.29 Z"/>
<path fill="#806c52" d="M 161.36,112.64 A 1.87,1.87 77.3 0 1 162.75,113.52 Q 173.07,130.20 162.23,146.49 A 2.51,2.30 -67.2 0 1 159.82,147.60 L 149.47,145.74 A 0.41,0.39 -71.5 0 1 149.20,145.16 Q 157.13,129.22 149.96,113.45 A 0.38,0.38 72.9 0 1 150.24,112.92 Q 155.99,112.07 161.36,112.64 Z"/>
<path fill="#806c52" d="M 183.02,113.43 Q 184.67,113.52 185.24,115.22 Q 191.28,133.28 179.97,148.12 A 2.86,2.63 -69.5 0 1 177.76,149.24 L 164.89,148.96 Q 164.17,148.95 164.61,148.35 Q 172.46,137.75 170.44,124.31 Q 169.79,119.99 166.76,113.02 A 0.33,0.32 78.9 0 1 167.06,112.56 L 183.02,113.43 Z"/>
<path fill="#806c52" d="M 144.56,112.95 A 1.65,1.64 74.1 0 1 146.01,113.76 Q 155.21,129.47 145.72,144.26 A 0.64,0.62 -62.9 0 1 144.97,144.51 Q 142.45,143.51 140.27,141.98 Q 138.25,140.55 136.72,138.10 Q 130.15,127.58 129.94,114.94 A 0.61,0.60 -5.2 0 1 130.44,114.35 Q 137.68,113.07 144.56,112.95 Z"/>
<path fill="#806c52" d="M 199.47,115.19 Q 201.41,115.44 202.40,117.54 Q 207.77,129.05 202.92,139.68 Q 201.76,142.22 199.45,143.77 Q 192.55,148.39 184.25,148.50 Q 183.75,148.50 184.02,148.07 Q 187.72,142.27 188.44,139.44 Q 191.62,126.81 188.19,114.29 A 0.37,0.34 85.1 0 1 188.55,113.83 L 199.47,115.19 Z"/>
<path fill="#806c52" d="M 126.49,115.40 Q 127.34,117.69 127.75,121.75 Q 128.43,128.47 131.25,135.13 A 0.31,0.31 -9.3 0 1 130.94,135.56 Q 126.17,135.16 122.21,134.16 Q 109.88,131.07 105.66,119.23 A 0.51,0.51 45.0 0 1 105.98,118.59 Q 115.66,115.50 125.81,114.96 A 0.70,0.67 -10.9 0 1 126.49,115.40 Z"/>
<path fill="#806c52" d="M 207.38,116.63 Q 211.23,119.47 213.01,122.79 Q 214.83,126.19 214.99,130.25 Q 215.15,134.27 212.90,138.01 A 1.64,1.52 -54.4 0 1 210.54,138.49 L 208.35,136.61 A 1.01,0.84 -68.3 0 1 208.07,135.75 Q 209.03,128.63 208.50,126.25 Q 207.40,121.31 206.69,117.06 Q 206.51,115.99 207.38,116.63 Z"/>
<path fill="#806c52" d="M 90.69,128.56 Q 88.39,127.01 87.05,124.62 A 0.44,0.43 -25.7 0 1 87.28,124.00 Q 94.28,121.13 101.69,119.66 A 0.61,0.60 -17.0 0 1 102.37,120.02 Q 104.45,125.12 107.88,129.43 A 0.39,0.38 58.7 0 1 107.74,130.02 Q 98.83,134.03 90.69,128.56 Z"/>
<path fill="#806c52" d="M 126.04,138.27 Q 126.77,138.40 126.05,138.60 Q 121.14,139.95 116.87,142.10 Q 110.93,145.10 109.19,145.57 Q 98.14,148.57 87.99,141.97 Q 82.69,138.53 81.31,132.29 Q 80.55,128.90 82.82,126.16 A 0.43,0.42 -44.6 0 1 83.47,126.16 Q 94.24,139.16 109.94,132.33 A 0.97,0.96 49.0 0 1 110.85,132.40 Q 117.89,136.83 126.04,138.27 Z"/>
<path fill="#806c52" d="M 99.09,149.23 Q 105.04,150.00 111.04,148.16 Q 111.89,147.90 111.55,148.72 Q 110.33,151.70 109.51,154.53 Q 108.77,157.09 108.72,160.58 Q 108.57,173.03 107.75,177.75 Q 106.00,187.86 96.64,190.63 Q 95.67,190.92 96.24,190.09 Q 101.66,182.15 99.11,173.54 Q 96.72,165.51 88.69,165.31 Q 84.86,165.22 82.85,163.64 Q 69.52,153.21 73.80,136.15 Q 74.57,133.05 76.40,130.76 Q 77.09,129.91 77.40,130.95 Q 82.31,147.09 99.09,149.23 Z"/>
<path fill="#fce6bc" d="M 204.21,194.00 Q 203.09,193.35 202.43,192.26 A 1.40,1.12 78.0 0 0 201.70,191.66 Q 197.67,190.51 193.68,191.94 Q 192.11,192.50 191.72,194.12 Q 190.64,198.61 195.00,200.00 Q 196.46,200.47 196.50,201.21 L 188.59,206.09 A 0.68,0.68 56.2 0 1 187.68,205.91 Q 183.48,199.92 176.55,197.33 A 0.57,0.57 -70.7 0 1 176.21,196.62 Q 177.32,193.29 174.06,192.70 Q 169.36,191.84 168.29,196.21 A 0.72,0.69 -86.1 0 1 167.70,196.75 Q 157.93,198.02 149.35,202.87 Q 144.46,205.64 141.05,210.10 A 0.87,0.83 -66.3 0 1 140.26,210.43 Q 126.50,208.48 113.31,202.69 Q 105.79,199.39 100.17,193.92 A 0.40,0.40 50.7 0 1 100.23,193.30 Q 104.89,190.38 107.75,185.98 Q 110.33,182.03 111.25,175.90 Q 112.05,170.51 111.75,165.00 Q 111.48,159.97 112.38,155.02 Q 114.15,145.33 123.31,142.31 Q 125.71,141.52 128.29,141.82 Q 130.16,142.03 132.74,143.67 Q 143.68,150.62 156.56,152.95 Q 168.79,155.16 182.50,154.50 Q 190.42,154.12 197.18,151.18 Q 201.06,149.49 203.69,146.92 Q 206.41,144.26 208.49,140.66 A 0.31,0.30 -50.0 0 1 208.98,140.61 Q 211.48,143.52 212.69,147.23 Q 215.48,155.76 215.35,164.75 Q 215.11,181.50 204.21,194.00 ZM 150.99,172.78 L 142.56,172.55 A 0.51,0.47 84.6 0 0 142.09,173.16 Q 143.42,179.96 145.35,185.79 Q 145.60,186.57 146.08,186.87 Q 147.09,187.51 147.56,186.06 Q 149.51,180.13 151.59,173.71 A 0.71,0.67 -79.7 0 0 150.99,172.78 ZM 205.66,172.70 L 197.43,172.54 A 1.27,1.22 82.5 0 0 196.25,174.15 Q 197.77,179.66 199.78,185.99 Q 200.39,187.93 201.60,187.01 Q 202.13,186.61 202.44,185.66 Q 204.35,179.70 206.28,173.65 A 0.73,0.68 -80.2 0 0 205.66,172.70 ZM 131.3073,195.2443 A 7.01,4.45 -1.6 0 0 124.1757,190.9917 A 7.01,4.45 -1.6 0 0 117.2927,195.6357 A 7.01,4.45 -1.6 0 0 124.4243,199.8883 A 7.01,4.45 -1.6 0 0 131.3073,195.2443 Z"/>
<path fill="#806c52" d="M 68.19,162.27 Q 72.24,163.34 74.33,160.50 A 0.36,0.32 38.8 0 1 74.84,160.47 L 80.45,165.48 A 0.48,0.46 -41.7 0 1 80.39,166.21 L 75.41,169.72 A 1.49,1.10 -45.8 0 1 74.08,169.94 Q 69.05,167.64 67.69,162.78 Q 67.50,162.09 68.19,162.27 Z"/>
<ellipse fill="#fce6bc" cx="0.00" cy="0.00" transform="translate(87.51,178.99) rotate(107.0)" rx="9.98" ry="9.71"/>
<path fill="#302422" d="M 150.99,172.78 A 0.71,0.67 -79.7 0 1 151.59,173.71 Q 149.51,180.13 147.56,186.06 Q 147.09,187.51 146.08,186.87 Q 145.60,186.57 145.35,185.79 Q 143.42,179.96 142.09,173.16 A 0.51,0.47 84.6 0 1 142.56,172.55 L 150.99,172.78 Z"/>
<path fill="#302422" d="M 205.66,172.70 A 0.73,0.68 -80.2 0 1 206.28,173.65 Q 204.35,179.70 202.44,185.66 Q 202.13,186.61 201.60,187.01 Q 200.39,187.93 199.78,185.99 Q 197.77,179.66 196.25,174.15 A 1.27,1.22 82.5 0 1 197.43,172.54 L 205.66,172.70 Z"/>
<ellipse fill="#f0a771" cx="0.00" cy="0.00" transform="translate(124.30,195.44) rotate(-1.6)" rx="7.01" ry="4.45"/>
<path fill="#f0a771" d="M 204.21,194.00 Q 201.16,198.46 196.50,201.21 Q 196.46,200.47 195.00,200.00 Q 190.64,198.61 191.72,194.12 Q 192.11,192.50 193.68,191.94 Q 197.67,190.51 201.70,191.66 A 1.40,1.12 78.0 0 1 202.43,192.26 Q 203.09,193.35 204.21,194.00 Z"/>
<path fill="#d8b25f" d="M 233.41,206.55 L 229.48,198.20 A 0.46,0.45 66.3 0 1 229.72,197.58 L 239.27,193.67 A 1.11,1.04 -29.0 0 1 240.53,193.99 Q 246.53,201.85 248.34,210.69 A 0.79,0.67 69.9 0 1 248.05,211.48 L 238.80,217.32 A 0.52,0.49 60.2 0 1 238.09,217.11 L 234.75,210.83 A 0.96,0.94 63.4 0 0 233.50,210.40 Q 211.28,220.80 190.00,231.38 Q 188.37,232.19 186.32,232.59 Q 184.39,232.96 182.50,233.49 Q 181.61,233.73 181.43,233.42 A 0.67,0.40 -23.8 0 1 181.91,232.75 Q 190.54,229.23 198.89,225.13 Q 208.73,220.30 215.92,216.89 Q 224.19,212.97 232.81,208.29 A 1.37,1.32 -27.1 0 0 233.41,206.55 ZM 240.14,204.06 Q 243.11,200.38 239.58,197.61 A 1.32,1.20 -25.7 0 0 238.68,197.34 Q 235.70,197.54 233.00,198.84 A 0.54,0.52 -25.3 0 0 232.74,199.53 L 239.24,213.59 A 0.90,0.87 -29.6 0 0 240.55,213.93 L 245.70,210.43 A 1.55,1.29 65.4 0 0 246.15,208.77 L 244.88,204.76 A 1.51,1.45 -14.9 0 0 243.13,203.79 L 240.31,204.41 Q 239.75,204.53 240.14,204.06 Z"/>
<path fill="#402619" d="M 240.31,204.41 L 243.13,203.79 A 1.51,1.45 -14.9 0 1 244.88,204.76 L 246.15,208.77 A 1.55,1.29 65.4 0 1 245.70,210.43 L 240.55,213.93 A 0.90,0.87 -29.6 0 1 239.24,213.59 L 232.74,199.53 A 0.54,0.52 -25.3 0 1 233.00,198.84 Q 235.70,197.54 238.68,197.34 A 1.32,1.20 -25.7 0 1 239.58,197.61 Q 243.11,200.38 240.14,204.06 Q 239.75,204.53 240.31,204.41 ZM 236.6064,202.2037 A 1.25,0.69 133.7 0 0 237.9688,201.7767 A 1.25,0.69 133.7 0 0 238.3336,200.3963 A 1.25,0.69 133.7 0 0 236.9712,200.8233 A 1.25,0.69 133.7 0 0 236.6064,202.2037 ZM 242.2221,207.9773 A 1.36,0.79 -32.1 0 0 240.6502,208.0308 A 1.36,0.79 -32.1 0 0 239.9179,209.4227 A 1.36,0.79 -32.1 0 0 241.4898,209.3692 A 1.36,0.79 -32.1 0 0 242.2221,207.9773 Z"/>
<ellipse fill="#d8b25f" cx="0.00" cy="0.00" transform="translate(237.47,201.30) rotate(133.7)" rx="1.25" ry="0.69"/>
<path fill="#806c52" d="M 180.32,205.44 Q 183.78,208.54 185.36,213.07 A 0.70,0.70 -9.3 0 1 184.69,214.00 Q 176.70,213.95 171.11,209.48 A 1.30,1.30 -41.2 0 0 169.62,209.38 Q 158.38,216.12 145.65,215.21 A 0.58,0.58 -71.3 0 1 145.21,214.31 Q 146.32,212.61 147.86,211.37 Q 157.55,203.56 171.05,200.73 Q 172.69,200.38 174.20,201.13 Q 177.14,202.59 180.32,205.44 Z"/>
<path fill="#3f6e9c" d="M 111.88,207.89 A 0.74,0.67 29.7 0 1 112.23,208.97 Q 109.17,212.70 107.32,216.89 Q 106.05,219.76 104.76,225.77 Q 101.11,242.81 98.63,260.06 A 0.57,0.55 -84.9 0 1 98.06,260.55 Q 91.42,260.41 84.69,258.67 Q 82.93,258.21 84.31,257.02 Q 86.66,254.98 88.35,252.67 Q 89.69,250.85 91.12,247.48 Q 95.34,237.52 98.14,227.04 Q 101.01,216.31 106.24,206.70 A 1.23,1.11 24.8 0 1 107.73,206.24 L 111.88,207.89 Z"/>
<ellipse fill="#d8b25f" cx="0.00" cy="0.00" transform="translate(241.07,208.70) rotate(-32.1)" rx="1.36" ry="0.79"/>
<path fill="#81aed2" d="M 140.77,226.97 A 2.58,2.56 7.6 0 1 142.25,228.90 Q 143.04,233.91 140.56,235.13 Q 139.82,235.50 135.40,235.65 Q 123.36,236.05 113.56,231.19 Q 111.74,230.28 110.58,228.16 Q 109.67,226.49 109.74,224.17 Q 109.97,216.43 114.55,210.40 A 1.16,1.14 28.5 0 1 115.86,210.02 Q 127.62,214.21 138.48,216.09 A 1.45,1.45 86.8 0 1 139.64,217.13 Q 140.76,220.98 143.84,221.59 Q 144.33,221.68 149.29,221.59 Q 160.24,221.38 170.05,216.22 A 1.87,1.87 -42.0 0 1 171.95,216.32 Q 178.11,220.42 183.16,226.33 A 0.47,0.47 51.7 0 1 183.08,227.02 Q 178.07,230.59 172.15,231.94 A 1.43,1.42 -23.7 0 1 170.65,231.36 Q 164.69,222.82 154.49,223.46 A 2.02,1.64 51.0 0 1 153.55,223.26 Q 149.69,221.32 145.86,223.74 A 1.56,1.54 -52.9 0 1 144.63,223.92 Q 137.36,221.94 129.44,221.14 A 1.28,1.26 -6.9 0 1 128.37,220.31 Q 126.51,215.32 121.31,216.21 Q 119.10,216.59 121.06,217.76 L 124.34,219.72 Q 124.92,220.07 124.33,220.26 Q 123.98,220.38 123.55,220.21 Q 120.57,219.06 117.68,220.44 Q 115.21,221.62 117.86,222.30 Q 126.12,224.40 135.51,225.65 Q 138.80,226.09 140.77,226.97 Z"/>
<path fill="#fce6bc" d="M 151.15,227.05 Q 156.20,230.21 154.40,235.33 Q 153.49,237.92 150.80,237.40 Q 146.03,236.49 146.21,233.26 Q 146.33,231.03 147.03,228.92 Q 148.24,225.24 151.15,227.05 Z"/>
<path fill="#e7b554" d="M 151.31,241.19 Q 156.60,241.26 157.56,236.06 Q 158.11,233.09 158.97,231.66 A 1.21,0.95 -42.3 0 0 159.12,230.77 L 158.22,227.80 Q 158.07,227.31 158.54,227.42 Q 163.37,228.56 166.56,232.44 Q 170.09,236.74 169.51,241.64 Q 168.97,246.30 165.31,249.46 Q 162.72,251.70 159.26,252.41 Q 156.01,253.09 152.88,251.73 Q 146.23,248.84 144.66,241.02 Q 143.99,237.65 146.56,239.94 Q 147.91,241.14 151.31,241.19 Z"/>
<rect fill="#81aed2" x="-1.17" y="-12.14" transform="translate(107.97,245.25) rotate(8.9)" width="2.34" height="24.28" rx="0.70"/>
<path fill="#d8b25f" d="M 176.92,238.87 Q 175.38,240.02 173.49,240.41 A 0.66,0.66 -19.3 0 1 172.77,240.05 Q 170.60,235.55 175.90,235.17 A 0.77,0.77 74.7 0 1 176.65,235.60 Q 177.29,236.91 177.33,238.07 A 1.01,0.94 -20.1 0 1 176.92,238.87 Z"/>
<path fill="#fce6bc" d="M 187.40,236.73 A 4.84,4.77 -77.8 0 1 188.76,238.87 Q 189.53,241.35 188.75,245.02 A 1.17,1.17 4.5 0 1 187.67,245.94 Q 185.89,246.03 184.83,245.57 Q 183.71,245.09 183.47,243.41 Q 183.03,240.34 184.41,237.48 Q 184.44,237.41 184.82,236.34 Q 185.35,234.85 187.40,236.73 Z"/>
<path fill="#81aed2" d="M 158.00,256.76 Q 164.87,256.53 169.94,250.69 Q 170.77,249.72 172.46,246.65 Q 173.45,244.85 174.91,244.21 Q 176.58,243.48 178.44,243.34 A 0.69,0.50 75.6 0 1 179.01,243.81 L 181.01,249.27 A 1.03,0.86 65.1 0 1 180.70,250.43 Q 166.19,259.36 149.61,260.79 Q 141.97,261.44 130.88,260.88 Q 121.49,260.41 112.23,258.50 A 0.60,0.60 -81.3 0 1 111.76,257.86 L 113.95,237.46 A 0.84,0.83 13.2 0 1 115.08,236.77 Q 127.31,241.37 140.39,239.66 A 0.74,0.74 85.1 0 1 141.23,240.37 Q 141.57,248.25 146.50,252.67 Q 151.30,256.99 158.00,256.76 Z"/>
<path fill="#fce6bc" d="M 124.23,273.76 Q 121.44,270.33 121.26,265.25 A 0.45,0.44 -87.9 0 1 121.75,264.78 L 129.20,265.72 A 0.45,0.43 -76.8 0 1 129.55,266.30 L 127.24,273.27 Q 126.26,276.24 124.23,273.76 Z"/>
</svg>
